<svg width="386" height="367" viewBox="0 0 386 367" fill="none" xmlns="http://www.w3.org/2000/svg">
<path d="M231.866 158.875L249.199 120.867L251.943 113.456C255.165 104.756 257.16 95.6497 257.871 86.3995L258.319 80.5779V75.0828C258.319 72.9602 256.199 71.491 254.212 72.2364V72.2364C253.025 72.6814 252.239 73.8157 252.239 75.0828V85.8428C252.239 87.3946 252.045 88.9402 251.66 90.4436L245.837 113.213C244.534 118.308 242.831 123.292 240.744 128.119L231.719 148.993L222.114 164.816C219.948 168.385 216.818 171.269 213.084 173.136L209.7 174.828C207.711 175.823 205.457 176.162 203.263 175.796V175.796C199.689 175.201 196.673 172.808 195.279 169.463L194.797 168.306C194.087 166.6 193.754 164.761 193.823 162.914L194.479 145.192V124.668L196.44 109.952C197.158 104.568 198.313 99.2516 199.895 94.0552L202.839 84.3788L208.052 67.6782C209.637 62.6009 211.843 57.7387 214.619 53.2018V53.2018M231.866 158.875L229.715 163.592C229.532 163.994 229.303 164.373 229.034 164.723L223.778 171.558C222.986 172.588 223.72 174.079 225.02 174.079V174.079C225.418 174.079 225.801 173.927 226.091 173.655L237.799 162.676L239.144 161.156M231.866 158.875L242.359 145.192L250.828 130.926C254.795 124.243 257.97 117.12 260.288 109.702L264.399 96.5415L267.439 79.0576L268.409 70.3269C268.758 67.1874 270.477 64.3627 273.105 62.6102V62.6102C274.862 61.4387 276.926 60.8135 279.038 60.8135H280.75C283.486 60.8135 286.178 61.5001 288.58 62.8104L290.652 63.9411C292.385 64.8866 293.905 66.1788 295.117 67.7373L296.547 69.5765C297.866 71.2726 298.491 73.4064 298.297 75.5461L298.101 77.6957C297.94 79.4714 296.818 81.0157 295.179 81.7182V81.7182M268.959 72.9763L270.971 75.6586C272.647 77.8939 274.82 79.7082 277.319 80.9579V80.9579C279.818 82.2077 282.574 82.8585 285.368 82.8585H289.625C291.535 82.8585 293.424 82.4705 295.179 81.7182V81.7182M198.279 181.68L209.969 179.273C219.353 177.341 228.412 174.069 236.866 169.559L246.919 164.197L276.559 142.912L295.133 128.734C301.975 123.511 308.115 117.427 313.399 110.631L317.422 105.457C323.571 97.5495 328.264 88.6101 331.28 79.0576V79.0576L331.55 77.5701C332.333 73.2647 330.954 68.8493 327.86 65.7546V65.7546M198.279 181.68L218.039 180.92H235.519L268.959 178.64L308.48 175.599L322.607 173.076C327.369 172.225 332.063 171.03 336.653 169.5L348 165.717M198.279 181.68L221.859 178.873C227.409 178.212 232.894 177.087 238.257 175.509L243.119 174.079V174.079C249.166 171.559 254.809 168.161 259.865 163.996L265.159 159.636L282.639 145.192V145.192C288.103 139.728 294.992 135.909 302.521 134.171L303.597 133.923C308.341 132.828 313.231 132.509 318.077 132.978L326.894 133.831C331.821 134.308 336.659 135.46 341.273 137.255V137.255C345.738 138.991 349.952 141.314 353.804 144.162L358.008 147.27C362.977 150.944 367.568 155.102 371.713 159.685L374.419 162.676M198.279 181.68H193.968C190.322 181.68 186.989 179.62 185.359 176.359V176.359M35.6378 288.864L16.4419 252.384C14.0427 247.825 11.9994 243.087 10.3304 238.212L3.9878 219.689M35.6378 288.864L83.0275 333.594C87.3708 337.693 92.4321 340.957 97.9582 343.223V343.223M35.6378 288.864L54.3115 300.538C62.0921 305.402 70.5052 309.172 79.3139 311.742L102.518 318.511L144.318 326.113L205.119 329.153L235.121 327.01C243.46 326.414 251.692 324.775 259.623 322.13L284.159 313.95L309.699 301.61C316.671 298.241 323.227 294.073 329.236 289.19V289.19C335.611 284.008 341.323 278.06 346.241 271.48L348.588 268.34M327.86 65.7546L322.92 60.8135L307.453 45.8592C302.577 41.1444 297.233 36.938 291.505 33.3049L284.539 28.8864M327.86 65.7546L338.706 78.9704C345.367 87.0864 350.708 96.2007 354.533 105.978L362.44 126.188L367.76 145.538C369.78 152.885 370.954 160.439 371.258 168.053L371.789 181.329C372.141 190.14 371.327 198.959 369.366 207.556L364.707 227.989C363.2 234.601 361.023 241.043 358.212 247.214L348.588 268.34M295.179 81.7182L287.959 96.5415L273.519 118.586L255.279 142.912L239.144 161.156M239.144 161.156L253.759 147.473L268.959 129.989L281.119 113.265L286.938 103.416C289.641 98.8403 291.976 94.0563 293.918 89.1096L295.179 85.8991M295.179 85.8991L296.658 84.3555C301.41 79.3966 307.419 75.8224 314.045 74.015L317.603 73.0445C319.611 72.4967 321.701 72.3126 323.775 72.5012V72.5012C327.183 72.811 330.424 74.1162 333.096 76.2542L333.956 76.9418C335.707 78.3434 337.224 80.0152 338.449 81.8944L343.429 89.5321C346.468 94.1916 348.998 99.1631 350.978 104.361L354.08 112.505L358.196 121.974C360.487 127.245 361.523 132.976 361.221 138.716V138.716C361.021 142.504 360.237 146.252 358.906 149.805V149.805C357.228 154.279 354.7 158.406 351.472 161.929L348 165.717M295.179 85.8991L293.279 100.342L292.87 102.935C291.635 110.758 291.956 118.749 293.814 126.448V126.448C295.471 133.316 298.324 139.839 302.243 145.717L302.399 145.953L307.721 153.21C309.736 155.959 312.141 158.399 314.86 160.454V160.454C323.103 166.683 333.674 168.961 343.752 166.679L348 165.717M348 165.717L343.32 170.397C339.354 174.365 335.06 177.992 330.485 181.239L320.073 188.63C315.897 191.594 311.499 194.233 306.919 196.524L295.833 202.068C290.594 204.688 285.135 206.843 279.519 208.507L267.439 212.087L221.839 218.929L202.079 221.324M3.9878 219.689L2.14067 201.361C1.38267 193.839 1.47995 186.256 2.43066 178.757L6.97478 142.912M3.9878 219.689L6.80715 223.348C12.3221 230.504 18.7814 236.881 26.0089 242.302L26.8388 242.925C31.1776 246.18 35.774 249.076 40.5826 251.585L57.4175 260.371C64.6573 264.149 72.3325 267.026 80.2719 268.938L105.106 274.918M6.97478 142.912V142.912C7.84204 139.876 8.94478 136.912 10.273 134.047L28.8469 93.9888C31.3409 88.6099 34.3805 83.5012 37.9178 78.7431V78.7431M6.97478 142.912V142.912C7.83435 145.921 9.29773 148.724 11.2757 151.149L21.7524 163.994C28.4337 172.186 36.3717 179.266 45.2707 184.972L61.478 195.364L70.6539 199.952C77.6855 203.469 85.1073 206.144 92.7654 207.922L123.798 215.128L139.132 218.195C144.102 219.19 149.142 219.805 154.206 220.035L193.7 221.83C195.736 221.923 197.776 221.846 199.799 221.601V221.601M37.9178 78.7431L46.5995 67.0652C51.9344 59.8892 58.2076 53.4611 65.2514 47.9529L86.6342 31.2319M37.9178 78.7431L38.3283 80.2767C41.0769 90.5465 45.4558 100.309 51.2981 109.191V109.191C58.0267 119.421 66.5882 128.319 76.551 135.437L76.8978 135.684C80.7996 138.472 84.8969 140.975 89.1579 143.175L106.318 152.034L138.238 165.717L161.236 173.879C161.596 174.007 161.991 173.982 162.332 173.812V173.812C163.365 173.295 163.365 171.821 162.332 171.305L158.759 169.518L150.084 165.18C146.757 163.516 143.258 162.221 139.649 161.319V161.319C133.198 159.705 127.124 156.846 121.771 152.9L115.438 148.233L105.134 141.362C101.37 138.852 97.8162 136.039 94.5087 132.951L91.3177 129.973C89.164 127.962 86.8044 126.184 84.2781 124.668V124.668M84.2781 124.668L83.3595 122.371C82.9712 121.4 82.9396 120.322 83.2702 119.33L83.703 118.032C84.0465 117.001 85.0108 116.306 86.0971 116.306H87.1943C88.377 116.306 89.2121 117.464 88.8382 118.586V118.586M84.2781 124.668L86.3786 122.567C87.4963 121.449 88.3384 120.086 88.8382 118.586V118.586M88.8382 118.586V118.586C92.8763 118.586 96.8991 119.082 100.817 120.061L107.078 121.627L107.931 121.926C117.439 125.254 126.38 130.025 134.438 136.07V136.07L145.079 145.953L162.559 161.916L172.907 169.31C173.1 169.448 173.313 169.556 173.538 169.631V169.631C175.342 170.232 177.089 168.581 176.588 166.746L175.593 163.097C175.517 162.817 175.413 162.546 175.284 162.286L170.159 152.034L167.277 147.377C162.632 139.872 157.014 133.015 150.569 126.985L136.718 114.025L124.558 101.863M124.558 101.863L119.998 93.5008M124.558 101.863L124.914 101.744C127.627 100.84 129.927 98.9942 131.398 96.5415V96.5415V96.5415C132.909 94.5276 134.084 92.2833 134.88 89.8952L135.198 88.9398M119.998 93.5008L113.158 88.9398M119.998 93.5008L122.992 90.5069C124.032 89.4661 125.196 88.5569 126.458 87.7996V87.7996M113.158 88.9398L112.533 86.4375C111.978 84.217 112.628 81.8681 114.247 80.2495L115.623 78.8732C116.447 78.0487 117.654 77.736 118.775 78.0564V78.0564C120.634 78.5876 121.605 80.6298 120.843 82.407L120.471 83.2745C120.163 83.9951 119.651 84.6104 118.999 85.0453L113.158 88.9398ZM122.278 80.5779L126.792 85.0922C127.588 85.8883 127.424 87.2203 126.458 87.7996V87.7996M126.458 87.7996V87.7996C129.574 87.0804 132.847 87.845 135.322 89.8702L139.758 93.5008L140.677 94.3541C147.13 100.347 152.763 107.166 157.429 114.634L157.858 115.321C160.481 119.519 162.79 123.907 164.763 128.447L169.399 139.111L177.759 156.595L182.319 169.518L185.359 176.359M185.359 176.359L187.817 180.457C189.201 182.764 190.058 185.349 190.325 188.027V188.027C190.559 190.362 191.241 192.63 192.334 194.707L198.279 206.006V206.006C200.803 211.56 203.984 216.793 207.753 221.591L210.439 225.01L217.279 233.372M185.359 176.359L189.911 181.368C191.908 183.565 193.298 186.246 193.941 189.144V189.144C194.298 190.748 194.884 192.292 195.682 193.729L202.079 205.246L204.718 209.206C207.008 212.642 209.57 215.888 212.38 218.914V218.914C216.142 222.966 219.457 227.411 222.27 232.172L227.919 241.734L236.279 253.136L246.919 268.34L257.559 281.263L259.555 283.384C266.248 290.497 274.434 296.038 283.523 299.61V299.61C288.489 301.561 293.673 302.904 298.962 303.609L310.56 305.156C312.711 305.443 314.89 305.46 317.045 305.206L322.853 304.523C325.346 304.229 327.65 303.044 329.338 301.187V301.187C332.32 297.906 332.896 293.096 330.774 289.204L330.454 288.618C329.993 287.772 329.641 286.871 329.408 285.937L328.353 281.717C327.27 277.384 326.833 272.914 327.056 268.453L327.48 259.978V246.73C327.48 241.885 327.832 237.047 328.533 232.253L329.472 225.835C331.171 214.226 334.898 203.008 340.485 192.691L341.92 190.042L353.172 174.642C355.276 171.762 357.935 169.332 360.994 167.497V167.497C362.963 166.315 365.076 165.392 367.282 164.751L374.419 162.676M112.398 182.441L111.396 182.691C109.045 183.279 109.236 186.681 111.638 187.002V187.002H115.438M112.398 182.441L121.518 180.92L143.558 176.359L146.734 175.565C150.663 174.583 154.74 174.337 158.759 174.839V174.839L163.712 175.547C163.955 175.581 164.193 175.65 164.417 175.75V175.75C166.669 176.75 166.473 180.008 164.119 180.733L161.492 181.541C161.191 181.634 160.88 181.687 160.565 181.701L150.232 182.15C145.805 182.343 141.426 183.152 137.221 184.554V184.554C132.358 186.175 127.265 187.002 122.138 187.002H115.438M112.398 182.441H114.236C115.32 182.441 116.198 183.319 116.198 184.403V184.403C116.198 184.614 116.164 184.823 116.098 185.023L115.438 187.002M158.759 312.43L164.839 297.226L177.759 250.856L179.025 245.535M158.759 312.43L160.318 316.719C161.247 319.273 163.357 321.217 165.979 321.932V321.932M158.759 312.43L162.92 311.389C164.194 311.07 165.503 310.909 166.816 310.909H169.93C171.07 310.909 172.185 311.247 173.133 311.879V311.879C175.023 313.139 175.999 315.391 175.625 317.632L175.479 318.511M175.479 318.511L173.448 320.252C171.391 322.016 168.593 322.645 165.979 321.932V321.932M175.479 318.511L175.98 316.17C177.164 310.646 178.813 305.232 180.911 299.986L180.98 299.814C182.883 295.055 184.417 290.157 185.57 285.163L188.399 272.901L190.679 250.856L191.231 245.61C191.873 239.506 191.688 233.344 190.679 227.291V227.291M190.679 227.291L188.019 228.431M190.679 227.291L192.199 226.53M179.025 245.535L184.335 223.228C185.015 220.371 185.359 217.446 185.359 214.51V212.478C185.359 208.217 184.408 204.01 182.577 200.163V200.163C179.479 193.656 174.004 188.54 167.313 185.863V185.863C161.768 183.645 155.64 183.189 149.833 184.583L148.45 184.915C142.756 186.282 137.523 189.125 133.279 193.159L131.03 195.295C126.758 199.355 123.327 204.217 120.933 209.603L118.123 215.927C116.336 219.948 114.886 224.111 113.786 228.372L109.358 245.535L106.318 269.1L105.106 274.918M179.025 245.535L184.291 232.261C184.975 230.539 186.316 229.161 188.019 228.431V228.431M165.979 321.932L171.679 302.547L179.025 278.222L182.319 262.258L183.889 255.584C184.867 251.426 185.493 247.193 185.759 242.93V242.93C185.999 239.097 186.528 235.289 187.344 231.537L188.019 228.431M198.279 227.291L204.177 248.744C205.815 254.7 206.897 260.795 207.41 266.951L208.159 275.941V297.226L208.414 301.565C208.735 307.025 206.706 312.362 202.839 316.23V316.23M198.279 227.291L201.752 233.607C204.994 239.503 207.406 245.82 208.919 252.376V252.376L213.43 265.913C214.981 270.565 216.187 275.325 217.039 280.155L218.039 285.824L218.799 297.226V310.149M198.279 227.291L197.958 227.05C196.291 225.8 194.062 225.599 192.199 226.53V226.53M202.839 316.23V316.23C197.449 313.78 193.128 309.458 190.679 304.068V304.068M202.839 316.23H206.639H208.649C212.918 316.23 216.742 313.528 218.2 309.516V309.516C218.594 308.431 218.799 307.278 218.799 306.124V305.463C218.799 302.679 217.455 300.067 215.19 298.448V298.448C214.066 297.645 212.765 297.124 211.398 296.929L203.464 295.795C203.048 295.736 202.628 295.706 202.208 295.706V295.706C199.705 295.706 197.319 296.762 195.636 298.613L190.679 304.068M190.679 304.068L193.719 289.625L195.239 271.38V254.657L193.719 237.173L192.199 226.53M248.439 281.263L249.584 285.078C250.309 287.496 250.01 290.105 248.758 292.297L248.537 292.684C247.973 293.672 247.187 294.514 246.241 295.145V295.145C244.281 296.452 241.812 296.736 239.606 295.909L235.998 294.555C232.811 293.36 230.334 290.789 229.258 287.56L228.919 286.545C228.76 286.067 228.679 285.567 228.679 285.063V285.063M248.439 281.263L246.076 278.899C244.183 277.005 241.615 275.941 238.937 275.941V275.941C235.821 275.941 232.88 277.38 230.968 279.84L230.079 280.983C229.172 282.15 228.679 283.585 228.679 285.063V285.063M248.439 281.263V281.263C247.43 277.226 245.896 273.339 243.875 269.701L243.119 268.34L237.799 259.218L227.159 245.535L217.279 233.372M244.639 295.706L241.599 288.864L237.799 282.023L230.959 266.059L224.118 254.086C220.582 247.896 216.394 242.102 211.626 236.803L209.948 234.938C206.733 231.365 203.779 227.564 201.111 223.566L200.045 221.969M199.799 221.601L200.045 221.969M199.799 221.601L202.079 221.324M200.045 221.969V221.969C200.887 226.238 202.53 230.309 204.889 233.965L208.919 240.214L217.279 255.417L224.879 272.901L228.679 285.063M202.079 221.324L217.279 233.372M374.419 162.676V162.676C378.032 166.671 380.623 171.482 381.969 176.698L383.155 181.297C385.01 188.487 384.699 196.065 382.26 203.078V203.078C380.714 207.524 378.348 211.642 375.284 215.216L373.706 217.058C371.772 219.314 369.643 221.396 367.344 223.278L354.08 234.132L339.603 244.087C333.064 248.584 326.013 252.286 318.599 255.115L281.564 269.25C275.204 271.678 268.613 273.449 261.894 274.537L239.144 278.222L190.679 282.783H160.279L109.358 275.941L105.106 274.918M105.106 274.918L103.57 282.296C102.873 285.642 101.674 288.864 100.015 291.852L98.2498 295.029C96.0795 298.936 92.7792 302.097 88.7815 304.096V304.096C83.9223 306.526 78.3402 307.088 73.0941 305.675L70.7351 305.04C64.7279 303.423 59.4119 299.89 55.593 294.979L50.8379 288.864L47.2977 283.961C43.0956 278.142 39.8033 271.717 37.5338 264.907V264.907C36.2721 261.121 35.3328 257.235 34.7261 253.291L34.4785 251.681C33.2306 243.567 33.0985 235.321 34.0861 227.172L35.0577 219.154C35.4435 215.971 36.1486 212.835 37.1623 209.793L38.122 206.914C39.9836 201.327 43.1978 196.288 47.4782 192.245L50.2662 189.611C53.1273 186.908 56.6665 185.03 60.5086 184.176V184.176C65.5506 183.056 70.8266 183.761 75.397 186.167L77.8605 187.464C81.0971 189.168 83.9873 191.461 86.3826 194.225L87.3769 195.373C90.845 199.375 93.4249 204.068 94.9464 209.14L97.4231 217.398C98.7903 221.956 99.7355 226.631 100.247 231.362L102.518 252.376L105.106 274.918ZM97.9582 343.223L124.788 354.221C132.208 357.263 139.967 359.401 147.898 360.589L175.423 364.714C185.534 366.229 195.817 366.185 205.914 364.583L226.76 361.275C237.096 359.635 247.109 356.383 256.436 351.638L281.177 339.05C291.2 333.951 300.291 327.197 308.068 319.074L329.55 296.633C337.316 288.52 343.66 279.158 348.316 268.938L348.588 268.34M97.9582 343.223L91.1182 334.474V334.474C84.584 325.425 79.7185 315.282 76.7509 304.522L75.1581 298.747L70.041 278.274C68.8938 273.684 68.0738 269.019 67.587 264.313L66.038 249.336V221.969L67.6789 191.334C68.1035 183.406 69.4706 175.557 71.7514 167.953L72.8781 164.197L81.6943 141.269C83.4047 136.821 85.8498 132.692 88.9277 129.054V129.054C91.3902 126.143 93.4505 122.915 95.0533 119.455L98.9561 111.031C104.321 99.4515 111.854 89.0055 121.146 80.2575L126.458 75.2568L157.239 48.9669M264.399 17.3186V17.3186C267.431 18.4392 270.335 19.8771 273.065 21.6082L284.539 28.8864M264.399 17.3186L252.239 17.4839L237.799 19.0042L229.515 20.188C220.888 21.4206 212.459 23.7757 204.443 27.1932L190.679 33.0611M264.399 17.3186L242.225 9.12203M172.439 9.12203V9.12203C173.877 5.76568 176.788 3.26428 180.322 2.34771L186.119 0.844633M172.439 9.12203L176.892 10.1119C178.467 10.462 180.097 10.4936 181.684 10.2049L184.294 9.73027C186.4 9.34738 188.202 7.99549 189.159 6.08135V6.08135M172.439 9.12203V9.12203C172.439 17.7 173.568 26.2405 175.798 34.5236L177.759 41.8093L179.321 50.7917C180.304 56.4489 180.799 62.1802 180.799 67.9223V80.5779V109.464M189.159 6.08135L186.119 0.844633M189.159 6.08135V6.08135C191.169 13.5117 191.82 21.2442 191.08 28.906L190.679 33.0611M186.119 0.844633V0.844633C193.186 0.283594 200.296 0.577579 207.293 1.72021L225.344 4.66794C231.101 5.60804 236.754 7.0996 242.225 9.12203V9.12203M186.119 0.844633L158.067 3.07143C151.954 3.55668 145.899 4.60317 139.978 6.19767L129.921 8.90597C129.387 9.0498 128.864 9.23432 128.358 9.45792V9.45792M186.378 158.875L186.131 161.823C186.017 163.178 184.062 163.258 183.839 161.916V161.916L182.118 139.111M186.378 158.875V142.912V124.668L190.386 93.5008M186.378 158.875V158.875C187.194 160.215 189.253 159.664 189.292 158.096L189.919 133.03L196.704 92.3091C197.752 86.0231 199.397 79.8515 201.619 73.8788L206.38 61.0806C209.077 53.8321 212.605 46.9209 216.895 40.4856L218.039 38.7686M212.719 34.9678L205.119 50.1712L197.519 71.4559L191.431 89.0475C190.931 90.4922 190.581 91.9845 190.386 93.5008V93.5008M212.719 34.9678V34.9678C214.906 33.6553 217.723 34.1326 219.356 36.0922L220.319 37.2483M212.719 34.9678L218.039 38.7686M220.319 37.2483L218.039 38.7686M220.319 37.2483V37.2483C220.319 40.2692 219.832 43.2704 218.877 46.1364L218.799 46.3703M218.799 46.3703L219.589 39.2559C220.07 34.932 219.573 30.5555 218.136 26.4491V26.4491C216.098 20.6239 212.258 15.5989 207.173 12.1021L207.021 11.9976C204.253 10.0944 201.182 8.67578 197.938 7.80237L192.026 6.2102C186.197 4.64063 180.031 4.86796 174.333 6.86241V6.86241C170.085 8.3497 166.226 10.775 163.043 13.9583L160.518 16.4843C155.012 21.9917 151.919 29.4606 151.919 37.2483V37.2483M218.799 46.3703L214.619 53.2018M180.799 109.464V121.627L182.118 139.111M180.799 109.464L184.599 86.6593L185.024 83.3862C185.924 76.4663 187.565 69.6632 189.919 63.0941V63.0941M189.919 63.0941L192.199 57.7729M189.919 63.0941L194.479 65.7546M192.199 57.7729L195.041 59.1815C196.093 59.7032 196.759 60.7763 196.759 61.9509V61.9509C196.759 62.6886 196.495 63.402 196.015 63.9621L194.479 65.7546M192.199 57.7729V54.7322L190.679 41.8093V33.0611M194.479 65.7546L192.199 79.0576L190.386 93.5008M170.159 29.6466V31.3652C170.159 33.7451 170.613 36.1031 171.496 38.3128L172.517 40.8642C173.913 44.3563 176.776 47.0564 180.344 48.2459V48.2459C183.998 49.4639 188.005 48.9705 191.254 46.9028L191.52 46.733C193.46 45.4983 195.051 43.7869 196.141 41.7622L197.566 39.1146C198.987 36.4764 199.213 33.3575 198.19 30.5417V30.5417C197.271 28.0145 195.418 25.9356 193.013 24.7328L190.59 23.5208C188.649 22.5502 186.509 22.0449 184.339 22.0449V22.0449C181.069 22.0449 177.903 23.1914 175.392 25.2849L170.159 29.6466ZM170.159 29.6466L167.879 20.5246L164.839 9.12203M190.679 33.0611L170.159 41.8093L163.908 44.6946C161.5 45.8065 159.256 47.244 157.239 48.9669V48.9669M142.038 15.2034L143.802 11.6758C145.564 8.15149 148.873 5.65475 152.746 4.92848V4.92848C156.542 4.2165 160.455 5.28593 163.362 7.82978L164.839 9.12203M142.038 15.2034L145.179 16.9486C147.556 18.2694 150.346 18.6372 152.984 17.9776V17.9776C154.289 17.6514 155.52 17.0826 156.614 16.3009L158.664 14.8368C159.738 14.0689 160.748 13.2136 161.682 12.2795L164.839 9.12203M142.038 15.2034L143.185 17.1146C146.964 23.4149 149.901 30.1839 151.919 37.2483V37.2483M151.919 37.2483L157.239 48.9669M157.239 48.9669L164.839 70.6957L170.159 88.1796L179.279 124.668L182.118 139.111M157.239 48.9669L160.558 52.8135C163.382 56.0846 166.849 58.7381 170.744 60.6082V60.6082C179.051 64.5965 188.691 64.7364 197.11 60.9909L214.619 53.2018M128.358 9.45792L107.816 18.5368C100.26 21.8762 93.1418 26.143 86.6342 31.2319V31.2319M128.358 9.45792L126.749 13.1923C123.8 20.0355 122.278 27.4088 122.278 34.8605V34.8605C122.278 39.4745 122.862 44.07 124.014 48.5377L124.703 51.2049C127.103 60.5097 131.78 69.1225 138.258 76.2197V76.2197C142.261 80.6046 146.931 84.3755 152.065 87.3573V87.3573C162.36 93.3366 174.239 96.0222 186.105 95.0533L193.635 94.4385C201.216 93.8195 208.6 91.7073 215.361 88.2235V88.2235C225.054 83.2289 233.133 75.5891 238.661 66.1898L240.75 62.6367C243.824 57.4102 245.927 51.6706 246.957 45.6954L247.28 43.8235C248.538 36.5231 247.89 29.0215 245.399 22.0449V22.0449L242.225 9.12203M86.6342 31.2319V44.85L88.1497 61.1742C89.094 71.3468 93.0367 81.0101 99.4782 88.9398V88.9398L105.245 95.7108C112.942 104.748 122.692 111.81 133.678 116.306V116.306L160.279 126.188V126.188C170.326 128.701 180.75 129.341 191.03 128.079L205.401 126.313C214.281 125.223 222.943 122.785 231.089 119.085L231.491 118.902C238.613 115.666 245.253 111.462 251.223 106.408V106.408C258.932 99.8828 265.414 92.0339 270.365 83.2307L271.418 81.3577C274.836 75.2811 277.587 68.8531 279.624 62.1856L280.254 60.1214C283.344 50.006 284.791 39.4603 284.539 28.8864V28.8864" stroke="url(#paint0_angular_142_135)" stroke-width="2"/>
<path d="M231.866 158.875L249.199 120.867L251.943 113.456C255.165 104.756 257.16 95.6497 257.871 86.3995L258.319 80.5779V75.0828C258.319 72.9602 256.199 71.491 254.212 72.2364V72.2364C253.025 72.6814 252.239 73.8157 252.239 75.0828V85.8428C252.239 87.3946 252.045 88.9402 251.66 90.4436L245.837 113.213C244.534 118.308 242.831 123.292 240.744 128.119L231.719 148.993L222.114 164.816C219.948 168.385 216.818 171.269 213.084 173.136L209.7 174.828C207.711 175.823 205.457 176.162 203.263 175.796V175.796C199.689 175.201 196.673 172.808 195.279 169.463L194.797 168.306C194.087 166.6 193.754 164.761 193.823 162.914L194.479 145.192V124.668L196.44 109.952C197.158 104.568 198.313 99.2516 199.895 94.0552L202.839 84.3788L208.052 67.6782C209.637 62.6009 211.843 57.7387 214.619 53.2018V53.2018M231.866 158.875L229.715 163.592C229.532 163.994 229.303 164.373 229.034 164.723L223.778 171.558C222.986 172.588 223.72 174.079 225.02 174.079V174.079C225.418 174.079 225.801 173.927 226.091 173.655L237.799 162.676L239.144 161.156M231.866 158.875L242.359 145.192L250.828 130.926C254.795 124.243 257.97 117.12 260.288 109.702L264.399 96.5415L267.439 79.0576L268.409 70.3269C268.758 67.1874 270.477 64.3627 273.105 62.6102V62.6102C274.862 61.4387 276.926 60.8135 279.038 60.8135H280.75C283.486 60.8135 286.178 61.5001 288.58 62.8104L290.652 63.9411C292.385 64.8866 293.905 66.1788 295.117 67.7373L296.547 69.5765C297.866 71.2726 298.491 73.4064 298.297 75.5461L298.101 77.6957C297.94 79.4714 296.818 81.0157 295.179 81.7182V81.7182M268.959 72.9763L270.971 75.6586C272.647 77.8939 274.82 79.7082 277.319 80.9579V80.9579C279.818 82.2077 282.574 82.8585 285.368 82.8585H289.625C291.535 82.8585 293.424 82.4705 295.179 81.7182V81.7182M198.279 181.68L209.969 179.273C219.353 177.341 228.412 174.069 236.866 169.559L246.919 164.197L276.559 142.912L295.133 128.734C301.975 123.511 308.115 117.427 313.399 110.631L317.422 105.457C323.571 97.5495 328.264 88.6101 331.28 79.0576V79.0576L331.55 77.5701C332.333 73.2647 330.954 68.8493 327.86 65.7546V65.7546M198.279 181.68L218.039 180.92H235.519L268.959 178.64L308.48 175.599L322.607 173.076C327.369 172.225 332.063 171.03 336.653 169.5L348 165.717M198.279 181.68L221.859 178.873C227.409 178.212 232.894 177.087 238.257 175.509L243.119 174.079V174.079C249.166 171.559 254.809 168.161 259.865 163.996L265.159 159.636L282.639 145.192V145.192C288.103 139.728 294.992 135.909 302.521 134.171L303.597 133.923C308.341 132.828 313.231 132.509 318.077 132.978L326.894 133.831C331.821 134.308 336.659 135.46 341.273 137.255V137.255C345.738 138.991 349.952 141.314 353.804 144.162L358.008 147.27C362.977 150.944 367.568 155.102 371.713 159.685L374.419 162.676M198.279 181.68H193.968C190.322 181.68 186.989 179.62 185.359 176.359V176.359M35.6378 288.864L16.4419 252.384C14.0427 247.825 11.9994 243.087 10.3304 238.212L3.9878 219.689M35.6378 288.864L83.0275 333.594C87.3708 337.693 92.4321 340.957 97.9582 343.223V343.223M35.6378 288.864L54.3115 300.538C62.0921 305.402 70.5052 309.172 79.3139 311.742L102.518 318.511L144.318 326.113L205.119 329.153L235.121 327.01C243.46 326.414 251.692 324.775 259.623 322.13L284.159 313.95L309.699 301.61C316.671 298.241 323.227 294.073 329.236 289.19V289.19C335.611 284.008 341.323 278.06 346.241 271.48L348.588 268.34M327.86 65.7546L322.92 60.8135L307.453 45.8592C302.577 41.1444 297.233 36.938 291.505 33.3049L284.539 28.8864M327.86 65.7546L338.706 78.9704C345.367 87.0864 350.708 96.2007 354.533 105.978L362.44 126.188L367.76 145.538C369.78 152.885 370.954 160.439 371.258 168.053L371.789 181.329C372.141 190.14 371.327 198.959 369.366 207.556L364.707 227.989C363.2 234.601 361.023 241.043 358.212 247.214L348.588 268.34M295.179 81.7182L287.959 96.5415L273.519 118.586L255.279 142.912L239.144 161.156M239.144 161.156L253.759 147.473L268.959 129.989L281.119 113.265L286.938 103.416C289.641 98.8403 291.976 94.0563 293.918 89.1096L295.179 85.8991M295.179 85.8991L296.658 84.3555C301.41 79.3966 307.419 75.8224 314.045 74.015L317.603 73.0445C319.611 72.4967 321.701 72.3126 323.775 72.5012V72.5012C327.183 72.811 330.424 74.1162 333.096 76.2542L333.956 76.9418C335.707 78.3434 337.224 80.0152 338.449 81.8944L343.429 89.5321C346.468 94.1916 348.998 99.1631 350.978 104.361L354.08 112.505L358.196 121.974C360.487 127.245 361.523 132.976 361.221 138.716V138.716C361.021 142.504 360.237 146.252 358.906 149.805V149.805C357.228 154.279 354.7 158.406 351.472 161.929L348 165.717M295.179 85.8991L293.279 100.342L292.87 102.935C291.635 110.758 291.956 118.749 293.814 126.448V126.448C295.471 133.316 298.324 139.839 302.243 145.717L302.399 145.953L307.721 153.21C309.736 155.959 312.141 158.399 314.86 160.454V160.454C323.103 166.683 333.674 168.961 343.752 166.679L348 165.717M348 165.717L343.32 170.397C339.354 174.365 335.06 177.992 330.485 181.239L320.073 188.63C315.897 191.594 311.499 194.233 306.919 196.524L295.833 202.068C290.594 204.688 285.135 206.843 279.519 208.507L267.439 212.087L221.839 218.929L202.079 221.324M3.9878 219.689L2.14067 201.361C1.38267 193.839 1.47995 186.256 2.43066 178.757L6.97478 142.912M3.9878 219.689L6.80715 223.348C12.3221 230.504 18.7814 236.881 26.0089 242.302L26.8388 242.925C31.1776 246.18 35.774 249.076 40.5826 251.585L57.4175 260.371C64.6573 264.149 72.3325 267.026 80.2719 268.938L105.106 274.918M6.97478 142.912V142.912C7.84204 139.876 8.94478 136.912 10.273 134.047L28.8469 93.9888C31.3409 88.6099 34.3805 83.5012 37.9178 78.7431V78.7431M6.97478 142.912V142.912C7.83435 145.921 9.29773 148.724 11.2757 151.149L21.7524 163.994C28.4337 172.186 36.3717 179.266 45.2707 184.972L61.478 195.364L70.6539 199.952C77.6855 203.469 85.1073 206.144 92.7654 207.922L123.798 215.128L139.132 218.195C144.102 219.19 149.142 219.805 154.206 220.035L193.7 221.83C195.736 221.923 197.776 221.846 199.799 221.601V221.601M37.9178 78.7431L46.5995 67.0652C51.9344 59.8892 58.2076 53.4611 65.2514 47.9529L86.6342 31.2319M37.9178 78.7431L38.3283 80.2767C41.0769 90.5465 45.4558 100.309 51.2981 109.191V109.191C58.0267 119.421 66.5882 128.319 76.551 135.437L76.8978 135.684C80.7996 138.472 84.8969 140.975 89.1579 143.175L106.318 152.034L138.238 165.717L161.236 173.879C161.596 174.007 161.991 173.982 162.332 173.812V173.812C163.365 173.295 163.365 171.821 162.332 171.305L158.759 169.518L150.084 165.18C146.757 163.516 143.258 162.221 139.649 161.319V161.319C133.198 159.705 127.124 156.846 121.771 152.9L115.438 148.233L105.134 141.362C101.37 138.852 97.8162 136.039 94.5087 132.951L91.3177 129.973C89.164 127.962 86.8044 126.184 84.2781 124.668V124.668M84.2781 124.668L83.3595 122.371C82.9712 121.4 82.9396 120.322 83.2702 119.33L83.703 118.032C84.0465 117.001 85.0108 116.306 86.0971 116.306H87.1943C88.377 116.306 89.2121 117.464 88.8382 118.586V118.586M84.2781 124.668L86.3786 122.567C87.4963 121.449 88.3384 120.086 88.8382 118.586V118.586M88.8382 118.586V118.586C92.8763 118.586 96.8991 119.082 100.817 120.061L107.078 121.627L107.931 121.926C117.439 125.254 126.38 130.025 134.438 136.07V136.07L145.079 145.953L162.559 161.916L172.907 169.31C173.1 169.448 173.313 169.556 173.538 169.631V169.631C175.342 170.232 177.089 168.581 176.588 166.746L175.593 163.097C175.517 162.817 175.413 162.546 175.284 162.286L170.159 152.034L167.277 147.377C162.632 139.872 157.014 133.015 150.569 126.985L136.718 114.025L124.558 101.863M124.558 101.863L119.998 93.5008M124.558 101.863L124.914 101.744C127.627 100.84 129.927 98.9942 131.398 96.5415V96.5415V96.5415C132.909 94.5276 134.084 92.2833 134.88 89.8952L135.198 88.9398M119.998 93.5008L113.158 88.9398M119.998 93.5008L122.992 90.5069C124.032 89.4661 125.196 88.5569 126.458 87.7996V87.7996M113.158 88.9398L112.533 86.4375C111.978 84.217 112.628 81.8681 114.247 80.2495L115.623 78.8732C116.447 78.0487 117.654 77.736 118.775 78.0564V78.0564C120.634 78.5876 121.605 80.6298 120.843 82.407L120.471 83.2745C120.163 83.9951 119.651 84.6104 118.999 85.0453L113.158 88.9398ZM122.278 80.5779L126.792 85.0922C127.588 85.8883 127.424 87.2203 126.458 87.7996V87.7996M126.458 87.7996V87.7996C129.574 87.0804 132.847 87.845 135.322 89.8702L139.758 93.5008L140.677 94.3541C147.13 100.347 152.763 107.166 157.429 114.634L157.858 115.321C160.481 119.519 162.79 123.907 164.763 128.447L169.399 139.111L177.759 156.595L182.319 169.518L185.359 176.359M185.359 176.359L187.817 180.457C189.201 182.764 190.058 185.349 190.325 188.027V188.027C190.559 190.362 191.241 192.63 192.334 194.707L198.279 206.006V206.006C200.803 211.56 203.984 216.793 207.753 221.591L210.439 225.01L217.279 233.372M185.359 176.359L189.911 181.368C191.908 183.565 193.298 186.246 193.941 189.144V189.144C194.298 190.748 194.884 192.292 195.682 193.729L202.079 205.246L204.718 209.206C207.008 212.642 209.57 215.888 212.38 218.914V218.914C216.142 222.966 219.457 227.411 222.27 232.172L227.919 241.734L236.279 253.136L246.919 268.34L257.559 281.263L259.555 283.384C266.248 290.497 274.434 296.038 283.523 299.61V299.61C288.489 301.561 293.673 302.904 298.962 303.609L310.56 305.156C312.711 305.443 314.89 305.46 317.045 305.206L322.853 304.523C325.346 304.229 327.65 303.044 329.338 301.187V301.187C332.32 297.906 332.896 293.096 330.774 289.204L330.454 288.618C329.993 287.772 329.641 286.871 329.408 285.937L328.353 281.717C327.27 277.384 326.833 272.914 327.056 268.453L327.48 259.978V246.73C327.48 241.885 327.832 237.047 328.533 232.253L329.472 225.835C331.171 214.226 334.898 203.008 340.485 192.691L341.92 190.042L353.172 174.642C355.276 171.762 357.935 169.332 360.994 167.497V167.497C362.963 166.315 365.076 165.392 367.282 164.751L374.419 162.676M112.398 182.441L111.396 182.691C109.045 183.279 109.236 186.681 111.638 187.002V187.002H115.438M112.398 182.441L121.518 180.92L143.558 176.359L146.734 175.565C150.663 174.583 154.74 174.337 158.759 174.839V174.839L163.712 175.547C163.955 175.581 164.193 175.65 164.417 175.75V175.75C166.669 176.75 166.473 180.008 164.119 180.733L161.492 181.541C161.191 181.634 160.88 181.687 160.565 181.701L150.232 182.15C145.805 182.343 141.426 183.152 137.221 184.554V184.554C132.358 186.175 127.265 187.002 122.138 187.002H115.438M112.398 182.441H114.236C115.32 182.441 116.198 183.319 116.198 184.403V184.403C116.198 184.614 116.164 184.823 116.098 185.023L115.438 187.002M158.759 312.43L164.839 297.226L177.759 250.856L179.025 245.535M158.759 312.43L160.318 316.719C161.247 319.273 163.357 321.217 165.979 321.932V321.932M158.759 312.43L162.92 311.389C164.194 311.07 165.503 310.909 166.816 310.909H169.93C171.07 310.909 172.185 311.247 173.133 311.879V311.879C175.023 313.139 175.999 315.391 175.625 317.632L175.479 318.511M175.479 318.511L173.448 320.252C171.391 322.016 168.593 322.645 165.979 321.932V321.932M175.479 318.511L175.98 316.17C177.164 310.646 178.813 305.232 180.911 299.986L180.98 299.814C182.883 295.055 184.417 290.157 185.57 285.163L188.399 272.901L190.679 250.856L191.231 245.61C191.873 239.506 191.688 233.344 190.679 227.291V227.291M190.679 227.291L188.019 228.431M190.679 227.291L192.199 226.53M179.025 245.535L184.335 223.228C185.015 220.371 185.359 217.446 185.359 214.51V212.478C185.359 208.217 184.408 204.01 182.577 200.163V200.163C179.479 193.656 174.004 188.54 167.313 185.863V185.863C161.768 183.645 155.64 183.189 149.833 184.583L148.45 184.915C142.756 186.282 137.523 189.125 133.279 193.159L131.03 195.295C126.758 199.355 123.327 204.217 120.933 209.603L118.123 215.927C116.336 219.948 114.886 224.111 113.786 228.372L109.358 245.535L106.318 269.1L105.106 274.918M179.025 245.535L184.291 232.261C184.975 230.539 186.316 229.161 188.019 228.431V228.431M165.979 321.932L171.679 302.547L179.025 278.222L182.319 262.258L183.889 255.584C184.867 251.426 185.493 247.193 185.759 242.93V242.93C185.999 239.097 186.528 235.289 187.344 231.537L188.019 228.431M198.279 227.291L204.177 248.744C205.815 254.7 206.897 260.795 207.41 266.951L208.159 275.941V297.226L208.414 301.565C208.735 307.025 206.706 312.362 202.839 316.23V316.23M198.279 227.291L201.752 233.607C204.994 239.503 207.406 245.82 208.919 252.376V252.376L213.43 265.913C214.981 270.565 216.187 275.325 217.039 280.155L218.039 285.824L218.799 297.226V310.149M198.279 227.291L197.958 227.05C196.291 225.8 194.062 225.599 192.199 226.53V226.53M202.839 316.23V316.23C197.449 313.78 193.128 309.458 190.679 304.068V304.068M202.839 316.23H206.639H208.649C212.918 316.23 216.742 313.528 218.2 309.516V309.516C218.594 308.431 218.799 307.278 218.799 306.124V305.463C218.799 302.679 217.455 300.067 215.19 298.448V298.448C214.066 297.645 212.765 297.124 211.398 296.929L203.464 295.795C203.048 295.736 202.628 295.706 202.208 295.706V295.706C199.705 295.706 197.319 296.762 195.636 298.613L190.679 304.068M190.679 304.068L193.719 289.625L195.239 271.38V254.657L193.719 237.173L192.199 226.53M248.439 281.263L249.584 285.078C250.309 287.496 250.01 290.105 248.758 292.297L248.537 292.684C247.973 293.672 247.187 294.514 246.241 295.145V295.145C244.281 296.452 241.812 296.736 239.606 295.909L235.998 294.555C232.811 293.36 230.334 290.789 229.258 287.56L228.919 286.545C228.76 286.067 228.679 285.567 228.679 285.063V285.063M248.439 281.263L246.076 278.899C244.183 277.005 241.615 275.941 238.937 275.941V275.941C235.821 275.941 232.88 277.38 230.968 279.84L230.079 280.983C229.172 282.15 228.679 283.585 228.679 285.063V285.063M248.439 281.263V281.263C247.43 277.226 245.896 273.339 243.875 269.701L243.119 268.34L237.799 259.218L227.159 245.535L217.279 233.372M244.639 295.706L241.599 288.864L237.799 282.023L230.959 266.059L224.118 254.086C220.582 247.896 216.394 242.102 211.626 236.803L209.948 234.938C206.733 231.365 203.779 227.564 201.111 223.566L200.045 221.969M199.799 221.601L200.045 221.969M199.799 221.601L202.079 221.324M200.045 221.969V221.969C200.887 226.238 202.53 230.309 204.889 233.965L208.919 240.214L217.279 255.417L224.879 272.901L228.679 285.063M202.079 221.324L217.279 233.372M374.419 162.676V162.676C378.032 166.671 380.623 171.482 381.969 176.698L383.155 181.297C385.01 188.487 384.699 196.065 382.26 203.078V203.078C380.714 207.524 378.348 211.642 375.284 215.216L373.706 217.058C371.772 219.314 369.643 221.396 367.344 223.278L354.08 234.132L339.603 244.087C333.064 248.584 326.013 252.286 318.599 255.115L281.564 269.25C275.204 271.678 268.613 273.449 261.894 274.537L239.144 278.222L190.679 282.783H160.279L109.358 275.941L105.106 274.918M105.106 274.918L103.57 282.296C102.873 285.642 101.674 288.864 100.015 291.852L98.2498 295.029C96.0795 298.936 92.7792 302.097 88.7815 304.096V304.096C83.9223 306.526 78.3402 307.088 73.0941 305.675L70.7351 305.04C64.7279 303.423 59.4119 299.89 55.593 294.979L50.8379 288.864L47.2977 283.961C43.0956 278.142 39.8033 271.717 37.5338 264.907V264.907C36.2721 261.121 35.3328 257.235 34.7261 253.291L34.4785 251.681C33.2306 243.567 33.0985 235.321 34.0861 227.172L35.0577 219.154C35.4435 215.971 36.1486 212.835 37.1623 209.793L38.122 206.914C39.9836 201.327 43.1978 196.288 47.4782 192.245L50.2662 189.611C53.1273 186.908 56.6665 185.03 60.5086 184.176V184.176C65.5506 183.056 70.8266 183.761 75.397 186.167L77.8605 187.464C81.0971 189.168 83.9873 191.461 86.3826 194.225L87.3769 195.373C90.845 199.375 93.4249 204.068 94.9464 209.14L97.4231 217.398C98.7903 221.956 99.7355 226.631 100.247 231.362L102.518 252.376L105.106 274.918ZM97.9582 343.223L124.788 354.221C132.208 357.263 139.967 359.401 147.898 360.589L175.423 364.714C185.534 366.229 195.817 366.185 205.914 364.583L226.76 361.275C237.096 359.635 247.109 356.383 256.436 351.638L281.177 339.05C291.2 333.951 300.291 327.197 308.068 319.074L329.55 296.633C337.316 288.52 343.66 279.158 348.316 268.938L348.588 268.34M97.9582 343.223L91.1182 334.474V334.474C84.584 325.425 79.7185 315.282 76.7509 304.522L75.1581 298.747L70.041 278.274C68.8938 273.684 68.0738 269.019 67.587 264.313L66.038 249.336V221.969L67.6789 191.334C68.1035 183.406 69.4706 175.557 71.7514 167.953L72.8781 164.197L81.6943 141.269C83.4047 136.821 85.8498 132.692 88.9277 129.054V129.054C91.3902 126.143 93.4505 122.915 95.0533 119.455L98.9561 111.031C104.321 99.4515 111.854 89.0055 121.146 80.2575L126.458 75.2568L157.239 48.9669M264.399 17.3186V17.3186C267.431 18.4392 270.335 19.8771 273.065 21.6082L284.539 28.8864M264.399 17.3186L252.239 17.4839L237.799 19.0042L229.515 20.188C220.888 21.4206 212.459 23.7757 204.443 27.1932L190.679 33.0611M264.399 17.3186L242.225 9.12203M172.439 9.12203V9.12203C173.877 5.76568 176.788 3.26428 180.322 2.34771L186.119 0.844633M172.439 9.12203L176.892 10.1119C178.467 10.462 180.097 10.4936 181.684 10.2049L184.294 9.73027C186.4 9.34738 188.202 7.99549 189.159 6.08135V6.08135M172.439 9.12203V9.12203C172.439 17.7 173.568 26.2405 175.798 34.5236L177.759 41.8093L179.321 50.7917C180.304 56.4489 180.799 62.1802 180.799 67.9223V80.5779V109.464M189.159 6.08135L186.119 0.844633M189.159 6.08135V6.08135C191.169 13.5117 191.82 21.2442 191.08 28.906L190.679 33.0611M186.119 0.844633V0.844633C193.186 0.283594 200.296 0.577579 207.293 1.72021L225.344 4.66794C231.101 5.60804 236.754 7.0996 242.225 9.12203V9.12203M186.119 0.844633L158.067 3.07143C151.954 3.55668 145.899 4.60317 139.978 6.19767L129.921 8.90597C129.387 9.0498 128.864 9.23432 128.358 9.45792V9.45792M186.378 158.875L186.131 161.823C186.017 163.178 184.062 163.258 183.839 161.916V161.916L182.118 139.111M186.378 158.875V142.912V124.668L190.386 93.5008M186.378 158.875V158.875C187.194 160.215 189.253 159.664 189.292 158.096L189.919 133.03L196.704 92.3091C197.752 86.0231 199.397 79.8515 201.619 73.8788L206.38 61.0806C209.077 53.8321 212.605 46.9209 216.895 40.4856L218.039 38.7686M212.719 34.9678L205.119 50.1712L197.519 71.4559L191.431 89.0475C190.931 90.4922 190.581 91.9845 190.386 93.5008V93.5008M212.719 34.9678V34.9678C214.906 33.6553 217.723 34.1326 219.356 36.0922L220.319 37.2483M212.719 34.9678L218.039 38.7686M220.319 37.2483L218.039 38.7686M220.319 37.2483V37.2483C220.319 40.2692 219.832 43.2704 218.877 46.1364L218.799 46.3703M218.799 46.3703L219.589 39.2559C220.07 34.932 219.573 30.5555 218.136 26.4491V26.4491C216.098 20.6239 212.258 15.5989 207.173 12.1021L207.021 11.9976C204.253 10.0944 201.182 8.67578 197.938 7.80237L192.026 6.2102C186.197 4.64063 180.031 4.86796 174.333 6.86241V6.86241C170.085 8.3497 166.226 10.775 163.043 13.9583L160.518 16.4843C155.012 21.9917 151.919 29.4606 151.919 37.2483V37.2483M218.799 46.3703L214.619 53.2018M180.799 109.464V121.627L182.118 139.111M180.799 109.464L184.599 86.6593L185.024 83.3862C185.924 76.4663 187.565 69.6632 189.919 63.0941V63.0941M189.919 63.0941L192.199 57.7729M189.919 63.0941L194.479 65.7546M192.199 57.7729L195.041 59.1815C196.093 59.7032 196.759 60.7763 196.759 61.9509V61.9509C196.759 62.6886 196.495 63.402 196.015 63.9621L194.479 65.7546M192.199 57.7729V54.7322L190.679 41.8093V33.0611M194.479 65.7546L192.199 79.0576L190.386 93.5008M170.159 29.6466V31.3652C170.159 33.7451 170.613 36.1031 171.496 38.3128L172.517 40.8642C173.913 44.3563 176.776 47.0564 180.344 48.2459V48.2459C183.998 49.4639 188.005 48.9705 191.254 46.9028L191.52 46.733C193.46 45.4983 195.051 43.7869 196.141 41.7622L197.566 39.1146C198.987 36.4764 199.213 33.3575 198.19 30.5417V30.5417C197.271 28.0145 195.418 25.9356 193.013 24.7328L190.59 23.5208C188.649 22.5502 186.509 22.0449 184.339 22.0449V22.0449C181.069 22.0449 177.903 23.1914 175.392 25.2849L170.159 29.6466ZM170.159 29.6466L167.879 20.5246L164.839 9.12203M190.679 33.0611L170.159 41.8093L163.908 44.6946C161.5 45.8065 159.256 47.244 157.239 48.9669V48.9669M142.038 15.2034L143.802 11.6758C145.564 8.15149 148.873 5.65475 152.746 4.92848V4.92848C156.542 4.2165 160.455 5.28593 163.362 7.82978L164.839 9.12203M142.038 15.2034L145.179 16.9486C147.556 18.2694 150.346 18.6372 152.984 17.9776V17.9776C154.289 17.6514 155.52 17.0826 156.614 16.3009L158.664 14.8368C159.738 14.0689 160.748 13.2136 161.682 12.2795L164.839 9.12203M142.038 15.2034L143.185 17.1146C146.964 23.4149 149.901 30.1839 151.919 37.2483V37.2483M151.919 37.2483L157.239 48.9669M157.239 48.9669L164.839 70.6957L170.159 88.1796L179.279 124.668L182.118 139.111M157.239 48.9669L160.558 52.8135C163.382 56.0846 166.849 58.7381 170.744 60.6082V60.6082C179.051 64.5965 188.691 64.7364 197.11 60.9909L214.619 53.2018M128.358 9.45792L107.816 18.5368C100.26 21.8762 93.1418 26.143 86.6342 31.2319V31.2319M128.358 9.45792L126.749 13.1923C123.8 20.0355 122.278 27.4088 122.278 34.8605V34.8605C122.278 39.4745 122.862 44.07 124.014 48.5377L124.703 51.2049C127.103 60.5097 131.78 69.1225 138.258 76.2197V76.2197C142.261 80.6046 146.931 84.3755 152.065 87.3573V87.3573C162.36 93.3366 174.239 96.0222 186.105 95.0533L193.635 94.4385C201.216 93.8195 208.6 91.7073 215.361 88.2235V88.2235C225.054 83.2289 233.133 75.5891 238.661 66.1898L240.75 62.6367C243.824 57.4102 245.927 51.6706 246.957 45.6954L247.28 43.8235C248.538 36.5231 247.89 29.0215 245.399 22.0449V22.0449L242.225 9.12203M86.6342 31.2319V44.85L88.1497 61.1742C89.094 71.3468 93.0367 81.0101 99.4782 88.9398V88.9398L105.245 95.7108C112.942 104.748 122.692 111.81 133.678 116.306V116.306L160.279 126.188V126.188C170.326 128.701 180.75 129.341 191.03 128.079L205.401 126.313C214.281 125.223 222.943 122.785 231.089 119.085L231.491 118.902C238.613 115.666 245.253 111.462 251.223 106.408V106.408C258.932 99.8828 265.414 92.0339 270.365 83.2307L271.418 81.3577C274.836 75.2811 277.587 68.8531 279.624 62.1856L280.254 60.1214C283.344 50.006 284.791 39.4603 284.539 28.8864V28.8864" stroke="url(#paint1_angular_142_135)" stroke-width="2"/>
<path d="M231.866 158.875L249.199 120.867L251.943 113.456C255.165 104.756 257.16 95.6497 257.871 86.3995L258.319 80.5779V75.0828C258.319 72.9602 256.199 71.491 254.212 72.2364V72.2364C253.025 72.6814 252.239 73.8157 252.239 75.0828V85.8428C252.239 87.3946 252.045 88.9402 251.66 90.4436L245.837 113.213C244.534 118.308 242.831 123.292 240.744 128.119L231.719 148.993L222.114 164.816C219.948 168.385 216.818 171.269 213.084 173.136L209.7 174.828C207.711 175.823 205.457 176.162 203.263 175.796V175.796C199.689 175.201 196.673 172.808 195.279 169.463L194.797 168.306C194.087 166.6 193.754 164.761 193.823 162.914L194.479 145.192V124.668L196.44 109.952C197.158 104.568 198.313 99.2516 199.895 94.0552L202.839 84.3788L208.052 67.6782C209.637 62.6009 211.843 57.7387 214.619 53.2018V53.2018M231.866 158.875L229.715 163.592C229.532 163.994 229.303 164.373 229.034 164.723L223.778 171.558C222.986 172.588 223.72 174.079 225.02 174.079V174.079C225.418 174.079 225.801 173.927 226.091 173.655L237.799 162.676L239.144 161.156M231.866 158.875L242.359 145.192L250.828 130.926C254.795 124.243 257.97 117.12 260.288 109.702L264.399 96.5415L267.439 79.0576L268.409 70.3269C268.758 67.1874 270.477 64.3627 273.105 62.6102V62.6102C274.862 61.4387 276.926 60.8135 279.038 60.8135H280.75C283.486 60.8135 286.178 61.5001 288.58 62.8104L290.652 63.9411C292.385 64.8866 293.905 66.1788 295.117 67.7373L296.547 69.5765C297.866 71.2726 298.491 73.4064 298.297 75.5461L298.101 77.6957C297.94 79.4714 296.818 81.0157 295.179 81.7182V81.7182M268.959 72.9763L270.971 75.6586C272.647 77.8939 274.82 79.7082 277.319 80.9579V80.9579C279.818 82.2077 282.574 82.8585 285.368 82.8585H289.625C291.535 82.8585 293.424 82.4705 295.179 81.7182V81.7182M198.279 181.68L209.969 179.273C219.353 177.341 228.412 174.069 236.866 169.559L246.919 164.197L276.559 142.912L295.133 128.734C301.975 123.511 308.115 117.427 313.399 110.631L317.422 105.457C323.571 97.5495 328.264 88.6101 331.28 79.0576V79.0576L331.55 77.5701C332.333 73.2647 330.954 68.8493 327.86 65.7546V65.7546M198.279 181.68L218.039 180.92H235.519L268.959 178.64L308.48 175.599L322.607 173.076C327.369 172.225 332.063 171.03 336.653 169.5L348 165.717M198.279 181.68L221.859 178.873C227.409 178.212 232.894 177.087 238.257 175.509L243.119 174.079V174.079C249.166 171.559 254.809 168.161 259.865 163.996L265.159 159.636L282.639 145.192V145.192C288.103 139.728 294.992 135.909 302.521 134.171L303.597 133.923C308.341 132.828 313.231 132.509 318.077 132.978L326.894 133.831C331.821 134.308 336.659 135.46 341.273 137.255V137.255C345.738 138.991 349.952 141.314 353.804 144.162L358.008 147.27C362.977 150.944 367.568 155.102 371.713 159.685L374.419 162.676M198.279 181.68H193.968C190.322 181.68 186.989 179.62 185.359 176.359V176.359M35.6378 288.864L16.4419 252.384C14.0427 247.825 11.9994 243.087 10.3304 238.212L3.9878 219.689M35.6378 288.864L83.0275 333.594C87.3708 337.693 92.4321 340.957 97.9582 343.223V343.223M35.6378 288.864L54.3115 300.538C62.0921 305.402 70.5052 309.172 79.3139 311.742L102.518 318.511L144.318 326.113L205.119 329.153L235.121 327.01C243.46 326.414 251.692 324.775 259.623 322.13L284.159 313.95L309.699 301.61C316.671 298.241 323.227 294.073 329.236 289.19V289.19C335.611 284.008 341.323 278.06 346.241 271.48L348.588 268.34M327.86 65.7546L322.92 60.8135L307.453 45.8592C302.577 41.1444 297.233 36.938 291.505 33.3049L284.539 28.8864M327.86 65.7546L338.706 78.9704C345.367 87.0864 350.708 96.2007 354.533 105.978L362.44 126.188L367.76 145.538C369.78 152.885 370.954 160.439 371.258 168.053L371.789 181.329C372.141 190.14 371.327 198.959 369.366 207.556L364.707 227.989C363.2 234.601 361.023 241.043 358.212 247.214L348.588 268.34M295.179 81.7182L287.959 96.5415L273.519 118.586L255.279 142.912L239.144 161.156M239.144 161.156L253.759 147.473L268.959 129.989L281.119 113.265L286.938 103.416C289.641 98.8403 291.976 94.0563 293.918 89.1096L295.179 85.8991M295.179 85.8991L296.658 84.3555C301.41 79.3966 307.419 75.8224 314.045 74.015L317.603 73.0445C319.611 72.4967 321.701 72.3126 323.775 72.5012V72.5012C327.183 72.811 330.424 74.1162 333.096 76.2542L333.956 76.9418C335.707 78.3434 337.224 80.0152 338.449 81.8944L343.429 89.5321C346.468 94.1916 348.998 99.1631 350.978 104.361L354.08 112.505L358.196 121.974C360.487 127.245 361.523 132.976 361.221 138.716V138.716C361.021 142.504 360.237 146.252 358.906 149.805V149.805C357.228 154.279 354.7 158.406 351.472 161.929L348 165.717M295.179 85.8991L293.279 100.342L292.87 102.935C291.635 110.758 291.956 118.749 293.814 126.448V126.448C295.471 133.316 298.324 139.839 302.243 145.717L302.399 145.953L307.721 153.21C309.736 155.959 312.141 158.399 314.86 160.454V160.454C323.103 166.683 333.674 168.961 343.752 166.679L348 165.717M348 165.717L343.32 170.397C339.354 174.365 335.06 177.992 330.485 181.239L320.073 188.63C315.897 191.594 311.499 194.233 306.919 196.524L295.833 202.068C290.594 204.688 285.135 206.843 279.519 208.507L267.439 212.087L221.839 218.929L202.079 221.324M3.9878 219.689L2.14067 201.361C1.38267 193.839 1.47995 186.256 2.43066 178.757L6.97478 142.912M3.9878 219.689L6.80715 223.348C12.3221 230.504 18.7814 236.881 26.0089 242.302L26.8388 242.925C31.1776 246.18 35.774 249.076 40.5826 251.585L57.4175 260.371C64.6573 264.149 72.3325 267.026 80.2719 268.938L105.106 274.918M6.97478 142.912V142.912C7.84204 139.876 8.94478 136.912 10.273 134.047L28.8469 93.9888C31.3409 88.6099 34.3805 83.5012 37.9178 78.7431V78.7431M6.97478 142.912V142.912C7.83435 145.921 9.29773 148.724 11.2757 151.149L21.7524 163.994C28.4337 172.186 36.3717 179.266 45.2707 184.972L61.478 195.364L70.6539 199.952C77.6855 203.469 85.1073 206.144 92.7654 207.922L123.798 215.128L139.132 218.195C144.102 219.19 149.142 219.805 154.206 220.035L193.7 221.83C195.736 221.923 197.776 221.846 199.799 221.601V221.601M37.9178 78.7431L46.5995 67.0652C51.9344 59.8892 58.2076 53.4611 65.2514 47.9529L86.6342 31.2319M37.9178 78.7431L38.3283 80.2767C41.0769 90.5465 45.4558 100.309 51.2981 109.191V109.191C58.0267 119.421 66.5882 128.319 76.551 135.437L76.8978 135.684C80.7996 138.472 84.8969 140.975 89.1579 143.175L106.318 152.034L138.238 165.717L161.236 173.879C161.596 174.007 161.991 173.982 162.332 173.812V173.812C163.365 173.295 163.365 171.821 162.332 171.305L158.759 169.518L150.084 165.18C146.757 163.516 143.258 162.221 139.649 161.319V161.319C133.198 159.705 127.124 156.846 121.771 152.9L115.438 148.233L105.134 141.362C101.37 138.852 97.8162 136.039 94.5087 132.951L91.3177 129.973C89.164 127.962 86.8044 126.184 84.2781 124.668V124.668M84.2781 124.668L83.3595 122.371C82.9712 121.4 82.9396 120.322 83.2702 119.33L83.703 118.032C84.0465 117.001 85.0108 116.306 86.0971 116.306H87.1943C88.377 116.306 89.2121 117.464 88.8382 118.586V118.586M84.2781 124.668L86.3786 122.567C87.4963 121.449 88.3384 120.086 88.8382 118.586V118.586M88.8382 118.586V118.586C92.8763 118.586 96.8991 119.082 100.817 120.061L107.078 121.627L107.931 121.926C117.439 125.254 126.38 130.025 134.438 136.07V136.07L145.079 145.953L162.559 161.916L172.907 169.31C173.1 169.448 173.313 169.556 173.538 169.631V169.631C175.342 170.232 177.089 168.581 176.588 166.746L175.593 163.097C175.517 162.817 175.413 162.546 175.284 162.286L170.159 152.034L167.277 147.377C162.632 139.872 157.014 133.015 150.569 126.985L136.718 114.025L124.558 101.863M124.558 101.863L119.998 93.5008M124.558 101.863L124.914 101.744C127.627 100.84 129.927 98.9942 131.398 96.5415V96.5415V96.5415C132.909 94.5276 134.084 92.2833 134.88 89.8952L135.198 88.9398M119.998 93.5008L113.158 88.9398M119.998 93.5008L122.992 90.5069C124.032 89.4661 125.196 88.5569 126.458 87.7996V87.7996M113.158 88.9398L112.533 86.4375C111.978 84.217 112.628 81.8681 114.247 80.2495L115.623 78.8732C116.447 78.0487 117.654 77.736 118.775 78.0564V78.0564C120.634 78.5876 121.605 80.6298 120.843 82.407L120.471 83.2745C120.163 83.9951 119.651 84.6104 118.999 85.0453L113.158 88.9398ZM122.278 80.5779L126.792 85.0922C127.588 85.8883 127.424 87.2203 126.458 87.7996V87.7996M126.458 87.7996V87.7996C129.574 87.0804 132.847 87.845 135.322 89.8702L139.758 93.5008L140.677 94.3541C147.13 100.347 152.763 107.166 157.429 114.634L157.858 115.321C160.481 119.519 162.79 123.907 164.763 128.447L169.399 139.111L177.759 156.595L182.319 169.518L185.359 176.359M185.359 176.359L187.817 180.457C189.201 182.764 190.058 185.349 190.325 188.027V188.027C190.559 190.362 191.241 192.63 192.334 194.707L198.279 206.006V206.006C200.803 211.56 203.984 216.793 207.753 221.591L210.439 225.01L217.279 233.372M185.359 176.359L189.911 181.368C191.908 183.565 193.298 186.246 193.941 189.144V189.144C194.298 190.748 194.884 192.292 195.682 193.729L202.079 205.246L204.718 209.206C207.008 212.642 209.57 215.888 212.38 218.914V218.914C216.142 222.966 219.457 227.411 222.27 232.172L227.919 241.734L236.279 253.136L246.919 268.34L257.559 281.263L259.555 283.384C266.248 290.497 274.434 296.038 283.523 299.61V299.61C288.489 301.561 293.673 302.904 298.962 303.609L310.56 305.156C312.711 305.443 314.89 305.46 317.045 305.206L322.853 304.523C325.346 304.229 327.65 303.044 329.338 301.187V301.187C332.32 297.906 332.896 293.096 330.774 289.204L330.454 288.618C329.993 287.772 329.641 286.871 329.408 285.937L328.353 281.717C327.27 277.384 326.833 272.914 327.056 268.453L327.48 259.978V246.73C327.48 241.885 327.832 237.047 328.533 232.253L329.472 225.835C331.171 214.226 334.898 203.008 340.485 192.691L341.92 190.042L353.172 174.642C355.276 171.762 357.935 169.332 360.994 167.497V167.497C362.963 166.315 365.076 165.392 367.282 164.751L374.419 162.676M112.398 182.441L111.396 182.691C109.045 183.279 109.236 186.681 111.638 187.002V187.002H115.438M112.398 182.441L121.518 180.92L143.558 176.359L146.734 175.565C150.663 174.583 154.74 174.337 158.759 174.839V174.839L163.712 175.547C163.955 175.581 164.193 175.65 164.417 175.75V175.75C166.669 176.75 166.473 180.008 164.119 180.733L161.492 181.541C161.191 181.634 160.88 181.687 160.565 181.701L150.232 182.15C145.805 182.343 141.426 183.152 137.221 184.554V184.554C132.358 186.175 127.265 187.002 122.138 187.002H115.438M112.398 182.441H114.236C115.32 182.441 116.198 183.319 116.198 184.403V184.403C116.198 184.614 116.164 184.823 116.098 185.023L115.438 187.002M158.759 312.43L164.839 297.226L177.759 250.856L179.025 245.535M158.759 312.43L160.318 316.719C161.247 319.273 163.357 321.217 165.979 321.932V321.932M158.759 312.43L162.92 311.389C164.194 311.07 165.503 310.909 166.816 310.909H169.93C171.07 310.909 172.185 311.247 173.133 311.879V311.879C175.023 313.139 175.999 315.391 175.625 317.632L175.479 318.511M175.479 318.511L173.448 320.252C171.391 322.016 168.593 322.645 165.979 321.932V321.932M175.479 318.511L175.98 316.17C177.164 310.646 178.813 305.232 180.911 299.986L180.98 299.814C182.883 295.055 184.417 290.157 185.57 285.163L188.399 272.901L190.679 250.856L191.231 245.61C191.873 239.506 191.688 233.344 190.679 227.291V227.291M190.679 227.291L188.019 228.431M190.679 227.291L192.199 226.53M179.025 245.535L184.335 223.228C185.015 220.371 185.359 217.446 185.359 214.51V212.478C185.359 208.217 184.408 204.01 182.577 200.163V200.163C179.479 193.656 174.004 188.54 167.313 185.863V185.863C161.768 183.645 155.64 183.189 149.833 184.583L148.45 184.915C142.756 186.282 137.523 189.125 133.279 193.159L131.03 195.295C126.758 199.355 123.327 204.217 120.933 209.603L118.123 215.927C116.336 219.948 114.886 224.111 113.786 228.372L109.358 245.535L106.318 269.1L105.106 274.918M179.025 245.535L184.291 232.261C184.975 230.539 186.316 229.161 188.019 228.431V228.431M165.979 321.932L171.679 302.547L179.025 278.222L182.319 262.258L183.889 255.584C184.867 251.426 185.493 247.193 185.759 242.93V242.93C185.999 239.097 186.528 235.289 187.344 231.537L188.019 228.431M198.279 227.291L204.177 248.744C205.815 254.7 206.897 260.795 207.41 266.951L208.159 275.941V297.226L208.414 301.565C208.735 307.025 206.706 312.362 202.839 316.23V316.23M198.279 227.291L201.752 233.607C204.994 239.503 207.406 245.82 208.919 252.376V252.376L213.43 265.913C214.981 270.565 216.187 275.325 217.039 280.155L218.039 285.824L218.799 297.226V310.149M198.279 227.291L197.958 227.05C196.291 225.8 194.062 225.599 192.199 226.53V226.53M202.839 316.23V316.23C197.449 313.78 193.128 309.458 190.679 304.068V304.068M202.839 316.23H206.639H208.649C212.918 316.23 216.742 313.528 218.2 309.516V309.516C218.594 308.431 218.799 307.278 218.799 306.124V305.463C218.799 302.679 217.455 300.067 215.19 298.448V298.448C214.066 297.645 212.765 297.124 211.398 296.929L203.464 295.795C203.048 295.736 202.628 295.706 202.208 295.706V295.706C199.705 295.706 197.319 296.762 195.636 298.613L190.679 304.068M190.679 304.068L193.719 289.625L195.239 271.38V254.657L193.719 237.173L192.199 226.53M248.439 281.263L249.584 285.078C250.309 287.496 250.01 290.105 248.758 292.297L248.537 292.684C247.973 293.672 247.187 294.514 246.241 295.145V295.145C244.281 296.452 241.812 296.736 239.606 295.909L235.998 294.555C232.811 293.36 230.334 290.789 229.258 287.56L228.919 286.545C228.76 286.067 228.679 285.567 228.679 285.063V285.063M248.439 281.263L246.076 278.899C244.183 277.005 241.615 275.941 238.937 275.941V275.941C235.821 275.941 232.88 277.38 230.968 279.84L230.079 280.983C229.172 282.15 228.679 283.585 228.679 285.063V285.063M248.439 281.263V281.263C247.43 277.226 245.896 273.339 243.875 269.701L243.119 268.34L237.799 259.218L227.159 245.535L217.279 233.372M244.639 295.706L241.599 288.864L237.799 282.023L230.959 266.059L224.118 254.086C220.582 247.896 216.394 242.102 211.626 236.803L209.948 234.938C206.733 231.365 203.779 227.564 201.111 223.566L200.045 221.969M199.799 221.601L200.045 221.969M199.799 221.601L202.079 221.324M200.045 221.969V221.969C200.887 226.238 202.53 230.309 204.889 233.965L208.919 240.214L217.279 255.417L224.879 272.901L228.679 285.063M202.079 221.324L217.279 233.372M374.419 162.676V162.676C378.032 166.671 380.623 171.482 381.969 176.698L383.155 181.297C385.01 188.487 384.699 196.065 382.26 203.078V203.078C380.714 207.524 378.348 211.642 375.284 215.216L373.706 217.058C371.772 219.314 369.643 221.396 367.344 223.278L354.08 234.132L339.603 244.087C333.064 248.584 326.013 252.286 318.599 255.115L281.564 269.25C275.204 271.678 268.613 273.449 261.894 274.537L239.144 278.222L190.679 282.783H160.279L109.358 275.941L105.106 274.918M105.106 274.918L103.57 282.296C102.873 285.642 101.674 288.864 100.015 291.852L98.2498 295.029C96.0795 298.936 92.7792 302.097 88.7815 304.096V304.096C83.9223 306.526 78.3402 307.088 73.0941 305.675L70.7351 305.04C64.7279 303.423 59.4119 299.89 55.593 294.979L50.8379 288.864L47.2977 283.961C43.0956 278.142 39.8033 271.717 37.5338 264.907V264.907C36.2721 261.121 35.3328 257.235 34.7261 253.291L34.4785 251.681C33.2306 243.567 33.0985 235.321 34.0861 227.172L35.0577 219.154C35.4435 215.971 36.1486 212.835 37.1623 209.793L38.122 206.914C39.9836 201.327 43.1978 196.288 47.4782 192.245L50.2662 189.611C53.1273 186.908 56.6665 185.03 60.5086 184.176V184.176C65.5506 183.056 70.8266 183.761 75.397 186.167L77.8605 187.464C81.0971 189.168 83.9873 191.461 86.3826 194.225L87.3769 195.373C90.845 199.375 93.4249 204.068 94.9464 209.14L97.4231 217.398C98.7903 221.956 99.7355 226.631 100.247 231.362L102.518 252.376L105.106 274.918ZM97.9582 343.223L124.788 354.221C132.208 357.263 139.967 359.401 147.898 360.589L175.423 364.714C185.534 366.229 195.817 366.185 205.914 364.583L226.76 361.275C237.096 359.635 247.109 356.383 256.436 351.638L281.177 339.05C291.2 333.951 300.291 327.197 308.068 319.074L329.55 296.633C337.316 288.52 343.66 279.158 348.316 268.938L348.588 268.34M97.9582 343.223L91.1182 334.474V334.474C84.584 325.425 79.7185 315.282 76.7509 304.522L75.1581 298.747L70.041 278.274C68.8938 273.684 68.0738 269.019 67.587 264.313L66.038 249.336V221.969L67.6789 191.334C68.1035 183.406 69.4706 175.557 71.7514 167.953L72.8781 164.197L81.6943 141.269C83.4047 136.821 85.8498 132.692 88.9277 129.054V129.054C91.3902 126.143 93.4505 122.915 95.0533 119.455L98.9561 111.031C104.321 99.4515 111.854 89.0055 121.146 80.2575L126.458 75.2568L157.239 48.9669M264.399 17.3186V17.3186C267.431 18.4392 270.335 19.8771 273.065 21.6082L284.539 28.8864M264.399 17.3186L252.239 17.4839L237.799 19.0042L229.515 20.188C220.888 21.4206 212.459 23.7757 204.443 27.1932L190.679 33.0611M264.399 17.3186L242.225 9.12203M172.439 9.12203V9.12203C173.877 5.76568 176.788 3.26428 180.322 2.34771L186.119 0.844633M172.439 9.12203L176.892 10.1119C178.467 10.462 180.097 10.4936 181.684 10.2049L184.294 9.73027C186.4 9.34738 188.202 7.99549 189.159 6.08135V6.08135M172.439 9.12203V9.12203C172.439 17.7 173.568 26.2405 175.798 34.5236L177.759 41.8093L179.321 50.7917C180.304 56.4489 180.799 62.1802 180.799 67.9223V80.5779V109.464M189.159 6.08135L186.119 0.844633M189.159 6.08135V6.08135C191.169 13.5117 191.82 21.2442 191.08 28.906L190.679 33.0611M186.119 0.844633V0.844633C193.186 0.283594 200.296 0.577579 207.293 1.72021L225.344 4.66794C231.101 5.60804 236.754 7.0996 242.225 9.12203V9.12203M186.119 0.844633L158.067 3.07143C151.954 3.55668 145.899 4.60317 139.978 6.19767L129.921 8.90597C129.387 9.0498 128.864 9.23432 128.358 9.45792V9.45792M186.378 158.875L186.131 161.823C186.017 163.178 184.062 163.258 183.839 161.916V161.916L182.118 139.111M186.378 158.875V142.912V124.668L190.386 93.5008M186.378 158.875V158.875C187.194 160.215 189.253 159.664 189.292 158.096L189.919 133.03L196.704 92.3091C197.752 86.0231 199.397 79.8515 201.619 73.8788L206.38 61.0806C209.077 53.8321 212.605 46.9209 216.895 40.4856L218.039 38.7686M212.719 34.9678L205.119 50.1712L197.519 71.4559L191.431 89.0475C190.931 90.4922 190.581 91.9845 190.386 93.5008V93.5008M212.719 34.9678V34.9678C214.906 33.6553 217.723 34.1326 219.356 36.0922L220.319 37.2483M212.719 34.9678L218.039 38.7686M220.319 37.2483L218.039 38.7686M220.319 37.2483V37.2483C220.319 40.2692 219.832 43.2704 218.877 46.1364L218.799 46.3703M218.799 46.3703L219.589 39.2559C220.07 34.932 219.573 30.5555 218.136 26.4491V26.4491C216.098 20.6239 212.258 15.5989 207.173 12.1021L207.021 11.9976C204.253 10.0944 201.182 8.67578 197.938 7.80237L192.026 6.2102C186.197 4.64063 180.031 4.86796 174.333 6.86241V6.86241C170.085 8.3497 166.226 10.775 163.043 13.9583L160.518 16.4843C155.012 21.9917 151.919 29.4606 151.919 37.2483V37.2483M218.799 46.3703L214.619 53.2018M180.799 109.464V121.627L182.118 139.111M180.799 109.464L184.599 86.6593L185.024 83.3862C185.924 76.4663 187.565 69.6632 189.919 63.0941V63.0941M189.919 63.0941L192.199 57.7729M189.919 63.0941L194.479 65.7546M192.199 57.7729L195.041 59.1815C196.093 59.7032 196.759 60.7763 196.759 61.9509V61.9509C196.759 62.6886 196.495 63.402 196.015 63.9621L194.479 65.7546M192.199 57.7729V54.7322L190.679 41.8093V33.0611M194.479 65.7546L192.199 79.0576L190.386 93.5008M170.159 29.6466V31.3652C170.159 33.7451 170.613 36.1031 171.496 38.3128L172.517 40.8642C173.913 44.3563 176.776 47.0564 180.344 48.2459V48.2459C183.998 49.4639 188.005 48.9705 191.254 46.9028L191.52 46.733C193.46 45.4983 195.051 43.7869 196.141 41.7622L197.566 39.1146C198.987 36.4764 199.213 33.3575 198.19 30.5417V30.5417C197.271 28.0145 195.418 25.9356 193.013 24.7328L190.59 23.5208C188.649 22.5502 186.509 22.0449 184.339 22.0449V22.0449C181.069 22.0449 177.903 23.1914 175.392 25.2849L170.159 29.6466ZM170.159 29.6466L167.879 20.5246L164.839 9.12203M190.679 33.0611L170.159 41.8093L163.908 44.6946C161.5 45.8065 159.256 47.244 157.239 48.9669V48.9669M142.038 15.2034L143.802 11.6758C145.564 8.15149 148.873 5.65475 152.746 4.92848V4.92848C156.542 4.2165 160.455 5.28593 163.362 7.82978L164.839 9.12203M142.038 15.2034L145.179 16.9486C147.556 18.2694 150.346 18.6372 152.984 17.9776V17.9776C154.289 17.6514 155.52 17.0826 156.614 16.3009L158.664 14.8368C159.738 14.0689 160.748 13.2136 161.682 12.2795L164.839 9.12203M142.038 15.2034L143.185 17.1146C146.964 23.4149 149.901 30.1839 151.919 37.2483V37.2483M151.919 37.2483L157.239 48.9669M157.239 48.9669L164.839 70.6957L170.159 88.1796L179.279 124.668L182.118 139.111M157.239 48.9669L160.558 52.8135C163.382 56.0846 166.849 58.7381 170.744 60.6082V60.6082C179.051 64.5965 188.691 64.7364 197.11 60.9909L214.619 53.2018M128.358 9.45792L107.816 18.5368C100.26 21.8762 93.1418 26.143 86.6342 31.2319V31.2319M128.358 9.45792L126.749 13.1923C123.8 20.0355 122.278 27.4088 122.278 34.8605V34.8605C122.278 39.4745 122.862 44.07 124.014 48.5377L124.703 51.2049C127.103 60.5097 131.78 69.1225 138.258 76.2197V76.2197C142.261 80.6046 146.931 84.3755 152.065 87.3573V87.3573C162.36 93.3366 174.239 96.0222 186.105 95.0533L193.635 94.4385C201.216 93.8195 208.6 91.7073 215.361 88.2235V88.2235C225.054 83.2289 233.133 75.5891 238.661 66.1898L240.75 62.6367C243.824 57.4102 245.927 51.6706 246.957 45.6954L247.28 43.8235C248.538 36.5231 247.89 29.0215 245.399 22.0449V22.0449L242.225 9.12203M86.6342 31.2319V44.85L88.1497 61.1742C89.094 71.3468 93.0367 81.0101 99.4782 88.9398V88.9398L105.245 95.7108C112.942 104.748 122.692 111.81 133.678 116.306V116.306L160.279 126.188V126.188C170.326 128.701 180.75 129.341 191.03 128.079L205.401 126.313C214.281 125.223 222.943 122.785 231.089 119.085L231.491 118.902C238.613 115.666 245.253 111.462 251.223 106.408V106.408C258.932 99.8828 265.414 92.0339 270.365 83.2307L271.418 81.3577C274.836 75.2811 277.587 68.8531 279.624 62.1856L280.254 60.1214C283.344 50.006 284.791 39.4603 284.539 28.8864V28.8864" stroke="url(#paint2_angular_142_135)" stroke-width="2"/>
<defs>
<radialGradient id="paint0_angular_142_135" cx="0" cy="0" r="1" gradientUnits="userSpaceOnUse" gradientTransform="translate(258.5 166) rotate(34.8907) scale(277.966 291.599)">
<stop stop-color="#E60000"/>
<stop offset="1" stop-color="white" stop-opacity="0"/>
</radialGradient>
<radialGradient id="paint1_angular_142_135" cx="0" cy="0" r="1" gradientUnits="userSpaceOnUse" gradientTransform="translate(258.5 166) rotate(-52.4314) scale(106.608 111.837)">
<stop stop-color="#E60000"/>
<stop offset="1" stop-color="white" stop-opacity="0"/>
</radialGradient>
<radialGradient id="paint2_angular_142_135" cx="0" cy="0" r="1" gradientUnits="userSpaceOnUse" gradientTransform="translate(258.5 166) rotate(34.8907) scale(277.966 291.599)">
<stop offset="0.0109802" stop-color="#E60000"/>
<stop offset="1" stop-color="white" stop-opacity="0"/>
</radialGradient>
</defs>
</svg>
