<svg width="787" height="750" viewBox="0 0 787 750" fill="none" xmlns="http://www.w3.org/2000/svg">
<path d="M472.326 325.244L507.713 247.674L518.37 218.903C521.594 210.201 523.59 201.092 524.302 191.839L526.332 165.449V154.236C526.332 149.903 522.004 146.904 517.947 148.425V148.425C515.524 149.333 513.919 151.649 513.919 154.236V176.193C513.919 179.361 513.522 182.516 512.737 185.585L498.811 240.018C497.507 245.114 495.803 250.099 493.715 254.927L472.026 305.076L452.42 337.365C447.996 344.65 441.604 350.538 433.981 354.349L427.073 357.803C423.011 359.833 418.411 360.525 413.933 359.778V359.778C406.635 358.562 400.477 353.678 397.631 346.849L396.649 344.492C395.198 341.01 394.519 337.255 394.659 333.486L395.998 297.319V255.431L401.126 216.981C401.844 211.595 403 206.277 404.582 201.079L413.066 173.206L424.888 135.348C427.341 127.493 430.755 119.97 435.051 112.951L437.116 109.578M472.326 325.244L467.935 334.87C467.561 335.69 467.094 336.465 466.544 337.179L455.815 351.126C454.198 353.228 455.697 356.272 458.349 356.272V356.272C459.162 356.272 459.943 355.963 460.536 355.408L484.439 333.001L487.184 329.899M472.326 325.244L493.749 297.319L517.255 257.734C521.224 251.05 524.4 243.926 526.719 236.506L538.745 198.029L544.951 162.346L546.931 144.532C547.643 138.122 551.153 132.356 556.52 128.778V128.778C560.105 126.388 564.318 125.113 568.628 125.113H572.126C577.711 125.113 583.207 126.514 588.111 129.188L592.343 131.497C595.88 133.426 598.982 136.062 601.456 139.242L604.376 142.997C607.069 146.458 608.346 150.813 607.949 155.181L607.55 159.565C607.221 163.19 604.93 166.343 601.585 167.776V167.776M548.055 149.935L552.159 155.408C555.582 159.971 560.02 163.674 565.122 166.225V166.225C570.224 168.776 575.849 170.103 581.553 170.103H590.246C594.144 170.103 598.001 169.312 601.585 167.776V167.776M403.756 371.787L442.364 363.839C451.746 361.907 460.802 358.638 469.255 354.13L503.058 336.104L563.57 292.665L612.223 255.539C619.066 250.318 625.207 244.234 630.492 237.44L654.956 205.99C662.244 196.62 667.806 186.028 671.381 174.708L675.285 162.346L675.837 159.313C677.435 150.525 674.619 141.512 668.303 135.197V135.197M403.756 371.787L444.098 370.235H479.784L548.055 365.581L628.737 359.375L665.031 352.895C669.792 352.045 674.485 350.851 679.073 349.321L709.42 339.207M403.756 371.787L460.585 365.022C466.134 364.362 471.618 363.237 476.979 361.66L495.3 356.272L500.246 354.212C509.312 350.435 517.772 345.343 525.354 339.1L540.297 326.796L575.983 297.319V297.319C587.137 286.167 601.2 278.373 616.568 274.827L618.77 274.319C628.454 272.084 638.436 271.433 648.329 272.39L667.75 274.27C676.868 275.152 685.821 277.283 694.359 280.603L696.97 281.618C705.233 284.831 713.033 289.129 720.163 294.399L737.085 306.904C742.42 310.847 747.349 315.311 751.8 320.23L763.357 333.001M403.756 371.787H394.952C387.51 371.787 380.707 367.582 377.379 360.927V360.927M71.7151 590.535L28.7733 508.955C26.3729 504.395 24.3286 499.656 22.6587 494.781L7.09978 449.357M71.7151 590.535L168.463 681.821C177.331 690.188 187.664 696.85 198.946 701.474V701.474M71.7151 590.535L122.054 621.993C129.834 626.855 138.245 630.623 147.052 633.191L208.255 651.04L293.593 666.554L417.721 672.76L492.055 667.451C500.392 666.855 508.621 665.217 516.551 662.574L579.086 641.732L642.143 611.275C649.124 607.903 655.689 603.73 661.706 598.842L681.096 583.088C687.481 577.9 693.202 571.945 698.128 565.356L710.621 548.647M668.303 135.197L658.218 125.113L619.004 87.2106C614.127 82.497 608.784 78.2917 603.056 74.6598L579.862 59.9535M668.303 135.197L700.915 174.919C707.578 183.035 712.921 192.15 716.748 201.929L738.901 258.534L752.926 309.53C754.948 316.879 756.122 324.436 756.427 332.052L758.54 384.881C758.893 393.695 758.078 402.517 756.116 411.117L741.169 476.645C739.661 483.258 737.483 489.701 734.67 495.874L710.621 548.647M601.585 167.776L586.844 198.029L557.364 243.02L520.126 292.665L487.184 329.899M487.184 329.899L517.023 301.973L548.055 266.291L572.88 232.16L588.988 204.904C591.692 200.328 594.027 195.543 595.971 190.596L601.585 176.309M601.585 176.309L604.601 173.162C614.303 163.039 626.574 155.744 640.101 152.055L647.363 150.074C651.463 148.956 655.73 148.581 659.963 148.966V148.966C666.921 149.598 673.539 152.262 678.995 156.626L680.747 158.028C684.324 160.889 687.421 164.301 689.924 168.138L703.554 189.035C707.454 195.014 710.702 201.393 713.243 208.063L721.833 230.608L730.237 249.935C734.914 260.692 737.028 272.388 736.411 284.102V284.102C736.005 291.833 734.404 299.483 731.685 306.732V306.732C728.261 315.863 723.101 324.285 716.51 331.473L709.42 339.207M601.585 176.309L597.706 205.786L596.16 215.574C594.107 228.572 594.64 241.847 597.728 254.639L599.749 263.007C602.503 274.416 607.243 285.25 613.754 295.015L616.325 298.87L627.186 313.68C631.302 319.291 636.213 324.272 641.765 328.467V328.467C658.594 341.18 680.171 345.829 700.742 341.172L709.42 339.207M709.42 339.207L693.659 354.966C689.692 358.933 685.398 362.559 680.823 365.805L645.872 390.606C641.696 393.57 637.298 396.208 632.719 398.497L594.717 417.496C589.479 420.115 584.021 422.268 578.405 423.932L544.951 433.843L451.856 447.806L411.514 452.695M7.09978 449.357L2.14143 400.174C1.38293 392.65 1.48028 385.065 2.43161 377.563L13.1979 292.665M7.09978 449.357L21.5098 468.051C27.0259 475.206 33.4863 481.582 40.7146 487.002L60.5415 501.871C64.8802 505.124 69.4764 508.019 74.2846 510.528L127.535 538.307C134.774 542.084 142.447 544.959 150.385 546.87L213.539 562.072M13.1979 292.665L13.7109 290.869C15.1399 285.868 16.957 280.986 19.1455 276.268L61.1775 185.647C64.0574 179.438 67.5671 173.541 71.6515 168.049L76.3699 161.704M13.1979 292.665V292.665C14.9527 298.806 17.9401 304.525 21.9778 309.474L53.8701 348.563C60.5525 356.754 68.4913 363.833 77.3909 369.537L124.469 399.712L154.229 414.59C161.259 418.104 168.679 420.778 176.335 422.555L251.7 440.049L290.783 447.864C295.752 448.858 300.79 449.473 305.852 449.703L394.408 453.727C398.564 453.916 402.729 453.76 406.859 453.259V453.259M76.3699 161.704L102.465 126.616C107.801 119.44 114.075 113.013 121.12 107.506L175.827 64.7402M76.3699 161.704L81.501 180.87C84.2687 191.208 88.6779 201.035 94.5603 209.975L114.222 239.856C120.995 250.151 129.613 259.105 139.641 266.267L162.054 282.274C165.956 285.06 170.053 287.563 174.313 289.762L216.013 311.282L281.18 339.207L328.133 355.866C328.866 356.126 329.673 356.076 330.368 355.728V355.728C332.477 354.674 332.477 351.665 330.368 350.611L323.073 346.964L304.962 337.91C298.437 334.647 291.574 332.109 284.496 330.34L283.275 330.034C270.622 326.872 258.711 321.264 248.211 313.528L234.632 303.525L208.842 286.333C204.321 283.319 200.053 279.942 196.08 276.235L185.389 266.258C180.992 262.154 176.175 258.525 171.017 255.431V255.431M171.017 255.431L169.142 250.744C168.349 248.762 168.285 246.562 168.96 244.537L169.843 241.888C170.544 239.784 172.513 238.365 174.73 238.365H176.972C179.386 238.365 181.09 240.73 180.327 243.02V243.02M171.017 255.431L175.306 251.143C177.587 248.862 179.306 246.08 180.327 243.02V243.02M180.327 243.02V243.02C188.502 243.02 196.75 244.022 204.681 246.005L217.565 249.225L234.003 254.978C243.675 258.363 252.769 263.214 260.967 269.362L273.422 278.702L295.145 298.87L330.831 331.45L351.959 346.539C352.353 346.821 352.787 347.042 353.247 347.195V347.195C356.93 348.423 360.495 345.05 359.473 341.305L357.443 333.86C357.287 333.289 357.075 332.735 356.81 332.205L346.347 311.282L333.177 290.009C328.53 282.504 322.911 275.647 316.465 269.618L278.077 233.711L253.252 208.889M253.252 208.889L243.942 191.823M253.252 208.889L253.979 208.646C259.517 206.8 264.212 203.034 267.216 198.029V198.029V198.029C270.299 193.919 272.699 189.338 274.324 184.464L274.974 182.515M243.942 191.823L229.978 182.515M243.942 191.823L250.053 185.713C252.177 183.589 254.554 181.733 257.131 180.188V180.188M229.978 182.515L228.702 177.411C227.568 172.878 228.897 168.082 232.201 164.777L235.009 161.97C236.692 160.287 239.155 159.649 241.443 160.303V160.303C245.239 161.387 247.221 165.557 245.666 169.185L244.908 170.953C244.278 172.423 243.233 173.679 241.902 174.566L229.978 182.515ZM248.597 165.449L257.811 174.662C259.436 176.287 259.101 179.006 257.131 180.188V180.188M257.131 180.188V180.188C263.492 178.72 270.174 180.281 275.227 184.414L284.284 191.823L296.282 202.964C302.736 208.956 308.371 215.775 313.039 223.243L325.337 242.918C327.962 247.117 330.271 251.505 332.246 256.046L344.796 284.908L361.863 320.59L371.173 346.964L377.379 360.927M377.379 360.927L382.398 369.29C385.223 373.999 386.972 379.274 387.519 384.739V384.739C387.995 389.505 389.387 394.134 391.618 398.372L403.756 421.432L406.538 427.55C409.843 434.822 414.009 441.671 418.944 447.952L428.582 460.217L442.546 477.282M377.379 360.927L386.675 371.151C390.751 375.634 393.587 381.104 394.901 387.019V387.019C395.629 390.292 396.825 393.444 398.454 396.375L411.514 419.88L419.469 431.811C422.436 436.261 425.756 440.466 429.396 444.386L436.765 452.321C441.639 457.57 445.936 463.327 449.58 469.493L464.268 494.348L481.336 517.619L503.058 548.647L524.781 575.021L534.231 585.061C544.355 595.817 556.737 604.196 570.485 609.597L581.745 614.019C589.254 616.969 597.094 618.999 605.091 620.066L632.986 623.785C637.377 624.37 641.824 624.404 646.224 623.887L658.086 622.491C663.174 621.893 667.874 619.476 671.32 615.685V615.685C677.409 608.989 678.585 599.17 674.251 591.224L673.6 590.031C672.658 588.306 671.941 586.467 671.464 584.56L669.311 575.949C667.1 567.105 666.207 557.982 666.662 548.877L667.527 531.582V496.973C667.527 492.126 667.88 487.286 668.581 482.491L674.268 443.639C675.967 432.027 679.697 420.806 685.287 410.488L697.008 388.852L719.977 357.423C724.274 351.544 729.705 346.585 735.949 342.839V342.839C739.969 340.428 744.283 338.545 748.784 337.237L763.357 333.001M228.426 373.338L226.38 373.85C221.581 375.049 221.972 381.993 226.875 382.646V382.646H234.632M228.426 373.338L247.045 370.235L292.041 360.927L298.525 359.306C306.546 357.301 314.869 356.798 323.073 357.824V357.824L333.186 359.268C333.683 359.339 334.167 359.479 334.626 359.682V359.682C339.221 361.724 338.822 368.373 334.016 369.852L328.652 371.502C328.039 371.691 327.404 371.801 326.762 371.829L305.666 372.746C296.627 373.139 287.687 374.789 279.104 377.65V377.65C269.175 380.959 258.777 382.646 248.311 382.646H234.632M228.426 373.338H232.18C234.391 373.338 236.184 375.131 236.184 377.342V377.342C236.184 377.773 236.115 378.2 235.979 378.609L234.632 382.646M323.073 638.629L335.486 607.601L361.863 512.965L364.449 502.105M323.073 638.629L326.257 647.382C328.152 652.595 332.462 656.562 337.814 658.021V658.021M323.073 638.629L331.57 636.505C334.171 635.855 336.842 635.526 339.523 635.526H345.883C348.209 635.526 350.483 636.214 352.419 637.505V637.505C356.278 640.077 358.27 644.674 357.507 649.248L357.208 651.04M357.208 651.04L353.064 654.592C348.863 658.193 343.151 659.477 337.814 658.021V658.021M357.208 651.04L360.084 637.624C361.268 632.098 362.918 626.683 365.017 621.436L371.415 605.443C373.32 600.683 374.855 595.783 376.008 590.788L383.586 557.956L388.24 512.965L389.921 496.999C390.865 488.033 390.592 478.98 389.11 470.087L388.24 464.871M388.24 464.871L382.81 467.198M388.24 464.871L391.344 463.32M364.449 502.105L375.29 456.579C376.678 450.75 377.379 444.779 377.379 438.787V434.643C377.379 425.945 375.439 417.357 371.699 409.504V409.504C365.375 396.226 354.194 385.785 340.539 380.323V380.323C329.221 375.797 316.708 374.865 304.855 377.71L302.03 378.388C290.404 381.178 279.72 386.982 271.052 395.215L266.467 399.57C257.742 407.858 250.736 417.783 245.848 428.779L238.005 446.424C235.761 451.473 233.938 456.7 232.557 462.051L222.22 502.105L216.013 550.199L213.539 562.072M364.449 502.105L375.2 475.017C376.595 471.502 379.334 468.688 382.81 467.198V467.198M337.814 658.021L349.45 618.46L364.449 568.815L371.173 536.236L375.443 518.092C376.731 512.615 377.556 507.039 377.907 501.424L378.457 492.622C378.772 487.574 379.47 482.558 380.545 477.615L382.81 467.198M403.756 464.871L418.361 517.971C419.999 523.929 421.082 530.026 421.595 536.184L423.927 564.161V607.601L424.448 616.452C425.103 627.597 420.961 638.491 413.066 646.386V646.386M403.756 464.871L414.128 483.727C418.571 491.803 421.875 500.454 423.948 509.435L425.479 516.068L437.113 550.966C438.664 555.619 439.871 560.381 440.724 565.211L444.098 584.33L445.649 607.601V633.975M403.756 464.871L403.101 464.38C399.699 461.828 395.147 461.418 391.344 463.32V463.32M413.066 646.386V646.386C402.062 641.385 393.242 632.566 388.24 621.563V621.563M413.066 646.386H420.824H424.934C433.645 646.386 441.449 640.87 444.426 632.683V632.683C445.231 630.469 445.649 628.115 445.649 625.759V624.414C445.649 618.731 442.904 613.397 438.28 610.094V610.094C435.986 608.456 433.331 607.393 430.541 606.994L414.341 604.68C413.492 604.559 412.635 604.498 411.777 604.498V604.498C406.669 604.498 401.797 606.653 398.36 610.433L388.24 621.563M388.24 621.563L394.447 592.087L397.55 554.853V520.722L394.447 485.039L391.344 463.32M506.162 575.021L508.497 582.806C509.978 587.741 509.369 593.068 506.812 597.541L506.361 598.33C505.21 600.346 503.604 602.065 501.673 603.353V603.353C497.672 606.02 492.632 606.6 488.129 604.912L480.758 602.148C474.254 599.709 469.198 594.464 467.002 587.874L466.311 585.801C465.986 584.826 465.82 583.806 465.82 582.778V582.778M506.162 575.021L501.338 570.198C497.472 566.333 492.229 564.161 486.762 564.161V564.161C480.402 564.161 474.397 567.098 470.491 572.119L468.678 574.45C466.826 576.831 465.82 579.762 465.82 582.778V582.778M506.162 575.021V575.021C504.102 566.782 500.969 558.85 496.845 551.427L495.3 548.647L484.439 530.03L462.717 502.105L442.546 477.282M498.403 604.498L492.197 590.535L484.439 576.572L470.475 543.993L450.971 509.865C447.433 503.675 443.244 497.881 438.474 492.582L422.551 474.892C419.335 471.319 416.381 467.519 413.711 463.521L407.362 454.011M406.859 453.259L407.362 454.011M406.859 453.259L411.514 452.695M407.362 454.011V454.011C409.08 462.723 412.435 471.031 417.25 478.492L425.479 491.245L442.546 522.273L458.062 557.956L465.82 582.778M411.514 452.695L442.546 477.282M763.357 333.001V333.001C770.734 341.154 776.023 350.974 778.77 361.62L781.192 371.002C784.979 385.677 784.343 401.144 779.364 415.458V415.458C776.207 424.531 771.378 432.932 765.126 440.226L761.725 444.193C757.894 448.661 753.677 452.783 749.122 456.509L721.833 478.834L682.024 506.199C675.486 510.693 668.436 514.394 661.023 517.222L563.823 554.307C557.465 556.733 550.876 558.504 544.158 559.591L487.184 568.815L388.24 578.124H326.177L222.22 564.161L213.539 562.072M213.539 562.072L210.402 577.128C208.979 583.958 206.532 590.534 203.143 596.633L199.544 603.112C195.111 611.089 188.372 617.541 180.209 621.622V621.622C170.29 626.581 158.896 627.728 148.187 624.845L143.37 623.549C131.105 620.247 120.25 613.036 112.451 603.01L102.747 590.535L91.5383 575.017C85.5982 566.793 80.9441 557.714 77.7357 548.09L74.3958 538.071C72.6119 532.72 71.2839 527.228 70.4261 521.653L67.5999 503.285C66.2123 494.266 66.0655 485.101 67.1636 476.043L70.5307 448.268C71.3183 441.77 72.7579 435.369 74.8278 429.16L76.7848 423.29C80.5867 411.885 87.1501 401.598 95.8903 393.345L101.578 387.974C107.42 382.457 114.647 378.623 122.491 376.88V376.88C132.784 374.593 143.555 376.033 152.886 380.943L157.914 383.589C164.522 387.067 170.424 391.748 175.316 397.391L177.342 399.73C184.423 407.899 189.691 417.477 192.798 427.833L199.401 449.839C201.163 455.711 202.381 461.732 203.04 467.827L208.255 516.068L213.539 562.072ZM198.946 701.474L265.358 728.688C272.776 731.728 280.533 733.865 288.461 735.053L372.99 747.715C383.097 749.23 393.377 749.185 403.471 747.584L478.154 735.738C488.487 734.099 498.498 730.849 507.822 726.107L588.77 684.936C598.793 679.839 607.884 673.087 615.661 664.966L683.971 593.632C691.739 585.52 698.085 576.157 702.742 565.937L710.621 548.647M198.946 701.474L184.982 683.62L175.355 670.292C168.382 660.638 163.189 649.815 160.021 638.335L152.398 610.703L140.158 561.748C139.01 557.157 138.189 552.49 137.702 547.783L133.779 509.862V454.011L137.794 379.07C138.219 371.14 139.587 363.288 141.869 355.682L147.743 336.104L165.742 289.314C169.234 280.235 174.226 271.807 180.51 264.382V264.382C185.537 258.442 189.743 251.853 193.016 244.792L209.44 209.355C214.807 197.774 222.342 187.328 231.637 178.581L257.131 154.589L319.97 100.935M538.745 36.3451V36.3451C544.934 38.6321 550.864 41.5667 556.436 45.0999L579.862 59.9535M538.745 36.3451L513.919 36.6824L484.439 39.7852L453.987 44.135C445.362 45.367 436.936 47.7206 428.921 51.1362L388.24 68.4735M538.745 36.3451L493.475 19.6169M351.002 19.6169V19.6169C353.938 12.767 359.88 7.66227 367.094 5.79215L378.931 2.72379M351.002 19.6169L360.095 21.6373C363.31 22.3517 366.636 22.4162 369.876 21.8271L375.208 20.8579C379.505 20.0767 383.184 17.3178 385.137 13.4113V13.4113M351.002 19.6169V32.7633C351.002 41.5434 352.158 50.2853 354.441 58.7635L361.863 86.3274L366.59 113.506C367.575 119.165 368.07 124.898 368.07 130.642V165.449V224.403M385.137 13.4113L378.931 2.72379M385.137 13.4113L386.582 18.7511C389.73 30.3846 390.75 42.4914 389.591 54.4876L388.24 68.4735M378.931 2.72379L388.582 1.95791C396.6 1.32163 404.666 1.65505 412.604 2.95093L467.17 11.8587C473.496 12.8913 479.708 14.5298 485.72 16.7515L493.475 19.6169M378.931 2.72379L312.088 8.02809C305.978 8.51303 299.924 9.55885 294.005 11.1524L264.199 19.176C263.109 19.4695 262.042 19.8461 261.01 20.3024V20.3024M379.459 325.244L378.955 331.259C378.723 334.027 374.733 334.19 374.276 331.45V331.45L370.763 284.908M379.459 325.244V292.665V255.431L387.642 191.823M379.459 325.244V325.244C381.127 327.978 385.33 326.854 385.41 323.653L386.689 272.496L402.181 179.557C403.229 173.269 404.876 167.096 407.099 161.122L424.521 114.304C427.219 107.054 430.749 100.142 435.04 93.7065L444.098 80.1218M433.237 72.3648L417.721 103.393L402.205 146.832L389.775 182.735C388.755 185.683 388.04 188.729 387.642 191.823V191.823M433.237 72.3648V72.3648C437.702 69.686 443.453 70.6603 446.787 74.6603L448.752 77.019M433.237 72.3648L444.098 80.1218M448.752 77.019L444.098 80.1218M448.752 77.019V77.019C448.752 83.1843 447.758 89.3093 445.809 95.1581L445.649 95.6359M445.649 95.6359L447.263 81.1186C448.243 72.2927 447.229 63.3591 444.295 54.9775V54.9775C440.134 43.0902 432.297 32.8365 421.918 25.7019L421.602 25.4845C415.952 21.601 409.684 18.7064 403.064 16.9244L390.989 13.6738C379.09 10.4707 366.502 10.9346 354.872 15.0048V15.0048C346.197 18.0405 338.318 22.9913 331.819 29.4895L326.662 34.6453C315.423 45.8831 309.109 61.1255 309.109 77.019V77.019M445.649 95.6359L437.116 109.578M368.07 224.403V249.225L370.763 284.908M368.07 224.403L375.828 177.861L378.068 160.63C378.993 153.521 380.679 146.531 383.098 139.783L386.689 129.767M386.689 129.767L391.344 118.907M386.689 129.767L395.998 135.197M391.344 118.907L397.146 121.782C399.294 122.847 400.653 125.037 400.653 127.434V127.434C400.653 128.939 400.114 130.395 399.134 131.538L395.998 135.197M391.344 118.907V112.701L388.24 86.3274V68.4735M395.998 135.197L391.344 162.346L387.642 191.823M346.347 61.5049V65.0103C346.347 69.8686 347.274 74.6823 349.079 79.1931L351.16 84.394C354.012 91.5239 359.859 97.0363 367.144 99.4644V99.4644C374.601 101.95 382.781 100.943 389.413 96.7231L389.957 96.377C393.918 93.8565 397.167 90.3625 399.393 86.2287L402.301 80.8288C405.201 75.4442 405.664 69.0778 403.574 63.3304V63.3304C401.698 58.1735 397.917 53.9317 393.009 51.4779L388.059 49.0031C384.097 47.0221 379.728 45.9908 375.298 45.9908V45.9908C368.622 45.9908 362.158 48.331 357.029 52.6043L346.347 61.5049ZM346.347 61.5049L341.692 42.888L335.486 19.6169M388.24 68.4735L346.347 86.3274L333.586 92.2163C328.67 94.4853 324.088 97.419 319.97 100.935V100.935M288.938 32.0282L292.536 24.8329C296.134 17.6376 302.892 12.5405 310.799 11.0582V11.0582C318.549 9.6052 326.538 11.7878 332.472 16.9798L335.486 19.6169M288.938 32.0282L295.35 35.5898C300.203 38.2855 305.899 39.0362 311.284 37.69V37.69C313.948 37.0242 316.462 35.8632 318.697 34.2676L322.879 31.2802C325.074 29.713 327.135 27.9671 329.042 26.0604L335.486 19.6169M288.938 32.0282L296.12 43.9957C300.622 51.499 304.12 59.5608 306.525 67.9746L309.109 77.019M309.109 77.019L319.97 100.935M319.97 100.935L335.486 145.281L346.347 180.963L364.966 255.431L370.763 284.908M319.97 100.935L326.745 108.782C332.51 115.46 339.591 120.877 347.545 124.695V124.695C364.504 132.834 384.18 133.119 401.368 125.476L437.116 109.578M261.01 20.3024L207.219 44.0674C199.664 47.4054 192.551 51.6666 186.044 56.7536L175.827 64.7402M261.01 20.3024L256.768 30.1417C251.377 42.6446 248.597 56.1166 248.597 69.7319V73.6307C248.597 82.0614 249.663 90.4582 251.77 98.6213L254.795 110.343C258.876 126.154 266.767 140.726 277.778 152.784L283.238 158.764C290.101 166.279 298.071 172.704 306.874 177.814L314.587 182.292C332.234 192.538 352.593 197.139 372.931 195.479L397.817 193.448C410.956 192.375 423.754 188.716 435.473 182.679L443.197 178.7C460.003 170.044 474.011 156.801 483.597 140.507L490.701 128.431C496.82 118.03 501.006 106.608 503.056 94.7171L503.794 90.4388C506.363 75.5394 505.041 60.2291 499.955 45.9908V45.9908L493.475 19.6169M175.827 64.7402V92.5331L179.07 127.448C180.901 147.166 188.545 165.896 201.034 181.265L202.049 182.515L221.972 205.9C232.33 218.058 245.45 227.558 260.233 233.605L271.871 238.365L326.177 258.534L339.197 261.789C351.103 264.765 363.455 265.524 375.636 264.028L430.44 257.299C440.521 256.061 450.354 253.294 459.602 249.094L480.83 239.454C489.22 235.644 497.043 230.692 504.077 224.74L521.906 209.652C530.99 201.965 538.629 192.718 544.464 182.347L558.258 157.827C561.789 151.55 564.632 144.91 566.737 138.022L575.916 107.986C579.044 97.7503 580.508 87.0793 580.253 76.3798L579.862 59.9535" stroke="#610000" stroke-width="2"/>
<path d="M472.326 325.244L507.713 247.674L518.37 218.903C521.594 210.201 523.59 201.092 524.302 191.839L526.332 165.449V154.236C526.332 149.903 522.004 146.904 517.947 148.425V148.425C515.524 149.333 513.919 151.649 513.919 154.236V176.193C513.919 179.361 513.522 182.516 512.737 185.585L498.811 240.018C497.507 245.114 495.803 250.099 493.715 254.927L472.026 305.076L452.42 337.365C447.996 344.65 441.604 350.538 433.981 354.349L427.073 357.803C423.011 359.833 418.411 360.525 413.933 359.778V359.778C406.635 358.562 400.477 353.678 397.631 346.849L396.649 344.492C395.198 341.01 394.519 337.255 394.659 333.486L395.998 297.319V255.431L401.126 216.981C401.844 211.595 403 206.277 404.582 201.079L413.066 173.206L424.888 135.348C427.341 127.493 430.755 119.97 435.051 112.951L437.116 109.578M472.326 325.244L467.935 334.87C467.561 335.69 467.094 336.465 466.544 337.179L455.815 351.126C454.198 353.228 455.697 356.272 458.349 356.272V356.272C459.162 356.272 459.943 355.963 460.536 355.408L484.439 333.001L487.184 329.899M472.326 325.244L493.749 297.319L517.255 257.734C521.224 251.05 524.4 243.926 526.719 236.506L538.745 198.029L544.951 162.346L546.931 144.532C547.643 138.122 551.153 132.356 556.52 128.778V128.778C560.105 126.388 564.318 125.113 568.628 125.113H572.126C577.711 125.113 583.207 126.514 588.111 129.188L592.343 131.497C595.88 133.426 598.982 136.062 601.456 139.242L604.376 142.997C607.069 146.458 608.346 150.813 607.949 155.181L607.55 159.565C607.221 163.19 604.93 166.343 601.585 167.776V167.776M548.055 149.935L552.159 155.408C555.582 159.971 560.02 163.674 565.122 166.225V166.225C570.224 168.776 575.849 170.103 581.553 170.103H590.246C594.144 170.103 598.001 169.312 601.585 167.776V167.776M403.756 371.787L442.364 363.839C451.746 361.907 460.802 358.638 469.255 354.13L503.058 336.104L563.57 292.665L612.223 255.539C619.066 250.318 625.207 244.234 630.492 237.44L654.956 205.99C662.244 196.62 667.806 186.028 671.381 174.708L675.285 162.346L675.837 159.313C677.435 150.525 674.619 141.512 668.303 135.197V135.197M403.756 371.787L444.098 370.235H479.784L548.055 365.581L628.737 359.375L665.031 352.895C669.792 352.045 674.485 350.851 679.073 349.321L709.42 339.207M403.756 371.787L460.585 365.022C466.134 364.362 471.618 363.237 476.979 361.66L495.3 356.272L500.246 354.212C509.312 350.435 517.772 345.343 525.354 339.1L540.297 326.796L575.983 297.319V297.319C587.137 286.167 601.2 278.373 616.568 274.827L618.77 274.319C628.454 272.084 638.436 271.433 648.329 272.39L667.75 274.27C676.868 275.152 685.821 277.283 694.359 280.603L696.97 281.618C705.233 284.831 713.033 289.129 720.163 294.399L737.085 306.904C742.42 310.847 747.349 315.311 751.8 320.23L763.357 333.001M403.756 371.787H394.952C387.51 371.787 380.707 367.582 377.379 360.927V360.927M71.7151 590.535L28.7733 508.955C26.3729 504.395 24.3286 499.656 22.6587 494.781L7.09978 449.357M71.7151 590.535L168.463 681.821C177.331 690.188 187.664 696.85 198.946 701.474V701.474M71.7151 590.535L122.054 621.993C129.834 626.855 138.245 630.623 147.052 633.191L208.255 651.04L293.593 666.554L417.721 672.76L492.055 667.451C500.392 666.855 508.621 665.217 516.551 662.574L579.086 641.732L642.143 611.275C649.124 607.903 655.689 603.73 661.706 598.842L681.096 583.088C687.481 577.9 693.202 571.945 698.128 565.356L710.621 548.647M668.303 135.197L658.218 125.113L619.004 87.2106C614.127 82.497 608.784 78.2917 603.056 74.6598L579.862 59.9535M668.303 135.197L700.915 174.919C707.578 183.035 712.921 192.15 716.748 201.929L738.901 258.534L752.926 309.53C754.948 316.879 756.122 324.436 756.427 332.052L758.54 384.881C758.893 393.695 758.078 402.517 756.116 411.117L741.169 476.645C739.661 483.258 737.483 489.701 734.67 495.874L710.621 548.647M601.585 167.776L586.844 198.029L557.364 243.02L520.126 292.665L487.184 329.899M487.184 329.899L517.023 301.973L548.055 266.291L572.88 232.16L588.988 204.904C591.692 200.328 594.027 195.543 595.971 190.596L601.585 176.309M601.585 176.309L604.601 173.162C614.303 163.039 626.574 155.744 640.101 152.055L647.363 150.074C651.463 148.956 655.73 148.581 659.963 148.966V148.966C666.921 149.598 673.539 152.262 678.995 156.626L680.747 158.028C684.324 160.889 687.421 164.301 689.924 168.138L703.554 189.035C707.454 195.014 710.702 201.393 713.243 208.063L721.833 230.608L730.237 249.935C734.914 260.692 737.028 272.388 736.411 284.102V284.102C736.005 291.833 734.404 299.483 731.685 306.732V306.732C728.261 315.863 723.101 324.285 716.51 331.473L709.42 339.207M601.585 176.309L597.706 205.786L596.16 215.574C594.107 228.572 594.64 241.847 597.728 254.639L599.749 263.007C602.503 274.416 607.243 285.25 613.754 295.015L616.325 298.87L627.186 313.68C631.302 319.291 636.213 324.272 641.765 328.467V328.467C658.594 341.18 680.171 345.829 700.742 341.172L709.42 339.207M709.42 339.207L693.659 354.966C689.692 358.933 685.398 362.559 680.823 365.805L645.872 390.606C641.696 393.57 637.298 396.208 632.719 398.497L594.717 417.496C589.479 420.115 584.021 422.268 578.405 423.932L544.951 433.843L451.856 447.806L411.514 452.695M7.09978 449.357L2.14143 400.174C1.38293 392.65 1.48028 385.065 2.43161 377.563L13.1979 292.665M7.09978 449.357L21.5098 468.051C27.0259 475.206 33.4863 481.582 40.7146 487.002L60.5415 501.871C64.8802 505.124 69.4764 508.019 74.2846 510.528L127.535 538.307C134.774 542.084 142.447 544.959 150.385 546.87L213.539 562.072M13.1979 292.665L13.7109 290.869C15.1399 285.868 16.957 280.986 19.1455 276.268L61.1775 185.647C64.0574 179.438 67.5671 173.541 71.6515 168.049L76.3699 161.704M13.1979 292.665V292.665C14.9527 298.806 17.9401 304.525 21.9778 309.474L53.8701 348.563C60.5525 356.754 68.4913 363.833 77.3909 369.537L124.469 399.712L154.229 414.59C161.259 418.104 168.679 420.778 176.335 422.555L251.7 440.049L290.783 447.864C295.752 448.858 300.79 449.473 305.852 449.703L394.408 453.727C398.564 453.916 402.729 453.76 406.859 453.259V453.259M76.3699 161.704L102.465 126.616C107.801 119.44 114.075 113.013 121.12 107.506L175.827 64.7402M76.3699 161.704L81.501 180.87C84.2687 191.208 88.6779 201.035 94.5603 209.975L114.222 239.856C120.995 250.151 129.613 259.105 139.641 266.267L162.054 282.274C165.956 285.06 170.053 287.563 174.313 289.762L216.013 311.282L281.18 339.207L328.133 355.866C328.866 356.126 329.673 356.076 330.368 355.728V355.728C332.477 354.674 332.477 351.665 330.368 350.611L323.073 346.964L304.962 337.91C298.437 334.647 291.574 332.109 284.496 330.34L283.275 330.034C270.622 326.872 258.711 321.264 248.211 313.528L234.632 303.525L208.842 286.333C204.321 283.319 200.053 279.942 196.08 276.235L185.389 266.258C180.992 262.154 176.175 258.525 171.017 255.431V255.431M171.017 255.431L169.142 250.744C168.349 248.762 168.285 246.562 168.96 244.537L169.843 241.888C170.544 239.784 172.513 238.365 174.73 238.365H176.972C179.386 238.365 181.09 240.73 180.327 243.02V243.02M171.017 255.431L175.306 251.143C177.587 248.862 179.306 246.08 180.327 243.02V243.02M180.327 243.02V243.02C188.502 243.02 196.75 244.022 204.681 246.005L217.565 249.225L234.003 254.978C243.675 258.363 252.769 263.214 260.967 269.362L273.422 278.702L295.145 298.87L330.831 331.45L351.959 346.539C352.353 346.821 352.787 347.042 353.247 347.195V347.195C356.93 348.423 360.495 345.05 359.473 341.305L357.443 333.86C357.287 333.289 357.075 332.735 356.81 332.205L346.347 311.282L333.177 290.009C328.53 282.504 322.911 275.647 316.465 269.618L278.077 233.711L253.252 208.889M253.252 208.889L243.942 191.823M253.252 208.889L253.979 208.646C259.517 206.8 264.212 203.034 267.216 198.029V198.029V198.029C270.299 193.919 272.699 189.338 274.324 184.464L274.974 182.515M243.942 191.823L229.978 182.515M243.942 191.823L250.053 185.713C252.177 183.589 254.554 181.733 257.131 180.188V180.188M229.978 182.515L228.702 177.411C227.568 172.878 228.897 168.082 232.201 164.777L235.009 161.97C236.692 160.287 239.155 159.649 241.443 160.303V160.303C245.239 161.387 247.221 165.557 245.666 169.185L244.908 170.953C244.278 172.423 243.233 173.679 241.902 174.566L229.978 182.515ZM248.597 165.449L257.811 174.662C259.436 176.287 259.101 179.006 257.131 180.188V180.188M257.131 180.188V180.188C263.492 178.72 270.174 180.281 275.227 184.414L284.284 191.823L296.282 202.964C302.736 208.956 308.371 215.775 313.039 223.243L325.337 242.918C327.962 247.117 330.271 251.505 332.246 256.046L344.796 284.908L361.863 320.59L371.173 346.964L377.379 360.927M377.379 360.927L382.398 369.29C385.223 373.999 386.972 379.274 387.519 384.739V384.739C387.995 389.505 389.387 394.134 391.618 398.372L403.756 421.432L406.538 427.55C409.843 434.822 414.009 441.671 418.944 447.952L428.582 460.217L442.546 477.282M377.379 360.927L386.675 371.151C390.751 375.634 393.587 381.104 394.901 387.019V387.019C395.629 390.292 396.825 393.444 398.454 396.375L411.514 419.88L419.469 431.811C422.436 436.261 425.756 440.466 429.396 444.386L436.765 452.321C441.639 457.57 445.936 463.327 449.58 469.493L464.268 494.348L481.336 517.619L503.058 548.647L524.781 575.021L534.231 585.061C544.355 595.817 556.737 604.196 570.485 609.597L581.745 614.019C589.254 616.969 597.094 618.999 605.091 620.066L632.986 623.785C637.377 624.37 641.824 624.404 646.224 623.887L658.086 622.491C663.174 621.893 667.874 619.476 671.32 615.685V615.685C677.409 608.989 678.585 599.17 674.251 591.224L673.6 590.031C672.658 588.306 671.941 586.467 671.464 584.56L669.311 575.949C667.1 567.105 666.207 557.982 666.662 548.877L667.527 531.582V496.973C667.527 492.126 667.88 487.286 668.581 482.491L674.268 443.639C675.967 432.027 679.697 420.806 685.287 410.488L697.008 388.852L719.977 357.423C724.274 351.544 729.705 346.585 735.949 342.839V342.839C739.969 340.428 744.283 338.545 748.784 337.237L763.357 333.001M228.426 373.338L226.38 373.85C221.581 375.049 221.972 381.993 226.875 382.646V382.646H234.632M228.426 373.338L247.045 370.235L292.041 360.927L298.525 359.306C306.546 357.301 314.869 356.798 323.073 357.824V357.824L333.186 359.268C333.683 359.339 334.167 359.479 334.626 359.682V359.682C339.221 361.724 338.822 368.373 334.016 369.852L328.652 371.502C328.039 371.691 327.404 371.801 326.762 371.829L305.666 372.746C296.627 373.139 287.687 374.789 279.104 377.65V377.65C269.175 380.959 258.777 382.646 248.311 382.646H234.632M228.426 373.338H232.18C234.391 373.338 236.184 375.131 236.184 377.342V377.342C236.184 377.773 236.115 378.2 235.979 378.609L234.632 382.646M323.073 638.629L335.486 607.601L361.863 512.965L364.449 502.105M323.073 638.629L326.257 647.382C328.152 652.595 332.462 656.562 337.814 658.021V658.021M323.073 638.629L331.57 636.505C334.171 635.855 336.842 635.526 339.523 635.526H345.883C348.209 635.526 350.483 636.214 352.419 637.505V637.505C356.278 640.077 358.27 644.674 357.507 649.248L357.208 651.04M357.208 651.04L353.064 654.592C348.863 658.193 343.151 659.477 337.814 658.021V658.021M357.208 651.04L360.084 637.624C361.268 632.098 362.918 626.683 365.017 621.436L371.415 605.443C373.32 600.683 374.855 595.783 376.008 590.788L383.586 557.956L388.24 512.965L389.921 496.999C390.865 488.033 390.592 478.98 389.11 470.087L388.24 464.871M388.24 464.871L382.81 467.198M388.24 464.871L391.344 463.32M364.449 502.105L375.29 456.579C376.678 450.75 377.379 444.779 377.379 438.787V434.643C377.379 425.945 375.439 417.357 371.699 409.504V409.504C365.375 396.226 354.194 385.785 340.539 380.323V380.323C329.221 375.797 316.708 374.865 304.855 377.71L302.03 378.388C290.404 381.178 279.72 386.982 271.052 395.215L266.467 399.57C257.742 407.858 250.736 417.783 245.848 428.779L238.005 446.424C235.761 451.473 233.938 456.7 232.557 462.051L222.22 502.105L216.013 550.199L213.539 562.072M364.449 502.105L375.2 475.017C376.595 471.502 379.334 468.688 382.81 467.198V467.198M337.814 658.021L349.45 618.46L364.449 568.815L371.173 536.236L375.443 518.092C376.731 512.615 377.556 507.039 377.907 501.424L378.457 492.622C378.772 487.574 379.47 482.558 380.545 477.615L382.81 467.198M403.756 464.871L418.361 517.971C419.999 523.929 421.082 530.026 421.595 536.184L423.927 564.161V607.601L424.448 616.452C425.103 627.597 420.961 638.491 413.066 646.386V646.386M403.756 464.871L414.128 483.727C418.571 491.803 421.875 500.454 423.948 509.435L425.479 516.068L437.113 550.966C438.664 555.619 439.871 560.381 440.724 565.211L444.098 584.33L445.649 607.601V633.975M403.756 464.871L403.101 464.38C399.699 461.828 395.147 461.418 391.344 463.32V463.32M413.066 646.386V646.386C402.062 641.385 393.242 632.566 388.24 621.563V621.563M413.066 646.386H420.824H424.934C433.645 646.386 441.449 640.87 444.426 632.683V632.683C445.231 630.469 445.649 628.115 445.649 625.759V624.414C445.649 618.731 442.904 613.397 438.28 610.094V610.094C435.986 608.456 433.331 607.393 430.541 606.994L414.341 604.68C413.492 604.559 412.635 604.498 411.777 604.498V604.498C406.669 604.498 401.797 606.653 398.36 610.433L388.24 621.563M388.24 621.563L394.447 592.087L397.55 554.853V520.722L394.447 485.039L391.344 463.32M506.162 575.021L508.497 582.806C509.978 587.741 509.369 593.068 506.812 597.541L506.361 598.33C505.21 600.346 503.604 602.065 501.673 603.353V603.353C497.672 606.02 492.632 606.6 488.129 604.912L480.758 602.148C474.254 599.709 469.198 594.464 467.002 587.874L466.311 585.801C465.986 584.826 465.82 583.806 465.82 582.778V582.778M506.162 575.021L501.338 570.198C497.472 566.333 492.229 564.161 486.762 564.161V564.161C480.402 564.161 474.397 567.098 470.491 572.119L468.678 574.45C466.826 576.831 465.82 579.762 465.82 582.778V582.778M506.162 575.021V575.021C504.102 566.782 500.969 558.85 496.845 551.427L495.3 548.647L484.439 530.03L462.717 502.105L442.546 477.282M498.403 604.498L492.197 590.535L484.439 576.572L470.475 543.993L450.971 509.865C447.433 503.675 443.244 497.881 438.474 492.582L422.551 474.892C419.335 471.319 416.381 467.519 413.711 463.521L407.362 454.011M406.859 453.259L407.362 454.011M406.859 453.259L411.514 452.695M407.362 454.011V454.011C409.08 462.723 412.435 471.031 417.25 478.492L425.479 491.245L442.546 522.273L458.062 557.956L465.82 582.778M411.514 452.695L442.546 477.282M763.357 333.001V333.001C770.734 341.154 776.023 350.974 778.77 361.62L781.192 371.002C784.979 385.677 784.343 401.144 779.364 415.458V415.458C776.207 424.531 771.378 432.932 765.126 440.226L761.725 444.193C757.894 448.661 753.677 452.783 749.122 456.509L721.833 478.834L682.024 506.199C675.486 510.693 668.436 514.394 661.023 517.222L563.823 554.307C557.465 556.733 550.876 558.504 544.158 559.591L487.184 568.815L388.24 578.124H326.177L222.22 564.161L213.539 562.072M213.539 562.072L210.402 577.128C208.979 583.958 206.532 590.534 203.143 596.633L199.544 603.112C195.111 611.089 188.372 617.541 180.209 621.622V621.622C170.29 626.581 158.896 627.728 148.187 624.845L143.37 623.549C131.105 620.247 120.25 613.036 112.451 603.01L102.747 590.535L91.5383 575.017C85.5982 566.793 80.9441 557.714 77.7357 548.09L74.3958 538.071C72.6119 532.72 71.2839 527.228 70.4261 521.653L67.5999 503.285C66.2123 494.266 66.0655 485.101 67.1636 476.043L70.5307 448.268C71.3183 441.77 72.7579 435.369 74.8278 429.16L76.7848 423.29C80.5867 411.885 87.1501 401.598 95.8903 393.345L101.578 387.974C107.42 382.457 114.647 378.623 122.491 376.88V376.88C132.784 374.593 143.555 376.033 152.886 380.943L157.914 383.589C164.522 387.067 170.424 391.748 175.316 397.391L177.342 399.73C184.423 407.899 189.691 417.477 192.798 427.833L199.401 449.839C201.163 455.711 202.381 461.732 203.04 467.827L208.255 516.068L213.539 562.072ZM198.946 701.474L265.358 728.688C272.776 731.728 280.533 733.865 288.461 735.053L372.99 747.715C383.097 749.23 393.377 749.185 403.471 747.584L478.154 735.738C488.487 734.099 498.498 730.849 507.822 726.107L588.77 684.936C598.793 679.839 607.884 673.087 615.661 664.966L683.971 593.632C691.739 585.52 698.085 576.157 702.742 565.937L710.621 548.647M198.946 701.474L184.982 683.62L175.355 670.292C168.382 660.638 163.189 649.815 160.021 638.335L152.398 610.703L140.158 561.748C139.01 557.157 138.189 552.49 137.702 547.783L133.779 509.862V454.011L137.794 379.07C138.219 371.14 139.587 363.288 141.869 355.682L147.743 336.104L165.742 289.314C169.234 280.235 174.226 271.807 180.51 264.382V264.382C185.537 258.442 189.743 251.853 193.016 244.792L209.44 209.355C214.807 197.774 222.342 187.328 231.637 178.581L257.131 154.589L319.97 100.935M538.745 36.3451V36.3451C544.934 38.6321 550.864 41.5667 556.436 45.0999L579.862 59.9535M538.745 36.3451L513.919 36.6824L484.439 39.7852L453.987 44.135C445.362 45.367 436.936 47.7206 428.921 51.1362L388.24 68.4735M538.745 36.3451L493.475 19.6169M351.002 19.6169V19.6169C353.938 12.767 359.88 7.66227 367.094 5.79215L378.931 2.72379M351.002 19.6169L360.095 21.6373C363.31 22.3517 366.636 22.4162 369.876 21.8271L375.208 20.8579C379.505 20.0767 383.184 17.3178 385.137 13.4113V13.4113M351.002 19.6169V32.7633C351.002 41.5434 352.158 50.2853 354.441 58.7635L361.863 86.3274L366.59 113.506C367.575 119.165 368.07 124.898 368.07 130.642V165.449V224.403M385.137 13.4113L378.931 2.72379M385.137 13.4113L386.582 18.7511C389.73 30.3846 390.75 42.4914 389.591 54.4876L388.24 68.4735M378.931 2.72379L388.582 1.95791C396.6 1.32163 404.666 1.65505 412.604 2.95093L467.17 11.8587C473.496 12.8913 479.708 14.5298 485.72 16.7515L493.475 19.6169M378.931 2.72379L312.088 8.02809C305.978 8.51303 299.924 9.55885 294.005 11.1524L264.199 19.176C263.109 19.4695 262.042 19.8461 261.01 20.3024V20.3024M379.459 325.244L378.955 331.259C378.723 334.027 374.733 334.19 374.276 331.45V331.45L370.763 284.908M379.459 325.244V292.665V255.431L387.642 191.823M379.459 325.244V325.244C381.127 327.978 385.33 326.854 385.41 323.653L386.689 272.496L402.181 179.557C403.229 173.269 404.876 167.096 407.099 161.122L424.521 114.304C427.219 107.054 430.749 100.142 435.04 93.7065L444.098 80.1218M433.237 72.3648L417.721 103.393L402.205 146.832L389.775 182.735C388.755 185.683 388.04 188.729 387.642 191.823V191.823M433.237 72.3648V72.3648C437.702 69.686 443.453 70.6603 446.787 74.6603L448.752 77.019M433.237 72.3648L444.098 80.1218M448.752 77.019L444.098 80.1218M448.752 77.019V77.019C448.752 83.1843 447.758 89.3093 445.809 95.1581L445.649 95.6359M445.649 95.6359L447.263 81.1186C448.243 72.2927 447.229 63.3591 444.295 54.9775V54.9775C440.134 43.0902 432.297 32.8365 421.918 25.7019L421.602 25.4845C415.952 21.601 409.684 18.7064 403.064 16.9244L390.989 13.6738C379.09 10.4707 366.502 10.9346 354.872 15.0048V15.0048C346.197 18.0405 338.318 22.9913 331.819 29.4895L326.662 34.6453C315.423 45.8831 309.109 61.1255 309.109 77.019V77.019M445.649 95.6359L437.116 109.578M368.07 224.403V249.225L370.763 284.908M368.07 224.403L375.828 177.861L378.068 160.63C378.993 153.521 380.679 146.531 383.098 139.783L386.689 129.767M386.689 129.767L391.344 118.907M386.689 129.767L395.998 135.197M391.344 118.907L397.146 121.782C399.294 122.847 400.653 125.037 400.653 127.434V127.434C400.653 128.939 400.114 130.395 399.134 131.538L395.998 135.197M391.344 118.907V112.701L388.24 86.3274V68.4735M395.998 135.197L391.344 162.346L387.642 191.823M346.347 61.5049V65.0103C346.347 69.8686 347.274 74.6823 349.079 79.1931L351.16 84.394C354.012 91.5239 359.859 97.0363 367.144 99.4644V99.4644C374.601 101.95 382.781 100.943 389.413 96.7231L389.957 96.377C393.918 93.8565 397.167 90.3625 399.393 86.2287L402.301 80.8288C405.201 75.4442 405.664 69.0778 403.574 63.3304V63.3304C401.698 58.1735 397.917 53.9317 393.009 51.4779L388.059 49.0031C384.097 47.0221 379.728 45.9908 375.298 45.9908V45.9908C368.622 45.9908 362.158 48.331 357.029 52.6043L346.347 61.5049ZM346.347 61.5049L341.692 42.888L335.486 19.6169M388.24 68.4735L346.347 86.3274L333.586 92.2163C328.67 94.4853 324.088 97.419 319.97 100.935V100.935M288.938 32.0282L292.536 24.8329C296.134 17.6376 302.892 12.5405 310.799 11.0582V11.0582C318.549 9.6052 326.538 11.7878 332.472 16.9798L335.486 19.6169M288.938 32.0282L295.35 35.5898C300.203 38.2855 305.899 39.0362 311.284 37.69V37.69C313.948 37.0242 316.462 35.8632 318.697 34.2676L322.879 31.2802C325.074 29.713 327.135 27.9671 329.042 26.0604L335.486 19.6169M288.938 32.0282L296.12 43.9957C300.622 51.499 304.12 59.5608 306.525 67.9746L309.109 77.019M309.109 77.019L319.97 100.935M319.97 100.935L335.486 145.281L346.347 180.963L364.966 255.431L370.763 284.908M319.97 100.935L326.745 108.782C332.51 115.46 339.591 120.877 347.545 124.695V124.695C364.504 132.834 384.18 133.119 401.368 125.476L437.116 109.578M261.01 20.3024L207.219 44.0674C199.664 47.4054 192.551 51.6666 186.044 56.7536L175.827 64.7402M261.01 20.3024L256.768 30.1417C251.377 42.6446 248.597 56.1166 248.597 69.7319V73.6307C248.597 82.0614 249.663 90.4582 251.77 98.6213L254.795 110.343C258.876 126.154 266.767 140.726 277.778 152.784L283.238 158.764C290.101 166.279 298.071 172.704 306.874 177.814L314.587 182.292C332.234 192.538 352.593 197.139 372.931 195.479L397.817 193.448C410.956 192.375 423.754 188.716 435.473 182.679L443.197 178.7C460.003 170.044 474.011 156.801 483.597 140.507L490.701 128.431C496.82 118.03 501.006 106.608 503.056 94.7171L503.794 90.4388C506.363 75.5394 505.041 60.2291 499.955 45.9908V45.9908L493.475 19.6169M175.827 64.7402V92.5331L179.07 127.448C180.901 147.166 188.545 165.896 201.034 181.265L202.049 182.515L221.972 205.9C232.33 218.058 245.45 227.558 260.233 233.605L271.871 238.365L326.177 258.534L339.197 261.789C351.103 264.765 363.455 265.524 375.636 264.028L430.44 257.299C440.521 256.061 450.354 253.294 459.602 249.094L480.83 239.454C489.22 235.644 497.043 230.692 504.077 224.74L521.906 209.652C530.99 201.965 538.629 192.718 544.464 182.347L558.258 157.827C561.789 151.55 564.632 144.91 566.737 138.022L575.916 107.986C579.044 97.7503 580.508 87.0793 580.253 76.3798L579.862 59.9535" stroke="#610000" stroke-width="2"/>
<path d="M472.326 325.244L507.713 247.674L518.37 218.903C521.594 210.201 523.59 201.092 524.302 191.839L526.332 165.449V154.236C526.332 149.903 522.004 146.904 517.947 148.425V148.425C515.524 149.333 513.919 151.649 513.919 154.236V176.193C513.919 179.361 513.522 182.516 512.737 185.585L498.811 240.018C497.507 245.114 495.803 250.099 493.715 254.927L472.026 305.076L452.42 337.365C447.996 344.65 441.604 350.538 433.981 354.349L427.073 357.803C423.011 359.833 418.411 360.525 413.933 359.778V359.778C406.635 358.562 400.477 353.678 397.631 346.849L396.649 344.492C395.198 341.01 394.519 337.255 394.659 333.486L395.998 297.319V255.431L401.126 216.981C401.844 211.595 403 206.277 404.582 201.079L413.066 173.206L424.888 135.348C427.341 127.493 430.755 119.97 435.051 112.951L437.116 109.578M472.326 325.244L467.935 334.87C467.561 335.69 467.094 336.465 466.544 337.179L455.815 351.126C454.198 353.228 455.697 356.272 458.349 356.272V356.272C459.162 356.272 459.943 355.963 460.536 355.408L484.439 333.001L487.184 329.899M472.326 325.244L493.749 297.319L517.255 257.734C521.224 251.05 524.4 243.926 526.719 236.506L538.745 198.029L544.951 162.346L546.931 144.532C547.643 138.122 551.153 132.356 556.52 128.778V128.778C560.105 126.388 564.318 125.113 568.628 125.113H572.126C577.711 125.113 583.207 126.514 588.111 129.188L592.343 131.497C595.88 133.426 598.982 136.062 601.456 139.242L604.376 142.997C607.069 146.458 608.346 150.813 607.949 155.181L607.55 159.565C607.221 163.19 604.93 166.343 601.585 167.776V167.776M548.055 149.935L552.159 155.408C555.582 159.971 560.02 163.674 565.122 166.225V166.225C570.224 168.776 575.849 170.103 581.553 170.103H590.246C594.144 170.103 598.001 169.312 601.585 167.776V167.776M403.756 371.787L442.364 363.839C451.746 361.907 460.802 358.638 469.255 354.13L503.058 336.104L563.57 292.665L612.223 255.539C619.066 250.318 625.207 244.234 630.492 237.44L654.956 205.99C662.244 196.62 667.806 186.028 671.381 174.708L675.285 162.346L675.837 159.313C677.435 150.525 674.619 141.512 668.303 135.197V135.197M403.756 371.787L444.098 370.235H479.784L548.055 365.581L628.737 359.375L665.031 352.895C669.792 352.045 674.485 350.851 679.073 349.321L709.42 339.207M403.756 371.787L460.585 365.022C466.134 364.362 471.618 363.237 476.979 361.66L495.3 356.272L500.246 354.212C509.312 350.435 517.772 345.343 525.354 339.1L540.297 326.796L575.983 297.319V297.319C587.137 286.167 601.2 278.373 616.568 274.827L618.77 274.319C628.454 272.084 638.436 271.433 648.329 272.39L667.75 274.27C676.868 275.152 685.821 277.283 694.359 280.603L696.97 281.618C705.233 284.831 713.033 289.129 720.163 294.399L737.085 306.904C742.42 310.847 747.349 315.311 751.8 320.23L763.357 333.001M403.756 371.787H394.952C387.51 371.787 380.707 367.582 377.379 360.927V360.927M71.7151 590.535L28.7733 508.955C26.3729 504.395 24.3286 499.656 22.6587 494.781L7.09978 449.357M71.7151 590.535L168.463 681.821C177.331 690.188 187.664 696.85 198.946 701.474V701.474M71.7151 590.535L122.054 621.993C129.834 626.855 138.245 630.623 147.052 633.191L208.255 651.04L293.593 666.554L417.721 672.76L492.055 667.451C500.392 666.855 508.621 665.217 516.551 662.574L579.086 641.732L642.143 611.275C649.124 607.903 655.689 603.73 661.706 598.842L681.096 583.088C687.481 577.9 693.202 571.945 698.128 565.356L710.621 548.647M668.303 135.197L658.218 125.113L619.004 87.2106C614.127 82.497 608.784 78.2917 603.056 74.6598L579.862 59.9535M668.303 135.197L700.915 174.919C707.578 183.035 712.921 192.15 716.748 201.929L738.901 258.534L752.926 309.53C754.948 316.879 756.122 324.436 756.427 332.052L758.54 384.881C758.893 393.695 758.078 402.517 756.116 411.117L741.169 476.645C739.661 483.258 737.483 489.701 734.67 495.874L710.621 548.647M601.585 167.776L586.844 198.029L557.364 243.02L520.126 292.665L487.184 329.899M487.184 329.899L517.023 301.973L548.055 266.291L572.88 232.16L588.988 204.904C591.692 200.328 594.027 195.543 595.971 190.596L601.585 176.309M601.585 176.309L604.601 173.162C614.303 163.039 626.574 155.744 640.101 152.055L647.363 150.074C651.463 148.956 655.73 148.581 659.963 148.966V148.966C666.921 149.598 673.539 152.262 678.995 156.626L680.747 158.028C684.324 160.889 687.421 164.301 689.924 168.138L703.554 189.035C707.454 195.014 710.702 201.393 713.243 208.063L721.833 230.608L730.237 249.935C734.914 260.692 737.028 272.388 736.411 284.102V284.102C736.005 291.833 734.404 299.483 731.685 306.732V306.732C728.261 315.863 723.101 324.285 716.51 331.473L709.42 339.207M601.585 176.309L597.706 205.786L596.16 215.574C594.107 228.572 594.64 241.847 597.728 254.639L599.749 263.007C602.503 274.416 607.243 285.25 613.754 295.015L616.325 298.87L627.186 313.68C631.302 319.291 636.213 324.272 641.765 328.467V328.467C658.594 341.18 680.171 345.829 700.742 341.172L709.42 339.207M709.42 339.207L693.659 354.966C689.692 358.933 685.398 362.559 680.823 365.805L645.872 390.606C641.696 393.57 637.298 396.208 632.719 398.497L594.717 417.496C589.479 420.115 584.021 422.268 578.405 423.932L544.951 433.843L451.856 447.806L411.514 452.695M7.09978 449.357L2.14143 400.174C1.38293 392.65 1.48028 385.065 2.43161 377.563L13.1979 292.665M7.09978 449.357L21.5098 468.051C27.0259 475.206 33.4863 481.582 40.7146 487.002L60.5415 501.871C64.8802 505.124 69.4764 508.019 74.2846 510.528L127.535 538.307C134.774 542.084 142.447 544.959 150.385 546.87L213.539 562.072M13.1979 292.665L13.7109 290.869C15.1399 285.868 16.957 280.986 19.1455 276.268L61.1775 185.647C64.0574 179.438 67.5671 173.541 71.6515 168.049L76.3699 161.704M13.1979 292.665V292.665C14.9527 298.806 17.9401 304.525 21.9778 309.474L53.8701 348.563C60.5525 356.754 68.4913 363.833 77.3909 369.537L124.469 399.712L154.229 414.59C161.259 418.104 168.679 420.778 176.335 422.555L251.7 440.049L290.783 447.864C295.752 448.858 300.79 449.473 305.852 449.703L394.408 453.727C398.564 453.916 402.729 453.76 406.859 453.259V453.259M76.3699 161.704L102.465 126.616C107.801 119.44 114.075 113.013 121.12 107.506L175.827 64.7402M76.3699 161.704L81.501 180.87C84.2687 191.208 88.6779 201.035 94.5603 209.975L114.222 239.856C120.995 250.151 129.613 259.105 139.641 266.267L162.054 282.274C165.956 285.06 170.053 287.563 174.313 289.762L216.013 311.282L281.18 339.207L328.133 355.866C328.866 356.126 329.673 356.076 330.368 355.728V355.728C332.477 354.674 332.477 351.665 330.368 350.611L323.073 346.964L304.962 337.91C298.437 334.647 291.574 332.109 284.496 330.34L283.275 330.034C270.622 326.872 258.711 321.264 248.211 313.528L234.632 303.525L208.842 286.333C204.321 283.319 200.053 279.942 196.08 276.235L185.389 266.258C180.992 262.154 176.175 258.525 171.017 255.431V255.431M171.017 255.431L169.142 250.744C168.349 248.762 168.285 246.562 168.96 244.537L169.843 241.888C170.544 239.784 172.513 238.365 174.73 238.365H176.972C179.386 238.365 181.09 240.73 180.327 243.02V243.02M171.017 255.431L175.306 251.143C177.587 248.862 179.306 246.08 180.327 243.02V243.02M180.327 243.02V243.02C188.502 243.02 196.75 244.022 204.681 246.005L217.565 249.225L234.003 254.978C243.675 258.363 252.769 263.214 260.967 269.362L273.422 278.702L295.145 298.87L330.831 331.45L351.959 346.539C352.353 346.821 352.787 347.042 353.247 347.195V347.195C356.93 348.423 360.495 345.05 359.473 341.305L357.443 333.86C357.287 333.289 357.075 332.735 356.81 332.205L346.347 311.282L333.177 290.009C328.53 282.504 322.911 275.647 316.465 269.618L278.077 233.711L253.252 208.889M253.252 208.889L243.942 191.823M253.252 208.889L253.979 208.646C259.517 206.8 264.212 203.034 267.216 198.029V198.029V198.029C270.299 193.919 272.699 189.338 274.324 184.464L274.974 182.515M243.942 191.823L229.978 182.515M243.942 191.823L250.053 185.713C252.177 183.589 254.554 181.733 257.131 180.188V180.188M229.978 182.515L228.702 177.411C227.568 172.878 228.897 168.082 232.201 164.777L235.009 161.97C236.692 160.287 239.155 159.649 241.443 160.303V160.303C245.239 161.387 247.221 165.557 245.666 169.185L244.908 170.953C244.278 172.423 243.233 173.679 241.902 174.566L229.978 182.515ZM248.597 165.449L257.811 174.662C259.436 176.287 259.101 179.006 257.131 180.188V180.188M257.131 180.188V180.188C263.492 178.72 270.174 180.281 275.227 184.414L284.284 191.823L296.282 202.964C302.736 208.956 308.371 215.775 313.039 223.243L325.337 242.918C327.962 247.117 330.271 251.505 332.246 256.046L344.796 284.908L361.863 320.59L371.173 346.964L377.379 360.927M377.379 360.927L382.398 369.29C385.223 373.999 386.972 379.274 387.519 384.739V384.739C387.995 389.505 389.387 394.134 391.618 398.372L403.756 421.432L406.538 427.55C409.843 434.822 414.009 441.671 418.944 447.952L428.582 460.217L442.546 477.282M377.379 360.927L386.675 371.151C390.751 375.634 393.587 381.104 394.901 387.019V387.019C395.629 390.292 396.825 393.444 398.454 396.375L411.514 419.88L419.469 431.811C422.436 436.261 425.756 440.466 429.396 444.386L436.765 452.321C441.639 457.57 445.936 463.327 449.58 469.493L464.268 494.348L481.336 517.619L503.058 548.647L524.781 575.021L534.231 585.061C544.355 595.817 556.737 604.196 570.485 609.597L581.745 614.019C589.254 616.969 597.094 618.999 605.091 620.066L632.986 623.785C637.377 624.37 641.824 624.404 646.224 623.887L658.086 622.491C663.174 621.893 667.874 619.476 671.32 615.685V615.685C677.409 608.989 678.585 599.17 674.251 591.224L673.6 590.031C672.658 588.306 671.941 586.467 671.464 584.56L669.311 575.949C667.1 567.105 666.207 557.982 666.662 548.877L667.527 531.582V496.973C667.527 492.126 667.88 487.286 668.581 482.491L674.268 443.639C675.967 432.027 679.697 420.806 685.287 410.488L697.008 388.852L719.977 357.423C724.274 351.544 729.705 346.585 735.949 342.839V342.839C739.969 340.428 744.283 338.545 748.784 337.237L763.357 333.001M228.426 373.338L226.38 373.85C221.581 375.049 221.972 381.993 226.875 382.646V382.646H234.632M228.426 373.338L247.045 370.235L292.041 360.927L298.525 359.306C306.546 357.301 314.869 356.798 323.073 357.824V357.824L333.186 359.268C333.683 359.339 334.167 359.479 334.626 359.682V359.682C339.221 361.724 338.822 368.373 334.016 369.852L328.652 371.502C328.039 371.691 327.404 371.801 326.762 371.829L305.666 372.746C296.627 373.139 287.687 374.789 279.104 377.65V377.65C269.175 380.959 258.777 382.646 248.311 382.646H234.632M228.426 373.338H232.18C234.391 373.338 236.184 375.131 236.184 377.342V377.342C236.184 377.773 236.115 378.2 235.979 378.609L234.632 382.646M323.073 638.629L335.486 607.601L361.863 512.965L364.449 502.105M323.073 638.629L326.257 647.382C328.152 652.595 332.462 656.562 337.814 658.021V658.021M323.073 638.629L331.57 636.505C334.171 635.855 336.842 635.526 339.523 635.526H345.883C348.209 635.526 350.483 636.214 352.419 637.505V637.505C356.278 640.077 358.27 644.674 357.507 649.248L357.208 651.04M357.208 651.04L353.064 654.592C348.863 658.193 343.151 659.477 337.814 658.021V658.021M357.208 651.04L360.084 637.624C361.268 632.098 362.918 626.683 365.017 621.436L371.415 605.443C373.32 600.683 374.855 595.783 376.008 590.788L383.586 557.956L388.24 512.965L389.921 496.999C390.865 488.033 390.592 478.98 389.11 470.087L388.24 464.871M388.24 464.871L382.81 467.198M388.24 464.871L391.344 463.32M364.449 502.105L375.29 456.579C376.678 450.75 377.379 444.779 377.379 438.787V434.643C377.379 425.945 375.439 417.357 371.699 409.504V409.504C365.375 396.226 354.194 385.785 340.539 380.323V380.323C329.221 375.797 316.708 374.865 304.855 377.71L302.03 378.388C290.404 381.178 279.72 386.982 271.052 395.215L266.467 399.57C257.742 407.858 250.736 417.783 245.848 428.779L238.005 446.424C235.761 451.473 233.938 456.7 232.557 462.051L222.22 502.105L216.013 550.199L213.539 562.072M364.449 502.105L375.2 475.017C376.595 471.502 379.334 468.688 382.81 467.198V467.198M337.814 658.021L349.45 618.46L364.449 568.815L371.173 536.236L375.443 518.092C376.731 512.615 377.556 507.039 377.907 501.424L378.457 492.622C378.772 487.574 379.47 482.558 380.545 477.615L382.81 467.198M403.756 464.871L418.361 517.971C419.999 523.929 421.082 530.026 421.595 536.184L423.927 564.161V607.601L424.448 616.452C425.103 627.597 420.961 638.491 413.066 646.386V646.386M403.756 464.871L414.128 483.727C418.571 491.803 421.875 500.454 423.948 509.435L425.479 516.068L437.113 550.966C438.664 555.619 439.871 560.381 440.724 565.211L444.098 584.33L445.649 607.601V633.975M403.756 464.871L403.101 464.38C399.699 461.828 395.147 461.418 391.344 463.32V463.32M413.066 646.386V646.386C402.062 641.385 393.242 632.566 388.24 621.563V621.563M413.066 646.386H420.824H424.934C433.645 646.386 441.449 640.87 444.426 632.683V632.683C445.231 630.469 445.649 628.115 445.649 625.759V624.414C445.649 618.731 442.904 613.397 438.28 610.094V610.094C435.986 608.456 433.331 607.393 430.541 606.994L414.341 604.68C413.492 604.559 412.635 604.498 411.777 604.498V604.498C406.669 604.498 401.797 606.653 398.36 610.433L388.24 621.563M388.24 621.563L394.447 592.087L397.55 554.853V520.722L394.447 485.039L391.344 463.32M506.162 575.021L508.497 582.806C509.978 587.741 509.369 593.068 506.812 597.541L506.361 598.33C505.21 600.346 503.604 602.065 501.673 603.353V603.353C497.672 606.02 492.632 606.6 488.129 604.912L480.758 602.148C474.254 599.709 469.198 594.464 467.002 587.874L466.311 585.801C465.986 584.826 465.82 583.806 465.82 582.778V582.778M506.162 575.021L501.338 570.198C497.472 566.333 492.229 564.161 486.762 564.161V564.161C480.402 564.161 474.397 567.098 470.491 572.119L468.678 574.45C466.826 576.831 465.82 579.762 465.82 582.778V582.778M506.162 575.021V575.021C504.102 566.782 500.969 558.85 496.845 551.427L495.3 548.647L484.439 530.03L462.717 502.105L442.546 477.282M498.403 604.498L492.197 590.535L484.439 576.572L470.475 543.993L450.971 509.865C447.433 503.675 443.244 497.881 438.474 492.582L422.551 474.892C419.335 471.319 416.381 467.519 413.711 463.521L407.362 454.011M406.859 453.259L407.362 454.011M406.859 453.259L411.514 452.695M407.362 454.011V454.011C409.08 462.723 412.435 471.031 417.25 478.492L425.479 491.245L442.546 522.273L458.062 557.956L465.82 582.778M411.514 452.695L442.546 477.282M763.357 333.001V333.001C770.734 341.154 776.023 350.974 778.77 361.62L781.192 371.002C784.979 385.677 784.343 401.144 779.364 415.458V415.458C776.207 424.531 771.378 432.932 765.126 440.226L761.725 444.193C757.894 448.661 753.677 452.783 749.122 456.509L721.833 478.834L682.024 506.199C675.486 510.693 668.436 514.394 661.023 517.222L563.823 554.307C557.465 556.733 550.876 558.504 544.158 559.591L487.184 568.815L388.24 578.124H326.177L222.22 564.161L213.539 562.072M213.539 562.072L210.402 577.128C208.979 583.958 206.532 590.534 203.143 596.633L199.544 603.112C195.111 611.089 188.372 617.541 180.209 621.622V621.622C170.29 626.581 158.896 627.728 148.187 624.845L143.37 623.549C131.105 620.247 120.25 613.036 112.451 603.01L102.747 590.535L91.5383 575.017C85.5982 566.793 80.9441 557.714 77.7357 548.09L74.3958 538.071C72.6119 532.72 71.2839 527.228 70.4261 521.653L67.5999 503.285C66.2123 494.266 66.0655 485.101 67.1636 476.043L70.5307 448.268C71.3183 441.77 72.7579 435.369 74.8278 429.16L76.7848 423.29C80.5867 411.885 87.1501 401.598 95.8903 393.345L101.578 387.974C107.42 382.457 114.647 378.623 122.491 376.88V376.88C132.784 374.593 143.555 376.033 152.886 380.943L157.914 383.589C164.522 387.067 170.424 391.748 175.316 397.391L177.342 399.73C184.423 407.899 189.691 417.477 192.798 427.833L199.401 449.839C201.163 455.711 202.381 461.732 203.04 467.827L208.255 516.068L213.539 562.072ZM198.946 701.474L265.358 728.688C272.776 731.728 280.533 733.865 288.461 735.053L372.99 747.715C383.097 749.23 393.377 749.185 403.471 747.584L478.154 735.738C488.487 734.099 498.498 730.849 507.822 726.107L588.77 684.936C598.793 679.839 607.884 673.087 615.661 664.966L683.971 593.632C691.739 585.52 698.085 576.157 702.742 565.937L710.621 548.647M198.946 701.474L184.982 683.62L175.355 670.292C168.382 660.638 163.189 649.815 160.021 638.335L152.398 610.703L140.158 561.748C139.01 557.157 138.189 552.49 137.702 547.783L133.779 509.862V454.011L137.794 379.07C138.219 371.14 139.587 363.288 141.869 355.682L147.743 336.104L165.742 289.314C169.234 280.235 174.226 271.807 180.51 264.382V264.382C185.537 258.442 189.743 251.853 193.016 244.792L209.44 209.355C214.807 197.774 222.342 187.328 231.637 178.581L257.131 154.589L319.97 100.935M538.745 36.3451V36.3451C544.934 38.6321 550.864 41.5667 556.436 45.0999L579.862 59.9535M538.745 36.3451L513.919 36.6824L484.439 39.7852L453.987 44.135C445.362 45.367 436.936 47.7206 428.921 51.1362L388.24 68.4735M538.745 36.3451L493.475 19.6169M351.002 19.6169V19.6169C353.938 12.767 359.88 7.66227 367.094 5.79215L378.931 2.72379M351.002 19.6169L360.095 21.6373C363.31 22.3517 366.636 22.4162 369.876 21.8271L375.208 20.8579C379.505 20.0767 383.184 17.3178 385.137 13.4113V13.4113M351.002 19.6169V32.7633C351.002 41.5434 352.158 50.2853 354.441 58.7635L361.863 86.3274L366.59 113.506C367.575 119.165 368.07 124.898 368.07 130.642V165.449V224.403M385.137 13.4113L378.931 2.72379M385.137 13.4113L386.582 18.7511C389.73 30.3846 390.75 42.4914 389.591 54.4876L388.24 68.4735M378.931 2.72379L388.582 1.95791C396.6 1.32163 404.666 1.65505 412.604 2.95093L467.17 11.8587C473.496 12.8913 479.708 14.5298 485.72 16.7515L493.475 19.6169M378.931 2.72379L312.088 8.02809C305.978 8.51303 299.924 9.55885 294.005 11.1524L264.199 19.176C263.109 19.4695 262.042 19.8461 261.01 20.3024V20.3024M379.459 325.244L378.955 331.259C378.723 334.027 374.733 334.19 374.276 331.45V331.45L370.763 284.908M379.459 325.244V292.665V255.431L387.642 191.823M379.459 325.244V325.244C381.127 327.978 385.33 326.854 385.41 323.653L386.689 272.496L402.181 179.557C403.229 173.269 404.876 167.096 407.099 161.122L424.521 114.304C427.219 107.054 430.749 100.142 435.04 93.7065L444.098 80.1218M433.237 72.3648L417.721 103.393L402.205 146.832L389.775 182.735C388.755 185.683 388.04 188.729 387.642 191.823V191.823M433.237 72.3648V72.3648C437.702 69.686 443.453 70.6603 446.787 74.6603L448.752 77.019M433.237 72.3648L444.098 80.1218M448.752 77.019L444.098 80.1218M448.752 77.019V77.019C448.752 83.1843 447.758 89.3093 445.809 95.1581L445.649 95.6359M445.649 95.6359L447.263 81.1186C448.243 72.2927 447.229 63.3591 444.295 54.9775V54.9775C440.134 43.0902 432.297 32.8365 421.918 25.7019L421.602 25.4845C415.952 21.601 409.684 18.7064 403.064 16.9244L390.989 13.6738C379.09 10.4707 366.502 10.9346 354.872 15.0048V15.0048C346.197 18.0405 338.318 22.9913 331.819 29.4895L326.662 34.6453C315.423 45.8831 309.109 61.1255 309.109 77.019V77.019M445.649 95.6359L437.116 109.578M368.07 224.403V249.225L370.763 284.908M368.07 224.403L375.828 177.861L378.068 160.63C378.993 153.521 380.679 146.531 383.098 139.783L386.689 129.767M386.689 129.767L391.344 118.907M386.689 129.767L395.998 135.197M391.344 118.907L397.146 121.782C399.294 122.847 400.653 125.037 400.653 127.434V127.434C400.653 128.939 400.114 130.395 399.134 131.538L395.998 135.197M391.344 118.907V112.701L388.24 86.3274V68.4735M395.998 135.197L391.344 162.346L387.642 191.823M346.347 61.5049V65.0103C346.347 69.8686 347.274 74.6823 349.079 79.1931L351.16 84.394C354.012 91.5239 359.859 97.0363 367.144 99.4644V99.4644C374.601 101.95 382.781 100.943 389.413 96.7231L389.957 96.377C393.918 93.8565 397.167 90.3625 399.393 86.2287L402.301 80.8288C405.201 75.4442 405.664 69.0778 403.574 63.3304V63.3304C401.698 58.1735 397.917 53.9317 393.009 51.4779L388.059 49.0031C384.097 47.0221 379.728 45.9908 375.298 45.9908V45.9908C368.622 45.9908 362.158 48.331 357.029 52.6043L346.347 61.5049ZM346.347 61.5049L341.692 42.888L335.486 19.6169M388.24 68.4735L346.347 86.3274L333.586 92.2163C328.67 94.4853 324.088 97.419 319.97 100.935V100.935M288.938 32.0282L292.536 24.8329C296.134 17.6376 302.892 12.5405 310.799 11.0582V11.0582C318.549 9.6052 326.538 11.7878 332.472 16.9798L335.486 19.6169M288.938 32.0282L295.35 35.5898C300.203 38.2855 305.899 39.0362 311.284 37.69V37.69C313.948 37.0242 316.462 35.8632 318.697 34.2676L322.879 31.2802C325.074 29.713 327.135 27.9671 329.042 26.0604L335.486 19.6169M288.938 32.0282L296.12 43.9957C300.622 51.499 304.12 59.5608 306.525 67.9746L309.109 77.019M309.109 77.019L319.97 100.935M319.97 100.935L335.486 145.281L346.347 180.963L364.966 255.431L370.763 284.908M319.97 100.935L326.745 108.782C332.51 115.46 339.591 120.877 347.545 124.695V124.695C364.504 132.834 384.18 133.119 401.368 125.476L437.116 109.578M261.01 20.3024L207.219 44.0674C199.664 47.4054 192.551 51.6666 186.044 56.7536L175.827 64.7402M261.01 20.3024L256.768 30.1417C251.377 42.6446 248.597 56.1166 248.597 69.7319V73.6307C248.597 82.0614 249.663 90.4582 251.77 98.6213L254.795 110.343C258.876 126.154 266.767 140.726 277.778 152.784L283.238 158.764C290.101 166.279 298.071 172.704 306.874 177.814L314.587 182.292C332.234 192.538 352.593 197.139 372.931 195.479L397.817 193.448C410.956 192.375 423.754 188.716 435.473 182.679L443.197 178.7C460.003 170.044 474.011 156.801 483.597 140.507L490.701 128.431C496.82 118.03 501.006 106.608 503.056 94.7171L503.794 90.4388C506.363 75.5394 505.041 60.2291 499.955 45.9908V45.9908L493.475 19.6169M175.827 64.7402V92.5331L179.07 127.448C180.901 147.166 188.545 165.896 201.034 181.265L202.049 182.515L221.972 205.9C232.33 218.058 245.45 227.558 260.233 233.605L271.871 238.365L326.177 258.534L339.197 261.789C351.103 264.765 363.455 265.524 375.636 264.028L430.44 257.299C440.521 256.061 450.354 253.294 459.602 249.094L480.83 239.454C489.22 235.644 497.043 230.692 504.077 224.74L521.906 209.652C530.99 201.965 538.629 192.718 544.464 182.347L558.258 157.827C561.789 151.55 564.632 144.91 566.737 138.022L575.916 107.986C579.044 97.7503 580.508 87.0793 580.253 76.3798L579.862 59.9535" stroke="#610000" stroke-width="2"/>
</svg>
