<svg width="1416" height="877" viewBox="0 0 1416 877" fill="none" xmlns="http://www.w3.org/2000/svg">
<path d="M279.583 633.037L150.887 666.926C140.793 669.584 130.344 670.645 119.921 670.071L100.281 668.989C96.1458 668.761 92.0481 668.082 88.0608 666.963L68.2334 661.402C61.3167 659.462 55.9247 654.036 54.0288 647.107V647.107C51.7061 638.618 44.2135 632.567 35.426 632.083L29.9856 631.783C19.3951 631.199 9.38314 636.646 4.12029 645.855L-5.68352 663.01C-11.7465 673.618 -14.4261 685.825 -13.3641 697.998L-12.6748 705.898C-10.9428 725.75 1.11844 743.221 19.067 751.878V751.878C31.8126 758.025 46.4009 759.166 59.9471 755.074L69.8798 752.074C80.2282 748.949 89.8678 743.835 98.259 737.02L115.148 723.303C127.275 713.454 141.541 706.582 156.802 703.241L199.515 693.888C206.209 692.422 213.07 691.87 219.912 692.247L237.059 693.192C248.652 693.831 259.363 699.582 266.299 708.892V708.892C271.776 716.243 274.499 725.283 273.995 734.436L272.038 769.949C271.453 780.571 266.127 790.368 257.532 796.636L248.931 802.908C235.574 812.647 216.66 807.937 209.431 793.071V793.071C206.319 786.67 205.908 779.288 208.292 772.581L229.253 713.594L247.95 677.126L289.961 596.11L318.949 538.748C321.471 533.759 323.569 528.568 325.223 523.228L327.496 515.888C331.058 504.385 336.755 493.655 344.289 484.261L351.252 475.577C353.919 472.252 357.168 469.438 360.841 467.275L370.293 461.707C376.865 457.835 380.449 450.377 379.365 442.826L378.086 433.916C376.713 424.357 365.84 419.499 357.804 424.854V424.854L297.515 459.031L241.385 493.437L193.324 529.714C187.656 533.993 182.459 538.863 177.823 544.243L145.671 581.546C142.056 585.741 137.97 589.507 133.495 592.77L115.805 605.67C101.773 615.902 82.8301 616.235 68.4467 606.502V606.502C58.1683 599.547 51.5734 588.329 50.4947 575.965L47.7656 544.686C47.3141 539.51 46.2453 534.408 44.5821 529.486V529.486C37.2366 507.75 41.8622 483.753 56.7606 466.305L104.092 410.874L153.277 351.086L182.331 322.498C192.259 312.73 200.036 300.996 205.166 288.048L236.154 209.824L269.16 140.812L292.245 100.418L304.569 77.1977C311.425 64.2795 301.539 48.8273 286.937 49.6382V49.6382C284.028 49.7997 281.197 50.6355 278.667 52.0797L217.725 86.8655C212.115 90.0681 206.207 92.7194 200.085 94.7824L176.938 102.582C170.302 104.818 163.17 105.141 156.359 103.512L140.537 99.7297C129.898 97.1861 119.149 103.499 116.189 114.03V114.03C113.319 124.241 118.765 134.945 128.708 138.638L219.129 172.22C226.132 174.821 233.405 176.629 240.811 177.611L277.99 182.537C281.659 183.023 285.368 183.139 289.06 182.883L291.878 182.688C307.674 181.594 322.002 173.032 330.449 159.639V159.639C336.54 149.981 345.774 142.717 356.594 139.071L364.378 136.448C375.828 132.59 385.091 124.033 389.843 112.924L394.445 102.167C398.698 92.2248 408.715 86.0037 419.512 86.5987V86.5987C428.934 87.1178 437.315 92.7536 441.351 101.283L472.527 167.18C479.648 182.231 482.898 198.823 481.982 215.448L472.611 385.504C472.161 393.678 472.716 401.876 474.264 409.914L477.197 425.147C480.135 440.403 486.586 454.764 496.04 467.092L528.37 509.251L568.635 554.154C575.807 562.153 584.222 568.944 593.556 574.266L636.09 598.517L639.662 600.344C653.943 607.649 654.544 627.837 640.724 635.978V635.978C636.276 638.599 630.999 639.43 625.961 638.303L584.349 628.998L523.007 622.194C514.183 621.215 505.529 619.065 497.273 615.802L488.039 612.153C478.056 608.206 467.501 605.893 456.782 605.303L423.056 603.444L405.966 602.503C395.246 601.912 384.502 603.051 374.145 605.876L338.956 615.476L279.583 633.037Z" stroke="url(#paint0_linear_198_14)" stroke-width="2"/>
<path d="M751.313 700.676L730.2 666.723C726.412 660.632 721.902 655.02 716.769 650.01L696.351 630.084C694.086 627.874 691.097 626.56 687.937 626.386V626.386C683.255 626.128 678.792 628.397 676.243 632.334L667.547 645.759C663.99 651.249 659.162 655.801 653.471 659.026L615.755 680.405C606.627 685.579 596.403 688.52 585.921 688.986L576.944 689.386C566.087 689.869 555.444 686.263 547.117 679.279V679.279C545.123 677.607 542.982 676.117 540.721 674.828L495.672 649.145C479.758 640.072 461.658 635.545 443.346 636.057L380.504 637.816C374.25 637.991 368.026 638.753 361.914 640.091L301.027 653.422C297.198 654.261 293.753 656.342 291.231 659.342L288.544 662.537C280.226 672.429 286.776 687.572 299.682 688.283V688.283C300.96 688.354 302.242 688.267 303.499 688.026L402.761 668.976L449.443 660.017C452.031 659.52 454.669 659.342 457.299 659.487V659.487C472.077 660.302 484.405 671.066 487.204 685.599L491.983 710.417C496.141 732.008 489.039 754.232 473.13 769.41L444.845 796.398C437.662 803.251 426.742 804.349 418.339 799.062V799.062C406.892 791.86 404.763 776.05 413.896 766.076L432.51 745.749C435.02 743.008 437.179 739.964 438.935 736.689L451.221 713.775C461.102 695.348 483.645 687.834 502.606 696.647V696.647C507.151 698.759 512.057 699.986 517.061 700.262L528.041 700.867C548.408 701.989 567.897 709.528 583.717 722.405L603.28 738.329L627.723 753.445C640.493 761.341 649.67 773.917 653.295 788.486V788.486C658.248 808.397 673.43 824.162 693.139 829.863L700.156 831.892C709.716 834.657 719.754 835.359 729.605 833.949L745.02 831.744C752.775 830.635 760.373 828.618 767.657 825.735L808.38 809.619C810.85 808.641 813.128 807.235 815.107 805.464V805.464C826.576 795.207 824.614 776.726 811.248 769.105L785.655 754.515C777.899 750.093 771.682 743.402 767.84 735.343L751.313 700.676Z" stroke="url(#paint1_linear_198_14)" stroke-width="2"/>
<path d="M-18.3111 199.631L63.9028 250.208C73.5746 256.158 84.1893 260.417 95.2913 262.803L149.171 274.38C154.278 275.478 159.463 276.173 164.678 276.461L190.542 277.886C201.275 278.477 212.033 277.334 222.402 274.501L270.559 261.343C278.784 259.095 287.317 258.189 295.83 258.658V258.658C306.556 259.249 317.291 257.655 327.383 253.973L341.885 248.681V248.681C360.942 244.354 377.772 233.234 389.228 217.401L412.09 185.804L443.012 146.006C449.274 137.947 453.893 128.736 456.606 118.897L466.502 83.0151C473.047 59.2824 458.283 34.9308 434.214 29.7587V29.7587C414.411 25.5035 394.335 35.7031 386.095 54.2057L372.991 83.6286C365.944 99.4493 364.055 117.086 367.589 134.04L369.868 144.972C373.459 162.195 381.53 178.166 393.266 191.273L422.503 223.922L465.269 280.51V280.51C473.061 289.211 479.185 299.273 483.334 310.193L506.201 370.369L528.861 413.334L535.005 421.947C550.701 443.949 575.547 457.623 602.532 459.11V459.11C620.758 460.114 638.852 455.487 654.359 445.858L664.951 439.28C670.785 435.657 676.976 432.645 683.428 430.291L703.523 422.958L762.361 396.012C777.118 389.254 793.297 386.189 809.502 387.082L838.891 388.702L886.433 391.321C895.834 391.839 904.52 396.507 910.14 404.061L910.406 404.419C916.798 413.011 918.29 424.298 914.35 434.256L913.811 435.618C909.236 447.182 897.774 454.521 885.356 453.836V453.836C872.939 453.152 862.353 444.599 859.075 432.602L858.322 429.845C855.686 420.194 857.59 409.868 863.495 401.792L901.331 350.05C908.903 339.695 918.398 330.893 929.296 324.124L938.781 318.235C950.136 311.183 962.789 306.48 975.993 304.402L1014.89 298.281L1053.75 287.664C1069.94 283.241 1084.75 274.819 1096.82 263.171L1129.57 231.582C1133.6 227.689 1138.41 224.684 1143.68 222.761L1155 218.632C1161.49 216.264 1168.75 217.543 1174.04 221.987V221.987C1178.7 225.897 1181.24 231.77 1180.9 237.84L1179.98 254.588C1179.58 261.87 1177.68 268.989 1174.39 275.5L1156.66 310.626C1150.03 323.759 1140.59 335.268 1129 344.332L1111.72 357.848L1076.43 386.262C1070.87 390.733 1064.86 394.597 1058.48 397.788L1008.02 423.051L946.801 460.356C941.585 463.534 936.671 467.184 932.121 471.259L912.666 488.683C901.102 499.04 892.109 511.947 886.397 526.382L875.698 553.423V553.423C864.529 575.235 840.669 587.469 816.438 583.806L780.704 578.405C773.673 577.343 766.776 575.533 760.129 573.008L718.218 557.082C693.867 547.83 666.867 548.444 642.962 558.795L616.177 570.393C607.65 574.085 599.68 578.948 592.495 584.841L561.685 610.112C554.53 615.981 548.224 622.814 542.947 630.417L520.093 663.351C516.474 668.566 512.366 673.425 507.826 677.861L484.633 700.524C472.522 712.358 463.682 727.127 458.972 743.392V743.392C453.58 762.017 442.787 778.626 427.958 791.119L393.505 820.143C382.478 829.433 368.322 834.164 353.925 833.371L344.098 832.829C323.941 831.719 307.127 817.032 303.316 797.207V797.207C301.231 786.363 303.301 775.132 309.113 765.744L327.547 735.97M327.547 735.97L361.465 730.086C375.201 727.703 388.441 722.372 400.037 714.633V714.633C421.786 700.118 437.282 677.463 442.674 651.877L445.559 638.183L453.32 604.995C458.869 581.263 455.56 556.322 444.016 534.858L424.541 498.648C421.727 493.416 418.453 488.446 414.757 483.795L407.832 475.083C395.618 459.715 388.197 441.092 386.495 421.536L382.784 378.909C381.895 368.693 382.582 358.402 384.821 348.395L392.619 313.556C396.181 297.64 395.796 281.095 391.498 265.362L389.502 258.057C388.256 253.492 386.686 249.022 384.806 244.68L358.028 182.825V182.825C351.573 167.915 335.492 159.635 319.607 163.041L300.494 167.139L278.431 171.381C263.043 174.34 253.429 189.773 257.559 204.89V204.89C259.333 211.383 263.476 216.975 269.171 220.563L283.455 229.562C292.113 235.016 299.476 242.295 305.029 250.889L313.36 263.781C322.535 277.978 327.96 294.269 329.131 311.132L333.15 369.038C333.926 380.218 332.817 391.449 329.87 402.262L321.424 433.246C319.572 440.04 318.442 447.011 318.055 454.043L316.631 479.888C316.008 491.186 319.899 502.268 327.447 510.697V510.697C334.995 519.126 338.885 530.208 338.263 541.506L337.753 550.756C337.369 557.735 338.111 564.73 339.953 571.472L351.47 613.628C353.502 621.067 354.667 628.715 354.941 636.421L355.649 656.308C355.992 665.92 354.946 675.531 352.544 684.844L350.497 692.778C347.235 705.425 341.527 717.311 333.696 727.764L327.547 735.97Z" stroke="url(#paint2_linear_198_14)" stroke-width="2"/>
<path d="M474.004 439.788L507.937 429.145L568.065 418.441C575.662 417.089 583.39 416.62 591.094 417.045L623.312 418.82C640.888 419.789 657.897 425.38 672.621 435.028L719.972 466.058C724.371 468.94 728.99 471.471 733.786 473.627L762.512 486.539C773.713 491.574 785.746 494.502 798.007 495.178L807.685 495.711C821.946 496.497 836.21 494.219 849.517 489.03L859.284 485.221C870.458 480.864 880.758 474.532 889.69 466.528L950.723 411.838L994.341 376.705L1020.65 353.13L1031.44 345.645C1049.73 332.968 1071.71 326.749 1093.93 327.974L1109.52 328.833L1111.85 328.961C1141.92 330.618 1171.15 318.629 1191.39 296.325L1193.23 294.305C1208.66 277.307 1217.77 255.517 1219.03 232.594L1219.43 225.338C1219.85 217.786 1221.12 210.305 1223.22 203.04L1234.67 163.467C1235.22 161.565 1235.56 159.608 1235.67 157.631V157.631C1236.46 143.199 1225.41 130.854 1210.97 130.059L1199.34 129.418C1191.47 128.984 1183.66 131.023 1177 135.248L1145.02 155.545C1132.99 163.177 1122.73 173.292 1114.93 185.21L1076.7 243.61L1050.41 295.733C1046.15 304.177 1043.68 313.412 1043.16 322.856L1042.38 337.031C1041.51 352.838 1049.17 367.9 1062.46 376.502V376.502C1066.88 379.362 1070.75 382.99 1073.89 387.214L1080.1 395.56C1085.56 402.901 1088.27 411.922 1087.77 421.055V421.055C1087.38 428.131 1088.92 435.18 1092.22 441.449L1101.65 459.342C1106.89 469.282 1108.12 480.854 1105.08 491.673V491.673C1101.51 504.399 1092.4 514.839 1080.27 520.093L1073.82 522.888L1064.56 526.9C1043.41 536.064 1019.25 535.181 998.821 524.497V524.497C990.707 520.253 983.422 514.584 977.315 507.761L974.493 504.607C961.852 490.484 953.5 473.05 950.415 454.35L948.89 445.102L945.51 401.542C944.537 388.992 939.777 377.033 931.862 367.247V367.247C903.105 331.693 847.1 338.294 827.398 379.559L817.85 399.556C809.224 417.624 810.935 438.927 822.334 455.386V455.386C827.963 463.514 831.332 472.991 832.096 482.848L834.016 507.595C835.192 522.749 832.897 537.973 827.307 552.108L806.745 604.097L796.052 629.539C787.437 650.037 772.235 667.079 752.851 677.971L742.959 683.53C737.958 686.34 732.724 688.715 727.316 690.628L678.869 707.762C650.641 717.746 629.652 741.714 623.48 771.013L622.676 774.831C622.311 776.564 622.079 778.323 621.981 780.092L621.096 796.157C620.527 806.485 611.693 814.396 601.365 813.827V813.827C591.038 813.258 583.127 804.424 583.696 794.096L584.834 773.441C585.067 769.213 585.979 765.05 587.537 761.113L588.621 758.371C595.569 740.803 593.318 720.731 582.836 705.014V705.014C578.76 698.901 575.824 691.994 574.284 684.81L569.329 661.683C567.562 653.433 564.757 645.439 560.982 637.893L551.982 619.901C542.032 600.011 525.737 584.006 505.671 574.416L485.447 564.749C473.656 559.113 460.874 555.844 447.825 555.124L433.934 554.359C423.196 553.767 412.624 551.447 402.625 547.489L391.071 542.914C376.618 537.192 364.485 526.815 356.59 513.424L340.075 485.409C334.462 475.888 335.652 463.831 343.018 455.592V455.592C346.532 451.662 351.181 448.923 356.322 447.755L391.865 439.679C402.093 437.355 412.768 437.944 422.679 441.377V441.377C431.517 444.439 440.979 445.244 450.207 443.719L474.004 439.788Z" stroke="url(#paint3_linear_198_14)" stroke-width="2"/>
<path d="M1301.82 777.384L1277.53 763.528L1229.89 739.939C1223.74 736.892 1217.92 733.22 1212.52 728.981L1180.63 703.943L1163.81 693.357C1150.98 685.278 1140.15 674.386 1132.15 661.506L1123.66 647.833C1119.55 641.216 1114.68 635.102 1109.15 629.615L1081.85 602.529L1056.19 569.74C1055.1 568.351 1053.8 567.14 1052.34 566.151V566.151C1043.23 559.979 1030.74 563.992 1026.93 574.317L1021.09 590.134C1017.22 600.62 1019.46 612.387 1026.92 620.712L1032.15 626.549C1036.26 631.14 1039.35 636.559 1041.19 642.441L1045.25 655.396C1047.77 663.423 1051.29 671.099 1055.73 678.245L1070 701.211C1073.91 707.51 1078.51 713.355 1083.72 718.637L1119.38 754.813L1166.11 815.805L1189.87 839.38C1197.62 847.07 1207.39 852.414 1218.04 854.798V854.798C1238.53 859.382 1259.9 852.531 1273.9 836.887L1280.57 829.43C1284.72 824.799 1288.27 819.671 1291.15 814.164L1304.52 788.59C1308.26 781.451 1311.11 773.888 1313.03 766.064L1321.09 733.207C1324.52 719.214 1324.89 704.646 1322.17 690.499L1318.28 670.309C1317.14 664.357 1315.45 658.521 1313.25 652.874L1298.27 614.455L1271.61 544.322C1269.94 539.942 1268.66 535.426 1267.77 530.825L1261.83 499.937C1260.3 491.961 1254.79 485.323 1247.24 482.336V482.336C1239.55 479.292 1233.99 472.463 1232.58 464.31L1229.06 444.071C1226.66 430.236 1229.16 415.997 1236.12 403.803L1243.05 391.673C1246.64 385.386 1249.53 378.724 1251.67 371.807L1258.61 349.392L1266.48 307.931C1269.05 294.423 1268.8 280.53 1265.75 267.122L1250.21 198.714L1244.96 174.226C1242.18 161.26 1231.06 151.76 1217.82 151.03V151.03C1204.15 150.277 1191.77 159.059 1187.96 172.212L1184.13 185.427C1180.83 196.805 1181.98 209.011 1187.35 219.573L1216.05 276.077C1218.96 281.811 1221.31 287.813 1223.07 293.999L1255.4 407.633L1270.87 445.81C1279.23 466.434 1273.74 490.085 1257.16 504.926V504.926C1246.74 514.254 1233.04 519.062 1219.08 518.293L1210.98 517.847C1203.22 517.419 1195.58 515.744 1188.35 512.886L1162.49 502.657L1143.71 497.385C1131.69 494.011 1119.11 493.073 1106.72 494.626L1102.24 495.188C1087.23 497.069 1072.01 494.573 1058.39 488.001V488.001C1040.44 479.338 1019.87 477.833 1000.85 483.79L996.469 485.163L953.656 497.838C942.67 501.09 931.207 502.43 919.767 501.8L888.331 500.067C884.813 499.873 881.42 498.695 878.538 496.667V496.667C866.46 488.163 849.743 496.262 848.93 511.011L847.93 529.165C847.855 530.531 847.877 531.9 847.995 533.262L848.805 542.557C850.918 566.801 875.014 582.794 898.175 575.325V575.325C904.724 573.212 911.725 572.924 918.426 574.49L953.3 582.642C969.277 586.377 983.117 596.305 991.775 610.242V610.242C1000.31 623.985 1013.89 633.837 1029.61 637.688L1057.05 644.413C1066.29 646.677 1075.1 650.414 1083.15 655.482L1100.31 666.287C1104.86 669.153 1110.2 670.516 1115.57 670.182L1117.85 670.041C1139.99 668.666 1149.26 641.089 1132.44 626.622V626.622C1128.71 623.409 1126.02 619.153 1124.72 614.4L1117.1 586.515C1114.26 576.143 1113.12 565.381 1113.71 554.644L1115.11 529.254L1117.25 490.341C1117.97 477.338 1131.83 469.376 1143.42 475.31V475.31C1150.48 478.925 1154.35 486.738 1152.93 494.544L1146.48 530.079C1144.41 541.495 1139.4 552.172 1131.93 561.055L1124.57 569.825C1110.64 586.397 1102.47 607.039 1101.28 628.652L1099.09 668.332C1097.98 688.538 1103.02 708.607 1113.56 725.887L1127.06 748.035C1135.24 761.449 1146.46 772.748 1159.82 781.015L1162.23 782.509C1176.45 791.311 1192.66 796.405 1209.36 797.325L1221.69 798.004C1235.21 798.749 1248.73 796.742 1261.45 792.105L1301.82 777.384ZM1301.82 777.384L1318.44 778.3C1351.6 780.127 1378.87 752.473 1376.56 719.338L1376.46 717.783C1376.31 715.746 1376 713.725 1375.52 711.74V711.74C1370.45 690.69 1348.32 678.615 1327.87 685.742L1298.69 695.911C1295.36 697.072 1291.94 697.958 1288.47 698.561L1250.11 705.21C1242.66 706.502 1235.08 706.944 1227.53 706.528L1153.95 702.474C1152.32 702.384 1150.7 702.076 1149.15 701.559V701.559C1133.5 696.352 1119.41 712.758 1126.93 727.442L1130.27 733.968C1131.92 737.178 1134.34 739.921 1137.33 741.943L1170.22 764.217C1185.22 774.375 1202.7 780.268 1220.79 781.264L1246.58 782.685C1252.57 783.015 1258.57 782.806 1264.52 782.06L1301.82 777.384Z" stroke="url(#paint4_linear_198_14)" stroke-width="2"/>
<defs>
<linearGradient id="paint0_linear_198_14" x1="265" y1="1469" x2="263" y2="-307" gradientUnits="userSpaceOnUse">
<stop offset="0.0674702" stop-color="#BFFFF0"/>
<stop offset="0.657544" stop-color="#61CCB2" stop-opacity="0.515"/>
<stop offset="0.916906" stop-color="#0B503F" stop-opacity="0"/>
</linearGradient>
<linearGradient id="paint1_linear_198_14" x1="885" y1="763" x2="267.202" y2="707.316" gradientUnits="userSpaceOnUse">
<stop stop-color="#BFFFF0"/>
<stop offset="1" stop-color="#0B503F" stop-opacity="0"/>
</linearGradient>
<linearGradient id="paint2_linear_198_14" x1="1168.03" y1="471.499" x2="21.5" y2="-50" gradientUnits="userSpaceOnUse">
<stop stop-color="#587D74" stop-opacity="0.515"/>
<stop offset="0.550008" stop-color="#61CCB2" stop-opacity="0.515"/>
<stop offset="0.812662" stop-color="#0B503F" stop-opacity="0"/>
</linearGradient>
<linearGradient id="paint3_linear_198_14" x1="1217.4" y1="489.093" x2="206.501" y2="712" gradientUnits="userSpaceOnUse">
<stop stop-color="#BFFFF0"/>
<stop offset="0.394" stop-color="#73D6BE" stop-opacity="0.606"/>
<stop offset="0.399" stop-color="#3D7568" stop-opacity="0.601"/>
<stop offset="1" stop-color="#0B503F" stop-opacity="0"/>
</linearGradient>
<linearGradient id="paint4_linear_198_14" x1="1395.57" y1="515.5" x2="850.339" y2="485.456" gradientUnits="userSpaceOnUse">
<stop stop-color="#BFFFF0"/>
<stop offset="0.394" stop-color="#73D6BE" stop-opacity="0.606"/>
<stop offset="0.399" stop-color="#72D5BD" stop-opacity="0.601"/>
<stop offset="0.485" stop-color="#61CCB2" stop-opacity="0.515"/>
<stop offset="1" stop-color="#0B503F" stop-opacity="0"/>
</linearGradient>
</defs>
</svg>
