<svg width="386" height="509" viewBox="0 0 386 509" fill="none" xmlns="http://www.w3.org/2000/svg">
<path d="M231.866 300.875L249.199 262.867L251.943 255.456C255.165 246.756 257.16 237.65 257.871 228.399L258.319 222.578V217.083C258.319 214.96 256.199 213.491 254.212 214.236V214.236C253.025 214.681 252.239 215.816 252.239 217.083V227.843C252.239 229.395 252.045 230.94 251.66 232.444L245.837 255.213C244.534 260.308 242.831 265.292 240.744 270.119L231.719 290.993L222.114 306.816C219.948 310.385 216.818 313.269 213.084 315.136L209.7 316.828C207.711 317.823 205.457 318.162 203.263 317.796V317.796C199.689 317.201 196.673 314.808 195.279 311.463L194.797 310.306C194.087 308.6 193.754 306.761 193.823 304.914L194.479 287.192V266.668L196.44 251.952C197.158 246.568 198.313 241.252 199.895 236.055L202.839 226.379L208.052 209.678C209.637 204.601 211.843 199.739 214.619 195.202V195.202M231.866 300.875L229.715 305.592C229.532 305.994 229.303 306.373 229.034 306.723L223.778 313.558C222.986 314.588 223.72 316.079 225.02 316.079V316.079C225.418 316.079 225.801 315.927 226.091 315.655L237.799 304.676L239.144 303.156M231.866 300.875L242.359 287.192L250.828 272.926C254.795 266.243 257.97 259.12 260.288 251.702L264.399 238.542L267.439 221.058L268.409 212.327C268.758 209.187 270.477 206.363 273.105 204.61V204.61C274.862 203.439 276.926 202.814 279.038 202.814H280.75C283.486 202.814 286.178 203.5 288.58 204.81L290.652 205.941C292.385 206.887 293.905 208.179 295.117 209.737L296.547 211.576C297.866 213.273 298.491 215.406 298.297 217.546L298.101 219.696C297.94 221.471 296.818 223.016 295.179 223.718V223.718M268.959 214.976L270.971 217.659C272.647 219.894 274.82 221.708 277.319 222.958V222.958C279.818 224.208 282.574 224.858 285.368 224.858H289.625C291.535 224.858 293.424 224.471 295.179 223.718V223.718M198.279 323.68L209.969 321.273C219.353 319.341 228.412 316.069 236.866 311.559L246.919 306.197L276.559 284.912L295.133 270.734C301.975 265.511 308.115 259.427 313.399 252.631L317.422 247.457C323.571 239.549 328.264 230.61 331.28 221.058V221.058L331.55 219.57C332.333 215.265 330.954 210.849 327.86 207.755V207.755M198.279 323.68L218.039 322.92H235.519L268.959 320.64L308.48 317.599L322.607 315.076C327.369 314.225 332.063 313.03 336.653 311.5L348 307.717M198.279 323.68L221.859 320.873C227.409 320.212 232.894 319.087 238.257 317.509L243.119 316.079V316.079C249.166 313.559 254.809 310.161 259.865 305.996L265.159 301.636L282.639 287.192V287.192C288.103 281.728 294.992 277.909 302.521 276.171L303.597 275.923C308.341 274.828 313.231 274.509 318.077 274.978L326.894 275.831C331.821 276.308 336.659 277.46 341.273 279.255V279.255C345.738 280.991 349.952 283.314 353.804 286.162L358.008 289.27C362.977 292.944 367.568 297.102 371.713 301.685L374.419 304.676M198.279 323.68H193.968C190.322 323.68 186.989 321.62 185.359 318.359V318.359M35.6378 430.864L16.4419 394.384C14.0427 389.825 11.9994 385.087 10.3304 380.212L3.9878 361.689M35.6378 430.864L83.0275 475.594C87.3708 479.693 92.4321 482.957 97.9582 485.223V485.223M35.6378 430.864L54.3115 442.538C62.0921 447.402 70.5052 451.172 79.3139 453.742L102.518 460.511L144.318 468.113L205.119 471.153L235.121 469.01C243.46 468.414 251.692 466.775 259.623 464.13L284.159 455.95L309.699 443.61C316.671 440.241 323.227 436.073 329.236 431.19V431.19C335.611 426.008 341.323 420.06 346.241 413.48L348.588 410.34M327.86 207.755L322.92 202.814L307.453 187.859C302.577 183.144 297.233 178.938 291.505 175.305L284.539 170.886M327.86 207.755L338.706 220.97C345.367 229.086 350.708 238.201 354.533 247.978L362.44 268.188L367.76 287.538C369.78 294.885 370.954 302.439 371.258 310.053L371.789 323.329C372.141 332.14 371.327 340.959 369.366 349.556L364.707 369.989C363.2 376.601 361.023 383.043 358.212 389.214L348.588 410.34M295.179 223.718L287.959 238.542L273.519 260.586L255.279 284.912L239.144 303.156M239.144 303.156L253.759 289.473L268.959 271.989L281.119 255.265L286.938 245.416C289.641 240.84 291.976 236.056 293.918 231.11L295.179 227.899M295.179 227.899L296.658 226.356C301.41 221.397 307.419 217.822 314.045 216.015L317.603 215.045C319.611 214.497 321.701 214.313 323.775 214.501V214.501C327.183 214.811 330.424 216.116 333.096 218.254L333.956 218.942C335.707 220.343 337.224 222.015 338.449 223.894L343.429 231.532C346.468 236.192 348.998 241.163 350.978 246.361L354.08 254.505L358.196 263.974C360.487 269.245 361.523 274.976 361.221 280.716V280.716C361.021 284.504 360.237 288.252 358.906 291.805V291.805C357.228 296.279 354.7 300.406 351.472 303.929L348 307.717M295.179 227.899L293.279 242.342L292.87 244.935C291.635 252.758 291.956 260.749 293.814 268.448V268.448C295.471 275.316 298.324 281.839 302.243 287.717L302.399 287.953L307.721 295.21C309.736 297.959 312.141 300.399 314.86 302.454V302.454C323.103 308.683 333.674 310.961 343.752 308.679L348 307.717M348 307.717L343.32 312.397C339.354 316.365 335.06 319.992 330.485 323.239L320.073 330.63C315.897 333.594 311.499 336.233 306.919 338.524L295.833 344.068C290.594 346.688 285.135 348.843 279.519 350.507L267.439 354.087L221.839 360.929L202.079 363.324M3.9878 361.689L2.14067 343.361C1.38267 335.839 1.47995 328.256 2.43066 320.757L6.97478 284.912M3.9878 361.689L6.80715 365.348C12.3221 372.504 18.7814 378.881 26.0089 384.302L26.8388 384.925C31.1776 388.18 35.774 391.076 40.5826 393.585L57.4175 402.371C64.6573 406.149 72.3325 409.026 80.2719 410.938L105.106 416.918M6.97478 284.912V284.912C7.84204 281.876 8.94478 278.912 10.273 276.047L28.8469 235.989C31.3409 230.61 34.3805 225.501 37.9178 220.743V220.743M6.97478 284.912V284.912C7.83435 287.921 9.29773 290.724 11.2757 293.149L21.7524 305.994C28.4337 314.186 36.3717 321.266 45.2707 326.972L61.478 337.364L70.6539 341.952C77.6855 345.469 85.1073 348.144 92.7654 349.922L123.798 357.128L139.132 360.195C144.102 361.19 149.142 361.805 154.206 362.035L193.7 363.83C195.736 363.923 197.776 363.846 199.799 363.601V363.601M37.9178 220.743L46.5995 209.065C51.9344 201.889 58.2076 195.461 65.2514 189.953L86.6342 173.232M37.9178 220.743L38.3283 222.277C41.0769 232.547 45.4558 242.309 51.2981 251.191V251.191C58.0267 261.421 66.5882 270.319 76.551 277.437L76.8978 277.684C80.7996 280.472 84.8969 282.975 89.1579 285.175L106.318 294.034L138.238 307.717L161.236 315.879C161.596 316.007 161.991 315.982 162.332 315.812V315.812C163.365 315.295 163.365 313.821 162.332 313.305L158.759 311.518L150.084 307.18C146.757 305.516 143.258 304.221 139.649 303.319V303.319C133.198 301.705 127.124 298.846 121.771 294.9L115.438 290.233L105.134 283.362C101.37 280.852 97.8162 278.039 94.5087 274.951L91.3177 271.973C89.164 269.962 86.8044 268.184 84.2781 266.668V266.668M84.2781 266.668L83.3595 264.371C82.9712 263.4 82.9396 262.322 83.2702 261.33L83.703 260.032C84.0465 259.001 85.0108 258.306 86.0971 258.306H87.1943C88.377 258.306 89.2121 259.464 88.8382 260.586V260.586M84.2781 266.668L86.3786 264.567C87.4963 263.449 88.3384 262.086 88.8382 260.586V260.586M88.8382 260.586V260.586C92.8763 260.586 96.8991 261.082 100.817 262.061L107.078 263.627L107.931 263.926C117.439 267.254 126.38 272.025 134.438 278.07V278.07L145.079 287.953L162.559 303.916L172.907 311.31C173.1 311.448 173.313 311.556 173.538 311.631V311.631C175.342 312.232 177.089 310.581 176.588 308.746L175.593 305.097C175.517 304.817 175.413 304.546 175.284 304.286L170.159 294.034L167.277 289.377C162.632 281.872 157.014 275.015 150.569 268.985L136.718 256.025L124.558 243.863M124.558 243.863L119.998 235.501M124.558 243.863L124.914 243.744C127.627 242.84 129.927 240.994 131.398 238.542V238.542V238.542C132.909 236.528 134.084 234.283 134.88 231.895L135.198 230.94M119.998 235.501L113.158 230.94M119.998 235.501L122.992 232.507C124.032 231.466 125.196 230.557 126.458 229.8V229.8M113.158 230.94L112.533 228.438C111.978 226.217 112.628 223.868 114.247 222.25L115.623 220.873C116.447 220.049 117.654 219.736 118.775 220.056V220.056C120.634 220.588 121.605 222.63 120.843 224.407L120.471 225.275C120.163 225.995 119.651 226.61 118.999 227.045L113.158 230.94ZM122.278 222.578L126.792 227.092C127.588 227.888 127.424 229.22 126.458 229.8V229.8M126.458 229.8V229.8C129.574 229.08 132.847 229.845 135.322 231.87L139.758 235.501L140.677 236.354C147.13 242.347 152.763 249.166 157.429 256.634L157.858 257.321C160.481 261.519 162.79 265.907 164.763 270.447L169.399 281.111L177.759 298.595L182.319 311.518L185.359 318.359M185.359 318.359L187.817 322.457C189.201 324.764 190.058 327.349 190.325 330.027V330.027C190.559 332.362 191.241 334.63 192.334 336.707L198.279 348.006V348.006C200.803 353.56 203.984 358.793 207.753 363.591L210.439 367.01L217.279 375.372M185.359 318.359L189.911 323.368C191.908 325.565 193.298 328.246 193.941 331.144V331.144C194.298 332.748 194.884 334.292 195.682 335.729L202.079 347.246L204.718 351.206C207.008 354.642 209.57 357.888 212.38 360.914V360.914C216.142 364.966 219.457 369.411 222.27 374.172L227.919 383.734L236.279 395.136L246.919 410.34L257.559 423.263L259.555 425.384C266.248 432.497 274.434 438.038 283.523 441.61V441.61C288.489 443.561 293.673 444.904 298.962 445.609L310.56 447.156C312.711 447.443 314.89 447.46 317.045 447.206L322.853 446.523C325.346 446.229 327.65 445.044 329.338 443.187V443.187C332.32 439.906 332.896 435.096 330.774 431.204L330.454 430.618C329.993 429.772 329.641 428.871 329.408 427.937L328.353 423.717C327.27 419.384 326.833 414.914 327.056 410.453L327.48 401.978V388.73C327.48 383.885 327.832 379.047 328.533 374.253L329.472 367.835C331.171 356.226 334.898 345.008 340.485 334.691L341.92 332.042L353.172 316.642C355.276 313.762 357.935 311.332 360.994 309.497V309.497C362.963 308.315 365.076 307.392 367.282 306.751L374.419 304.676M112.398 324.441L111.396 324.691C109.045 325.279 109.236 328.681 111.638 329.002V329.002H115.438M112.398 324.441L121.518 322.92L143.558 318.359L146.734 317.565C150.663 316.583 154.74 316.337 158.759 316.839V316.839L163.712 317.547C163.955 317.581 164.193 317.65 164.417 317.75V317.75C166.669 318.75 166.473 322.008 164.119 322.733L161.492 323.541C161.191 323.634 160.88 323.687 160.565 323.701L150.232 324.15C145.805 324.343 141.426 325.152 137.221 326.554V326.554C132.358 328.175 127.265 329.002 122.138 329.002H115.438M112.398 324.441H114.236C115.32 324.441 116.198 325.319 116.198 326.403V326.403C116.198 326.614 116.164 326.823 116.098 327.023L115.438 329.002M158.759 454.43L164.839 439.226L177.759 392.856L179.025 387.535M158.759 454.43L160.318 458.719C161.247 461.273 163.357 463.217 165.979 463.932V463.932M158.759 454.43L162.92 453.389C164.194 453.07 165.503 452.909 166.816 452.909H169.93C171.07 452.909 172.185 453.247 173.133 453.879V453.879C175.023 455.139 175.999 457.391 175.625 459.632L175.479 460.511M175.479 460.511L173.448 462.252C171.391 464.016 168.593 464.645 165.979 463.932V463.932M175.479 460.511L175.98 458.17C177.164 452.646 178.813 447.232 180.911 441.986L180.98 441.814C182.883 437.055 184.417 432.157 185.57 427.163L188.399 414.901L190.679 392.856L191.231 387.61C191.873 381.506 191.688 375.344 190.679 369.291V369.291M190.679 369.291L188.019 370.431M190.679 369.291L192.199 368.53M179.025 387.535L184.335 365.228C185.015 362.371 185.359 359.446 185.359 356.51V354.478C185.359 350.217 184.408 346.01 182.577 342.163V342.163C179.479 335.656 174.004 330.54 167.313 327.863V327.863C161.768 325.645 155.64 325.189 149.833 326.583L148.45 326.915C142.756 328.282 137.523 331.125 133.279 335.159L131.03 337.295C126.758 341.355 123.327 346.217 120.933 351.603L118.123 357.927C116.336 361.948 114.886 366.111 113.786 370.372L109.358 387.535L106.318 411.1L105.106 416.918M179.025 387.535L184.291 374.261C184.975 372.539 186.316 371.161 188.019 370.431V370.431M165.979 463.932L171.679 444.547L179.025 420.222L182.319 404.258L183.889 397.584C184.867 393.426 185.493 389.193 185.759 384.93V384.93C185.999 381.097 186.528 377.289 187.344 373.537L188.019 370.431M198.279 369.291L204.177 390.744C205.815 396.7 206.897 402.795 207.41 408.951L208.159 417.941V439.226L208.414 443.565C208.735 449.025 206.706 454.362 202.839 458.23V458.23M198.279 369.291L201.752 375.607C204.994 381.503 207.406 387.82 208.919 394.376V394.376L213.43 407.913C214.981 412.565 216.187 417.325 217.039 422.155L218.039 427.824L218.799 439.226V452.149M198.279 369.291L197.958 369.05C196.291 367.8 194.062 367.599 192.199 368.53V368.53M202.839 458.23V458.23C197.449 455.78 193.128 451.458 190.679 446.068V446.068M202.839 458.23H206.639H208.649C212.918 458.23 216.742 455.528 218.2 451.516V451.516C218.594 450.431 218.799 449.278 218.799 448.124V447.463C218.799 444.679 217.455 442.067 215.19 440.448V440.448C214.066 439.645 212.765 439.124 211.398 438.929L203.464 437.795C203.048 437.736 202.628 437.706 202.208 437.706V437.706C199.705 437.706 197.319 438.762 195.636 440.613L190.679 446.068M190.679 446.068L193.719 431.625L195.239 413.38V396.657L193.719 379.173L192.199 368.53M248.439 423.263L249.584 427.078C250.309 429.496 250.01 432.105 248.758 434.297L248.537 434.684C247.973 435.672 247.187 436.514 246.241 437.145V437.145C244.281 438.452 241.812 438.736 239.606 437.909L235.998 436.555C232.811 435.36 230.334 432.789 229.258 429.56L228.919 428.545C228.76 428.067 228.679 427.567 228.679 427.063V427.063M248.439 423.263L246.076 420.899C244.183 419.005 241.615 417.941 238.937 417.941V417.941C235.821 417.941 232.88 419.38 230.968 421.84L230.079 422.983C229.172 424.15 228.679 425.585 228.679 427.063V427.063M248.439 423.263V423.263C247.43 419.226 245.896 415.339 243.875 411.701L243.119 410.34L237.799 401.218L227.159 387.535L217.279 375.372M244.639 437.706L241.599 430.864L237.799 424.023L230.959 408.059L224.118 396.086C220.582 389.896 216.394 384.102 211.626 378.803L209.948 376.938C206.733 373.365 203.779 369.564 201.111 365.566L200.045 363.969M199.799 363.601L200.045 363.969M199.799 363.601L202.079 363.324M200.045 363.969V363.969C200.887 368.238 202.53 372.309 204.889 375.965L208.919 382.214L217.279 397.417L224.879 414.901L228.679 427.063M202.079 363.324L217.279 375.372M374.419 304.676V304.676C378.032 308.671 380.623 313.482 381.969 318.698L383.155 323.297C385.01 330.487 384.699 338.065 382.26 345.078V345.078C380.714 349.524 378.348 353.642 375.284 357.216L373.706 359.058C371.772 361.314 369.643 363.396 367.344 365.278L354.08 376.132L339.603 386.087C333.064 390.584 326.013 394.286 318.599 397.115L281.564 411.25C275.204 413.678 268.613 415.449 261.894 416.537L239.144 420.222L190.679 424.783H160.279L109.358 417.941L105.106 416.918M105.106 416.918L103.57 424.296C102.873 427.642 101.674 430.864 100.015 433.852L98.2498 437.029C96.0795 440.936 92.7792 444.097 88.7815 446.096V446.096C83.9223 448.526 78.3402 449.088 73.0941 447.675L70.7351 447.04C64.7279 445.423 59.4119 441.89 55.593 436.979L50.8379 430.864L47.2977 425.961C43.0956 420.142 39.8033 413.717 37.5338 406.907V406.907C36.2721 403.121 35.3328 399.235 34.7261 395.291L34.4785 393.681C33.2306 385.567 33.0985 377.321 34.0861 369.172L35.0577 361.154C35.4435 357.971 36.1486 354.835 37.1623 351.793L38.122 348.914C39.9836 343.327 43.1978 338.288 47.4782 334.245L50.2662 331.611C53.1273 328.908 56.6665 327.03 60.5086 326.176V326.176C65.5506 325.056 70.8266 325.761 75.397 328.167L77.8605 329.464C81.0971 331.168 83.9873 333.461 86.3826 336.225L87.3769 337.373C90.845 341.375 93.4249 346.068 94.9464 351.14L97.4231 359.398C98.7903 363.956 99.7355 368.631 100.247 373.362L102.518 394.376L105.106 416.918ZM97.9582 485.223L124.788 496.221C132.208 499.263 139.967 501.401 147.898 502.589L175.423 506.714C185.534 508.229 195.817 508.185 205.914 506.583L226.76 503.275C237.096 501.635 247.109 498.383 256.436 493.638L281.177 481.05C291.2 475.951 300.291 469.197 308.068 461.074L329.55 438.633C337.316 430.52 343.66 421.158 348.316 410.938L348.588 410.34M97.9582 485.223L91.1182 476.474V476.474C84.584 467.425 79.7185 457.282 76.7509 446.522L75.1581 440.747L70.041 420.274C68.8938 415.684 68.0738 411.019 67.587 406.313L66.038 391.336V363.969L67.6789 333.334C68.1035 325.406 69.4706 317.557 71.7514 309.953L72.8781 306.197L81.6943 283.269C83.4047 278.821 85.8498 274.692 88.9277 271.054V271.054C91.3902 268.143 93.4505 264.915 95.0533 261.455L98.9561 253.031C104.321 241.451 111.854 231.005 121.146 222.257L126.458 217.257L157.239 190.967M264.399 159.319V159.319C267.431 160.439 270.335 161.877 273.065 163.608L284.539 170.886M264.399 159.319L252.239 159.484L237.799 161.004L229.515 162.188C220.888 163.421 212.459 165.776 204.443 169.193L190.679 175.061M264.399 159.319L242.225 151.122M172.439 151.122V151.122C173.877 147.766 176.788 145.264 180.322 144.348L186.119 142.845M172.439 151.122L176.892 152.112C178.467 152.462 180.097 152.494 181.684 152.205L184.294 151.73C186.4 151.347 188.202 149.995 189.159 148.081V148.081M172.439 151.122V151.122C172.439 159.7 173.568 168.241 175.798 176.524L177.759 183.809L179.321 192.792C180.304 198.449 180.799 204.18 180.799 209.922V222.578V251.464M189.159 148.081L186.119 142.845M189.159 148.081V148.081C191.169 155.512 191.82 163.244 191.08 170.906L190.679 175.061M186.119 142.845V142.845C193.186 142.284 200.296 142.578 207.293 143.72L225.344 146.668C231.101 147.608 236.754 149.1 242.225 151.122V151.122M186.119 142.845L158.067 145.071C151.954 145.557 145.899 146.603 139.978 148.198L129.921 150.906C129.387 151.05 128.864 151.234 128.358 151.458V151.458M186.378 300.875L186.131 303.823C186.017 305.178 184.062 305.258 183.839 303.916V303.916L182.118 281.111M186.378 300.875V284.912V266.668L190.386 235.501M186.378 300.875V300.875C187.194 302.215 189.253 301.664 189.292 300.096L189.919 275.03L196.704 234.309C197.752 228.023 199.397 221.852 201.619 215.879L206.38 203.081C209.077 195.832 212.605 188.921 216.895 182.486L218.039 180.769M212.719 176.968L205.119 192.171L197.519 213.456L191.431 231.047C190.931 232.492 190.581 233.984 190.386 235.501V235.501M212.719 176.968V176.968C214.906 175.655 217.723 176.133 219.356 178.092L220.319 179.248M212.719 176.968L218.039 180.769M220.319 179.248L218.039 180.769M220.319 179.248V179.248C220.319 182.269 219.832 185.27 218.877 188.136L218.799 188.37M218.799 188.37L219.589 181.256C220.07 176.932 219.573 172.555 218.136 168.449V168.449C216.098 162.624 212.258 157.599 207.173 154.102L207.021 153.998C204.253 152.094 201.182 150.676 197.938 149.802L192.026 148.21C186.197 146.641 180.031 146.868 174.333 148.862V148.862C170.085 150.35 166.226 152.775 163.043 155.958L160.518 158.484C155.012 163.992 151.919 171.461 151.919 179.248V179.248M218.799 188.37L214.619 195.202M180.799 251.464V263.627L182.118 281.111M180.799 251.464L184.599 228.659L185.024 225.386C185.924 218.466 187.565 211.663 189.919 205.094V205.094M189.919 205.094L192.199 199.773M189.919 205.094L194.479 207.755M192.199 199.773L195.041 201.182C196.093 201.703 196.759 202.776 196.759 203.951V203.951C196.759 204.689 196.495 205.402 196.015 205.962L194.479 207.755M192.199 199.773V196.732L190.679 183.809V175.061M194.479 207.755L192.199 221.058L190.386 235.501M170.159 171.647V173.365C170.159 175.745 170.613 178.103 171.496 180.313L172.517 182.864C173.913 186.356 176.776 189.056 180.344 190.246V190.246C183.998 191.464 188.005 190.971 191.254 188.903L191.52 188.733C193.46 187.498 195.051 185.787 196.141 183.762L197.566 181.115C198.987 178.476 199.213 175.358 198.19 172.542V172.542C197.271 170.014 195.418 167.936 193.013 166.733L190.59 165.521C188.649 164.55 186.509 164.045 184.339 164.045V164.045C181.069 164.045 177.903 165.191 175.392 167.285L170.159 171.647ZM170.159 171.647L167.879 162.525L164.839 151.122M190.679 175.061L170.159 183.809L163.908 186.695C161.5 187.806 159.256 189.244 157.239 190.967V190.967M142.038 157.203L143.802 153.676C145.564 150.151 148.873 147.655 152.746 146.928V146.928C156.542 146.216 160.455 147.286 163.362 149.83L164.839 151.122M142.038 157.203L145.179 158.949C147.556 160.269 150.346 160.637 152.984 159.978V159.978C154.289 159.651 155.52 159.083 156.614 158.301L158.664 156.837C159.738 156.069 160.748 155.214 161.682 154.28L164.839 151.122M142.038 157.203L143.185 159.115C146.964 165.415 149.901 172.184 151.919 179.248V179.248M151.919 179.248L157.239 190.967M157.239 190.967L164.839 212.696L170.159 230.18L179.279 266.668L182.118 281.111M157.239 190.967L160.558 194.813C163.382 198.085 166.849 200.738 170.744 202.608V202.608C179.051 206.596 188.691 206.736 197.11 202.991L214.619 195.202M128.358 151.458L107.816 160.537C100.26 163.876 93.1418 168.143 86.6342 173.232V173.232M128.358 151.458L126.749 155.192C123.8 162.036 122.278 169.409 122.278 176.861V176.861C122.278 181.475 122.862 186.07 124.014 190.538L124.703 193.205C127.103 202.51 131.78 211.122 138.258 218.22V218.22C142.261 222.605 146.931 226.376 152.065 229.357V229.357C162.36 235.337 174.239 238.022 186.105 237.053L193.635 236.438C201.216 235.819 208.6 233.707 215.361 230.223V230.223C225.054 225.229 233.133 217.589 238.661 208.19L240.75 204.637C243.824 199.41 245.927 193.671 246.957 187.695L247.28 185.823C248.538 178.523 247.89 171.022 245.399 164.045V164.045L242.225 151.122M86.6342 173.232V186.85L88.1497 203.174C89.094 213.347 93.0367 223.01 99.4782 230.94V230.94L105.245 237.711C112.942 246.748 122.692 253.81 133.678 258.306V258.306L160.279 268.188V268.188C170.326 270.701 180.75 271.341 191.03 270.079L205.401 268.313C214.281 267.223 222.943 264.785 231.089 261.085L231.491 260.902C238.613 257.666 245.253 253.462 251.223 248.408V248.408C258.932 241.883 265.414 234.034 270.365 225.231L271.418 223.358C274.836 217.281 277.587 210.853 279.624 204.186L280.254 202.121C283.344 192.006 284.791 181.46 284.539 170.886V170.886" stroke="url(#paint0_radial_142_139)" stroke-width="2"/>
<path d="M231.866 300.875L249.199 262.867L251.943 255.456C255.165 246.756 257.16 237.65 257.871 228.399L258.319 222.578V217.083C258.319 214.96 256.199 213.491 254.212 214.236V214.236C253.025 214.681 252.239 215.816 252.239 217.083V227.843C252.239 229.395 252.045 230.94 251.66 232.444L245.837 255.213C244.534 260.308 242.831 265.292 240.744 270.119L231.719 290.993L222.114 306.816C219.948 310.385 216.818 313.269 213.084 315.136L209.7 316.828C207.711 317.823 205.457 318.162 203.263 317.796V317.796C199.689 317.201 196.673 314.808 195.279 311.463L194.797 310.306C194.087 308.6 193.754 306.761 193.823 304.914L194.479 287.192V266.668L196.44 251.952C197.158 246.568 198.313 241.252 199.895 236.055L202.839 226.379L208.052 209.678C209.637 204.601 211.843 199.739 214.619 195.202V195.202M231.866 300.875L229.715 305.592C229.532 305.994 229.303 306.373 229.034 306.723L223.778 313.558C222.986 314.588 223.72 316.079 225.02 316.079V316.079C225.418 316.079 225.801 315.927 226.091 315.655L237.799 304.676L239.144 303.156M231.866 300.875L242.359 287.192L250.828 272.926C254.795 266.243 257.97 259.12 260.288 251.702L264.399 238.542L267.439 221.058L268.409 212.327C268.758 209.187 270.477 206.363 273.105 204.61V204.61C274.862 203.439 276.926 202.814 279.038 202.814H280.75C283.486 202.814 286.178 203.5 288.58 204.81L290.652 205.941C292.385 206.887 293.905 208.179 295.117 209.737L296.547 211.576C297.866 213.273 298.491 215.406 298.297 217.546L298.101 219.696C297.94 221.471 296.818 223.016 295.179 223.718V223.718M268.959 214.976L270.971 217.659C272.647 219.894 274.82 221.708 277.319 222.958V222.958C279.818 224.208 282.574 224.858 285.368 224.858H289.625C291.535 224.858 293.424 224.471 295.179 223.718V223.718M198.279 323.68L209.969 321.273C219.353 319.341 228.412 316.069 236.866 311.559L246.919 306.197L276.559 284.912L295.133 270.734C301.975 265.511 308.115 259.427 313.399 252.631L317.422 247.457C323.571 239.549 328.264 230.61 331.28 221.058V221.058L331.55 219.57C332.333 215.265 330.954 210.849 327.86 207.755V207.755M198.279 323.68L218.039 322.92H235.519L268.959 320.64L308.48 317.599L322.607 315.076C327.369 314.225 332.063 313.03 336.653 311.5L348 307.717M198.279 323.68L221.859 320.873C227.409 320.212 232.894 319.087 238.257 317.509L243.119 316.079V316.079C249.166 313.559 254.809 310.161 259.865 305.996L265.159 301.636L282.639 287.192V287.192C288.103 281.728 294.992 277.909 302.521 276.171L303.597 275.923C308.341 274.828 313.231 274.509 318.077 274.978L326.894 275.831C331.821 276.308 336.659 277.46 341.273 279.255V279.255C345.738 280.991 349.952 283.314 353.804 286.162L358.008 289.27C362.977 292.944 367.568 297.102 371.713 301.685L374.419 304.676M198.279 323.68H193.968C190.322 323.68 186.989 321.62 185.359 318.359V318.359M35.6378 430.864L16.4419 394.384C14.0427 389.825 11.9994 385.087 10.3304 380.212L3.9878 361.689M35.6378 430.864L83.0275 475.594C87.3708 479.693 92.4321 482.957 97.9582 485.223V485.223M35.6378 430.864L54.3115 442.538C62.0921 447.402 70.5052 451.172 79.3139 453.742L102.518 460.511L144.318 468.113L205.119 471.153L235.121 469.01C243.46 468.414 251.692 466.775 259.623 464.13L284.159 455.95L309.699 443.61C316.671 440.241 323.227 436.073 329.236 431.19V431.19C335.611 426.008 341.323 420.06 346.241 413.48L348.588 410.34M327.86 207.755L322.92 202.814L307.453 187.859C302.577 183.144 297.233 178.938 291.505 175.305L284.539 170.886M327.86 207.755L338.706 220.97C345.367 229.086 350.708 238.201 354.533 247.978L362.44 268.188L367.76 287.538C369.78 294.885 370.954 302.439 371.258 310.053L371.789 323.329C372.141 332.14 371.327 340.959 369.366 349.556L364.707 369.989C363.2 376.601 361.023 383.043 358.212 389.214L348.588 410.34M295.179 223.718L287.959 238.542L273.519 260.586L255.279 284.912L239.144 303.156M239.144 303.156L253.759 289.473L268.959 271.989L281.119 255.265L286.938 245.416C289.641 240.84 291.976 236.056 293.918 231.11L295.179 227.899M295.179 227.899L296.658 226.356C301.41 221.397 307.419 217.822 314.045 216.015L317.603 215.045C319.611 214.497 321.701 214.313 323.775 214.501V214.501C327.183 214.811 330.424 216.116 333.096 218.254L333.956 218.942C335.707 220.343 337.224 222.015 338.449 223.894L343.429 231.532C346.468 236.192 348.998 241.163 350.978 246.361L354.08 254.505L358.196 263.974C360.487 269.245 361.523 274.976 361.221 280.716V280.716C361.021 284.504 360.237 288.252 358.906 291.805V291.805C357.228 296.279 354.7 300.406 351.472 303.929L348 307.717M295.179 227.899L293.279 242.342L292.87 244.935C291.635 252.758 291.956 260.749 293.814 268.448V268.448C295.471 275.316 298.324 281.839 302.243 287.717L302.399 287.953L307.721 295.21C309.736 297.959 312.141 300.399 314.86 302.454V302.454C323.103 308.683 333.674 310.961 343.752 308.679L348 307.717M348 307.717L343.32 312.397C339.354 316.365 335.06 319.992 330.485 323.239L320.073 330.63C315.897 333.594 311.499 336.233 306.919 338.524L295.833 344.068C290.594 346.688 285.135 348.843 279.519 350.507L267.439 354.087L221.839 360.929L202.079 363.324M3.9878 361.689L2.14067 343.361C1.38267 335.839 1.47995 328.256 2.43066 320.757L6.97478 284.912M3.9878 361.689L6.80715 365.348C12.3221 372.504 18.7814 378.881 26.0089 384.302L26.8388 384.925C31.1776 388.18 35.774 391.076 40.5826 393.585L57.4175 402.371C64.6573 406.149 72.3325 409.026 80.2719 410.938L105.106 416.918M6.97478 284.912V284.912C7.84204 281.876 8.94478 278.912 10.273 276.047L28.8469 235.989C31.3409 230.61 34.3805 225.501 37.9178 220.743V220.743M6.97478 284.912V284.912C7.83435 287.921 9.29773 290.724 11.2757 293.149L21.7524 305.994C28.4337 314.186 36.3717 321.266 45.2707 326.972L61.478 337.364L70.6539 341.952C77.6855 345.469 85.1073 348.144 92.7654 349.922L123.798 357.128L139.132 360.195C144.102 361.19 149.142 361.805 154.206 362.035L193.7 363.83C195.736 363.923 197.776 363.846 199.799 363.601V363.601M37.9178 220.743L46.5995 209.065C51.9344 201.889 58.2076 195.461 65.2514 189.953L86.6342 173.232M37.9178 220.743L38.3283 222.277C41.0769 232.547 45.4558 242.309 51.2981 251.191V251.191C58.0267 261.421 66.5882 270.319 76.551 277.437L76.8978 277.684C80.7996 280.472 84.8969 282.975 89.1579 285.175L106.318 294.034L138.238 307.717L161.236 315.879C161.596 316.007 161.991 315.982 162.332 315.812V315.812C163.365 315.295 163.365 313.821 162.332 313.305L158.759 311.518L150.084 307.18C146.757 305.516 143.258 304.221 139.649 303.319V303.319C133.198 301.705 127.124 298.846 121.771 294.9L115.438 290.233L105.134 283.362C101.37 280.852 97.8162 278.039 94.5087 274.951L91.3177 271.973C89.164 269.962 86.8044 268.184 84.2781 266.668V266.668M84.2781 266.668L83.3595 264.371C82.9712 263.4 82.9396 262.322 83.2702 261.33L83.703 260.032C84.0465 259.001 85.0108 258.306 86.0971 258.306H87.1943C88.377 258.306 89.2121 259.464 88.8382 260.586V260.586M84.2781 266.668L86.3786 264.567C87.4963 263.449 88.3384 262.086 88.8382 260.586V260.586M88.8382 260.586V260.586C92.8763 260.586 96.8991 261.082 100.817 262.061L107.078 263.627L107.931 263.926C117.439 267.254 126.38 272.025 134.438 278.07V278.07L145.079 287.953L162.559 303.916L172.907 311.31C173.1 311.448 173.313 311.556 173.538 311.631V311.631C175.342 312.232 177.089 310.581 176.588 308.746L175.593 305.097C175.517 304.817 175.413 304.546 175.284 304.286L170.159 294.034L167.277 289.377C162.632 281.872 157.014 275.015 150.569 268.985L136.718 256.025L124.558 243.863M124.558 243.863L119.998 235.501M124.558 243.863L124.914 243.744C127.627 242.84 129.927 240.994 131.398 238.542V238.542V238.542C132.909 236.528 134.084 234.283 134.88 231.895L135.198 230.94M119.998 235.501L113.158 230.94M119.998 235.501L122.992 232.507C124.032 231.466 125.196 230.557 126.458 229.8V229.8M113.158 230.94L112.533 228.438C111.978 226.217 112.628 223.868 114.247 222.25L115.623 220.873C116.447 220.049 117.654 219.736 118.775 220.056V220.056C120.634 220.588 121.605 222.63 120.843 224.407L120.471 225.275C120.163 225.995 119.651 226.61 118.999 227.045L113.158 230.94ZM122.278 222.578L126.792 227.092C127.588 227.888 127.424 229.22 126.458 229.8V229.8M126.458 229.8V229.8C129.574 229.08 132.847 229.845 135.322 231.87L139.758 235.501L140.677 236.354C147.13 242.347 152.763 249.166 157.429 256.634L157.858 257.321C160.481 261.519 162.79 265.907 164.763 270.447L169.399 281.111L177.759 298.595L182.319 311.518L185.359 318.359M185.359 318.359L187.817 322.457C189.201 324.764 190.058 327.349 190.325 330.027V330.027C190.559 332.362 191.241 334.63 192.334 336.707L198.279 348.006V348.006C200.803 353.56 203.984 358.793 207.753 363.591L210.439 367.01L217.279 375.372M185.359 318.359L189.911 323.368C191.908 325.565 193.298 328.246 193.941 331.144V331.144C194.298 332.748 194.884 334.292 195.682 335.729L202.079 347.246L204.718 351.206C207.008 354.642 209.57 357.888 212.38 360.914V360.914C216.142 364.966 219.457 369.411 222.27 374.172L227.919 383.734L236.279 395.136L246.919 410.34L257.559 423.263L259.555 425.384C266.248 432.497 274.434 438.038 283.523 441.61V441.61C288.489 443.561 293.673 444.904 298.962 445.609L310.56 447.156C312.711 447.443 314.89 447.46 317.045 447.206L322.853 446.523C325.346 446.229 327.65 445.044 329.338 443.187V443.187C332.32 439.906 332.896 435.096 330.774 431.204L330.454 430.618C329.993 429.772 329.641 428.871 329.408 427.937L328.353 423.717C327.27 419.384 326.833 414.914 327.056 410.453L327.48 401.978V388.73C327.48 383.885 327.832 379.047 328.533 374.253L329.472 367.835C331.171 356.226 334.898 345.008 340.485 334.691L341.92 332.042L353.172 316.642C355.276 313.762 357.935 311.332 360.994 309.497V309.497C362.963 308.315 365.076 307.392 367.282 306.751L374.419 304.676M112.398 324.441L111.396 324.691C109.045 325.279 109.236 328.681 111.638 329.002V329.002H115.438M112.398 324.441L121.518 322.92L143.558 318.359L146.734 317.565C150.663 316.583 154.74 316.337 158.759 316.839V316.839L163.712 317.547C163.955 317.581 164.193 317.65 164.417 317.75V317.75C166.669 318.75 166.473 322.008 164.119 322.733L161.492 323.541C161.191 323.634 160.88 323.687 160.565 323.701L150.232 324.15C145.805 324.343 141.426 325.152 137.221 326.554V326.554C132.358 328.175 127.265 329.002 122.138 329.002H115.438M112.398 324.441H114.236C115.32 324.441 116.198 325.319 116.198 326.403V326.403C116.198 326.614 116.164 326.823 116.098 327.023L115.438 329.002M158.759 454.43L164.839 439.226L177.759 392.856L179.025 387.535M158.759 454.43L160.318 458.719C161.247 461.273 163.357 463.217 165.979 463.932V463.932M158.759 454.43L162.92 453.389C164.194 453.07 165.503 452.909 166.816 452.909H169.93C171.07 452.909 172.185 453.247 173.133 453.879V453.879C175.023 455.139 175.999 457.391 175.625 459.632L175.479 460.511M175.479 460.511L173.448 462.252C171.391 464.016 168.593 464.645 165.979 463.932V463.932M175.479 460.511L175.98 458.17C177.164 452.646 178.813 447.232 180.911 441.986L180.98 441.814C182.883 437.055 184.417 432.157 185.57 427.163L188.399 414.901L190.679 392.856L191.231 387.61C191.873 381.506 191.688 375.344 190.679 369.291V369.291M190.679 369.291L188.019 370.431M190.679 369.291L192.199 368.53M179.025 387.535L184.335 365.228C185.015 362.371 185.359 359.446 185.359 356.51V354.478C185.359 350.217 184.408 346.01 182.577 342.163V342.163C179.479 335.656 174.004 330.54 167.313 327.863V327.863C161.768 325.645 155.64 325.189 149.833 326.583L148.45 326.915C142.756 328.282 137.523 331.125 133.279 335.159L131.03 337.295C126.758 341.355 123.327 346.217 120.933 351.603L118.123 357.927C116.336 361.948 114.886 366.111 113.786 370.372L109.358 387.535L106.318 411.1L105.106 416.918M179.025 387.535L184.291 374.261C184.975 372.539 186.316 371.161 188.019 370.431V370.431M165.979 463.932L171.679 444.547L179.025 420.222L182.319 404.258L183.889 397.584C184.867 393.426 185.493 389.193 185.759 384.93V384.93C185.999 381.097 186.528 377.289 187.344 373.537L188.019 370.431M198.279 369.291L204.177 390.744C205.815 396.7 206.897 402.795 207.41 408.951L208.159 417.941V439.226L208.414 443.565C208.735 449.025 206.706 454.362 202.839 458.23V458.23M198.279 369.291L201.752 375.607C204.994 381.503 207.406 387.82 208.919 394.376V394.376L213.43 407.913C214.981 412.565 216.187 417.325 217.039 422.155L218.039 427.824L218.799 439.226V452.149M198.279 369.291L197.958 369.05C196.291 367.8 194.062 367.599 192.199 368.53V368.53M202.839 458.23V458.23C197.449 455.78 193.128 451.458 190.679 446.068V446.068M202.839 458.23H206.639H208.649C212.918 458.23 216.742 455.528 218.2 451.516V451.516C218.594 450.431 218.799 449.278 218.799 448.124V447.463C218.799 444.679 217.455 442.067 215.19 440.448V440.448C214.066 439.645 212.765 439.124 211.398 438.929L203.464 437.795C203.048 437.736 202.628 437.706 202.208 437.706V437.706C199.705 437.706 197.319 438.762 195.636 440.613L190.679 446.068M190.679 446.068L193.719 431.625L195.239 413.38V396.657L193.719 379.173L192.199 368.53M248.439 423.263L249.584 427.078C250.309 429.496 250.01 432.105 248.758 434.297L248.537 434.684C247.973 435.672 247.187 436.514 246.241 437.145V437.145C244.281 438.452 241.812 438.736 239.606 437.909L235.998 436.555C232.811 435.36 230.334 432.789 229.258 429.56L228.919 428.545C228.76 428.067 228.679 427.567 228.679 427.063V427.063M248.439 423.263L246.076 420.899C244.183 419.005 241.615 417.941 238.937 417.941V417.941C235.821 417.941 232.88 419.38 230.968 421.84L230.079 422.983C229.172 424.15 228.679 425.585 228.679 427.063V427.063M248.439 423.263V423.263C247.43 419.226 245.896 415.339 243.875 411.701L243.119 410.34L237.799 401.218L227.159 387.535L217.279 375.372M244.639 437.706L241.599 430.864L237.799 424.023L230.959 408.059L224.118 396.086C220.582 389.896 216.394 384.102 211.626 378.803L209.948 376.938C206.733 373.365 203.779 369.564 201.111 365.566L200.045 363.969M199.799 363.601L200.045 363.969M199.799 363.601L202.079 363.324M200.045 363.969V363.969C200.887 368.238 202.53 372.309 204.889 375.965L208.919 382.214L217.279 397.417L224.879 414.901L228.679 427.063M202.079 363.324L217.279 375.372M374.419 304.676V304.676C378.032 308.671 380.623 313.482 381.969 318.698L383.155 323.297C385.01 330.487 384.699 338.065 382.26 345.078V345.078C380.714 349.524 378.348 353.642 375.284 357.216L373.706 359.058C371.772 361.314 369.643 363.396 367.344 365.278L354.08 376.132L339.603 386.087C333.064 390.584 326.013 394.286 318.599 397.115L281.564 411.25C275.204 413.678 268.613 415.449 261.894 416.537L239.144 420.222L190.679 424.783H160.279L109.358 417.941L105.106 416.918M105.106 416.918L103.57 424.296C102.873 427.642 101.674 430.864 100.015 433.852L98.2498 437.029C96.0795 440.936 92.7792 444.097 88.7815 446.096V446.096C83.9223 448.526 78.3402 449.088 73.0941 447.675L70.7351 447.04C64.7279 445.423 59.4119 441.89 55.593 436.979L50.8379 430.864L47.2977 425.961C43.0956 420.142 39.8033 413.717 37.5338 406.907V406.907C36.2721 403.121 35.3328 399.235 34.7261 395.291L34.4785 393.681C33.2306 385.567 33.0985 377.321 34.0861 369.172L35.0577 361.154C35.4435 357.971 36.1486 354.835 37.1623 351.793L38.122 348.914C39.9836 343.327 43.1978 338.288 47.4782 334.245L50.2662 331.611C53.1273 328.908 56.6665 327.03 60.5086 326.176V326.176C65.5506 325.056 70.8266 325.761 75.397 328.167L77.8605 329.464C81.0971 331.168 83.9873 333.461 86.3826 336.225L87.3769 337.373C90.845 341.375 93.4249 346.068 94.9464 351.14L97.4231 359.398C98.7903 363.956 99.7355 368.631 100.247 373.362L102.518 394.376L105.106 416.918ZM97.9582 485.223L124.788 496.221C132.208 499.263 139.967 501.401 147.898 502.589L175.423 506.714C185.534 508.229 195.817 508.185 205.914 506.583L226.76 503.275C237.096 501.635 247.109 498.383 256.436 493.638L281.177 481.05C291.2 475.951 300.291 469.197 308.068 461.074L329.55 438.633C337.316 430.52 343.66 421.158 348.316 410.938L348.588 410.34M97.9582 485.223L91.1182 476.474V476.474C84.584 467.425 79.7185 457.282 76.7509 446.522L75.1581 440.747L70.041 420.274C68.8938 415.684 68.0738 411.019 67.587 406.313L66.038 391.336V363.969L67.6789 333.334C68.1035 325.406 69.4706 317.557 71.7514 309.953L72.8781 306.197L81.6943 283.269C83.4047 278.821 85.8498 274.692 88.9277 271.054V271.054C91.3902 268.143 93.4505 264.915 95.0533 261.455L98.9561 253.031C104.321 241.451 111.854 231.005 121.146 222.257L126.458 217.257L157.239 190.967M264.399 159.319V159.319C267.431 160.439 270.335 161.877 273.065 163.608L284.539 170.886M264.399 159.319L252.239 159.484L237.799 161.004L229.515 162.188C220.888 163.421 212.459 165.776 204.443 169.193L190.679 175.061M264.399 159.319L242.225 151.122M172.439 151.122V151.122C173.877 147.766 176.788 145.264 180.322 144.348L186.119 142.845M172.439 151.122L176.892 152.112C178.467 152.462 180.097 152.494 181.684 152.205L184.294 151.73C186.4 151.347 188.202 149.995 189.159 148.081V148.081M172.439 151.122V151.122C172.439 159.7 173.568 168.241 175.798 176.524L177.759 183.809L179.321 192.792C180.304 198.449 180.799 204.18 180.799 209.922V222.578V251.464M189.159 148.081L186.119 142.845M189.159 148.081V148.081C191.169 155.512 191.82 163.244 191.08 170.906L190.679 175.061M186.119 142.845V142.845C193.186 142.284 200.296 142.578 207.293 143.72L225.344 146.668C231.101 147.608 236.754 149.1 242.225 151.122V151.122M186.119 142.845L158.067 145.071C151.954 145.557 145.899 146.603 139.978 148.198L129.921 150.906C129.387 151.05 128.864 151.234 128.358 151.458V151.458M186.378 300.875L186.131 303.823C186.017 305.178 184.062 305.258 183.839 303.916V303.916L182.118 281.111M186.378 300.875V284.912V266.668L190.386 235.501M186.378 300.875V300.875C187.194 302.215 189.253 301.664 189.292 300.096L189.919 275.03L196.704 234.309C197.752 228.023 199.397 221.852 201.619 215.879L206.38 203.081C209.077 195.832 212.605 188.921 216.895 182.486L218.039 180.769M212.719 176.968L205.119 192.171L197.519 213.456L191.431 231.047C190.931 232.492 190.581 233.984 190.386 235.501V235.501M212.719 176.968V176.968C214.906 175.655 217.723 176.133 219.356 178.092L220.319 179.248M212.719 176.968L218.039 180.769M220.319 179.248L218.039 180.769M220.319 179.248V179.248C220.319 182.269 219.832 185.27 218.877 188.136L218.799 188.37M218.799 188.37L219.589 181.256C220.07 176.932 219.573 172.555 218.136 168.449V168.449C216.098 162.624 212.258 157.599 207.173 154.102L207.021 153.998C204.253 152.094 201.182 150.676 197.938 149.802L192.026 148.21C186.197 146.641 180.031 146.868 174.333 148.862V148.862C170.085 150.35 166.226 152.775 163.043 155.958L160.518 158.484C155.012 163.992 151.919 171.461 151.919 179.248V179.248M218.799 188.37L214.619 195.202M180.799 251.464V263.627L182.118 281.111M180.799 251.464L184.599 228.659L185.024 225.386C185.924 218.466 187.565 211.663 189.919 205.094V205.094M189.919 205.094L192.199 199.773M189.919 205.094L194.479 207.755M192.199 199.773L195.041 201.182C196.093 201.703 196.759 202.776 196.759 203.951V203.951C196.759 204.689 196.495 205.402 196.015 205.962L194.479 207.755M192.199 199.773V196.732L190.679 183.809V175.061M194.479 207.755L192.199 221.058L190.386 235.501M170.159 171.647V173.365C170.159 175.745 170.613 178.103 171.496 180.313L172.517 182.864C173.913 186.356 176.776 189.056 180.344 190.246V190.246C183.998 191.464 188.005 190.971 191.254 188.903L191.52 188.733C193.46 187.498 195.051 185.787 196.141 183.762L197.566 181.115C198.987 178.476 199.213 175.358 198.19 172.542V172.542C197.271 170.014 195.418 167.936 193.013 166.733L190.59 165.521C188.649 164.55 186.509 164.045 184.339 164.045V164.045C181.069 164.045 177.903 165.191 175.392 167.285L170.159 171.647ZM170.159 171.647L167.879 162.525L164.839 151.122M190.679 175.061L170.159 183.809L163.908 186.695C161.5 187.806 159.256 189.244 157.239 190.967V190.967M142.038 157.203L143.802 153.676C145.564 150.151 148.873 147.655 152.746 146.928V146.928C156.542 146.216 160.455 147.286 163.362 149.83L164.839 151.122M142.038 157.203L145.179 158.949C147.556 160.269 150.346 160.637 152.984 159.978V159.978C154.289 159.651 155.52 159.083 156.614 158.301L158.664 156.837C159.738 156.069 160.748 155.214 161.682 154.28L164.839 151.122M142.038 157.203L143.185 159.115C146.964 165.415 149.901 172.184 151.919 179.248V179.248M151.919 179.248L157.239 190.967M157.239 190.967L164.839 212.696L170.159 230.18L179.279 266.668L182.118 281.111M157.239 190.967L160.558 194.813C163.382 198.085 166.849 200.738 170.744 202.608V202.608C179.051 206.596 188.691 206.736 197.11 202.991L214.619 195.202M128.358 151.458L107.816 160.537C100.26 163.876 93.1418 168.143 86.6342 173.232V173.232M128.358 151.458L126.749 155.192C123.8 162.036 122.278 169.409 122.278 176.861V176.861C122.278 181.475 122.862 186.07 124.014 190.538L124.703 193.205C127.103 202.51 131.78 211.122 138.258 218.22V218.22C142.261 222.605 146.931 226.376 152.065 229.357V229.357C162.36 235.337 174.239 238.022 186.105 237.053L193.635 236.438C201.216 235.819 208.6 233.707 215.361 230.223V230.223C225.054 225.229 233.133 217.589 238.661 208.19L240.75 204.637C243.824 199.41 245.927 193.671 246.957 187.695L247.28 185.823C248.538 178.523 247.89 171.022 245.399 164.045V164.045L242.225 151.122M86.6342 173.232V186.85L88.1497 203.174C89.094 213.347 93.0367 223.01 99.4782 230.94V230.94L105.245 237.711C112.942 246.748 122.692 253.81 133.678 258.306V258.306L160.279 268.188V268.188C170.326 270.701 180.75 271.341 191.03 270.079L205.401 268.313C214.281 267.223 222.943 264.785 231.089 261.085L231.491 260.902C238.613 257.666 245.253 253.462 251.223 248.408V248.408C258.932 241.883 265.414 234.034 270.365 225.231L271.418 223.358C274.836 217.281 277.587 210.853 279.624 204.186L280.254 202.121C283.344 192.006 284.791 181.46 284.539 170.886V170.886" stroke="url(#paint1_radial_142_139)" stroke-width="2"/>
<path d="M378.374 270.632L419.969 274.499L427.869 274.653C437.145 274.834 446.401 273.723 455.371 271.352L461.016 269.86L466.205 268.053C468.209 267.355 468.9 264.869 467.542 263.237V263.237C466.731 262.263 465.402 261.894 464.205 262.311L454.044 265.85C452.578 266.36 451.055 266.685 449.509 266.817L426.091 268.806C420.851 269.251 415.584 269.283 410.339 268.899L387.658 267.243L369.556 263.377C365.474 262.505 361.721 260.497 358.729 257.586L356.018 254.946C354.424 253.395 353.362 251.378 352.986 249.186V249.186C352.373 245.615 353.641 241.979 356.341 239.563L357.276 238.727C358.653 237.495 360.28 236.576 362.046 236.034L378.998 230.824L398.381 224.074L412.923 221.086C418.244 219.993 423.644 219.335 429.072 219.119L439.178 218.717L456.664 218.147C461.98 217.974 467.297 218.458 472.495 219.587V219.587M378.374 270.632L373.212 270.152C372.772 270.111 372.339 270.02 371.92 269.881L363.737 267.165C362.504 266.756 361.337 267.94 361.764 269.167V269.167C361.895 269.543 362.164 269.855 362.517 270.039L376.736 277.485L378.614 278.255M378.374 270.632L394.747 276.041L411.005 279.346C418.621 280.894 426.392 281.549 434.16 281.298L447.94 280.853L465.451 277.973L474.015 276.017C477.094 275.314 480.327 276.008 482.847 277.913V277.913C484.531 279.187 485.8 280.931 486.495 282.925L487.058 284.542C487.958 287.126 488.195 289.894 487.747 292.593L487.361 294.922C487.038 296.869 486.318 298.73 485.245 300.387L483.978 302.342C482.81 304.146 481.001 305.438 478.917 305.958L476.822 306.481C475.092 306.913 473.265 306.361 472.063 305.045V305.045M471.694 277.408L469.822 280.19C468.263 282.508 467.264 285.157 466.906 287.928V287.928C466.548 290.699 466.84 293.516 467.759 296.154L469.159 300.174C469.787 301.978 470.775 303.635 472.063 305.045V305.045M345.79 246.414L351.909 256.662C356.82 264.889 362.889 272.367 369.929 278.868L378.3 286.598L408.149 307.588L427.647 320.465C434.83 325.209 442.596 329.005 450.751 331.76L456.96 333.858C466.451 337.064 476.436 338.555 486.449 338.261V338.261L487.943 338.027C492.266 337.35 495.982 334.595 497.887 330.656V330.656M345.79 246.414L353.007 264.825L358.757 281.332L371.909 312.162L387.78 348.483L394.809 360.994C397.179 365.212 399.851 369.252 402.806 373.083L410.111 382.554M345.79 246.414L356.197 267.759C358.647 272.783 361.514 277.593 364.768 282.138L367.718 286.259V286.259C372.086 291.141 377.151 295.352 382.747 298.758L388.606 302.323L407.995 314.08V314.08C414.953 317.442 420.825 322.691 424.943 329.23L425.531 330.164C428.125 334.284 430.035 338.797 431.186 343.528L433.28 352.135C434.451 356.945 434.954 361.893 434.777 366.84V366.84C434.605 371.627 433.798 376.371 432.375 380.946L430.823 385.938C428.988 391.839 426.571 397.542 423.606 402.965L421.672 406.503M345.79 246.414L344.372 242.343C343.173 238.9 344.022 235.075 346.566 232.463V232.463M191.075 128.077L219.212 97.95C222.729 94.1846 226.531 90.6966 230.585 87.5172L245.992 75.435M191.075 128.077L164.422 187.542C161.979 192.992 160.561 198.845 160.239 204.809V204.809M191.075 128.077L186.193 149.551C184.159 158.498 183.366 167.683 183.837 176.847L185.076 200.987L191.646 242.962L208.773 301.379L220.665 329.007C223.97 336.686 228.226 343.921 233.332 350.541L249.127 371.022L269.181 391.081C274.656 396.557 280.748 401.378 287.336 405.446V405.446C294.326 409.763 301.822 413.2 309.654 415.68L313.391 416.864M497.887 330.656L500.928 324.365L509.963 304.841C512.812 298.685 515.027 292.255 516.574 285.651L518.455 277.619M497.887 330.656L488.974 345.246C483.5 354.205 476.65 362.247 468.674 369.076L452.19 383.189L435.666 394.578C429.392 398.902 422.645 402.495 415.555 405.287L403.192 410.155C394.987 413.386 386.391 415.517 377.627 416.493L356.798 418.814C350.058 419.565 343.26 419.629 336.507 419.004L313.391 416.864M472.063 305.045L455.689 303.102L430.121 296.716L401.15 287.492L378.614 278.255M378.614 278.255L396.343 287.556L417.853 296.16L437.646 302.143L448.861 304.398C454.072 305.446 459.357 306.077 464.668 306.285L468.114 306.42M468.114 306.42L470.058 307.309C476.304 310.165 481.656 314.664 485.542 320.327L487.629 323.367C488.807 325.084 489.668 326.997 490.172 329.017V329.017C491 332.337 490.834 335.828 489.694 339.054L489.327 340.092C488.58 342.207 487.5 344.19 486.128 345.965L480.553 353.18C477.152 357.582 473.29 361.607 469.032 365.186L462.362 370.794L454.773 377.796C450.549 381.693 445.477 384.556 439.958 386.159V386.159C436.315 387.216 432.517 387.709 428.725 387.619V387.619C423.947 387.507 419.219 386.477 414.83 384.587L410.111 382.554M468.114 306.42L453.85 309.376L451.267 309.842C443.472 311.249 436.032 314.18 429.372 318.467V318.467C423.431 322.291 418.21 327.131 413.947 332.765L413.777 332.99L408.673 340.403C406.74 343.21 405.227 346.283 404.181 349.527V349.527C401.009 359.361 402.335 370.093 407.805 378.859L410.111 382.554M410.111 382.554L404.152 379.675C399.1 377.234 394.263 374.372 389.691 371.119L379.287 363.718C375.114 360.749 371.175 357.464 367.506 353.892L358.624 345.247C354.426 341.161 350.596 336.714 347.177 331.958L339.823 321.728L318.364 280.915L309.602 263.042M245.992 75.435L262.693 67.6622C269.546 64.4726 276.739 62.0703 284.134 60.5015L319.48 53.0028M245.992 75.435L243.464 79.3009C238.519 86.8629 234.623 95.0601 231.88 103.669L231.565 104.657C229.918 109.825 228.695 115.118 227.906 120.485L225.147 139.273C223.961 147.352 223.768 155.547 224.574 163.673L227.095 189.093M319.48 53.0028V53.0028C322.632 52.8232 325.793 52.8898 328.936 53.2019L372.874 57.5666C378.774 58.1526 384.599 59.3428 390.256 61.1183V61.1183M319.48 53.0028V53.0028C316.921 54.8043 314.755 57.1081 313.116 59.7737L304.431 73.8923C298.893 82.8963 294.817 92.7216 292.356 103.002L287.873 121.726L286.557 131.9C285.549 139.697 285.464 147.586 286.304 155.403L289.706 187.079L291.853 202.568C292.549 207.589 293.626 212.55 295.074 217.408L306.368 255.296C306.95 257.249 307.694 259.15 308.591 260.98V260.98M390.256 61.1183L404.139 65.4759C412.671 68.1537 420.804 71.9636 428.323 76.8038L451.147 91.4971M390.256 61.1183L388.942 62.0103C380.148 67.9839 372.369 75.3301 365.903 83.7687V83.7687C358.455 93.4877 352.868 104.499 349.423 116.249L349.303 116.658C347.954 121.26 346.938 125.952 346.262 130.7L343.54 149.819L341.118 184.464L340.974 208.867C340.971 209.248 341.125 209.614 341.398 209.88V209.88C342.225 210.685 343.617 210.2 343.765 209.055L344.278 205.092L345.521 195.474C345.998 191.785 346.07 188.054 345.735 184.349V184.349C345.137 177.726 345.84 171.05 347.805 164.697L350.129 157.182L353.229 145.191C354.361 140.811 355.849 136.529 357.677 132.39L359.44 128.397C360.631 125.702 361.534 122.889 362.135 120.004V120.004M362.135 120.004L364.002 118.381C364.791 117.695 365.798 117.311 366.844 117.297L368.212 117.279C369.298 117.264 370.272 117.946 370.629 118.972L370.99 120.008C371.379 121.125 370.56 122.294 369.377 122.31V122.31M362.135 120.004L364.809 121.297C366.233 121.985 367.797 122.332 369.377 122.31V122.31M369.377 122.31V122.31C370.706 126.124 371.561 130.086 371.924 134.108L372.505 140.536L372.504 141.439C372.488 151.513 370.923 161.525 367.865 171.124V171.124L362.032 184.423L352.706 206.181L349.128 218.386C349.061 218.613 349.029 218.85 349.032 219.087V219.087C349.057 220.989 351.191 222.094 352.759 221.019L355.878 218.879C356.117 218.715 356.34 218.527 356.542 218.32L364.538 210.108L367.988 205.854C373.547 198.999 378.175 191.438 381.75 183.369L389.433 166.026L396.919 150.543M396.919 150.543L403.316 143.486M396.919 150.543L397.148 150.839C398.895 153.104 401.394 154.669 404.194 155.252V155.252V155.252C406.593 156.015 409.099 156.388 411.616 156.354L412.623 156.34M403.316 143.486L405.374 135.526M403.316 143.486L407.128 145.328C408.453 145.968 409.695 146.769 410.825 147.711V147.711M405.374 135.526L407.531 134.113C409.445 132.858 411.878 132.7 413.938 133.696L415.691 134.542C416.741 135.05 417.433 136.086 417.499 137.25V137.25C417.609 139.181 415.999 140.769 414.071 140.635L413.129 140.569C412.347 140.515 411.598 140.234 410.973 139.761L405.374 135.526ZM416.27 141.389L413.491 147.136C413.001 148.149 411.69 148.432 410.825 147.711V147.711M410.825 147.711V147.711C412.529 150.417 412.883 153.76 411.785 156.763L409.816 162.147L409.312 163.295C405.775 171.36 401.188 178.922 395.67 185.785L395.163 186.416C392.061 190.274 388.677 193.897 385.038 197.254L376.492 205.139L362.731 218.785L352.027 227.342L346.566 232.463M346.566 232.463L343.505 236.132C341.781 238.198 339.621 239.857 337.181 240.991V240.991C335.052 241.979 333.135 243.369 331.533 245.084L322.818 254.415V254.415C318.403 258.626 314.508 263.351 311.217 268.488L308.871 272.149L303.224 281.359M346.566 232.463L343.333 238.41C341.915 241.018 339.841 243.212 337.315 244.773V244.773C335.918 245.637 334.652 246.699 333.558 247.925L324.786 257.754L321.915 261.549C319.423 264.842 317.2 268.329 315.266 271.977V271.977C312.677 276.863 309.57 281.456 305.999 285.678L298.827 294.158L290.809 305.803L279.951 320.852L271.247 335.15L269.9 337.733C265.385 346.393 262.844 355.945 262.461 365.704V365.704C262.251 371.036 262.688 376.373 263.761 381.599L266.116 393.061C266.552 395.187 267.253 397.25 268.201 399.202L270.757 404.461C271.854 406.72 273.731 408.505 276.041 409.489V409.489C280.12 411.226 284.851 410.188 287.829 406.903L288.277 406.408C288.924 405.695 289.659 405.066 290.465 404.539L294.103 402.155C297.839 399.707 301.916 397.824 306.202 396.567L314.345 394.179L326.856 389.822C331.431 388.229 336.116 386.97 340.874 386.055L347.244 384.831C358.765 382.617 370.586 382.447 382.166 384.33L385.139 384.813L403.384 390.374C406.795 391.414 409.964 393.126 412.704 395.411V395.411C414.467 396.882 416.034 398.574 417.365 400.445L421.672 406.503M316.825 165.562L316.259 164.698C314.93 162.671 311.78 163.971 312.268 166.345V166.345L313.518 169.933M316.825 165.562L321.261 173.675L332.817 192.988L334.612 195.726C336.832 199.113 338.405 202.882 339.252 206.843V206.843L340.213 211.753C340.26 211.994 340.274 212.241 340.254 212.486V212.486C340.049 214.941 336.909 215.828 335.45 213.843L333.822 211.628C333.636 211.374 333.483 211.098 333.366 210.806L329.543 201.196C327.905 197.078 325.701 193.208 322.994 189.699V189.699C319.864 185.639 317.408 181.102 315.722 176.26L313.518 169.933M316.825 165.562L317.43 167.298C317.786 168.321 317.245 169.44 316.222 169.796V169.796C316.023 169.865 315.814 169.902 315.603 169.905L313.518 169.933M209.317 252.098L225.675 252.839L273.714 249.789L279.156 249.235M209.317 252.098L205.779 254.982C203.673 256.698 202.532 259.331 202.719 262.042V262.042M209.317 252.098L211.669 255.686C212.389 256.784 212.971 257.967 213.403 259.207L214.428 262.148C214.803 263.225 214.85 264.388 214.565 265.492V265.492C213.997 267.691 212.191 269.353 209.952 269.737L209.074 269.888M209.074 269.888L206.762 268.543C204.419 267.18 202.905 264.745 202.719 262.042V262.042M209.074 269.888L211.45 269.592C217.056 268.892 222.711 268.669 228.355 268.925L228.54 268.933C233.66 269.165 238.79 269.003 243.885 268.449L256.396 267.087L277.964 261.99L283.1 260.786C289.075 259.385 294.833 257.183 300.218 254.239V254.239M300.218 254.239L298.266 252.102M300.218 254.239L301.436 255.424M279.156 249.235L301.969 246.912C304.889 246.615 307.765 245.977 310.538 245.011L312.457 244.343C316.481 242.941 320.141 240.66 323.172 237.665V237.665C328.298 232.599 331.328 225.746 331.655 218.547V218.547C331.926 212.581 330.341 206.644 327.115 201.619L326.346 200.422C323.183 195.495 318.776 191.488 313.571 188.806L310.814 187.386C305.575 184.686 299.855 183.045 293.981 182.556L287.085 181.983C282.7 181.618 278.292 181.617 273.906 181.98L256.242 183.444L232.988 188.324L227.095 189.093M279.156 249.235L293.423 249.842C295.274 249.921 297.017 250.734 298.266 252.102V252.102M202.719 262.042L222.899 261.049L248.288 259.986L264.446 257.845L271.266 257.133C275.514 256.689 279.718 255.887 283.831 254.737V254.737C287.529 253.702 291.3 252.95 295.112 252.486L298.266 252.102M302.718 261.416L284.398 274.042C279.312 277.548 273.912 280.575 268.267 283.084L260.024 286.748L239.923 293.749L235.91 295.417C230.859 297.516 225.151 297.356 220.226 294.976V294.976M302.718 261.416L297.895 266.774C293.393 271.775 288.222 276.13 282.528 279.715V279.715L271.228 288.428C267.345 291.422 263.246 294.127 258.966 296.52L253.941 299.329L243.423 303.797L231.219 308.048M302.718 261.416L302.84 261.034C303.472 259.049 302.929 256.877 301.436 255.424V255.424M220.226 294.976V294.976C220.768 289.08 223.428 283.578 227.713 279.492V279.492M220.226 294.976L221.476 298.564L222.138 300.463C223.541 304.494 227.352 307.216 231.62 307.274V307.274C232.774 307.289 233.93 307.103 235.02 306.724L235.644 306.506C238.273 305.591 240.298 303.462 241.081 300.791V300.791C241.47 299.465 241.535 298.065 241.269 296.71L239.73 288.844C239.65 288.432 239.54 288.026 239.401 287.629V287.629C238.578 285.266 236.797 283.36 234.494 282.379L227.713 279.492M227.713 279.492L242.352 277.612L260.081 273.047L275.874 267.546L291.886 260.36L301.436 255.424M268.247 326.538L265.021 328.873C262.976 330.353 260.414 330.93 257.932 330.468L257.493 330.386C256.375 330.179 255.321 329.713 254.415 329.027V329.027C252.536 327.606 251.455 325.368 251.511 323.013L251.602 319.16C251.683 315.757 253.296 312.573 255.991 310.495L256.839 309.841C257.237 309.534 257.683 309.293 258.158 309.127V309.127M268.247 326.538L269.702 323.528C270.868 321.118 271.028 318.343 270.147 315.814V315.814C269.122 312.872 266.796 310.567 263.845 309.57L262.473 309.107C261.072 308.634 259.554 308.641 258.158 309.127V309.127M268.247 326.538V326.538C271.727 324.257 274.893 321.53 277.664 318.425L278.701 317.263L285.566 309.239L294.988 294.69L303.224 281.359M253.358 327.699L258.819 322.578L264.03 316.74L276.855 305.029L285.913 294.631C290.595 289.256 294.689 283.395 298.125 277.149L299.334 274.951C301.651 270.74 304.269 266.701 307.166 262.866L308.324 261.334M308.591 260.98L308.324 261.334M308.591 260.98L309.602 263.042M308.324 261.334V261.334C304.569 263.533 301.266 266.424 298.589 269.853L294.014 275.715L282.406 288.61L268.395 301.538L258.158 309.127M309.602 263.042L303.224 281.359M421.672 406.503V406.503C419.088 411.23 415.396 415.259 410.914 418.245L406.961 420.878C400.781 424.995 393.522 427.193 386.097 427.197V427.197C381.389 427.199 376.723 426.319 372.34 424.602L370.081 423.717C367.315 422.633 364.649 421.307 362.115 419.754L347.502 410.799L333.339 400.401C326.942 395.705 321.127 390.264 316.016 384.194L290.486 353.868C286.102 348.661 282.261 343.019 279.024 337.031L268.061 316.759L247.813 272.491L237.814 243.782L227.527 193.445L227.095 189.093M227.095 189.093L219.622 190.068C216.233 190.511 212.796 190.439 209.429 189.854L205.848 189.233C201.444 188.468 197.374 186.391 194.171 183.273V183.273C190.278 179.484 187.911 174.397 187.519 168.978L187.343 166.542C186.895 160.337 188.482 154.155 191.864 148.933L196.075 142.431L199.541 137.475C203.654 131.593 208.639 126.37 214.323 121.987V121.987C217.484 119.551 220.845 117.385 224.37 115.515L225.809 114.752C233.06 110.905 240.804 108.068 248.825 106.32L256.716 104.6C259.849 103.918 263.042 103.552 266.248 103.509L269.283 103.468C275.171 103.389 280.987 104.767 286.214 107.479L289.618 109.245C293.111 111.058 296.049 113.783 298.119 117.13V117.13C300.835 121.523 301.905 126.738 301.136 131.845L300.721 134.598C300.177 138.215 298.962 141.699 297.139 144.87L296.383 146.187C293.744 150.778 290.161 154.758 285.871 157.863L278.887 162.918C275.032 165.708 270.929 168.139 266.629 170.178L247.531 179.235L227.095 189.093ZM160.239 204.809L158.678 233.763C158.246 241.771 158.779 249.801 160.265 257.681L165.423 285.032C167.318 295.079 170.742 304.775 175.576 313.784L185.556 332.382C190.504 341.603 196.869 349.99 204.418 357.237L224.443 376.461C232.555 384.249 241.923 390.613 252.153 395.285L280.411 408.191C290.626 412.856 301.555 415.768 312.737 416.803L313.391 416.864M160.239 204.809L166.251 195.472V195.472C172.648 186.325 180.627 178.394 189.812 172.052L194.742 168.648L212.392 157.082C216.349 154.489 220.485 152.18 224.769 150.173L238.404 143.784L264.247 134.783L293.718 126.256C301.344 124.049 309.206 122.759 317.138 122.412L321.055 122.24L345.607 123.025C350.37 123.177 355.074 124.128 359.522 125.838V125.838C363.081 127.206 366.807 128.09 370.601 128.465L379.84 129.38C392.54 130.638 404.882 134.316 416.2 140.214L422.67 143.586L457.621 164.006M522.755 254.795V254.795C522.694 258.027 522.291 261.242 521.554 264.389L518.455 277.619M522.755 254.795L518.599 243.366L512.414 230.229L508.571 222.795C504.57 215.054 499.573 207.869 493.709 201.423L483.641 190.354M522.755 254.795L523.202 231.159M500.248 165.255V165.255C503.891 165.509 507.211 167.436 509.239 170.472L512.565 175.452M500.248 165.255L500.778 169.786C500.966 171.389 501.472 172.938 502.267 174.342L503.574 176.651C504.628 178.514 506.497 179.771 508.619 180.045V180.045M500.248 165.255V165.255C492.148 168.077 484.454 171.952 477.365 176.782L471.13 181.031L463.161 185.46C458.142 188.249 452.892 190.602 447.47 192.49L435.518 196.653L408.239 206.154M508.619 180.045L512.565 175.452M508.619 180.045V180.045C502.264 184.387 495.175 187.545 487.697 189.367L483.641 190.354M512.565 175.452V175.452C515.419 181.941 517.48 188.752 518.702 195.736L521.856 213.752C522.862 219.497 523.312 225.327 523.202 231.159V231.159M512.565 175.452L501.235 149.693C498.767 144.08 495.787 138.706 492.333 133.639L486.468 125.032C486.156 124.575 485.81 124.142 485.433 123.738V123.738M363.412 227.674L360.548 228.411C359.23 228.749 358.512 226.929 359.705 226.277V226.277L380.676 217.151M363.412 227.674L378.487 222.424L395.716 216.423L426.467 209.957M363.412 227.674V227.674C362.416 228.886 363.613 230.649 365.107 230.17L388.984 222.518L429.671 215.532C435.952 214.453 442.321 213.978 448.693 214.112L462.345 214.398C470.077 214.561 477.764 215.62 485.252 217.553L487.25 218.069M489.089 211.795L472.232 209.619L449.632 209.442L431.017 209.479C429.488 209.482 427.964 209.642 426.467 209.957V209.957M489.089 211.795V211.795C491.048 213.429 491.524 216.246 490.211 218.433L489.436 219.723M489.089 211.795L487.25 218.069M489.436 219.723L487.25 218.069M489.436 219.723V219.723C486.583 220.716 483.588 221.243 480.568 221.284L480.321 221.287M480.321 221.287L487.3 219.694C491.541 218.725 495.511 216.817 498.916 214.109V214.109C503.747 210.268 507.229 204.989 508.859 199.037L508.907 198.859C509.794 195.619 510.124 192.252 509.882 188.902L509.441 182.795C509.006 176.774 506.763 171.025 503.006 166.301V166.301C500.204 162.778 496.644 159.932 492.591 157.973L489.375 156.419C482.363 153.031 474.292 152.566 466.938 155.128V155.128M480.321 221.287L472.495 219.587M408.239 206.154L396.753 210.154L380.676 217.151M408.239 206.154L431.025 202.242L434.256 201.567C441.087 200.14 448.051 199.452 455.029 199.515V199.515M455.029 199.515L460.804 199.918M455.029 199.515L454.016 204.696M460.804 199.918L460.408 203.065C460.262 204.23 459.467 205.212 458.358 205.598V205.598C457.662 205.841 456.901 205.826 456.214 205.557L454.016 204.696M460.804 199.918L463.675 198.918L475.379 193.232L483.641 190.354M454.016 204.696L440.703 206.919L426.467 209.957M480.116 169.853L478.493 170.418C476.246 171.201 474.168 172.405 472.372 173.967L470.298 175.769C467.46 178.237 465.852 181.829 465.902 185.589V185.589C465.953 189.44 467.737 193.062 470.758 195.45L471.006 195.646C472.81 197.072 474.95 198.011 477.22 198.375L480.19 198.85C483.148 199.323 486.168 198.512 488.49 196.619V196.619C490.575 194.92 491.929 192.487 492.274 189.82L492.621 187.132C492.899 184.98 492.673 182.793 491.959 180.744V180.744C490.883 177.656 488.759 175.043 485.956 173.36L480.116 169.853ZM480.116 169.853L487.981 164.699L497.749 158.078M483.641 190.354L468.63 173.853L463.849 168.9C462.007 166.991 459.912 165.345 457.621 164.006V164.006M484.506 138.547L488.418 139.052C492.325 139.556 495.772 141.861 497.731 145.279V145.279C499.653 148.63 499.93 152.677 498.483 156.259L497.749 158.078M484.506 138.547L483.891 142.087C483.426 144.766 483.996 147.522 485.487 149.796V149.796C486.224 150.921 487.166 151.897 488.264 152.673L490.321 154.126C491.4 154.889 492.539 155.561 493.729 156.135L497.749 158.078M484.506 138.547L483.079 140.258C478.372 145.899 472.945 150.899 466.938 155.128V155.128M466.938 155.128L457.621 164.006M457.621 164.006L439.601 178.33L424.84 189.105L393.381 209.719L380.676 217.151M457.621 164.006L455.08 168.407C452.92 172.149 451.555 176.296 451.07 180.59V180.59C450.036 189.746 453.074 198.895 459.38 205.614L472.495 219.587M485.433 123.738L470.102 107.325C464.463 101.287 458.093 95.9688 451.147 91.4971V91.4971M485.433 123.738L481.377 123.446C473.944 122.912 466.481 123.901 459.444 126.352V126.352C455.086 127.869 450.938 129.931 447.098 132.49L444.806 134.017C436.809 139.344 430.213 146.593 425.642 155.046V155.046C422.817 160.268 420.792 165.918 419.665 171.747V171.747C417.405 183.437 418.776 195.538 423.594 206.425L426.651 213.334C429.729 220.29 434.152 226.568 439.666 231.807V231.807C447.571 239.318 457.443 244.434 468.137 246.563L472.18 247.368C478.127 248.551 484.238 248.649 490.22 247.657L492.094 247.346C499.402 246.133 506.273 243.054 512.042 238.407V238.407L523.202 231.159M451.147 91.4971L438.286 95.9762L423.369 102.777C414.073 107.014 406.244 113.916 400.874 122.607V122.607L396.377 130.28C390.374 140.521 386.911 152.052 386.28 163.906V163.906L385.696 192.276V192.276C386.628 202.591 389.452 212.646 394.025 221.938L400.419 234.93C404.37 242.957 409.521 250.335 415.695 256.81L416 257.13C421.398 262.791 427.552 267.679 434.288 271.655V271.655C442.986 276.789 452.531 280.328 462.472 282.108L464.588 282.487C471.45 283.715 478.425 284.199 485.392 283.93L487.549 283.846C498.118 283.437 508.552 281.335 518.455 277.619V277.619" stroke="url(#paint2_radial_142_139)" stroke-width="2"/>
<path d="M231.866 300.875L249.199 262.867L251.943 255.456C255.165 246.756 257.16 237.65 257.871 228.399L258.319 222.578V217.083C258.319 214.96 256.199 213.491 254.212 214.236V214.236C253.025 214.681 252.239 215.816 252.239 217.083V227.843C252.239 229.395 252.045 230.94 251.66 232.444L245.837 255.213C244.534 260.308 242.831 265.292 240.744 270.119L231.719 290.993L222.114 306.816C219.948 310.385 216.818 313.269 213.084 315.136L209.7 316.828C207.711 317.823 205.457 318.162 203.263 317.796V317.796C199.689 317.201 196.673 314.808 195.279 311.463L194.797 310.306C194.087 308.6 193.754 306.761 193.823 304.914L194.479 287.192V266.668L196.44 251.952C197.158 246.568 198.313 241.252 199.895 236.055L202.839 226.379L208.052 209.678C209.637 204.601 211.843 199.739 214.619 195.202V195.202M231.866 300.875L229.715 305.592C229.532 305.994 229.303 306.373 229.034 306.723L223.778 313.558C222.986 314.588 223.72 316.079 225.02 316.079V316.079C225.418 316.079 225.801 315.927 226.091 315.655L237.799 304.676L239.144 303.156M231.866 300.875L242.359 287.192L250.828 272.926C254.795 266.243 257.97 259.12 260.288 251.702L264.399 238.542L267.439 221.058L268.409 212.327C268.758 209.187 270.477 206.363 273.105 204.61V204.61C274.862 203.439 276.926 202.814 279.038 202.814H280.75C283.486 202.814 286.178 203.5 288.58 204.81L290.652 205.941C292.385 206.887 293.905 208.179 295.117 209.737L296.547 211.576C297.866 213.273 298.491 215.406 298.297 217.546L298.101 219.696C297.94 221.471 296.818 223.016 295.179 223.718V223.718M268.959 214.976L270.971 217.659C272.647 219.894 274.82 221.708 277.319 222.958V222.958C279.818 224.208 282.574 224.858 285.368 224.858H289.625C291.535 224.858 293.424 224.471 295.179 223.718V223.718M198.279 323.68L209.969 321.273C219.353 319.341 228.412 316.069 236.866 311.559L246.919 306.197L276.559 284.912L295.133 270.734C301.975 265.511 308.115 259.427 313.399 252.631L317.422 247.457C323.571 239.549 328.264 230.61 331.28 221.058V221.058L331.55 219.57C332.333 215.265 330.954 210.849 327.86 207.755V207.755M198.279 323.68L218.039 322.92H235.519L268.959 320.64L308.48 317.599L322.607 315.076C327.369 314.225 332.063 313.03 336.653 311.5L348 307.717M198.279 323.68L221.859 320.873C227.409 320.212 232.894 319.087 238.257 317.509L243.119 316.079V316.079C249.166 313.559 254.809 310.161 259.865 305.996L265.159 301.636L282.639 287.192V287.192C288.103 281.728 294.992 277.909 302.521 276.171L303.597 275.923C308.341 274.828 313.231 274.509 318.077 274.978L326.894 275.831C331.821 276.308 336.659 277.46 341.273 279.255V279.255C345.738 280.991 349.952 283.314 353.804 286.162L358.008 289.27C362.977 292.944 367.568 297.102 371.713 301.685L374.419 304.676M198.279 323.68H193.968C190.322 323.68 186.989 321.62 185.359 318.359V318.359M35.6378 430.864L16.4419 394.384C14.0427 389.825 11.9994 385.087 10.3304 380.212L3.9878 361.689M35.6378 430.864L83.0275 475.594C87.3708 479.693 92.4321 482.957 97.9582 485.223V485.223M35.6378 430.864L54.3115 442.538C62.0921 447.402 70.5052 451.172 79.3139 453.742L102.518 460.511L144.318 468.113L205.119 471.153L235.121 469.01C243.46 468.414 251.692 466.775 259.623 464.13L284.159 455.95L309.699 443.61C316.671 440.241 323.227 436.073 329.236 431.19V431.19C335.611 426.008 341.323 420.06 346.241 413.48L348.588 410.34M327.86 207.755L322.92 202.814L307.453 187.859C302.577 183.144 297.233 178.938 291.505 175.305L284.539 170.886M327.86 207.755L338.706 220.97C345.367 229.086 350.708 238.201 354.533 247.978L362.44 268.188L367.76 287.538C369.78 294.885 370.954 302.439 371.258 310.053L371.789 323.329C372.141 332.14 371.327 340.959 369.366 349.556L364.707 369.989C363.2 376.601 361.023 383.043 358.212 389.214L348.588 410.34M295.179 223.718L287.959 238.542L273.519 260.586L255.279 284.912L239.144 303.156M239.144 303.156L253.759 289.473L268.959 271.989L281.119 255.265L286.938 245.416C289.641 240.84 291.976 236.056 293.918 231.11L295.179 227.899M295.179 227.899L296.658 226.356C301.41 221.397 307.419 217.822 314.045 216.015L317.603 215.045C319.611 214.497 321.701 214.313 323.775 214.501V214.501C327.183 214.811 330.424 216.116 333.096 218.254L333.956 218.942C335.707 220.343 337.224 222.015 338.449 223.894L343.429 231.532C346.468 236.192 348.998 241.163 350.978 246.361L354.08 254.505L358.196 263.974C360.487 269.245 361.523 274.976 361.221 280.716V280.716C361.021 284.504 360.237 288.252 358.906 291.805V291.805C357.228 296.279 354.7 300.406 351.472 303.929L348 307.717M295.179 227.899L293.279 242.342L292.87 244.935C291.635 252.758 291.956 260.749 293.814 268.448V268.448C295.471 275.316 298.324 281.839 302.243 287.717L302.399 287.953L307.721 295.21C309.736 297.959 312.141 300.399 314.86 302.454V302.454C323.103 308.683 333.674 310.961 343.752 308.679L348 307.717M348 307.717L343.32 312.397C339.354 316.365 335.06 319.992 330.485 323.239L320.073 330.63C315.897 333.594 311.499 336.233 306.919 338.524L295.833 344.068C290.594 346.688 285.135 348.843 279.519 350.507L267.439 354.087L221.839 360.929L202.079 363.324M3.9878 361.689L2.14067 343.361C1.38267 335.839 1.47995 328.256 2.43066 320.757L6.97478 284.912M3.9878 361.689L6.80715 365.348C12.3221 372.504 18.7814 378.881 26.0089 384.302L26.8388 384.925C31.1776 388.18 35.774 391.076 40.5826 393.585L57.4175 402.371C64.6573 406.149 72.3325 409.026 80.2719 410.938L105.106 416.918M6.97478 284.912V284.912C7.84204 281.876 8.94478 278.912 10.273 276.047L28.8469 235.989C31.3409 230.61 34.3805 225.501 37.9178 220.743V220.743M6.97478 284.912V284.912C7.83435 287.921 9.29773 290.724 11.2757 293.149L21.7524 305.994C28.4337 314.186 36.3717 321.266 45.2707 326.972L61.478 337.364L70.6539 341.952C77.6855 345.469 85.1073 348.144 92.7654 349.922L123.798 357.128L139.132 360.195C144.102 361.19 149.142 361.805 154.206 362.035L193.7 363.83C195.736 363.923 197.776 363.846 199.799 363.601V363.601M37.9178 220.743L46.5995 209.065C51.9344 201.889 58.2076 195.461 65.2514 189.953L86.6342 173.232M37.9178 220.743L38.3283 222.277C41.0769 232.547 45.4558 242.309 51.2981 251.191V251.191C58.0267 261.421 66.5882 270.319 76.551 277.437L76.8978 277.684C80.7996 280.472 84.8969 282.975 89.1579 285.175L106.318 294.034L138.238 307.717L161.236 315.879C161.596 316.007 161.991 315.982 162.332 315.812V315.812C163.365 315.295 163.365 313.821 162.332 313.305L158.759 311.518L150.084 307.18C146.757 305.516 143.258 304.221 139.649 303.319V303.319C133.198 301.705 127.124 298.846 121.771 294.9L115.438 290.233L105.134 283.362C101.37 280.852 97.8162 278.039 94.5087 274.951L91.3177 271.973C89.164 269.962 86.8044 268.184 84.2781 266.668V266.668M84.2781 266.668L83.3595 264.371C82.9712 263.4 82.9396 262.322 83.2702 261.33L83.703 260.032C84.0465 259.001 85.0108 258.306 86.0971 258.306H87.1943C88.377 258.306 89.2121 259.464 88.8382 260.586V260.586M84.2781 266.668L86.3786 264.567C87.4963 263.449 88.3384 262.086 88.8382 260.586V260.586M88.8382 260.586V260.586C92.8763 260.586 96.8991 261.082 100.817 262.061L107.078 263.627L107.931 263.926C117.439 267.254 126.38 272.025 134.438 278.07V278.07L145.079 287.953L162.559 303.916L172.907 311.31C173.1 311.448 173.313 311.556 173.538 311.631V311.631C175.342 312.232 177.089 310.581 176.588 308.746L175.593 305.097C175.517 304.817 175.413 304.546 175.284 304.286L170.159 294.034L167.277 289.377C162.632 281.872 157.014 275.015 150.569 268.985L136.718 256.025L124.558 243.863M124.558 243.863L119.998 235.501M124.558 243.863L124.914 243.744C127.627 242.84 129.927 240.994 131.398 238.542V238.542V238.542C132.909 236.528 134.084 234.283 134.88 231.895L135.198 230.94M119.998 235.501L113.158 230.94M119.998 235.501L122.992 232.507C124.032 231.466 125.196 230.557 126.458 229.8V229.8M113.158 230.94L112.533 228.438C111.978 226.217 112.628 223.868 114.247 222.25L115.623 220.873C116.447 220.049 117.654 219.736 118.775 220.056V220.056C120.634 220.588 121.605 222.63 120.843 224.407L120.471 225.275C120.163 225.995 119.651 226.61 118.999 227.045L113.158 230.94ZM122.278 222.578L126.792 227.092C127.588 227.888 127.424 229.22 126.458 229.8V229.8M126.458 229.8V229.8C129.574 229.08 132.847 229.845 135.322 231.87L139.758 235.501L140.677 236.354C147.13 242.347 152.763 249.166 157.429 256.634L157.858 257.321C160.481 261.519 162.79 265.907 164.763 270.447L169.399 281.111L177.759 298.595L182.319 311.518L185.359 318.359M185.359 318.359L187.817 322.457C189.201 324.764 190.058 327.349 190.325 330.027V330.027C190.559 332.362 191.241 334.63 192.334 336.707L198.279 348.006V348.006C200.803 353.56 203.984 358.793 207.753 363.591L210.439 367.01L217.279 375.372M185.359 318.359L189.911 323.368C191.908 325.565 193.298 328.246 193.941 331.144V331.144C194.298 332.748 194.884 334.292 195.682 335.729L202.079 347.246L204.718 351.206C207.008 354.642 209.57 357.888 212.38 360.914V360.914C216.142 364.966 219.457 369.411 222.27 374.172L227.919 383.734L236.279 395.136L246.919 410.34L257.559 423.263L259.555 425.384C266.248 432.497 274.434 438.038 283.523 441.61V441.61C288.489 443.561 293.673 444.904 298.962 445.609L310.56 447.156C312.711 447.443 314.89 447.46 317.045 447.206L322.853 446.523C325.346 446.229 327.65 445.044 329.338 443.187V443.187C332.32 439.906 332.896 435.096 330.774 431.204L330.454 430.618C329.993 429.772 329.641 428.871 329.408 427.937L328.353 423.717C327.27 419.384 326.833 414.914 327.056 410.453L327.48 401.978V388.73C327.48 383.885 327.832 379.047 328.533 374.253L329.472 367.835C331.171 356.226 334.898 345.008 340.485 334.691L341.92 332.042L353.172 316.642C355.276 313.762 357.935 311.332 360.994 309.497V309.497C362.963 308.315 365.076 307.392 367.282 306.751L374.419 304.676M112.398 324.441L111.396 324.691C109.045 325.279 109.236 328.681 111.638 329.002V329.002H115.438M112.398 324.441L121.518 322.92L143.558 318.359L146.734 317.565C150.663 316.583 154.74 316.337 158.759 316.839V316.839L163.712 317.547C163.955 317.581 164.193 317.65 164.417 317.75V317.75C166.669 318.75 166.473 322.008 164.119 322.733L161.492 323.541C161.191 323.634 160.88 323.687 160.565 323.701L150.232 324.15C145.805 324.343 141.426 325.152 137.221 326.554V326.554C132.358 328.175 127.265 329.002 122.138 329.002H115.438M112.398 324.441H114.236C115.32 324.441 116.198 325.319 116.198 326.403V326.403C116.198 326.614 116.164 326.823 116.098 327.023L115.438 329.002M158.759 454.43L164.839 439.226L177.759 392.856L179.025 387.535M158.759 454.43L160.318 458.719C161.247 461.273 163.357 463.217 165.979 463.932V463.932M158.759 454.43L162.92 453.389C164.194 453.07 165.503 452.909 166.816 452.909H169.93C171.07 452.909 172.185 453.247 173.133 453.879V453.879C175.023 455.139 175.999 457.391 175.625 459.632L175.479 460.511M175.479 460.511L173.448 462.252C171.391 464.016 168.593 464.645 165.979 463.932V463.932M175.479 460.511L175.98 458.17C177.164 452.646 178.813 447.232 180.911 441.986L180.98 441.814C182.883 437.055 184.417 432.157 185.57 427.163L188.399 414.901L190.679 392.856L191.231 387.61C191.873 381.506 191.688 375.344 190.679 369.291V369.291M190.679 369.291L188.019 370.431M190.679 369.291L192.199 368.53M179.025 387.535L184.335 365.228C185.015 362.371 185.359 359.446 185.359 356.51V354.478C185.359 350.217 184.408 346.01 182.577 342.163V342.163C179.479 335.656 174.004 330.54 167.313 327.863V327.863C161.768 325.645 155.64 325.189 149.833 326.583L148.45 326.915C142.756 328.282 137.523 331.125 133.279 335.159L131.03 337.295C126.758 341.355 123.327 346.217 120.933 351.603L118.123 357.927C116.336 361.948 114.886 366.111 113.786 370.372L109.358 387.535L106.318 411.1L105.106 416.918M179.025 387.535L184.291 374.261C184.975 372.539 186.316 371.161 188.019 370.431V370.431M165.979 463.932L171.679 444.547L179.025 420.222L182.319 404.258L183.889 397.584C184.867 393.426 185.493 389.193 185.759 384.93V384.93C185.999 381.097 186.528 377.289 187.344 373.537L188.019 370.431M198.279 369.291L204.177 390.744C205.815 396.7 206.897 402.795 207.41 408.951L208.159 417.941V439.226L208.414 443.565C208.735 449.025 206.706 454.362 202.839 458.23V458.23M198.279 369.291L201.752 375.607C204.994 381.503 207.406 387.82 208.919 394.376V394.376L213.43 407.913C214.981 412.565 216.187 417.325 217.039 422.155L218.039 427.824L218.799 439.226V452.149M198.279 369.291L197.958 369.05C196.291 367.8 194.062 367.599 192.199 368.53V368.53M202.839 458.23V458.23C197.449 455.78 193.128 451.458 190.679 446.068V446.068M202.839 458.23H206.639H208.649C212.918 458.23 216.742 455.528 218.2 451.516V451.516C218.594 450.431 218.799 449.278 218.799 448.124V447.463C218.799 444.679 217.455 442.067 215.19 440.448V440.448C214.066 439.645 212.765 439.124 211.398 438.929L203.464 437.795C203.048 437.736 202.628 437.706 202.208 437.706V437.706C199.705 437.706 197.319 438.762 195.636 440.613L190.679 446.068M190.679 446.068L193.719 431.625L195.239 413.38V396.657L193.719 379.173L192.199 368.53M248.439 423.263L249.584 427.078C250.309 429.496 250.01 432.105 248.758 434.297L248.537 434.684C247.973 435.672 247.187 436.514 246.241 437.145V437.145C244.281 438.452 241.812 438.736 239.606 437.909L235.998 436.555C232.811 435.36 230.334 432.789 229.258 429.56L228.919 428.545C228.76 428.067 228.679 427.567 228.679 427.063V427.063M248.439 423.263L246.076 420.899C244.183 419.005 241.615 417.941 238.937 417.941V417.941C235.821 417.941 232.88 419.38 230.968 421.84L230.079 422.983C229.172 424.15 228.679 425.585 228.679 427.063V427.063M248.439 423.263V423.263C247.43 419.226 245.896 415.339 243.875 411.701L243.119 410.34L237.799 401.218L227.159 387.535L217.279 375.372M244.639 437.706L241.599 430.864L237.799 424.023L230.959 408.059L224.118 396.086C220.582 389.896 216.394 384.102 211.626 378.803L209.948 376.938C206.733 373.365 203.779 369.564 201.111 365.566L200.045 363.969M199.799 363.601L200.045 363.969M199.799 363.601L202.079 363.324M200.045 363.969V363.969C200.887 368.238 202.53 372.309 204.889 375.965L208.919 382.214L217.279 397.417L224.879 414.901L228.679 427.063M202.079 363.324L217.279 375.372M374.419 304.676V304.676C378.032 308.671 380.623 313.482 381.969 318.698L383.155 323.297C385.01 330.487 384.699 338.065 382.26 345.078V345.078C380.714 349.524 378.348 353.642 375.284 357.216L373.706 359.058C371.772 361.314 369.643 363.396 367.344 365.278L354.08 376.132L339.603 386.087C333.064 390.584 326.013 394.286 318.599 397.115L281.564 411.25C275.204 413.678 268.613 415.449 261.894 416.537L239.144 420.222L190.679 424.783H160.279L109.358 417.941L105.106 416.918M105.106 416.918L103.57 424.296C102.873 427.642 101.674 430.864 100.015 433.852L98.2498 437.029C96.0795 440.936 92.7792 444.097 88.7815 446.096V446.096C83.9223 448.526 78.3402 449.088 73.0941 447.675L70.7351 447.04C64.7279 445.423 59.4119 441.89 55.593 436.979L50.8379 430.864L47.2977 425.961C43.0956 420.142 39.8033 413.717 37.5338 406.907V406.907C36.2721 403.121 35.3328 399.235 34.7261 395.291L34.4785 393.681C33.2306 385.567 33.0985 377.321 34.0861 369.172L35.0577 361.154C35.4435 357.971 36.1486 354.835 37.1623 351.793L38.122 348.914C39.9836 343.327 43.1978 338.288 47.4782 334.245L50.2662 331.611C53.1273 328.908 56.6665 327.03 60.5086 326.176V326.176C65.5506 325.056 70.8266 325.761 75.397 328.167L77.8605 329.464C81.0971 331.168 83.9873 333.461 86.3826 336.225L87.3769 337.373C90.845 341.375 93.4249 346.068 94.9464 351.14L97.4231 359.398C98.7903 363.956 99.7355 368.631 100.247 373.362L102.518 394.376L105.106 416.918ZM97.9582 485.223L124.788 496.221C132.208 499.263 139.967 501.401 147.898 502.589L175.423 506.714C185.534 508.229 195.817 508.185 205.914 506.583L226.76 503.275C237.096 501.635 247.109 498.383 256.436 493.638L281.177 481.05C291.2 475.951 300.291 469.197 308.068 461.074L329.55 438.633C337.316 430.52 343.66 421.158 348.316 410.938L348.588 410.34M97.9582 485.223L91.1182 476.474V476.474C84.584 467.425 79.7185 457.282 76.7509 446.522L75.1581 440.747L70.041 420.274C68.8938 415.684 68.0738 411.019 67.587 406.313L66.038 391.336V363.969L67.6789 333.334C68.1035 325.406 69.4706 317.557 71.7514 309.953L72.8781 306.197L81.6943 283.269C83.4047 278.821 85.8498 274.692 88.9277 271.054V271.054C91.3902 268.143 93.4505 264.915 95.0533 261.455L98.9561 253.031C104.321 241.451 111.854 231.005 121.146 222.257L126.458 217.257L157.239 190.967M264.399 159.319V159.319C267.431 160.439 270.335 161.877 273.065 163.608L284.539 170.886M264.399 159.319L252.239 159.484L237.799 161.004L229.515 162.188C220.888 163.421 212.459 165.776 204.443 169.193L190.679 175.061M264.399 159.319L242.225 151.122M172.439 151.122V151.122C173.877 147.766 176.788 145.264 180.322 144.348L186.119 142.845M172.439 151.122L176.892 152.112C178.467 152.462 180.097 152.494 181.684 152.205L184.294 151.73C186.4 151.347 188.202 149.995 189.159 148.081V148.081M172.439 151.122V151.122C172.439 159.7 173.568 168.241 175.798 176.524L177.759 183.809L179.321 192.792C180.304 198.449 180.799 204.18 180.799 209.922V222.578V251.464M189.159 148.081L186.119 142.845M189.159 148.081V148.081C191.169 155.512 191.82 163.244 191.08 170.906L190.679 175.061M186.119 142.845V142.845C193.186 142.284 200.296 142.578 207.293 143.72L225.344 146.668C231.101 147.608 236.754 149.1 242.225 151.122V151.122M186.119 142.845L158.067 145.071C151.954 145.557 145.899 146.603 139.978 148.198L129.921 150.906C129.387 151.05 128.864 151.234 128.358 151.458V151.458M186.378 300.875L186.131 303.823C186.017 305.178 184.062 305.258 183.839 303.916V303.916L182.118 281.111M186.378 300.875V284.912V266.668L190.386 235.501M186.378 300.875V300.875C187.194 302.215 189.253 301.664 189.292 300.096L189.919 275.03L196.704 234.309C197.752 228.023 199.397 221.852 201.619 215.879L206.38 203.081C209.077 195.832 212.605 188.921 216.895 182.486L218.039 180.769M212.719 176.968L205.119 192.171L197.519 213.456L191.431 231.047C190.931 232.492 190.581 233.984 190.386 235.501V235.501M212.719 176.968V176.968C214.906 175.655 217.723 176.133 219.356 178.092L220.319 179.248M212.719 176.968L218.039 180.769M220.319 179.248L218.039 180.769M220.319 179.248V179.248C220.319 182.269 219.832 185.27 218.877 188.136L218.799 188.37M218.799 188.37L219.589 181.256C220.07 176.932 219.573 172.555 218.136 168.449V168.449C216.098 162.624 212.258 157.599 207.173 154.102L207.021 153.998C204.253 152.094 201.182 150.676 197.938 149.802L192.026 148.21C186.197 146.641 180.031 146.868 174.333 148.862V148.862C170.085 150.35 166.226 152.775 163.043 155.958L160.518 158.484C155.012 163.992 151.919 171.461 151.919 179.248V179.248M218.799 188.37L214.619 195.202M180.799 251.464V263.627L182.118 281.111M180.799 251.464L184.599 228.659L185.024 225.386C185.924 218.466 187.565 211.663 189.919 205.094V205.094M189.919 205.094L192.199 199.773M189.919 205.094L194.479 207.755M192.199 199.773L195.041 201.182C196.093 201.703 196.759 202.776 196.759 203.951V203.951C196.759 204.689 196.495 205.402 196.015 205.962L194.479 207.755M192.199 199.773V196.732L190.679 183.809V175.061M194.479 207.755L192.199 221.058L190.386 235.501M170.159 171.647V173.365C170.159 175.745 170.613 178.103 171.496 180.313L172.517 182.864C173.913 186.356 176.776 189.056 180.344 190.246V190.246C183.998 191.464 188.005 190.971 191.254 188.903L191.52 188.733C193.46 187.498 195.051 185.787 196.141 183.762L197.566 181.115C198.987 178.476 199.213 175.358 198.19 172.542V172.542C197.271 170.014 195.418 167.936 193.013 166.733L190.59 165.521C188.649 164.55 186.509 164.045 184.339 164.045V164.045C181.069 164.045 177.903 165.191 175.392 167.285L170.159 171.647ZM170.159 171.647L167.879 162.525L164.839 151.122M190.679 175.061L170.159 183.809L163.908 186.695C161.5 187.806 159.256 189.244 157.239 190.967V190.967M142.038 157.203L143.802 153.676C145.564 150.151 148.873 147.655 152.746 146.928V146.928C156.542 146.216 160.455 147.286 163.362 149.83L164.839 151.122M142.038 157.203L145.179 158.949C147.556 160.269 150.346 160.637 152.984 159.978V159.978C154.289 159.651 155.52 159.083 156.614 158.301L158.664 156.837C159.738 156.069 160.748 155.214 161.682 154.28L164.839 151.122M142.038 157.203L143.185 159.115C146.964 165.415 149.901 172.184 151.919 179.248V179.248M151.919 179.248L157.239 190.967M157.239 190.967L164.839 212.696L170.159 230.18L179.279 266.668L182.118 281.111M157.239 190.967L160.558 194.813C163.382 198.085 166.849 200.738 170.744 202.608V202.608C179.051 206.596 188.691 206.736 197.11 202.991L214.619 195.202M128.358 151.458L107.816 160.537C100.26 163.876 93.1418 168.143 86.6342 173.232V173.232M128.358 151.458L126.749 155.192C123.8 162.036 122.278 169.409 122.278 176.861V176.861C122.278 181.475 122.862 186.07 124.014 190.538L124.703 193.205C127.103 202.51 131.78 211.122 138.258 218.22V218.22C142.261 222.605 146.931 226.376 152.065 229.357V229.357C162.36 235.337 174.239 238.022 186.105 237.053L193.635 236.438C201.216 235.819 208.6 233.707 215.361 230.223V230.223C225.054 225.229 233.133 217.589 238.661 208.19L240.75 204.637C243.824 199.41 245.927 193.671 246.957 187.695L247.28 185.823C248.538 178.523 247.89 171.022 245.399 164.045V164.045L242.225 151.122M86.6342 173.232V186.85L88.1497 203.174C89.094 213.347 93.0367 223.01 99.4782 230.94V230.94L105.245 237.711C112.942 246.748 122.692 253.81 133.678 258.306V258.306L160.279 268.188V268.188C170.326 270.701 180.75 271.341 191.03 270.079L205.401 268.313C214.281 267.223 222.943 264.785 231.089 261.085L231.491 260.902C238.613 257.666 245.253 253.462 251.223 248.408V248.408C258.932 241.883 265.414 234.034 270.365 225.231L271.418 223.358C274.836 217.281 277.587 210.853 279.624 204.186L280.254 202.121C283.344 192.006 284.791 181.46 284.539 170.886V170.886" stroke="url(#paint3_radial_142_139)" stroke-width="2"/>
<defs>
<radialGradient id="paint0_radial_142_139" cx="0" cy="0" r="1" gradientUnits="userSpaceOnUse" gradientTransform="translate(327 88.9999) rotate(115.548) scale(755.91 792.985)">
<stop stop-color="#DF2C2C"/>
<stop offset="1" stop-opacity="0"/>
</radialGradient>
<radialGradient id="paint1_radial_142_139" cx="0" cy="0" r="1" gradientUnits="userSpaceOnUse" gradientTransform="translate(327 88.9999) rotate(115.548) scale(755.91 792.985)">
<stop stop-color="#DF2C2C"/>
<stop offset="1" stop-opacity="0"/>
</radialGradient>
<radialGradient id="paint2_radial_142_139" cx="0" cy="0" r="1" gradientUnits="userSpaceOnUse" gradientTransform="translate(609.751 290.784) rotate(-173.655) scale(755.91 792.985)">
<stop stop-color="#DF2C2C"/>
<stop offset="1" stop-opacity="0"/>
</radialGradient>
<radialGradient id="paint3_radial_142_139" cx="0" cy="0" r="1" gradientUnits="userSpaceOnUse" gradientTransform="translate(327 88.9999) rotate(115.548) scale(755.91 792.985)">
<stop stop-color="#DF2C2C"/>
<stop offset="1" stop-opacity="0"/>
</radialGradient>
</defs>
</svg>
