<svg width="104" height="53" viewBox="0 0 104 53" fill="none" xmlns="http://www.w3.org/2000/svg">
<path d="M103 26.5C103 33.2449 97.6124 39.6095 88.3155 44.3474C79.0731 49.0574 66.2351 52 52 52C37.7649 52 24.9269 49.0574 15.6845 44.3474C6.3876 39.6095 1 33.2449 1 26.5C1 19.7551 6.3876 13.3905 15.6845 8.65264C24.9269 3.94259 37.7649 1 52 1C66.2351 1 79.0731 3.94259 88.3155 8.65264C97.6124 13.3905 103 19.7551 103 26.5Z" stroke="#E38C27" stroke-width="2"/>
<path d="M43 21L51.5 14L60.5 20.5M43 26V33.5H60.5V26H43Z" stroke="#E38C27" stroke-width="2"/>
</svg>
