<svg width="1426" height="828" viewBox="0 0 1426 828" fill="none" xmlns="http://www.w3.org/2000/svg">
<path d="M561 437.5L481.591 447.972C473.89 448.987 466.333 450.896 459.074 453.661L357.268 492.432C306.716 511.684 280.376 567.765 299.726 618.279C313.942 655.392 327.023 686.304 330.5 685C334.59 683.466 386.277 673.41 438.889 663.392C486.185 654.386 520.5 613.098 520.5 564.951V527V463.474C520.5 424.989 498.415 389.919 463.708 373.29L325.898 307.263C319.98 304.428 314.356 301.017 309.107 297.08L187 205.5L110.772 134.543C99.3501 123.911 84.3245 118 68.7197 118V118C34.6329 118 7 145.633 7 179.72V252.295C7 276.295 15.6311 299.494 31.3177 317.657L83.62 378.218C101.43 398.84 126.885 411.302 154.097 412.72L352.089 423.04C364.26 423.675 376.445 422.079 388.043 418.331L599.5 350L688.298 315.34C727.937 299.868 773.027 311.176 800.674 343.522L860.997 414.097C874.031 429.346 891.349 440.322 910.702 445.6L1043.42 481.797C1069.67 488.955 1097.7 485.111 1121.05 471.152L1176.25 438.15C1204.94 421 1222.5 390.037 1222.5 356.614V356.614C1222.5 323.338 1205.09 292.488 1176.6 275.29L1079.54 216.691C1067.32 209.316 1053.67 204.641 1039.49 202.979L943.836 191.768C895.638 186.118 850.341 215.889 836.406 262.373L805.96 363.938C798.902 387.484 800.763 412.805 811.189 435.066L822.56 459.344C828.777 472.619 832 487.099 832 501.758V517.423C832 544.919 843.322 571.203 863.304 590.092L871.368 597.715C887.343 612.816 907.849 622.233 929.714 624.508L1147.08 647.124C1152.68 647.707 1158.33 647.815 1163.95 647.448L1255.9 641.438C1288.82 639.286 1318.56 621.038 1335.39 592.663L1376.96 522.579C1388.33 503.411 1392.97 480.994 1390.14 458.887L1369.13 294.507C1363.92 253.772 1334.34 220.361 1294.54 210.258L1161.36 176.459C1140.97 171.285 1119.48 172.67 1099.92 180.418L959.008 236.252C932.884 246.603 912.32 267.468 902.35 293.74L883.627 343.079C881.878 347.687 879.791 352.159 877.383 356.459L855.359 395.788C840.658 422.039 839.209 453.688 851.448 481.172V481.172C857.403 494.545 866.356 506.366 877.614 515.722L911.888 544.203C924.757 554.896 940.103 562.19 956.521 565.416L961.5 566.394M961.5 566.394L1098.2 593.252C1118.87 597.313 1140.3 594.743 1159.42 585.906L1302.44 519.824C1337.84 503.471 1360.5 468.036 1360.5 429.046V376.454C1360.5 359.116 1355.99 342.076 1347.42 327.006L1303.81 250.35C1298.96 241.83 1292.89 234.068 1285.78 227.315L1209.54 154.844C1200.27 146.03 1189.39 139.077 1177.49 134.363L1100.03 103.655C1089.75 99.5801 1078.86 97.2383 1067.81 96.7257L903.789 89.1143C881.26 88.0689 859.039 94.6697 840.735 107.845L817.192 124.79C792.585 142.502 778 170.97 778 201.289V201.289C778 218.122 782.508 234.648 791.056 249.15L850.5 350L868.629 380.016C876.404 392.89 877.569 408.701 871.764 422.576V422.576C864.863 439.072 867.89 458.053 879.581 471.584L961.5 566.394ZM448 527L526.726 348.72C536.748 326.025 536.464 300.104 525.946 277.635V277.635C522.335 269.921 517.597 262.788 511.887 256.469L428.126 163.773C414.998 149.245 397.893 138.89 378.934 133.994L317 118L147.855 60.111C136.162 56.1088 123.615 55.2834 111.498 57.719V57.719C69.1377 66.2336 44.6095 110.798 60.0784 151.142L123.372 316.213C127.753 327.641 130 339.775 130 352.014V465.575C130 483.527 134.832 501.148 143.99 516.588L188.757 592.067C205.781 620.771 236.002 639.09 269.325 640.906L348.337 645.212C380.46 646.962 411.464 633.152 431.648 608.1L460.616 572.147C466.837 564.425 471.876 555.821 475.566 546.616L550.464 359.782C557.228 342.908 570.215 329.277 586.741 321.702V321.702C624.528 304.383 669.041 323.129 683.054 362.264L768 599.5L811.56 787.973C816.082 807.537 826.388 825.287 841.139 838.911L1010.71 995.544C1041.02 1023.55 1085.43 1030.05 1122.5 1011.92L1155.05 995.996C1194.47 976.709 1215.25 932.655 1205.05 889.965V889.965C1198.96 864.491 1182.5 842.723 1159.65 829.93L1024 754L877.222 652.326C849.064 632.82 812.881 629.085 781.332 642.425L700.685 676.528C673.038 688.218 652.291 711.769 642.793 740.243C628.869 781.982 610.89 828.812 599.5 836.5C590.002 842.911 549.14 852.811 506.934 861.682C471.387 869.152 441.805 835.131 453.18 800.635V800.635C456.622 790.196 463.544 781.255 472.789 775.309L588.61 700.806C618.299 681.708 655.857 679.679 687.431 695.465L691.171 697.335C729.116 716.308 750.96 757.159 745.668 799.251L738.764 854.17C734.823 885.524 716.293 913.17 688.789 928.731L581.155 989.629C556.544 1003.55 527.188 1006.41 500.356 997.485L429.256 973.841C377.942 956.777 354.76 897.284 381 850V850L434.361 773.542C443.328 760.694 449.151 745.919 451.359 730.408L462.66 651.044C467.197 619.185 454.263 587.346 428.793 567.677V567.677C422.624 562.913 415.859 558.976 408.669 555.966L240.04 485.377C230.734 481.482 220.891 479.017 210.847 478.066L118.682 469.345C68.3473 464.581 22.376 498.138 11.5715 547.53L9.97222 554.841C1.23194 594.797 17.7043 636.048 51.5623 658.993L133.632 714.61C160.793 733.017 195.256 736.928 225.852 725.077L269.436 708.195C291.435 699.674 309.712 683.65 321.038 662.956L344 621L398.188 541.411C404.681 531.875 409.474 521.289 412.356 510.119L425.063 460.882C427.014 453.32 429.845 446.013 433.497 439.109L490.787 330.813C500.274 312.878 515.928 298.98 534.859 291.682L579.154 274.607C608.152 263.428 618.744 227.848 600.581 202.63V202.63C586.554 183.154 560.189 177.226 539.176 188.823L470 227L405.052 255.46C389.285 262.37 375.568 273.232 365.23 286.997L307.542 363.802C299.27 374.815 293.362 387.419 290.189 400.822L252.084 561.799C248.096 578.644 248.55 596.236 253.4 612.853L280.249 704.838C302.192 780.016 398.122 801.937 450.54 743.751L475.773 715.742C481.895 708.946 488.921 703.022 496.654 698.136L536.451 672.99C561.514 657.154 592.311 653.254 620.529 662.344L628.5 664.912M628.5 664.912L754.5 705.5L844.991 743.83C860.734 750.499 877.923 753.019 894.918 751.152L1016.5 737.791C1063.21 732.658 1100.04 695.698 1105.02 648.973L1113.14 572.657C1116.23 543.674 1106.51 514.787 1086.54 493.556L961.655 360.796C954.922 353.638 947.17 347.511 938.65 342.614L847.206 290.053C791.196 257.859 793.001 176.448 850.382 146.768V146.768C883.191 129.798 923.306 136.973 948.199 164.262L985.791 205.474C1017.9 240.673 1020.71 293.635 992.523 332.04L832.833 549.584C815.204 573.599 809.201 604.224 816.458 633.118L826.035 671.252C829.954 686.854 837.578 701.279 848.261 713.306L980.465 862.129C996.854 880.578 1002 906.438 993.935 929.758V929.758C978.291 974.971 922.185 990.465 885.556 959.687L857.236 935.891C826.103 909.732 815.402 866.475 830.748 828.817L875.691 718.529C879.213 709.885 881.508 700.792 882.508 691.512L894.143 583.619C895.372 572.221 898.552 561.118 903.544 550.798L915.325 526.441C925.76 504.867 928.1 480.263 921.92 457.109L914.685 430.002C903.537 388.239 866.818 358.365 823.661 355.947L775.41 353.244C739.597 351.238 707.602 330.204 691.561 298.122L680.5 276L640.478 200.959C632.618 186.221 621.192 173.687 607.242 164.501L512.797 102.306C507.942 99.108 502.816 96.3399 497.48 94.0328L313.991 14.71C301.463 9.29402 287.959 6.5 274.31 6.5H100.999C16.4703 6.5 -29.9301 104.868 23.8297 170.099L36.4212 185.377C42.7712 193.082 50.2395 199.793 58.5773 205.286L194 294.5L322.592 360.424C341.69 370.214 363.43 373.601 384.6 370.084L491.645 352.302C500.735 350.792 509.296 347.012 516.535 341.313V341.313C545.833 318.249 589.112 330.585 601.846 365.63L628.039 437.714C633.596 453.007 635.337 469.424 633.112 485.542L603.591 699.369C600.922 718.7 592.655 736.828 579.81 751.518L505.5 836.5L452.296 897.943C436.621 916.044 414.971 927.921 391.282 931.413L211.839 957.864C189.292 961.188 166.285 956.71 146.631 945.172L44.7604 885.371C35.9262 880.185 30.5 870.708 30.5 860.464V860.464C30.5 840.084 51.039 826.114 69.9937 833.602L111.5 850L190.066 881.577C204.67 887.446 221.325 881.011 228.187 866.847V866.847C234.68 853.447 230.342 837.311 218.005 828.973L175.292 800.108C147.487 781.318 132.537 748.547 136.571 715.232L141.951 670.792C142.979 662.299 145.093 653.973 148.241 646.019L226 449.5L302.447 295.345C311.902 276.28 327.192 260.728 346.094 250.951L490.653 176.18C500.483 171.095 511.089 167.678 522.038 166.067L657.111 146.192C677.845 143.141 699.014 146.682 717.627 156.314L818.22 208.369C827.352 213.095 835.701 219.201 842.971 226.471L869 252.5L881.173 261.692C904.366 279.205 918 306.584 918 335.647V335.647C918 355.948 924.666 375.687 936.975 391.831L951.732 411.188C958.202 419.675 963.272 429.142 966.75 439.232L983.468 487.737C992.131 512.872 990.428 540.421 978.737 564.298L973.246 575.512C965.614 591.099 963.139 608.709 966.181 625.796L971.648 656.505C975.588 678.64 962.762 700.333 941.468 707.548V707.548C926.838 712.505 915.725 724.55 911.958 739.531L896 803L877.1 889.102C871.88 912.88 858.165 933.938 838.527 948.327L832.212 952.953C823.162 959.584 812.879 964.342 801.966 966.947V966.947C765.776 975.586 728.203 959.475 709.512 927.305L705.079 919.674C694.641 901.709 690.303 880.847 692.713 860.21L716.185 659.258C717.059 651.777 717.085 644.22 716.262 636.733L705.789 541.429C703.644 521.909 707.293 502.19 716.282 484.731L732.28 453.659C746.31 426.407 747.068 394.225 734.335 366.344L672.254 230.403C662.583 209.225 662.757 184.856 672.73 163.819L674.804 159.445C683.776 140.52 683.646 118.542 674.453 99.7243V99.7243C663.653 77.6185 641.879 62.9548 617.335 61.2582L476.895 51.5504C454.822 50.0246 434.216 62.685 425.601 83.0654V83.0654C421.623 92.4779 420.517 102.857 422.422 112.896L455.829 288.924C457.6 298.26 458.032 307.802 457.112 317.26L444.051 451.4C441.459 478.018 449.637 504.564 466.758 525.109L485 547L496.631 559.946C522.015 588.199 565.442 590.674 593.872 565.486V565.486C597.613 562.172 600.983 558.461 603.924 554.42L689 437.5L778.017 294.238C782.652 286.778 788.25 279.962 794.665 273.965L961.5 118L1021.5 55.7371C1034.25 42.5021 1050.41 33.038 1068.19 28.3846L1162.1 3.80668C1199.06 -5.86595 1238.3 6.36505 1263.22 35.3244L1277.75 52.2116C1290 66.449 1298 83.8487 1300.82 102.418L1304.37 125.802C1307.07 143.603 1304.92 161.805 1298.14 178.484L1264.37 261.545C1256.95 279.776 1255.09 299.788 1259 319.076L1271.51 380.794C1278.62 415.874 1303.93 444.478 1337.89 455.797L1371.68 467.062C1427.26 485.588 1486.79 452.583 1500.52 395.629L1505.57 374.68C1511.92 348.359 1507.32 320.589 1492.83 297.719L1439.57 213.677C1426.63 193.253 1406.73 178.21 1383.55 171.333L1283 141.5L1181.67 109.191C1158.07 101.666 1132.51 103.168 1109.96 113.406L1099.3 118.244C1083.06 125.614 1069.09 137.191 1058.83 151.776L996.704 240.117C984.857 256.961 978.5 277.051 978.5 297.644V391.665C978.5 404.112 980.824 416.45 985.352 428.045L1013.3 499.608C1020.29 517.491 1021.97 537.006 1018.17 555.823L1017.97 556.779C1011.15 590.517 987.445 618.372 955.236 630.515L850.5 670V670C825.634 678.197 798.928 664.139 791.611 639L773.384 576.378C762.781 539.951 725.615 518.109 688.632 526.572V526.572C657.711 533.647 635.126 560.216 633.122 591.872L628.5 664.912Z" stroke="#7A1D00"/>
</svg>
