<svg width="381" height="259" viewBox="0 0 381 259" fill="none" xmlns="http://www.w3.org/2000/svg">
<path d="M158.344 219.241L151.954 260.523L151.32 268.4C150.575 277.648 151.121 286.954 152.942 296.051L154.088 301.777L155.576 307.066C156.151 309.11 158.59 309.95 160.301 308.694V308.694C161.323 307.944 161.772 306.639 161.429 305.419L158.514 295.062C158.094 293.568 157.863 292.027 157.825 290.476L157.264 266.98C157.138 261.723 157.427 256.464 158.129 251.253L161.162 228.714L166.122 210.881C167.24 206.859 169.472 203.235 172.561 200.426L175.36 197.88C177.006 196.384 179.083 195.447 181.294 195.205V195.205C184.896 194.81 188.447 196.296 190.695 199.139L191.472 200.122C192.618 201.572 193.437 203.252 193.871 205.048L198.04 222.285L203.599 242.043L205.697 256.74C206.464 262.117 206.792 267.547 206.678 272.978L206.464 283.09L205.969 300.578C205.819 305.895 205.013 311.173 203.569 316.292V316.292M158.344 219.241L159.137 214.118C159.205 213.682 159.322 213.254 159.486 212.844L162.694 204.842C163.178 203.636 162.067 202.399 160.816 202.751V202.751C160.433 202.859 160.105 203.109 159.9 203.449L151.603 217.189L150.72 219.017M158.344 219.241L151.949 235.255L147.661 251.282C145.652 258.79 144.526 266.506 144.304 274.275L143.911 288.057L145.72 305.71L147.152 314.377C147.666 317.494 146.777 320.679 144.721 323.078V323.078C143.348 324.681 141.53 325.842 139.497 326.414L137.849 326.878C135.215 327.619 132.438 327.687 129.771 327.076L127.47 326.549C125.546 326.109 123.732 325.276 122.144 324.104L120.269 322.721C118.54 321.446 117.36 319.561 116.967 317.449L116.573 315.327C116.248 313.574 116.909 311.783 118.296 310.663V310.663M145.904 311.976L143.242 309.939C141.023 308.241 138.439 307.083 135.695 306.557V306.557C132.951 306.031 130.122 306.151 127.432 306.908L123.334 308.061C121.496 308.578 119.782 309.464 118.296 310.663V310.663M184.498 188.191L173.897 193.674C165.387 198.077 157.553 203.679 150.637 210.31L142.412 218.196L119.645 246.714L105.606 265.392C100.434 272.273 96.1725 279.793 92.9265 287.766L90.4551 293.836C86.6777 303.114 84.5821 312.99 84.2664 323.003V323.003L84.409 324.508C84.8219 328.864 87.3454 332.741 91.1619 334.882V334.882M184.498 188.191L165.683 194.275L148.856 199.009L117.284 210.263L80.0643 223.894L67.1488 230.15C62.7949 232.259 58.5997 234.681 54.5963 237.397L44.6983 244.112M184.498 188.191L162.56 197.28C157.396 199.42 152.421 201.989 147.686 204.96L143.393 207.654V207.654C138.255 211.718 133.743 216.517 130.004 221.896L126.089 227.527L113.175 246.165V246.165C109.396 252.905 103.799 258.447 97.0219 262.16L96.0534 262.69C91.7834 265.029 87.1627 266.661 82.3708 267.522L73.652 269.089C68.7798 269.964 63.8104 270.166 58.8832 269.688V269.688C54.1149 269.226 49.4293 268.131 44.9497 266.433L40.061 264.58C34.2827 262.39 28.7366 259.63 23.5048 256.341L20.0903 254.195M184.498 188.191L188.648 187.023C192.158 186.035 195.924 187.116 198.377 189.813V189.813M312.027 40.9596L340.386 70.8765C343.931 74.6157 347.181 78.6232 350.108 82.8633L361.231 98.9761M312.027 40.9596L254.293 10.7385C249.001 7.96871 243.245 6.1976 237.312 5.51383V5.51383M312.027 40.9596L290.889 34.7805C282.082 32.2059 272.962 30.8557 263.787 30.768L239.616 30.5369L197.319 34.5417L137.968 48.0835L109.669 58.2733C101.802 61.1057 94.3224 64.9134 87.4038 69.6073L66.0007 84.128L44.7582 102.925C38.9595 108.056 33.7772 113.844 29.3159 120.172V120.172C24.5825 126.887 20.6957 134.16 17.7437 141.826L16.3349 145.485M91.1619 334.882L97.2556 338.3L116.195 348.506C122.166 351.724 128.449 354.326 134.947 356.271L142.849 358.638M91.1619 334.882L77.1413 325.098C68.531 319.09 60.9207 311.763 54.59 303.387L41.505 286.074L31.1425 268.889C27.2079 262.363 24.032 255.41 21.6767 248.163L17.5696 235.527C14.8438 227.141 13.2392 218.431 12.7975 209.624L11.7479 188.693C11.4082 181.92 11.7584 175.13 12.7931 168.427L16.3349 145.485M118.296 310.663L121.231 294.438L129.16 269.306L140.13 240.949L150.72 219.017M150.72 219.017L140.358 236.147L130.461 257.095L123.286 276.487L120.353 287.544C118.99 292.681 118.039 297.918 117.508 303.206L117.164 306.638M117.164 306.638L116.158 308.525C112.928 314.585 108.111 319.654 102.223 323.188L99.0609 325.086C97.276 326.158 95.3136 326.901 93.2668 327.281V327.281C89.9023 327.906 86.4283 327.528 83.2772 326.193L82.2637 325.764C80.198 324.889 78.2848 323.691 76.5964 322.214L69.7337 316.211C65.547 312.548 61.7643 308.448 58.4504 303.98L53.2588 296.981L46.7316 288.981C43.0983 284.528 40.5492 279.291 39.2853 273.684V273.684C38.451 269.984 38.1904 266.163 38.5102 262.383V262.383C38.9131 257.622 40.2285 252.965 42.3823 248.699L44.6983 244.112M117.164 306.638L115.081 292.221L114.773 289.614C113.842 281.749 111.369 274.144 107.495 267.235V267.235C104.039 261.073 99.5261 255.567 94.1619 250.97L93.9474 250.786L86.8591 245.241C84.1749 243.141 81.1989 241.443 78.0251 240.202V240.202C68.4023 236.438 57.6094 237.109 48.5268 242.035L44.6983 244.112M44.6983 244.112L47.935 238.339C50.6787 233.445 53.8294 228.791 57.3538 224.426L65.3748 214.491C68.5918 210.506 72.1101 206.775 75.8987 203.329L85.0683 194.989C89.4018 191.048 94.0733 187.495 99.0288 184.372L109.687 177.654L151.729 158.716L170.102 151.058M361.231 98.9761L367.973 116.119C370.74 123.154 372.701 130.48 373.817 137.956L379.152 173.692M361.231 98.9761L357.526 96.2179C350.279 90.8225 342.334 86.4342 333.908 83.1728L332.94 82.7983C327.882 80.8404 322.673 79.2973 317.364 78.1842L298.779 74.2873C290.787 72.6115 282.619 71.921 274.459 72.2312L248.933 73.2016M379.152 173.692V173.692C379.139 176.85 378.881 180.001 378.378 183.118L371.349 226.711C370.405 232.564 368.863 238.305 366.747 243.843V243.843M379.152 173.692V173.692C377.509 171.028 375.342 168.727 372.781 166.928L359.216 157.401C350.566 151.325 341.007 146.659 330.895 143.577L312.479 137.964L302.403 136.032C294.682 134.552 286.813 133.987 278.959 134.35L247.135 135.819L231.544 137.02C226.489 137.409 221.472 138.182 216.535 139.332L178.031 148.301C176.046 148.764 174.103 149.39 172.222 150.174V150.174M366.747 243.843L361.553 257.436C358.361 265.789 354.063 273.676 348.775 280.886L332.721 302.774M366.747 243.843L365.936 242.478C360.509 233.337 353.649 225.126 345.619 218.158V218.158C336.371 210.133 325.72 203.887 314.201 199.734L313.8 199.589C309.289 197.963 304.667 196.663 299.97 195.699L281.051 191.82L246.618 187.294L222.269 185.667C221.889 185.641 221.514 185.772 221.232 186.028V186.028C220.378 186.805 220.777 188.224 221.911 188.442L225.835 189.194L235.361 191.02C239.014 191.721 242.733 192.019 246.452 191.91V191.91C253.099 191.716 259.72 192.824 265.941 195.172L273.302 197.949L285.081 201.772C289.385 203.169 293.568 204.914 297.588 206.99L301.467 208.993C304.085 210.345 306.837 211.418 309.68 212.193V212.193M309.68 212.193L311.186 214.155C311.823 214.985 312.146 216.013 312.096 217.058L312.031 218.425C311.98 219.51 311.24 220.441 310.194 220.735L309.138 221.032C307.999 221.353 306.882 220.463 306.938 219.282V219.282M309.68 212.193L308.227 214.784C307.454 216.163 307.013 217.703 306.938 219.282V219.282M306.938 219.282V219.282C303.051 220.376 299.044 220.989 295.008 221.107L288.556 221.296L287.654 221.239C277.6 220.611 267.701 218.44 258.306 214.803V214.803L245.387 208.173L224.237 197.541L212.272 193.227C212.049 193.146 211.815 193.1 211.578 193.088V193.088C209.678 192.998 208.445 195.061 209.423 196.692L211.369 199.935C211.518 200.183 211.692 200.417 211.887 200.631L219.597 209.112L223.633 212.814C230.137 218.78 237.403 223.859 245.24 227.918L262.083 236.642L277.083 245.056M277.083 245.056L283.737 251.87M277.083 245.056L276.773 245.266C274.406 246.872 272.692 249.272 271.94 252.031V252.031V252.031C271.032 254.379 270.508 256.858 270.388 259.372L270.341 260.378M283.737 251.87L291.557 254.408M283.737 251.87L281.667 255.563C280.947 256.847 280.073 258.037 279.063 259.108V259.108M291.557 254.408L292.837 256.647C293.973 258.635 293.983 261.072 292.863 263.068L291.911 264.766C291.341 265.783 290.264 266.411 289.098 266.406V266.406C287.165 266.398 285.677 264.695 285.929 262.778L286.052 261.842C286.154 261.065 286.48 260.334 286.99 259.739L291.557 254.408ZM285.043 264.928L279.475 261.805C278.494 261.254 278.291 259.927 279.063 259.108V259.108M279.063 259.108V259.108C276.258 260.644 272.901 260.795 269.97 259.516L264.716 257.223L263.6 256.65C255.766 252.629 248.496 247.59 241.981 241.665L241.383 241.121C237.72 237.79 234.31 234.192 231.18 230.356L223.829 221.346L211.046 206.78L203.156 195.576L198.377 189.813M198.377 189.813L194.9 186.535C192.943 184.688 191.418 182.432 190.435 179.927V179.927C189.578 177.742 188.307 175.744 186.693 174.04L177.909 164.775V164.775C173.975 160.111 169.496 155.936 164.568 152.339L161.056 149.775L152.207 143.578M198.377 189.813L192.637 186.225C190.12 184.651 188.057 182.447 186.652 179.831V179.831C185.874 178.384 184.892 177.056 183.735 175.889L174.457 166.536L170.844 163.439C167.709 160.752 164.363 158.32 160.839 156.168V156.168C156.12 153.287 151.724 149.906 147.728 146.085L139.7 138.411L128.563 129.699L114.203 117.946L100.46 108.388L97.9641 106.887C89.5951 101.853 80.2147 98.7359 70.4973 97.7598V97.7598C65.1886 97.2265 59.8348 97.3379 54.5529 98.0915L42.9689 99.7442C40.8204 100.051 38.7187 100.625 36.7126 101.453L31.3072 103.684C28.9864 104.641 27.0902 106.406 25.9679 108.652V108.652C23.9861 112.618 24.7343 117.404 27.8318 120.575L28.2983 121.053C28.9712 121.742 29.5537 122.514 30.0316 123.35L32.1897 127.126C34.4062 131.004 36.0377 135.189 37.0314 139.544L38.9191 147.816L42.5075 160.569C43.8198 165.233 44.7914 169.985 45.4147 174.79L46.2493 181.223C47.7587 192.857 47.209 204.667 44.6255 216.11L43.9621 219.049L37.3024 236.921C36.0569 240.264 34.1547 243.323 31.7078 245.918V245.918C30.1324 247.589 28.348 249.05 26.3989 250.264L20.0903 254.195M266.962 164.197L267.86 163.684C269.963 162.481 268.857 159.258 266.458 159.6V159.6L262.801 160.63M266.962 164.197L258.595 168.131L238.614 178.491L235.772 180.116C232.256 182.125 228.399 183.467 224.394 184.072V184.072L219.435 184.732C219.191 184.764 218.944 184.763 218.7 184.728V184.728C216.262 184.374 215.568 181.186 217.638 179.85L219.948 178.36C220.212 178.19 220.498 178.054 220.796 177.955L230.621 174.724C234.831 173.339 238.828 171.375 242.495 168.887V168.887C246.737 166.008 251.416 163.833 256.351 162.444L262.801 160.63M266.962 164.197L265.193 164.695C264.15 164.988 263.066 164.38 262.773 163.337V163.337C262.716 163.134 262.692 162.923 262.702 162.713L262.801 160.63M187.125 51.6246L185.391 67.9065L185.514 116.043L185.736 121.508M187.125 51.6246L184.462 47.9176C182.877 45.7109 180.319 44.4117 177.602 44.4333V44.4333M187.125 51.6246L183.401 53.7537C182.261 54.4054 181.045 54.9148 179.781 55.2705L176.783 56.1141C175.686 56.4229 174.522 56.3999 173.437 56.048V56.048C171.277 55.3468 169.728 53.4437 169.48 51.1856L169.383 50.2995M169.383 50.2995L170.866 48.0736C172.369 45.8185 174.892 44.455 177.602 44.4333V44.4333M169.383 50.2995L169.534 52.6891C169.892 58.3273 169.77 63.9856 169.172 69.6033L169.152 69.7876C168.609 74.884 168.459 80.0146 168.702 85.134L169.3 97.7042L173.077 119.543L173.966 124.742C175.001 130.791 176.849 136.673 179.46 142.227V142.227M179.46 142.227L181.712 140.409M179.46 142.227L178.203 143.37M185.736 121.508L186.667 144.42C186.786 147.353 187.248 150.263 188.043 153.089L188.593 155.045C189.747 159.147 191.802 162.939 194.607 166.146V166.146C199.351 171.571 206.008 175.012 213.174 175.777V175.777C219.112 176.41 225.134 175.189 230.346 172.274L231.588 171.58C236.699 168.722 240.966 164.567 243.959 159.535L245.545 156.869C248.558 151.804 250.544 146.194 251.389 140.361L252.381 133.513C253.012 129.158 253.281 124.758 253.185 120.358L252.799 102.638L249.342 79.1301L248.933 73.2016M185.736 121.508L184.262 135.712C184.071 137.555 183.153 139.245 181.712 140.409V140.409M177.602 44.4333L177.365 64.637L176.882 90.043L178.036 106.302L178.332 113.153C178.517 117.42 179.061 121.664 179.96 125.84V125.84C180.767 129.594 181.289 133.404 181.52 137.236L181.712 140.409M172.144 144.286L160.655 125.232C157.465 119.942 154.773 114.368 152.611 108.581L149.455 100.13L143.69 79.6405L142.269 75.5335C140.481 70.3641 140.988 64.6769 143.664 59.9057V59.9057M172.144 144.286L167.089 139.146C162.371 134.348 158.339 128.922 155.107 123.02V123.02L147.098 111.211C144.345 107.153 141.895 102.897 139.766 98.4792L137.268 93.293L133.448 82.5226L129.947 70.0828M172.144 144.286L172.518 144.43C174.461 145.182 176.662 144.772 178.203 143.37V143.37M143.664 59.9057V59.9057C149.516 60.8047 154.845 63.7945 158.663 68.32V68.32M143.664 59.9057L140.006 60.935L138.07 61.4796C133.962 62.6357 131.013 66.2733 130.695 70.5297V70.5297C130.61 71.6808 130.725 72.8464 131.038 73.9575L131.217 74.5938C131.971 77.2735 133.972 79.4242 136.591 80.3684V80.3684C137.89 80.837 139.284 80.9864 140.653 80.8041L148.597 79.7463C149.014 79.6908 149.426 79.6059 149.831 79.492V79.492C152.239 78.8142 154.25 77.1517 155.369 74.9134L158.663 68.32M158.663 68.32L159.649 83.0467L163.128 101.02L167.658 117.119L173.857 133.538L178.203 143.37M109.24 105.918L107.104 102.555C105.752 100.424 105.332 97.8316 105.944 95.3827L106.052 94.9495C106.327 93.8465 106.856 92.8228 107.596 91.9594V91.9594C109.128 90.1704 111.428 89.228 113.775 89.4269L117.615 89.7524C121.007 90.0398 124.088 91.8434 125.998 94.6604L126.599 95.5459C126.881 95.9626 127.095 96.4221 127.231 96.9068V96.9068M109.24 105.918L112.155 107.553C114.49 108.863 117.25 109.192 119.828 108.466V108.466C122.827 107.622 125.268 105.441 126.443 102.555L126.989 101.214C127.547 99.8452 127.632 98.3296 127.231 96.9068V96.9068M109.24 105.918V105.918C111.304 109.53 113.834 112.856 116.764 115.811L117.861 116.917L125.453 124.257L139.402 134.546L152.207 143.578M108.985 90.9853L113.765 96.7476L119.276 102.304L130.184 115.818L140.012 125.491C145.093 130.492 150.694 134.935 156.719 138.744L158.84 140.085C162.903 142.654 166.775 145.512 170.427 148.638L171.885 149.886M172.222 150.174L171.885 149.886M172.222 150.174L170.102 151.058M171.885 149.886V149.886C169.919 146.005 167.234 142.532 163.973 139.651L158.401 134.728L146.236 122.357L134.184 107.585L127.231 96.9068M170.102 151.058L152.207 143.578M20.0903 254.195V254.195C15.53 251.328 11.733 247.399 9.02492 242.742L6.63696 238.637C2.90371 232.218 1.15097 224.839 1.59902 217.427V217.427C1.88306 212.728 3.04543 208.124 5.0259 203.854L6.04645 201.653C7.29659 198.957 8.78227 196.377 10.4862 193.943L20.3141 179.901L31.5534 166.397C36.6299 160.297 42.4144 154.824 48.7848 150.092L80.6069 126.453C86.0714 122.394 91.936 118.904 98.1096 116.036L119.011 106.327L164.429 88.809L193.693 80.5746L244.562 73.3678L248.933 73.2016M248.933 73.2016L248.413 65.6828C248.178 62.273 248.459 58.8473 249.247 55.5215L250.086 51.985C251.116 47.6358 253.437 43.6995 256.744 40.6921V40.6921C260.763 37.0367 265.984 34.9837 271.417 34.9226L273.86 34.8951C280.081 34.8251 286.155 36.7853 291.161 40.4784L297.395 45.0768L302.131 48.8375C307.752 53.3013 312.662 58.5943 316.691 64.5349V64.5349C318.931 67.8376 320.888 71.324 322.54 74.9566L323.214 76.4393C326.613 83.9113 328.974 91.8132 330.231 99.9252L331.467 107.906C331.958 111.075 332.129 114.285 331.977 117.488L331.833 120.52C331.554 126.401 329.825 132.123 326.8 137.174L324.83 140.465C322.807 143.841 319.909 146.608 316.442 148.471V148.471C311.892 150.915 306.622 151.665 301.571 150.587L298.848 150.006C295.271 149.242 291.868 147.818 288.813 145.806L287.545 144.97C283.123 142.057 279.368 138.239 276.53 133.768L271.909 126.49C269.358 122.472 267.182 118.229 265.408 113.813L257.53 94.1993L248.933 73.2016ZM237.312 5.51383L208.506 2.19406C200.54 1.27597 192.492 1.31945 184.536 2.32358L156.922 5.80872C146.779 7.08886 136.892 9.91684 127.606 14.194L108.435 23.0247C98.9306 27.4026 90.1722 33.2453 82.4796 40.3393L62.0726 59.1583C53.8055 66.782 46.8837 75.7456 41.5983 85.6719L26.9975 113.093C21.7193 123.005 18.1485 133.736 16.4351 144.835L16.3349 145.485M237.312 5.51383L246.266 12.0823V12.0823C255.007 19.0234 262.438 27.4698 268.209 37.0237L271.307 42.1515L281.778 60.473C284.126 64.5804 286.179 68.8492 287.922 73.2473L293.47 87.2451L300.882 113.588L307.601 143.523C309.34 151.269 310.15 159.195 310.014 167.133L309.947 171.054L307.67 195.512C307.229 200.257 305.994 204.894 304.016 209.23V209.23C302.434 212.699 301.325 216.365 300.72 220.129L299.244 229.295C297.216 241.896 292.795 253.991 286.219 264.929L282.46 271.182L259.952 304.827M165.37 364.318V364.318C162.148 364.06 158.962 363.463 155.866 362.536L142.849 358.638M165.37 364.318L177.03 360.865L190.519 355.49L198.173 352.107C206.143 348.583 213.619 344.033 220.41 338.572L232.07 329.196M165.37 364.318L188.935 366.202M256.113 347.299V347.299C255.637 350.919 253.513 354.116 250.359 355.956L245.186 358.972M256.113 347.299L251.558 347.552C249.946 347.642 248.37 348.053 246.92 348.761L244.536 349.925C242.613 350.864 241.244 352.653 240.841 354.755V354.755M256.113 347.299V347.299C253.789 339.042 250.389 331.126 245.999 323.757L242.138 317.275L238.201 309.051C235.722 303.872 233.693 298.489 232.138 292.961L228.71 280.779L220.886 252.972M240.841 354.755L245.186 358.972M240.841 354.755V354.755C236.894 348.147 234.173 340.88 232.809 333.304L232.07 329.196M245.186 358.972V358.972C238.535 361.427 231.611 363.07 224.566 363.865L206.392 365.917C200.595 366.571 194.75 366.667 188.935 366.202V366.202M245.186 358.972L271.586 349.231C277.339 347.108 282.884 344.46 288.152 341.322L297.1 335.99C297.575 335.707 298.028 335.388 298.454 335.036V335.036M202.132 206.92L201.571 204.016C201.313 202.68 203.173 202.074 203.752 203.305V203.305L211.586 224.791M202.132 206.92L206.456 222.286L211.397 239.848L215.981 270.936M202.132 206.92V206.92C200.983 205.852 199.15 206.939 199.537 208.459L205.724 232.758L210.222 273.794C210.916 280.129 211.003 286.516 210.482 292.867L209.366 306.477C208.734 314.184 207.209 321.793 204.823 329.15L204.187 331.112M210.337 333.33L213.535 316.636L215.086 294.089L216.181 275.506C216.271 273.98 216.204 272.448 215.981 270.936V270.936M210.337 333.33V333.33C208.588 335.186 205.747 335.489 203.644 334.045L202.404 333.193M210.337 333.33L204.187 331.112M202.404 333.193L204.187 331.112M202.404 333.193V333.193C201.586 330.285 201.241 327.265 201.384 324.247L201.396 324.001M201.396 324.001L202.562 331.063C203.271 335.356 204.935 339.434 207.43 342.998V342.998C210.97 348.053 216.028 351.85 221.87 353.839L222.045 353.898C225.224 354.98 228.565 355.514 231.924 355.476L238.046 355.408C244.082 355.34 249.957 353.45 254.901 349.987V349.987C258.588 347.405 261.645 344.025 263.847 340.099L265.594 336.983C269.402 330.19 270.357 322.163 268.247 314.666V314.666M201.396 324.001L203.569 316.292M220.886 252.972L217.591 241.264L211.586 224.791M220.886 252.972L223.405 275.954L223.882 279.22C224.89 286.125 225.153 293.118 224.667 300.079V300.079M224.667 300.079L223.913 305.819M224.667 300.079L219.557 298.753M223.913 305.819L220.796 305.233C219.642 305.016 218.71 304.163 218.392 303.033V303.033C218.192 302.323 218.253 301.564 218.563 300.895L219.557 298.753M223.913 305.819L224.737 308.746L229.701 320.774L232.07 329.196M219.557 298.753L218.148 285.33L215.981 270.936M252.748 326.924L252.283 325.27C251.638 322.979 250.562 320.832 249.113 318.944L247.44 316.765C245.149 313.781 241.662 311.958 237.905 311.779V311.779C234.059 311.596 230.335 313.157 227.767 316.027L227.557 316.263C226.024 317.977 224.956 320.055 224.455 322.299L223.8 325.234C223.148 328.158 223.774 331.222 225.522 333.655V333.655C227.091 335.839 229.438 337.339 232.079 337.845L234.74 338.355C236.871 338.764 239.068 338.67 241.157 338.083V338.083C244.304 337.197 247.041 335.236 248.892 332.54L252.748 326.924ZM252.748 326.924L257.414 335.088L263.429 345.24M232.07 329.196L249.454 315.216L254.689 310.746C256.706 309.023 258.477 307.031 259.952 304.827V304.827M283.729 333.211L282.987 337.084C282.246 340.954 279.736 344.254 276.205 346.002V346.002C272.744 347.715 268.687 347.746 265.2 346.084L263.429 345.24M283.729 333.211L280.233 332.381C277.587 331.754 274.802 332.155 272.441 333.505V333.505C271.274 334.172 270.242 335.053 269.401 336.102L267.825 338.067C266.998 339.097 266.258 340.194 265.612 341.346L263.429 345.24M283.729 333.211L282.108 331.681C276.763 326.64 272.103 320.92 268.247 314.666V314.666M268.247 314.666L259.952 304.827M259.952 304.827L246.75 285.969L236.893 270.579L218.231 237.926L211.586 224.791M259.952 304.827L255.714 302.023C252.111 299.639 248.054 298.024 243.798 297.279V297.279C234.721 295.69 225.404 298.166 218.314 304.052L203.569 316.292M298.454 335.036L315.769 320.732C322.138 315.471 327.835 309.436 332.721 302.774V302.774M298.454 335.036L298.992 331.005C299.977 323.619 299.445 316.109 297.426 308.936V308.936C296.176 304.494 294.37 300.229 292.05 296.24L290.665 293.859C285.834 285.553 279 278.528 270.841 273.451V273.451C265.8 270.315 260.283 267.949 254.534 266.47V266.47C243.003 263.503 230.841 264.135 219.681 268.282L212.599 270.913C205.469 273.563 198.934 277.596 193.369 282.781V282.781C185.391 290.214 179.684 299.757 176.908 310.302L175.859 314.288C174.316 320.152 173.847 326.247 174.474 332.277L174.67 334.167C175.436 341.535 178.092 348.581 182.379 354.622V354.622L188.935 366.202M332.721 302.774L329.032 289.665L323.151 274.362C319.487 264.825 313.074 256.591 304.726 250.703V250.703L297.341 245.747C287.483 239.132 276.185 234.975 264.391 233.623V233.623L236.109 231.316V231.316C225.756 231.619 215.548 233.825 205.995 237.825L192.639 243.417C184.387 246.872 176.709 251.565 169.87 257.333L169.532 257.619C163.553 262.662 158.3 268.508 153.922 274.99V274.99C148.269 283.359 144.155 292.671 141.774 302.486L141.267 304.574C139.623 311.349 138.716 318.282 138.562 325.252L138.514 327.41C138.279 337.984 139.743 348.527 142.849 358.638V358.638" stroke="url(#paint0_radial_142_144)" stroke-width="2"/>
<defs>
<radialGradient id="paint0_radial_142_144" cx="0" cy="0" r="1" gradientUnits="userSpaceOnUse" gradientTransform="translate(124.156 448.964) rotate(-80.1678) scale(755.91 792.985)">
<stop stop-color="#DF2C2C"/>
<stop offset="1" stop-opacity="0"/>
</radialGradient>
</defs>
</svg>
