<svg width="1440" height="900" viewBox="0 0 1440 900" fill="none" xmlns="http://www.w3.org/2000/svg">
<path d="M525 352.5L445.591 362.972C437.89 363.987 430.333 365.896 423.074 368.661L321.268 407.432C270.716 426.684 244.376 482.765 263.726 533.279C277.942 570.392 291.023 601.304 294.5 600C298.59 598.466 350.277 588.41 402.889 578.392C450.185 569.386 484.5 528.098 484.5 479.951V442V378.474C484.5 339.989 462.415 304.919 427.708 288.29L289.898 222.263C283.98 219.428 278.356 216.017 273.107 212.08L151 120.5L74.7722 49.5433C63.3501 38.911 48.3245 33 32.7197 33V33C-1.36715 33 -29 60.6329 -29 94.7197V167.295C-29 191.295 -20.3689 214.494 -4.6823 232.657L47.62 293.218C65.4304 313.84 90.8851 326.302 118.097 327.72L316.089 338.04C328.26 338.675 340.445 337.079 352.043 333.331L563.5 265L652.298 230.34C691.937 214.868 737.027 226.176 764.674 258.522L824.997 329.097C838.031 344.346 855.349 355.322 874.702 360.6L1007.42 396.797C1033.67 403.955 1061.7 400.111 1085.05 386.152L1140.25 353.15C1168.94 336 1186.5 305.037 1186.5 271.614V271.614C1186.5 238.338 1169.09 207.488 1140.6 190.29L1043.54 131.691C1031.32 124.316 1017.67 119.641 1003.49 117.979L907.836 106.768C859.638 101.118 814.341 130.889 800.406 177.373L769.96 278.938C762.902 302.484 764.763 327.805 775.189 350.066L786.56 374.344C792.777 387.619 796 402.099 796 416.758V432.423C796 459.919 807.322 486.203 827.304 505.092L835.368 512.715C851.343 527.816 871.849 537.233 893.714 539.508L1111.08 562.124C1116.68 562.707 1122.33 562.815 1127.95 562.448L1219.9 556.438C1252.82 554.286 1282.56 536.038 1299.39 507.663L1340.96 437.579C1352.33 418.411 1356.97 395.994 1354.14 373.887L1333.13 209.507C1327.92 168.772 1298.34 135.361 1258.54 125.258L1125.36 91.4587C1104.97 86.2849 1083.48 87.6702 1063.92 95.4176L923.008 151.252C896.884 161.603 876.32 182.468 866.35 208.74L847.627 258.079C845.878 262.687 843.791 267.159 841.383 271.459L819.359 310.788C804.658 337.039 803.209 368.688 815.448 396.172V396.172C821.403 409.545 830.356 421.366 841.614 430.722L875.888 459.203C888.757 469.896 904.103 477.19 920.521 480.416L925.5 481.394M925.5 481.394L1062.2 508.252C1082.87 512.313 1104.3 509.743 1123.42 500.906L1266.44 434.824C1301.84 418.471 1324.5 383.036 1324.5 344.046V291.454C1324.5 274.116 1319.99 257.076 1311.42 242.006L1267.81 165.35C1262.96 156.83 1256.89 149.068 1249.78 142.315L1173.54 69.8435C1164.27 61.0297 1153.39 54.0771 1141.49 49.3628L1064.03 18.6555C1053.75 14.5801 1042.86 12.2383 1031.81 11.7257L867.789 4.11432C845.26 3.0689 823.039 9.66971 804.735 22.8449L781.192 39.7903C756.585 57.5022 742 85.97 742 116.289V116.289C742 133.122 746.508 149.648 755.056 164.15L814.5 265L832.629 295.016C840.404 307.89 841.569 323.701 835.764 337.576V337.576C828.863 354.072 831.89 373.053 843.581 386.584L925.5 481.394ZM412 442L490.726 263.72C500.748 241.025 500.464 215.104 489.946 192.635V192.635C486.335 184.921 481.597 177.788 475.887 171.469L392.126 78.7731C378.998 64.2446 361.893 53.8901 342.934 48.994L281 33L111.855 -24.889C100.162 -28.8912 87.6151 -29.7166 75.4979 -27.281V-27.281C33.1377 -18.7664 8.60953 25.7982 24.0784 66.1417L87.3716 231.213C91.7533 242.641 94 254.775 94 267.014V380.575C94 398.527 98.8324 416.148 107.99 431.588L152.757 507.067C169.781 535.771 200.002 554.09 233.325 555.906L312.337 560.212C344.46 561.962 375.464 548.152 395.648 523.1L424.616 487.147C430.837 479.425 435.876 470.821 439.566 461.616L514.464 274.782C521.228 257.908 534.215 244.277 550.741 236.702V236.702C588.528 219.383 633.041 238.129 647.054 277.264L732 514.5L775.56 702.973C780.082 722.537 790.388 740.287 805.139 753.911L974.707 910.544C1005.02 938.548 1049.43 945.05 1086.5 926.916L1119.05 910.996C1158.47 891.709 1179.25 847.655 1169.05 804.965V804.965C1162.96 779.491 1146.5 757.723 1123.65 744.93L988 669L841.222 567.326C813.064 547.82 776.881 544.085 745.332 557.425L664.685 591.528C637.038 603.218 616.291 626.769 606.793 655.243C592.869 696.982 574.89 743.812 563.5 751.5C554.002 757.911 513.14 767.811 470.934 776.682C435.387 784.152 405.805 750.131 417.18 715.635V715.635C420.622 705.196 427.544 696.255 436.789 690.309L552.61 615.806C582.299 596.708 619.857 594.679 651.431 610.465L655.171 612.335C693.116 631.308 714.96 672.159 709.668 714.251L702.764 769.17C698.823 800.524 680.293 828.17 652.789 843.731L545.155 904.629C520.544 918.554 491.188 921.408 464.356 912.485L393.256 888.841C341.942 871.777 318.76 812.284 345 765V765L398.361 688.542C407.328 675.694 413.151 660.919 415.359 645.408L426.66 566.044C431.197 534.185 418.263 502.346 392.793 482.677V482.677C386.624 477.913 379.859 473.976 372.669 470.966L204.04 400.377C194.734 396.482 184.891 394.017 174.847 393.066L82.6823 384.345C32.3473 379.581 -13.624 413.138 -24.4285 462.53L-26.0278 469.841C-34.7681 509.797 -18.2957 551.048 15.5623 573.993L97.6318 629.61C124.793 648.017 159.256 651.928 189.852 640.077L233.436 623.195C255.435 614.674 273.712 598.65 285.038 577.956L308 536L362.188 456.411C368.681 446.875 373.474 436.289 376.356 425.119L389.063 375.882C391.014 368.32 393.845 361.013 397.497 354.109L454.787 245.813C464.274 227.878 479.928 213.98 498.859 206.682L543.154 189.607C572.152 178.428 582.744 142.848 564.581 117.63V117.63C550.554 98.1537 524.189 92.2258 503.176 103.823L434 142L369.052 170.46C353.285 177.37 339.568 188.232 329.23 201.997L271.542 278.802C263.27 289.815 257.362 302.419 254.189 315.822L216.084 476.799C212.096 493.644 212.55 511.236 217.4 527.853L244.249 619.838C266.192 695.016 362.122 716.937 414.54 658.751L439.773 630.742C445.895 623.946 452.921 618.022 460.654 613.136L500.451 587.99C525.514 572.154 556.311 568.254 584.529 577.344L592.5 579.912M592.5 579.912L718.5 620.5L808.991 658.83C824.734 665.499 841.923 668.019 858.918 666.152L980.503 652.791C1027.21 647.658 1064.04 610.698 1069.02 563.973L1077.14 487.657C1080.23 458.674 1070.51 429.787 1050.54 408.556L925.655 275.796C918.922 268.638 911.17 262.511 902.65 257.614L811.206 205.053C755.196 172.859 757.001 91.4479 814.382 61.768V61.768C847.191 44.798 887.306 51.9727 912.199 79.2625L949.791 120.474C981.898 155.673 984.715 208.635 956.523 247.04L796.833 464.584C779.204 488.599 773.201 519.224 780.458 548.118L790.035 586.252C793.954 601.854 801.578 616.279 812.261 628.306L944.465 777.129C960.854 795.578 966.004 821.438 957.935 844.758V844.758C942.291 889.971 886.185 905.465 849.556 874.687L821.236 850.891C790.103 824.732 779.402 781.475 794.748 743.817L839.691 633.529C843.213 624.885 845.508 615.792 846.508 606.512L858.143 498.619C859.372 487.221 862.552 476.118 867.544 465.798L879.325 441.441C889.76 419.867 892.1 395.263 885.92 372.109L878.685 345.002C867.537 303.239 830.818 273.365 787.661 270.947L739.41 268.244C703.597 266.238 671.602 245.204 655.561 213.122L644.5 191L604.478 115.959C596.618 101.221 585.192 88.6871 571.242 79.5008L476.797 17.3057C471.942 14.108 466.816 11.3399 461.48 9.03276L277.991 -70.29C265.463 -75.706 251.959 -78.5 238.31 -78.5H64.9993C-19.5297 -78.5 -65.9301 19.8683 -12.1703 85.0991L0.421158 100.377C6.77125 108.082 14.2395 114.793 22.5773 120.286L158 209.5L286.592 275.424C305.69 285.214 327.43 288.601 348.6 285.084L455.645 267.302C464.735 265.792 473.296 262.012 480.535 256.313V256.313C509.833 233.249 553.112 245.585 565.846 280.63L592.039 352.714C597.596 368.007 599.337 384.424 597.112 400.542L567.591 614.369C564.922 633.7 556.655 651.828 543.81 666.518L469.5 751.5L416.296 812.943C400.621 831.044 378.971 842.921 355.282 846.413L175.839 872.864C153.292 876.188 130.285 871.71 110.631 860.172L8.76045 800.371C-0.0737669 795.185 -5.5 785.708 -5.5 775.464V775.464C-5.5 755.084 15.039 741.114 33.9937 748.602L75.5 765L154.066 796.577C168.67 802.446 185.325 796.011 192.187 781.847V781.847C198.68 768.447 194.342 752.311 182.005 743.973L139.292 715.108C111.487 696.318 96.5369 663.547 100.571 630.232L105.951 585.792C106.979 577.299 109.093 568.973 112.241 561.019L190 364.5L266.447 210.345C275.902 191.28 291.192 175.728 310.094 165.951L454.653 91.1797C464.483 86.0952 475.089 82.6777 486.038 81.0666L621.111 61.1922C641.845 58.1413 663.014 61.682 681.627 71.3139L782.22 123.369C791.352 128.095 799.701 134.201 806.971 141.471L833 167.5L845.173 176.692C868.366 194.205 882 221.584 882 250.647V250.647C882 270.948 888.666 290.687 900.975 306.831L915.732 326.188C922.202 334.675 927.272 344.142 930.75 354.232L947.468 402.737C956.131 427.872 954.428 455.421 942.737 479.298L937.246 490.512C929.614 506.099 927.139 523.709 930.181 540.796L935.648 571.505C939.588 593.64 926.762 615.333 905.468 622.548V622.548C890.838 627.505 879.725 639.55 875.958 654.531L860 718L841.1 804.102C835.88 827.88 822.165 848.938 802.527 863.327L796.212 867.953C787.162 874.584 776.879 879.342 765.966 881.947V881.947C729.776 890.586 692.203 874.475 673.512 842.305L669.079 834.674C658.641 816.709 654.303 795.847 656.713 775.21L680.185 574.258C681.059 566.777 681.085 559.22 680.262 551.733L669.789 456.429C667.644 436.909 671.293 417.19 680.282 399.731L696.28 368.659C710.31 341.407 711.068 309.225 698.335 281.344L636.254 145.403C626.583 124.225 626.757 99.8564 636.73 78.8185L638.804 74.4446C647.776 55.5204 647.646 33.5417 638.453 14.7243V14.7243C627.653 -7.38151 605.879 -22.0452 581.335 -23.7418L440.895 -33.4496C418.822 -34.9754 398.216 -22.315 389.601 -1.93462V-1.93462C385.623 7.47788 384.517 17.8567 386.422 27.8963L419.829 203.924C421.6 213.26 422.032 222.802 421.112 232.26L408.051 366.4C405.459 393.018 413.637 419.564 430.758 440.109L449 462L460.631 474.946C486.015 503.199 529.442 505.674 557.872 480.486V480.486C561.613 477.172 564.983 473.461 567.924 469.42L653 352.5L742.017 209.238C746.652 201.778 752.25 194.962 758.665 188.965L925.5 33L985.499 -29.2629C998.253 -42.4979 1014.41 -51.962 1032.19 -56.6154L1126.1 -81.1933C1163.06 -90.8659 1202.3 -78.6349 1227.22 -49.6756L1241.75 -32.7884C1254 -18.551 1262 -1.15132 1264.82 17.4182L1268.37 40.8017C1271.07 58.6032 1268.92 76.8046 1262.14 93.4843L1228.37 176.545C1220.95 194.776 1219.09 214.788 1223 234.076L1235.51 295.794C1242.62 330.874 1267.93 359.478 1301.89 370.797L1335.68 382.062C1391.26 400.588 1450.79 367.583 1464.52 310.629L1469.57 289.68C1475.92 263.359 1471.32 235.589 1456.83 212.719L1403.57 128.677C1390.63 108.253 1370.73 93.2104 1347.55 86.3329L1247 56.5L1145.67 24.1905C1122.07 16.6658 1096.51 18.1681 1073.96 28.4062L1063.3 33.2441C1047.06 40.6138 1033.09 52.1908 1022.83 66.7758L960.704 155.117C948.857 171.961 942.5 192.051 942.5 212.644V306.665C942.5 319.112 944.824 331.45 949.352 343.045L977.302 414.608C984.286 432.491 985.975 452.006 982.167 470.823L981.973 471.779C975.145 505.517 951.445 533.372 919.236 545.515L814.5 585V585C789.634 593.197 762.928 579.139 755.611 554L737.384 491.378C726.781 454.951 689.615 433.109 652.632 441.572V441.572C621.711 448.647 599.126 475.216 597.122 506.872L592.5 579.912Z" stroke="#7A1D00"/>
</svg>
