<svg width="386" height="209" viewBox="0 0 386 209" fill="none" xmlns="http://www.w3.org/2000/svg">
<path d="M231.866 0.875383L249.199 -37.1331L251.943 -44.5438C255.165 -53.244 257.16 -62.3503 257.871 -71.6005L258.319 -77.4221V-82.9172C258.319 -85.0398 256.199 -86.509 254.212 -85.7636V-85.7636C253.025 -85.3186 252.239 -84.1843 252.239 -82.9172V-72.1572C252.239 -70.6054 252.045 -69.0598 251.66 -67.5564L245.837 -44.787C244.534 -39.6923 242.831 -34.7084 240.744 -29.8815L231.719 -9.00682L222.114 6.81605C219.948 10.3846 216.818 13.2686 213.084 15.1358L209.7 16.8284C207.711 17.8233 205.457 18.1623 203.263 17.7965V17.7965C199.689 17.2007 196.673 14.8081 195.279 11.4634L194.797 10.3057C194.087 8.60008 193.754 6.76081 193.823 4.91444L194.479 -12.8077V-33.3322L196.44 -48.0479C197.158 -53.4319 198.313 -58.7484 199.895 -63.9448L202.839 -73.6212L208.052 -90.3218C209.637 -95.3991 211.843 -100.261 214.619 -104.798V-104.798M231.866 0.875383L229.715 5.59184C229.532 5.99369 229.303 6.37334 229.034 6.72344L223.778 13.5576C222.986 14.5877 223.72 16.0788 225.02 16.0788V16.0788C225.418 16.0788 225.801 15.9273 226.091 15.655L237.799 4.67624L239.144 3.1559M231.866 0.875383L242.359 -12.8077L250.828 -27.0743C254.795 -33.7574 257.97 -40.8801 260.288 -48.2984L264.399 -61.4585L267.439 -78.9424L268.409 -87.6731C268.758 -90.8126 270.477 -93.6373 273.105 -95.3898V-95.3898C274.862 -96.5613 276.926 -97.1865 279.038 -97.1865H280.75C283.486 -97.1865 286.178 -96.4999 288.58 -95.1896L290.652 -94.0589C292.385 -93.1134 293.905 -91.8212 295.117 -90.2627L296.547 -88.4235C297.866 -86.7274 298.491 -84.5936 298.297 -82.4539L298.101 -80.3043C297.94 -78.5286 296.818 -76.9843 295.179 -76.2818V-76.2818M268.959 -85.0237L270.971 -82.3414C272.647 -80.1061 274.82 -78.2918 277.319 -77.0421V-77.0421C279.818 -75.7923 282.574 -75.1415 285.368 -75.1415H289.625C291.535 -75.1415 293.424 -75.5295 295.179 -76.2818V-76.2818M198.279 23.6805L209.969 21.2732C219.353 19.3406 228.412 16.0693 236.866 11.5594L246.919 6.19658L276.559 -15.0882L295.133 -29.2658C301.975 -34.4888 308.115 -40.5734 313.399 -47.3688L317.422 -52.5427C323.571 -60.4505 328.264 -69.3899 331.28 -78.9424V-78.9424L331.55 -80.4299C332.333 -84.7353 330.954 -89.1507 327.86 -92.2454V-92.2454M198.279 23.6805L218.039 22.9203H235.519L268.959 20.6398L308.48 17.5991L322.607 15.0759C327.369 14.2253 332.063 13.0302 336.653 11.5L348 7.7169M198.279 23.6805L221.859 20.8727C227.409 20.2118 232.894 19.0867 238.257 17.5091L243.119 16.0788V16.0788C249.166 13.5586 254.809 10.1612 259.865 5.99608L265.159 1.63556L282.639 -12.8077V-12.8077C288.103 -18.2721 294.992 -22.091 302.521 -23.8289L303.597 -24.0772C308.341 -25.1722 313.231 -25.4914 318.077 -25.0223L326.894 -24.1688C331.821 -23.6919 336.659 -22.54 341.273 -20.7454V-20.7454C345.738 -19.0088 349.952 -16.6859 353.804 -13.838L358.008 -10.73C362.977 -7.05642 367.568 -2.89751 371.713 1.68529L374.419 4.67624M198.279 23.6805H193.968C190.322 23.6805 186.989 21.6204 185.359 18.3593V18.3593M35.6378 130.864L16.4419 94.3842C14.0427 89.8247 11.9994 85.0865 10.3304 80.2121L3.9878 61.6889M35.6378 130.864L83.0275 175.594C87.3708 179.693 92.4321 182.957 97.9582 185.223V185.223M35.6378 130.864L54.3115 142.538C62.0921 147.402 70.5052 151.172 79.3139 153.742L102.518 160.511L144.318 168.113L205.119 171.153L235.121 169.01C243.46 168.414 251.692 166.775 259.623 164.13L284.159 155.95L309.699 143.61C316.671 140.241 323.227 136.073 329.236 131.19V131.19C335.611 126.008 341.323 120.06 346.241 113.48L348.588 110.34M327.86 -92.2454L322.92 -97.1865L307.453 -112.141C302.577 -116.856 297.233 -121.062 291.505 -124.695L284.539 -129.114M327.86 -92.2454L338.706 -79.0296C345.367 -70.9136 350.708 -61.7993 354.533 -52.0215L362.44 -31.8119L367.76 -12.4618C369.78 -5.11474 370.954 2.43909 371.258 10.0527L371.789 23.3287C372.141 32.1398 371.327 40.9587 369.366 49.5561L364.707 69.9894C363.2 76.6013 361.023 83.0427 358.212 89.2141L348.588 110.34M295.179 -76.2818L287.959 -61.4585L273.519 -39.4136L255.279 -15.0882L239.144 3.1559M239.144 3.1559L253.759 -10.5272L268.959 -28.011L281.119 -44.7348L286.938 -54.584C289.641 -59.1597 291.976 -63.9437 293.918 -68.8904L295.179 -72.1009M295.179 -72.1009L296.658 -73.6445C301.41 -78.6034 307.419 -82.1776 314.045 -83.985L317.603 -84.9555C319.611 -85.5033 321.701 -85.6874 323.775 -85.4988V-85.4988C327.183 -85.189 330.424 -83.8838 333.096 -81.7458L333.956 -81.0582C335.707 -79.6566 337.224 -77.9848 338.449 -76.1056L343.429 -68.4679C346.468 -63.8084 348.998 -58.8369 350.978 -53.6386L354.08 -45.4949L358.196 -36.0257C360.487 -30.7547 361.523 -25.0235 361.221 -19.284V-19.284C361.021 -15.4956 360.237 -11.7476 358.906 -8.19538V-8.19538C357.228 -3.72087 354.7 0.405589 351.472 3.92854L348 7.7169M295.179 -72.1009L293.279 -57.6576L292.87 -55.0654C291.635 -47.2416 291.956 -39.2511 293.814 -31.5516V-31.5516C295.471 -24.6838 298.324 -18.1613 302.243 -12.2826L302.399 -12.0475L307.721 -4.78964C309.736 -2.04119 312.141 0.398874 314.86 2.45362V2.45362C323.103 8.68339 333.674 10.9611 343.752 8.67891L348 7.7169M348 7.7169L343.32 12.3973C339.354 16.3649 335.06 19.9917 330.485 23.2391L320.073 30.63C315.897 33.5943 311.499 36.2334 306.919 38.5241L295.833 44.0681C290.594 46.6882 285.135 48.8429 279.519 50.5074L267.439 54.0872L221.839 60.9288L202.079 63.3244M3.9878 61.6889L2.14067 43.3607C1.38267 35.8394 1.47995 28.2564 2.43066 20.757L6.97478 -15.0882M3.9878 61.6889L6.80715 65.3476C12.3221 72.5043 18.7814 78.8806 26.0089 84.3024L26.8388 84.9249C31.1776 88.1797 35.774 91.0761 40.5826 93.5855L57.4175 102.371C64.6573 106.149 72.3325 109.026 80.2719 110.938L105.106 116.918M6.97478 -15.0882V-15.0882C7.84204 -18.1242 8.94478 -21.088 10.273 -23.9526L28.8469 -64.0112C31.3409 -69.3901 34.3805 -74.4988 37.9178 -79.2569V-79.2569M6.97478 -15.0882V-15.0882C7.83435 -12.079 9.29773 -9.27647 11.2757 -6.85132L21.7524 5.9938C28.4337 14.1856 36.3717 21.2663 45.2707 26.972L61.478 37.3635L70.6539 41.9525C77.6855 45.469 85.1073 48.1441 92.7654 49.9223L123.798 57.1279L139.132 60.1952C144.102 61.1896 149.142 61.8046 154.206 62.0348L193.7 63.8304C195.736 63.9229 197.776 63.8462 199.799 63.6009V63.6009M37.9178 -79.2569L46.5995 -90.9348C51.9344 -98.1108 58.2076 -104.539 65.2514 -110.047L86.6342 -126.768M37.9178 -79.2569L38.3283 -77.7233C41.0769 -67.4535 45.4558 -57.6912 51.2981 -48.8091V-48.8091C58.0267 -38.5793 66.5882 -29.6813 76.551 -22.5634L76.8978 -22.3157C80.7996 -19.5281 84.8969 -17.0247 89.1579 -14.825L106.318 -5.96614L138.238 7.7169L161.236 15.8793C161.596 16.0067 161.991 15.9824 162.332 15.812V15.812C163.365 15.2954 163.365 13.8215 162.332 13.3049L158.759 11.5178L150.084 7.17966C146.757 5.51571 143.258 4.22096 139.649 3.31852V3.31852C133.198 1.70535 127.124 -1.15445 121.771 -5.09971L115.438 -9.76698L105.134 -16.6377C101.37 -19.148 97.8162 -21.9609 94.5087 -25.0486L91.3177 -28.0275C89.164 -30.038 86.8044 -31.8161 84.2781 -33.3322V-33.3322M84.2781 -33.3322L83.3595 -35.6292C82.9712 -36.6002 82.9396 -37.6775 83.2702 -38.6697L83.703 -39.9684C84.0465 -40.9989 85.0108 -41.6941 86.0971 -41.6941H87.1943C88.377 -41.6941 89.2121 -40.5355 88.8382 -39.4136V-39.4136M84.2781 -33.3322L86.3786 -35.4331C87.4963 -36.5511 88.3384 -37.9139 88.8382 -39.4136V-39.4136M88.8382 -39.4136V-39.4136C92.8763 -39.4136 96.8991 -38.9182 100.817 -37.9387L107.078 -36.3729L107.931 -36.0744C117.439 -32.7458 126.38 -27.9751 134.438 -21.9297V-21.9297L145.079 -12.0475L162.559 3.91606L172.907 11.3096C173.1 11.4476 173.313 11.5559 173.538 11.631V11.631C175.342 12.2325 177.089 10.5807 176.588 8.74604L175.593 5.09699C175.517 4.81717 175.413 4.54557 175.284 4.28615L170.159 -5.96614L167.277 -10.6226C162.632 -18.1276 157.014 -24.9847 150.569 -31.0151L136.718 -43.9746L124.558 -56.1373M124.558 -56.1373L119.998 -64.4992M124.558 -56.1373L124.914 -56.2558C127.627 -57.1604 129.927 -59.0058 131.398 -61.4585V-61.4585V-61.4585C132.909 -63.4724 134.084 -65.7167 134.88 -68.1048L135.198 -69.0602M119.998 -64.4992L113.158 -69.0602M119.998 -64.4992L122.992 -67.4931C124.032 -68.5339 125.196 -69.4431 126.458 -70.2004V-70.2004M113.158 -69.0602L112.533 -71.5625C111.978 -73.783 112.628 -76.1319 114.247 -77.7505L115.623 -79.1268C116.447 -79.9513 117.654 -80.264 118.775 -79.9436V-79.9436C120.634 -79.4124 121.605 -77.3702 120.843 -75.593L120.471 -74.7255C120.163 -74.0049 119.651 -73.3896 118.999 -72.9547L113.158 -69.0602ZM122.278 -77.4221L126.792 -72.9078C127.588 -72.1117 127.424 -70.7797 126.458 -70.2004V-70.2004M126.458 -70.2004V-70.2004C129.574 -70.9196 132.847 -70.155 135.322 -68.1298L139.758 -64.4992L140.677 -63.6459C147.13 -57.6529 152.763 -50.8338 157.429 -43.3655L157.858 -42.6793C160.481 -38.4808 162.79 -34.0934 164.763 -29.553L169.399 -18.889L177.759 -1.40512L182.319 11.5178L185.359 18.3593M185.359 18.3593L187.817 22.457C189.201 24.7644 190.058 27.3494 190.325 30.0268V30.0268C190.559 32.3621 191.241 34.6304 192.334 36.7074L198.279 48.0059V48.0059C200.803 53.5605 203.984 58.7926 207.753 63.5905L210.439 67.0101L217.279 75.372M185.359 18.3593L189.911 23.3683C191.908 25.5655 193.298 28.2457 193.941 31.1441V31.1441C194.298 32.7481 194.884 34.2922 195.682 35.7285L202.079 47.2457L204.718 51.2057C207.008 54.6415 209.57 57.8881 212.38 60.9142V60.9142C216.142 64.9664 219.457 69.4111 222.27 74.1716L227.919 83.7338L236.279 95.1364L246.919 110.34L257.559 123.263L259.555 125.384C266.248 132.497 274.434 138.038 283.523 141.61V141.61C288.489 143.561 293.673 144.904 298.962 145.609L310.56 147.156C312.711 147.443 314.89 147.46 317.045 147.206L322.853 146.523C325.346 146.229 327.65 145.044 329.338 143.187V143.187C332.32 139.906 332.896 135.096 330.774 131.204L330.454 130.618C329.993 129.772 329.641 128.871 329.408 127.937L328.353 123.717C327.27 119.384 326.833 114.914 327.056 110.453L327.48 101.978V88.7301C327.48 83.8854 327.832 79.047 328.533 74.2532L329.472 67.8347C331.171 56.2264 334.898 45.0075 340.485 34.6913L341.92 32.0423L353.172 16.6417C355.276 13.7617 357.935 11.3323 360.994 9.49692V9.49692C362.963 8.31518 365.076 7.39234 367.282 6.75124L374.419 4.67624M112.398 24.4406L111.396 24.6913C109.045 25.2792 109.236 28.6813 111.638 29.0016V29.0016H115.438M112.398 24.4406L121.518 22.9203L143.558 18.3593L146.734 17.5652C150.663 16.5827 154.74 16.3365 158.759 16.8389V16.8389L163.712 17.5467C163.955 17.5815 164.193 17.6498 164.417 17.7497V17.7497C166.669 18.7504 166.473 22.0079 164.119 22.7326L161.492 23.5411C161.191 23.6336 160.88 23.6874 160.565 23.7011L150.232 24.1504C145.805 24.343 141.426 25.1518 137.221 26.5535V26.5535C132.358 28.175 127.265 29.0016 122.138 29.0016H115.438M112.398 24.4406H114.236C115.32 24.4406 116.198 25.3191 116.198 26.4028V26.4028C116.198 26.6136 116.164 26.8231 116.098 27.0232L115.438 29.0016M158.759 154.43L164.839 139.226L177.759 92.8559L179.025 87.5347M158.759 154.43L160.318 158.719C161.247 161.273 163.357 163.217 165.979 163.932V163.932M158.759 154.43L162.92 153.389C164.194 153.07 165.503 152.909 166.816 152.909H169.93C171.07 152.909 172.185 153.247 173.133 153.879V153.879C175.023 155.139 175.999 157.391 175.625 159.632L175.479 160.511M175.479 160.511L173.448 162.252C171.391 164.016 168.593 164.645 165.979 163.932V163.932M175.479 160.511L175.98 158.17C177.164 152.646 178.813 147.232 180.911 141.986L180.98 141.814C182.883 137.055 184.417 132.157 185.57 127.163L188.399 114.901L190.679 92.8559L191.231 87.6097C191.873 81.5064 191.688 75.3442 190.679 69.2906V69.2906M190.679 69.2906L188.019 70.4309M190.679 69.2906L192.199 68.5305M179.025 87.5347L184.335 65.2275C185.015 62.3715 185.359 59.4457 185.359 56.5099V54.4775C185.359 50.2168 184.408 46.0097 182.577 42.1627V42.1627C179.479 35.6559 174.004 30.54 167.313 27.8631V27.8631C161.768 25.6448 155.64 25.1893 149.833 26.5832L148.45 26.9152C142.756 28.282 137.523 31.1254 133.279 35.1588L131.03 37.2952C126.758 41.3552 123.327 46.2172 120.933 51.6034L118.123 57.927C116.336 61.9484 114.886 66.1109 113.786 70.3719L109.358 87.5347L106.318 111.1L105.106 116.918M179.025 87.5347L184.291 74.2613C184.975 72.5393 186.316 71.1608 188.019 70.4309V70.4309M165.979 163.932L171.679 144.547L179.025 120.222L182.319 104.258L183.889 97.5835C184.867 93.4256 185.493 89.1926 185.759 84.9295V84.9295C185.999 81.0972 186.528 77.2887 187.344 73.5365L188.019 70.4309M198.279 69.2906L204.177 90.7437C205.815 96.7 206.897 102.795 207.41 108.951L208.159 117.941V139.226L208.414 143.565C208.735 149.025 206.706 154.362 202.839 158.23V158.23M198.279 69.2906L201.752 75.6072C204.994 81.5034 207.406 87.8196 208.919 94.3762V94.3762L213.43 107.913C214.981 112.565 216.187 117.325 217.039 122.155L218.039 127.824L218.799 139.226V152.149M198.279 69.2906L197.958 69.0498C196.291 67.7998 194.062 67.5987 192.199 68.5305V68.5305M202.839 158.23V158.23C197.449 155.78 193.128 151.458 190.679 146.068V146.068M202.839 158.23H206.639H208.649C212.918 158.23 216.742 155.528 218.2 151.516V151.516C218.594 150.431 218.799 149.278 218.799 148.124V147.463C218.799 144.679 217.455 142.067 215.19 140.448V140.448C214.066 139.645 212.765 139.124 211.398 138.929L203.464 137.795C203.048 137.736 202.628 137.706 202.208 137.706V137.706C199.705 137.706 197.319 138.762 195.636 140.613L190.679 146.068M190.679 146.068L193.719 131.625L195.239 113.38V96.6567L193.719 79.1728L192.199 68.5305M248.439 123.263L249.584 127.078C250.309 129.496 250.01 132.105 248.758 134.297L248.537 134.684C247.973 135.672 247.187 136.514 246.241 137.145V137.145C244.281 138.452 241.812 138.736 239.606 137.909L235.998 136.555C232.811 135.36 230.334 132.789 229.258 129.56L228.919 128.545C228.76 128.067 228.679 127.567 228.679 127.063V127.063M248.439 123.263L246.076 120.899C244.183 119.005 241.615 117.941 238.937 117.941V117.941C235.821 117.941 232.88 119.38 230.968 121.84L230.079 122.983C229.172 124.15 228.679 125.585 228.679 127.063V127.063M248.439 123.263V123.263C247.43 119.226 245.896 115.339 243.875 111.701L243.119 110.34L237.799 101.218L227.159 87.5347L217.279 75.372M244.639 137.706L241.599 130.864L237.799 124.023L230.959 108.059L224.118 96.0857C220.582 89.896 216.394 84.1021 211.626 78.803L209.948 76.9378C206.733 73.3647 203.779 69.5644 201.111 65.5665L200.045 63.9694M199.799 63.6009L200.045 63.9694M199.799 63.6009L202.079 63.3244M200.045 63.9694V63.9694C200.887 68.2383 202.53 72.3089 204.889 75.9653L208.919 82.2135L217.279 97.4169L224.879 114.901L228.679 127.063M202.079 63.3244L217.279 75.372M374.419 4.67624V4.67624C378.032 8.67082 380.623 13.4822 381.969 18.6978L383.155 23.2968C385.01 30.4868 384.699 38.0647 382.26 45.0782V45.0782C380.714 49.5245 378.348 53.6415 375.284 57.216L373.706 59.058C371.772 61.3143 369.643 63.3956 367.344 65.2775L354.08 76.1321L339.603 86.0872C333.064 90.5837 326.013 94.2858 318.599 97.1155L281.564 111.25C275.204 113.678 268.613 115.449 261.894 116.537L239.144 120.222L190.679 124.783H160.279L109.358 117.941L105.106 116.918M105.106 116.918L103.57 124.296C102.873 127.642 101.674 130.864 100.015 133.852L98.2498 137.029C96.0795 140.936 92.7792 144.097 88.7815 146.096V146.096C83.9223 148.526 78.3402 149.088 73.0941 147.675L70.7351 147.04C64.7279 145.423 59.4119 141.89 55.593 136.979L50.8379 130.864L47.2977 125.961C43.0956 120.142 39.8033 113.717 37.5338 106.907V106.907C36.2721 103.121 35.3328 99.235 34.7261 95.2906L34.4785 93.6805C33.2306 85.5672 33.0985 77.3213 34.0861 69.1722L35.0577 61.1545C35.4435 57.9714 36.1486 54.8352 37.1623 51.7933L38.122 48.9137C39.9836 43.3275 43.1978 38.2882 47.4782 34.2447L50.2662 31.6111C53.1273 28.9084 56.6665 27.0304 60.5086 26.1764V26.1764C65.5506 25.0558 70.8266 25.7613 75.397 28.1672L77.8605 29.4641C81.0971 31.1679 83.9873 33.4609 86.3826 36.2253L87.3769 37.3729C90.845 41.3753 93.4249 46.0678 94.9464 51.1405L97.4231 59.3981C98.7903 63.9563 99.7355 68.6306 100.247 73.3619L102.518 94.3762L105.106 116.918ZM97.9582 185.223L124.788 196.221C132.208 199.263 139.967 201.401 147.898 202.589L175.423 206.714C185.534 208.229 195.817 208.185 205.914 206.583L226.76 203.275C237.096 201.635 247.109 198.383 256.436 193.638L281.177 181.05C291.2 175.951 300.291 169.197 308.068 161.074L329.55 138.633C337.316 130.52 343.66 121.158 348.316 110.938L348.588 110.34M97.9582 185.223L91.1182 176.474V176.474C84.584 167.425 79.7185 157.282 76.7509 146.522L75.1581 140.747L70.041 120.274C68.8938 115.684 68.0738 111.019 67.587 106.313L66.038 91.3355V63.9694L67.6789 33.3337C68.1035 25.4061 69.4706 17.5572 71.7514 9.95292L72.8781 6.19658L81.6943 -16.7306C83.4047 -21.1786 85.8498 -25.3079 88.9277 -28.9462V-28.9462C91.3902 -31.857 93.4505 -35.0855 95.0533 -38.5449L98.9561 -46.9685C104.321 -58.5485 111.854 -68.9945 121.146 -77.7425L126.458 -82.7432L157.239 -109.033M264.399 -140.681V-140.681C267.431 -139.561 270.335 -138.123 273.065 -136.392L284.539 -129.114M264.399 -140.681L252.239 -140.516L237.799 -138.996L229.515 -137.812C220.888 -136.579 212.459 -134.224 204.443 -130.807L190.679 -124.939M264.399 -140.681L242.225 -148.878M172.439 -148.878V-148.878C173.877 -152.234 176.788 -154.736 180.322 -155.652L186.119 -157.155M172.439 -148.878L176.892 -147.888C178.467 -147.538 180.097 -147.506 181.684 -147.795L184.294 -148.27C186.4 -148.653 188.202 -150.005 189.159 -151.919V-151.919M172.439 -148.878V-148.878C172.439 -140.3 173.568 -131.759 175.798 -123.476L177.759 -116.191L179.321 -107.208C180.304 -101.551 180.799 -95.8198 180.799 -90.0777V-77.4221V-48.5356M189.159 -151.919L186.119 -157.155M189.159 -151.919V-151.919C191.169 -144.488 191.82 -136.756 191.08 -129.094L190.679 -124.939M186.119 -157.155V-157.155C193.186 -157.716 200.296 -157.422 207.293 -156.28L225.344 -153.332C231.101 -152.392 236.754 -150.9 242.225 -148.878V-148.878M186.119 -157.155L158.067 -154.929C151.954 -154.443 145.899 -153.397 139.978 -151.802L129.921 -149.094C129.387 -148.95 128.864 -148.766 128.358 -148.542V-148.542M186.378 0.875383L186.131 3.82257C186.017 5.17833 184.062 5.25807 183.839 3.91606V3.91606L182.118 -18.889M186.378 0.875383V-15.0882V-33.3322L190.386 -64.4992M186.378 0.875383V0.875383C187.194 2.21453 189.253 1.66396 189.292 0.0959732L189.919 -24.9704L196.704 -65.6909C197.752 -71.9769 199.397 -78.1485 201.619 -84.1212L206.38 -96.9194C209.077 -104.168 212.605 -111.079 216.895 -117.514L218.039 -119.231M212.719 -123.032L205.119 -107.829L197.519 -86.5441L191.431 -68.9525C190.931 -67.5078 190.581 -66.0155 190.386 -64.4992V-64.4992M212.719 -123.032V-123.032C214.906 -124.345 217.723 -123.867 219.356 -121.908L220.319 -120.752M212.719 -123.032L218.039 -119.231M220.319 -120.752L218.039 -119.231M220.319 -120.752V-120.752C220.319 -117.731 219.832 -114.73 218.877 -111.864L218.799 -111.63M218.799 -111.63L219.589 -118.744C220.07 -123.068 219.573 -127.445 218.136 -131.551V-131.551C216.098 -137.376 212.258 -142.401 207.173 -145.898L207.021 -146.002C204.253 -147.906 201.182 -149.324 197.938 -150.198L192.026 -151.79C186.197 -153.359 180.031 -153.132 174.333 -151.138V-151.138C170.085 -149.65 166.226 -147.225 163.043 -144.042L160.518 -141.516C155.012 -136.008 151.919 -128.539 151.919 -120.752V-120.752M218.799 -111.63L214.619 -104.798M180.799 -48.5356V-36.3729L182.118 -18.889M180.799 -48.5356L184.599 -71.3407L185.024 -74.6138C185.924 -81.5337 187.565 -88.3368 189.919 -94.9059V-94.9059M189.919 -94.9059L192.199 -100.227M189.919 -94.9059L194.479 -92.2454M192.199 -100.227L195.041 -98.8185C196.093 -98.2968 196.759 -97.2237 196.759 -96.0491V-96.0491C196.759 -95.3114 196.495 -94.598 196.015 -94.0379L194.479 -92.2454M192.199 -100.227V-103.268L190.679 -116.191V-124.939M194.479 -92.2454L192.199 -78.9424L190.386 -64.4992M170.159 -128.353V-126.635C170.159 -124.255 170.613 -121.897 171.496 -119.687L172.517 -117.136C173.913 -113.644 176.776 -110.944 180.344 -109.754V-109.754C183.998 -108.536 188.005 -109.029 191.254 -111.097L191.52 -111.267C193.46 -112.502 195.051 -114.213 196.141 -116.238L197.566 -118.885C198.987 -121.524 199.213 -124.642 198.19 -127.458V-127.458C197.271 -129.986 195.418 -132.064 193.013 -133.267L190.59 -134.479C188.649 -135.45 186.509 -135.955 184.339 -135.955V-135.955C181.069 -135.955 177.903 -134.809 175.392 -132.715L170.159 -128.353ZM170.159 -128.353L167.879 -137.475L164.839 -148.878M190.679 -124.939L170.159 -116.191L163.908 -113.305C161.5 -112.194 159.256 -110.756 157.239 -109.033V-109.033M142.038 -142.797L143.802 -146.324C145.564 -149.849 148.873 -152.345 152.746 -153.072V-153.072C156.542 -153.784 160.455 -152.714 163.362 -150.17L164.839 -148.878M142.038 -142.797L145.179 -141.051C147.556 -139.731 150.346 -139.363 152.984 -140.022V-140.022C154.289 -140.349 155.52 -140.917 156.614 -141.699L158.664 -143.163C159.738 -143.931 160.748 -144.786 161.682 -145.72L164.839 -148.878M142.038 -142.797L143.185 -140.885C146.964 -134.585 149.901 -127.816 151.919 -120.752V-120.752M151.919 -120.752L157.239 -109.033M157.239 -109.033L164.839 -87.3043L170.159 -69.8204L179.279 -33.3322L182.118 -18.889M157.239 -109.033L160.558 -105.187C163.382 -101.915 166.849 -99.2619 170.744 -97.3918V-97.3918C179.051 -93.4035 188.691 -93.2636 197.11 -97.0091L214.619 -104.798M128.358 -148.542L107.816 -139.463C100.26 -136.124 93.1418 -131.857 86.6342 -126.768V-126.768M128.358 -148.542L126.749 -144.808C123.8 -137.964 122.278 -130.591 122.278 -123.139V-123.139C122.278 -118.525 122.862 -113.93 124.014 -109.462L124.703 -106.795C127.103 -97.4903 131.78 -88.8775 138.258 -81.7803V-81.7803C142.261 -77.3954 146.931 -73.6245 152.065 -70.6427V-70.6427C162.36 -64.6634 174.239 -61.9778 186.105 -62.9467L193.635 -63.5615C201.216 -64.1805 208.6 -66.2927 215.361 -69.7765V-69.7765C225.054 -74.7711 233.133 -82.4109 238.661 -91.8102L240.75 -95.3633C243.824 -100.59 245.927 -106.329 246.957 -112.305L247.28 -114.177C248.538 -121.477 247.89 -128.978 245.399 -135.955V-135.955L242.225 -148.878M86.6342 -126.768V-113.15L88.1497 -96.8258C89.094 -86.6532 93.0367 -76.9899 99.4782 -69.0602V-69.0602L105.245 -62.2892C112.942 -53.2518 122.692 -46.1896 133.678 -41.6941V-41.6941L160.279 -31.8119V-31.8119C170.326 -29.2995 180.75 -28.6586 191.03 -29.9213L205.401 -31.6866C214.281 -32.7773 222.943 -35.2149 231.089 -38.9153L231.491 -39.0983C238.613 -42.3336 245.253 -46.5379 251.223 -51.5918V-51.5918C258.932 -58.1172 265.414 -65.9661 270.365 -74.7693L271.418 -76.6423C274.836 -82.7189 277.587 -89.1469 279.624 -95.8144L280.254 -97.8786C283.344 -107.994 284.791 -118.54 284.539 -129.114V-129.114" stroke="url(#paint0_angular_142_147)" stroke-width="2"/>
<defs>
<radialGradient id="paint0_angular_142_147" cx="0" cy="0" r="1" gradientUnits="userSpaceOnUse" gradientTransform="translate(258.5 8) rotate(34.8907) scale(277.966 291.599)">
<stop offset="0.0109802" stop-color="#E60000"/>
<stop offset="1" stop-color="white" stop-opacity="0"/>
</radialGradient>
</defs>
</svg>
