<svg width="287" height="368" viewBox="0 0 287 368" fill="none" xmlns="http://www.w3.org/2000/svg">
<path d="M231.866 159.875L249.199 121.867L251.943 114.456C255.165 105.756 257.16 96.6497 257.871 87.3995L258.319 81.5779V76.0828C258.319 73.9602 256.199 72.491 254.212 73.2364V73.2364C253.025 73.6814 252.239 74.8157 252.239 76.0828V86.8428C252.239 88.3946 252.045 89.9402 251.66 91.4436L245.837 114.213C244.534 119.308 242.831 124.292 240.744 129.119L231.719 149.993L222.114 165.816C219.948 169.385 216.818 172.269 213.084 174.136L209.7 175.828C207.711 176.823 205.457 177.162 203.263 176.796V176.796C199.689 176.201 196.673 173.808 195.279 170.463L194.797 169.306C194.087 167.6 193.754 165.761 193.823 163.914L194.479 146.192V125.668L196.44 110.952C197.158 105.568 198.313 100.252 199.895 95.0552L202.839 85.3788L208.052 68.6782C209.637 63.6009 211.843 58.7387 214.619 54.2018V54.2018M231.866 159.875L229.715 164.592C229.532 164.994 229.303 165.373 229.034 165.723L223.778 172.558C222.986 173.588 223.72 175.079 225.02 175.079V175.079C225.418 175.079 225.801 174.927 226.091 174.655L237.799 163.676L239.144 162.156M231.866 159.875L242.359 146.192L250.828 131.926C254.795 125.243 257.97 118.12 260.288 110.702L264.399 97.5415L267.439 80.0576L268.409 71.3269C268.758 68.1874 270.477 65.3627 273.105 63.6102V63.6102C274.862 62.4387 276.926 61.8135 279.038 61.8135H280.75C283.486 61.8135 286.178 62.5001 288.58 63.8104L290.652 64.9411C292.385 65.8866 293.905 67.1788 295.117 68.7373L296.547 70.5765C297.866 72.2726 298.491 74.4064 298.297 76.5461L298.101 78.6957C297.94 80.4714 296.818 82.0157 295.179 82.7182V82.7182M268.959 73.9763L270.971 76.6586C272.647 78.8939 274.82 80.7082 277.319 81.9579V81.9579C279.818 83.2077 282.574 83.8585 285.368 83.8585H289.625C291.535 83.8585 293.424 83.4705 295.179 82.7182V82.7182M198.279 182.68L209.969 180.273C219.353 178.341 228.412 175.069 236.866 170.559L246.919 165.197L276.559 143.912L295.133 129.734C301.975 124.511 308.115 118.427 313.399 111.631L317.422 106.457C323.571 98.5495 328.264 89.6101 331.28 80.0576V80.0576L331.55 78.5701C332.333 74.2647 330.954 69.8493 327.86 66.7546V66.7546M198.279 182.68L218.039 181.92H235.519L268.959 179.64L308.48 176.599L322.607 174.076C327.369 173.225 332.063 172.03 336.653 170.5L348 166.717M198.279 182.68L221.859 179.873C227.409 179.212 232.894 178.087 238.257 176.509L243.119 175.079V175.079C249.166 172.559 254.809 169.161 259.865 164.996L265.159 160.636L282.639 146.192V146.192C288.103 140.728 294.992 136.909 302.521 135.171L303.597 134.923C308.341 133.828 313.231 133.509 318.077 133.978L326.894 134.831C331.821 135.308 336.659 136.46 341.273 138.255V138.255C345.738 139.991 349.952 142.314 353.804 145.162L358.008 148.27C362.977 151.944 367.568 156.102 371.713 160.685L374.419 163.676M198.279 182.68H193.968C190.322 182.68 186.989 180.62 185.359 177.359V177.359M35.6378 289.864L16.4419 253.384C14.0427 248.825 11.9994 244.087 10.3304 239.212L3.9878 220.689M35.6378 289.864L83.0275 334.594C87.3708 338.693 92.4321 341.957 97.9582 344.223V344.223M35.6378 289.864L54.3115 301.538C62.0921 306.402 70.5052 310.172 79.3139 312.742L102.518 319.511L144.318 327.113L205.119 330.153L235.121 328.01C243.46 327.414 251.692 325.775 259.623 323.13L284.159 314.95L309.699 302.61C316.671 299.241 323.227 295.073 329.236 290.19V290.19C335.611 285.008 341.323 279.06 346.241 272.48L348.588 269.34M327.86 66.7546L322.92 61.8135L307.453 46.8592C302.577 42.1444 297.233 37.938 291.505 34.3049L284.539 29.8864M327.86 66.7546L338.706 79.9704C345.367 88.0864 350.708 97.2007 354.533 106.978L362.44 127.188L367.76 146.538C369.78 153.885 370.954 161.439 371.258 169.053L371.789 182.329C372.141 191.14 371.327 199.959 369.366 208.556L364.707 228.989C363.2 235.601 361.023 242.043 358.212 248.214L348.588 269.34M295.179 82.7182L287.959 97.5415L273.519 119.586L255.279 143.912L239.144 162.156M239.144 162.156L253.759 148.473L268.959 130.989L281.119 114.265L286.938 104.416C289.641 99.8403 291.976 95.0563 293.918 90.1096L295.179 86.8991M295.179 86.8991L296.658 85.3555C301.41 80.3966 307.419 76.8224 314.045 75.015L317.603 74.0445C319.611 73.4967 321.701 73.3126 323.775 73.5012V73.5012C327.183 73.811 330.424 75.1162 333.096 77.2542L333.956 77.9418C335.707 79.3434 337.224 81.0152 338.449 82.8944L343.429 90.5321C346.468 95.1916 348.998 100.163 350.978 105.361L354.08 113.505L358.196 122.974C360.487 128.245 361.523 133.976 361.221 139.716V139.716C361.021 143.504 360.237 147.252 358.906 150.805V150.805C357.228 155.279 354.7 159.406 351.472 162.929L348 166.717M295.179 86.8991L293.279 101.342L292.87 103.935C291.635 111.758 291.956 119.749 293.814 127.448V127.448C295.471 134.316 298.324 140.839 302.243 146.717L302.399 146.953L307.721 154.21C309.736 156.959 312.141 159.399 314.86 161.454V161.454C323.103 167.683 333.674 169.961 343.752 167.679L348 166.717M348 166.717L343.32 171.397C339.354 175.365 335.06 178.992 330.485 182.239L320.073 189.63C315.897 192.594 311.499 195.233 306.919 197.524L295.833 203.068C290.594 205.688 285.135 207.843 279.519 209.507L267.439 213.087L221.839 219.929L202.079 222.324M3.9878 220.689L2.14067 202.361C1.38267 194.839 1.47995 187.256 2.43066 179.757L6.97478 143.912M3.9878 220.689L6.80715 224.348C12.3221 231.504 18.7814 237.881 26.0089 243.302L26.8388 243.925C31.1776 247.18 35.774 250.076 40.5826 252.585L57.4175 261.371C64.6573 265.149 72.3325 268.026 80.2719 269.938L105.106 275.918M6.97478 143.912V143.912C7.84204 140.876 8.94478 137.912 10.273 135.047L28.8469 94.9888C31.3409 89.6099 34.3805 84.5012 37.9178 79.7431V79.7431M6.97478 143.912V143.912C7.83435 146.921 9.29773 149.724 11.2757 152.149L21.7524 164.994C28.4337 173.186 36.3717 180.266 45.2707 185.972L61.478 196.364L70.6539 200.952C77.6855 204.469 85.1073 207.144 92.7654 208.922L123.798 216.128L139.132 219.195C144.102 220.19 149.142 220.805 154.206 221.035L193.7 222.83C195.736 222.923 197.776 222.846 199.799 222.601V222.601M37.9178 79.7431L46.5995 68.0652C51.9344 60.8892 58.2076 54.4611 65.2514 48.9529L86.6342 32.2319M37.9178 79.7431L38.3283 81.2767C41.0769 91.5465 45.4558 101.309 51.2981 110.191V110.191C58.0267 120.421 66.5882 129.319 76.551 136.437L76.8978 136.684C80.7996 139.472 84.8969 141.975 89.1579 144.175L106.318 153.034L138.238 166.717L161.236 174.879C161.596 175.007 161.991 174.982 162.332 174.812V174.812C163.365 174.295 163.365 172.821 162.332 172.305L158.759 170.518L150.084 166.18C146.757 164.516 143.258 163.221 139.649 162.319V162.319C133.198 160.705 127.124 157.846 121.771 153.9L115.438 149.233L105.134 142.362C101.37 139.852 97.8162 137.039 94.5087 133.951L91.3177 130.973C89.164 128.962 86.8044 127.184 84.2781 125.668V125.668M84.2781 125.668L83.3595 123.371C82.9712 122.4 82.9396 121.322 83.2702 120.33L83.703 119.032C84.0465 118.001 85.0108 117.306 86.0971 117.306H87.1943C88.377 117.306 89.2121 118.464 88.8382 119.586V119.586M84.2781 125.668L86.3786 123.567C87.4963 122.449 88.3384 121.086 88.8382 119.586V119.586M88.8382 119.586V119.586C92.8763 119.586 96.8991 120.082 100.817 121.061L107.078 122.627L107.931 122.926C117.439 126.254 126.38 131.025 134.438 137.07V137.07L145.079 146.953L162.559 162.916L172.907 170.31C173.1 170.448 173.313 170.556 173.538 170.631V170.631C175.342 171.232 177.089 169.581 176.588 167.746L175.593 164.097C175.517 163.817 175.413 163.546 175.284 163.286L170.159 153.034L167.277 148.377C162.632 140.872 157.014 134.015 150.569 127.985L136.718 115.025L124.558 102.863M124.558 102.863L119.998 94.5008M124.558 102.863L124.914 102.744C127.627 101.84 129.927 99.9942 131.398 97.5415V97.5415V97.5415C132.909 95.5276 134.084 93.2833 134.88 90.8952L135.198 89.9398M119.998 94.5008L113.158 89.9398M119.998 94.5008L122.992 91.5069C124.032 90.4661 125.196 89.5569 126.458 88.7996V88.7996M113.158 89.9398L112.533 87.4375C111.978 85.217 112.628 82.8681 114.247 81.2495L115.623 79.8732C116.447 79.0487 117.654 78.736 118.775 79.0564V79.0564C120.634 79.5876 121.605 81.6298 120.843 83.407L120.471 84.2745C120.163 84.9951 119.651 85.6104 118.999 86.0453L113.158 89.9398ZM122.278 81.5779L126.792 86.0922C127.588 86.8883 127.424 88.2203 126.458 88.7996V88.7996M126.458 88.7996V88.7996C129.574 88.0804 132.847 88.845 135.322 90.8702L139.758 94.5008L140.677 95.3541C147.13 101.347 152.763 108.166 157.429 115.634L157.858 116.321C160.481 120.519 162.79 124.907 164.763 129.447L169.399 140.111L177.759 157.595L182.319 170.518L185.359 177.359M185.359 177.359L187.817 181.457C189.201 183.764 190.058 186.349 190.325 189.027V189.027C190.559 191.362 191.241 193.63 192.334 195.707L198.279 207.006V207.006C200.803 212.56 203.984 217.793 207.753 222.591L210.439 226.01L217.279 234.372M185.359 177.359L189.911 182.368C191.908 184.565 193.298 187.246 193.941 190.144V190.144C194.298 191.748 194.884 193.292 195.682 194.729L202.079 206.246L204.718 210.206C207.008 213.642 209.57 216.888 212.38 219.914V219.914C216.142 223.966 219.457 228.411 222.27 233.172L227.919 242.734L236.279 254.136L246.919 269.34L257.559 282.263L259.555 284.384C266.248 291.497 274.434 297.038 283.523 300.61V300.61C288.489 302.561 293.673 303.904 298.962 304.609L310.56 306.156C312.711 306.443 314.89 306.46 317.045 306.206L322.853 305.523C325.346 305.229 327.65 304.044 329.338 302.187V302.187C332.32 298.906 332.896 294.096 330.774 290.204L330.454 289.618C329.993 288.772 329.641 287.871 329.408 286.937L328.353 282.717C327.27 278.384 326.833 273.914 327.056 269.453L327.48 260.978V247.73C327.48 242.885 327.832 238.047 328.533 233.253L329.472 226.835C331.171 215.226 334.898 204.008 340.485 193.691L341.92 191.042L353.172 175.642C355.276 172.762 357.935 170.332 360.994 168.497V168.497C362.963 167.315 365.076 166.392 367.282 165.751L374.419 163.676M112.398 183.441L111.396 183.691C109.045 184.279 109.236 187.681 111.638 188.002V188.002H115.438M112.398 183.441L121.518 181.92L143.558 177.359L146.734 176.565C150.663 175.583 154.74 175.337 158.759 175.839V175.839L163.712 176.547C163.955 176.581 164.193 176.65 164.417 176.75V176.75C166.669 177.75 166.473 181.008 164.119 181.733L161.492 182.541C161.191 182.634 160.88 182.687 160.565 182.701L150.232 183.15C145.805 183.343 141.426 184.152 137.221 185.554V185.554C132.358 187.175 127.265 188.002 122.138 188.002H115.438M112.398 183.441H114.236C115.32 183.441 116.198 184.319 116.198 185.403V185.403C116.198 185.614 116.164 185.823 116.098 186.023L115.438 188.002M158.759 313.43L164.839 298.226L177.759 251.856L179.025 246.535M158.759 313.43L160.318 317.719C161.247 320.273 163.357 322.217 165.979 322.932V322.932M158.759 313.43L162.92 312.389C164.194 312.07 165.503 311.909 166.816 311.909H169.93C171.07 311.909 172.185 312.247 173.133 312.879V312.879C175.023 314.139 175.999 316.391 175.625 318.632L175.479 319.511M175.479 319.511L173.448 321.252C171.391 323.016 168.593 323.645 165.979 322.932V322.932M175.479 319.511L175.98 317.17C177.164 311.646 178.813 306.232 180.911 300.986L180.98 300.814C182.883 296.055 184.417 291.157 185.57 286.163L188.399 273.901L190.679 251.856L191.231 246.61C191.873 240.506 191.688 234.344 190.679 228.291V228.291M190.679 228.291L188.019 229.431M190.679 228.291L192.199 227.53M179.025 246.535L184.335 224.228C185.015 221.371 185.359 218.446 185.359 215.51V213.478C185.359 209.217 184.408 205.01 182.577 201.163V201.163C179.479 194.656 174.004 189.54 167.313 186.863V186.863C161.768 184.645 155.64 184.189 149.833 185.583L148.45 185.915C142.756 187.282 137.523 190.125 133.279 194.159L131.03 196.295C126.758 200.355 123.327 205.217 120.933 210.603L118.123 216.927C116.336 220.948 114.886 225.111 113.786 229.372L109.358 246.535L106.318 270.1L105.106 275.918M179.025 246.535L184.291 233.261C184.975 231.539 186.316 230.161 188.019 229.431V229.431M165.979 322.932L171.679 303.547L179.025 279.222L182.319 263.258L183.889 256.584C184.867 252.426 185.493 248.193 185.759 243.93V243.93C185.999 240.097 186.528 236.289 187.344 232.537L188.019 229.431M198.279 228.291L204.177 249.744C205.815 255.7 206.897 261.795 207.41 267.951L208.159 276.941V298.226L208.414 302.565C208.735 308.025 206.706 313.362 202.839 317.23V317.23M198.279 228.291L201.752 234.607C204.994 240.503 207.406 246.82 208.919 253.376V253.376L213.43 266.913C214.981 271.565 216.187 276.325 217.039 281.155L218.039 286.824L218.799 298.226V311.149M198.279 228.291L197.958 228.05C196.291 226.8 194.062 226.599 192.199 227.53V227.53M202.839 317.23V317.23C197.449 314.78 193.128 310.458 190.679 305.068V305.068M202.839 317.23H206.639H208.649C212.918 317.23 216.742 314.528 218.2 310.516V310.516C218.594 309.431 218.799 308.278 218.799 307.124V306.463C218.799 303.679 217.455 301.067 215.19 299.448V299.448C214.066 298.645 212.765 298.124 211.398 297.929L203.464 296.795C203.048 296.736 202.628 296.706 202.208 296.706V296.706C199.705 296.706 197.319 297.762 195.636 299.613L190.679 305.068M190.679 305.068L193.719 290.625L195.239 272.38V255.657L193.719 238.173L192.199 227.53M248.439 282.263L249.584 286.078C250.309 288.496 250.01 291.105 248.758 293.297L248.537 293.684C247.973 294.672 247.187 295.514 246.241 296.145V296.145C244.281 297.452 241.812 297.736 239.606 296.909L235.998 295.555C232.811 294.36 230.334 291.789 229.258 288.56L228.919 287.545C228.76 287.067 228.679 286.567 228.679 286.063V286.063M248.439 282.263L246.076 279.899C244.183 278.005 241.615 276.941 238.937 276.941V276.941C235.821 276.941 232.88 278.38 230.968 280.84L230.079 281.983C229.172 283.15 228.679 284.585 228.679 286.063V286.063M248.439 282.263V282.263C247.43 278.226 245.896 274.339 243.875 270.701L243.119 269.34L237.799 260.218L227.159 246.535L217.279 234.372M244.639 296.706L241.599 289.864L237.799 283.023L230.959 267.059L224.118 255.086C220.582 248.896 216.394 243.102 211.626 237.803L209.948 235.938C206.733 232.365 203.779 228.564 201.111 224.566L200.045 222.969M199.799 222.601L200.045 222.969M199.799 222.601L202.079 222.324M200.045 222.969V222.969C200.887 227.238 202.53 231.309 204.889 234.965L208.919 241.214L217.279 256.417L224.879 273.901L228.679 286.063M202.079 222.324L217.279 234.372M374.419 163.676V163.676C378.032 167.671 380.623 172.482 381.969 177.698L383.155 182.297C385.01 189.487 384.699 197.065 382.26 204.078V204.078C380.714 208.524 378.348 212.642 375.284 216.216L373.706 218.058C371.772 220.314 369.643 222.396 367.344 224.278L354.08 235.132L339.603 245.087C333.064 249.584 326.013 253.286 318.599 256.115L281.564 270.25C275.204 272.678 268.613 274.449 261.894 275.537L239.144 279.222L190.679 283.783H160.279L109.358 276.941L105.106 275.918M105.106 275.918L103.57 283.296C102.873 286.642 101.674 289.864 100.015 292.852L98.2498 296.029C96.0795 299.936 92.7792 303.097 88.7815 305.096V305.096C83.9223 307.526 78.3402 308.088 73.0941 306.675L70.7351 306.04C64.7279 304.423 59.4119 300.89 55.593 295.979L50.8379 289.864L47.2977 284.961C43.0956 279.142 39.8033 272.717 37.5338 265.907V265.907C36.2721 262.121 35.3328 258.235 34.7261 254.291L34.4785 252.681C33.2306 244.567 33.0985 236.321 34.0861 228.172L35.0577 220.154C35.4435 216.971 36.1486 213.835 37.1623 210.793L38.122 207.914C39.9836 202.327 43.1978 197.288 47.4782 193.245L50.2662 190.611C53.1273 187.908 56.6665 186.03 60.5086 185.176V185.176C65.5506 184.056 70.8266 184.761 75.397 187.167L77.8605 188.464C81.0971 190.168 83.9873 192.461 86.3826 195.225L87.3769 196.373C90.845 200.375 93.4249 205.068 94.9464 210.14L97.4231 218.398C98.7903 222.956 99.7355 227.631 100.247 232.362L102.518 253.376L105.106 275.918ZM97.9582 344.223L124.788 355.221C132.208 358.263 139.967 360.401 147.898 361.589L175.423 365.714C185.534 367.229 195.817 367.185 205.914 365.583L226.76 362.275C237.096 360.635 247.109 357.383 256.436 352.638L281.177 340.05C291.2 334.951 300.291 328.197 308.068 320.074L329.55 297.633C337.316 289.52 343.66 280.158 348.316 269.938L348.588 269.34M97.9582 344.223L91.1182 335.474V335.474C84.584 326.425 79.7185 316.282 76.7509 305.522L75.1581 299.747L70.041 279.274C68.8938 274.684 68.0738 270.019 67.587 265.313L66.038 250.336V222.969L67.6789 192.334C68.1035 184.406 69.4706 176.557 71.7514 168.953L72.8781 165.197L81.6943 142.269C83.4047 137.821 85.8498 133.692 88.9277 130.054V130.054C91.3902 127.143 93.4505 123.915 95.0533 120.455L98.9561 112.031C104.321 100.451 111.854 90.0055 121.146 81.2575L126.458 76.2568L157.239 49.9669M264.399 18.3186V18.3186C267.431 19.4392 270.335 20.8771 273.065 22.6082L284.539 29.8864M264.399 18.3186L252.239 18.4839L237.799 20.0042L229.515 21.188C220.888 22.4206 212.459 24.7757 204.443 28.1932L190.679 34.0611M264.399 18.3186L242.225 10.122M172.439 10.122V10.122C173.877 6.76568 176.788 4.26428 180.322 3.34771L186.119 1.84463M172.439 10.122L176.892 11.1119C178.467 11.462 180.097 11.4936 181.684 11.2049L184.294 10.7303C186.4 10.3474 188.202 8.99549 189.159 7.08135V7.08135M172.439 10.122V10.122C172.439 18.7 173.568 27.2405 175.798 35.5236L177.759 42.8093L179.321 51.7917C180.304 57.4489 180.799 63.1802 180.799 68.9223V81.5779V110.464M189.159 7.08135L186.119 1.84463M189.159 7.08135V7.08135C191.169 14.5117 191.82 22.2442 191.08 29.906L190.679 34.0611M186.119 1.84463V1.84463C193.186 1.28359 200.296 1.57758 207.293 2.72021L225.344 5.66794C231.101 6.60804 236.754 8.0996 242.225 10.122V10.122M186.119 1.84463L158.067 4.07143C151.954 4.55668 145.899 5.60317 139.978 7.19767L129.921 9.90597C129.387 10.0498 128.864 10.2343 128.358 10.4579V10.4579M186.378 159.875L186.131 162.823C186.017 164.178 184.062 164.258 183.839 162.916V162.916L182.118 140.111M186.378 159.875V143.912V125.668L190.386 94.5008M186.378 159.875V159.875C187.194 161.215 189.253 160.664 189.292 159.096L189.919 134.03L196.704 93.3091C197.752 87.0231 199.397 80.8515 201.619 74.8788L206.38 62.0806C209.077 54.8321 212.605 47.9209 216.895 41.4856L218.039 39.7686M212.719 35.9678L205.119 51.1712L197.519 72.4559L191.431 90.0475C190.931 91.4922 190.581 92.9845 190.386 94.5008V94.5008M212.719 35.9678V35.9678C214.906 34.6553 217.723 35.1326 219.356 37.0922L220.319 38.2483M212.719 35.9678L218.039 39.7686M220.319 38.2483L218.039 39.7686M220.319 38.2483V38.2483C220.319 41.2692 219.832 44.2704 218.877 47.1364L218.799 47.3703M218.799 47.3703L219.589 40.2559C220.07 35.932 219.573 31.5555 218.136 27.4491V27.4491C216.098 21.6239 212.258 16.5989 207.173 13.1021L207.021 12.9976C204.253 11.0944 201.182 9.67578 197.938 8.80237L192.026 7.2102C186.197 5.64063 180.031 5.86796 174.333 7.86241V7.86241C170.085 9.3497 166.226 11.775 163.043 14.9583L160.518 17.4843C155.012 22.9917 151.919 30.4606 151.919 38.2483V38.2483M218.799 47.3703L214.619 54.2018M180.799 110.464V122.627L182.118 140.111M180.799 110.464L184.599 87.6593L185.024 84.3862C185.924 77.4663 187.565 70.6632 189.919 64.0941V64.0941M189.919 64.0941L192.199 58.7729M189.919 64.0941L194.479 66.7546M192.199 58.7729L195.041 60.1815C196.093 60.7032 196.759 61.7763 196.759 62.9509V62.9509C196.759 63.6886 196.495 64.402 196.015 64.9621L194.479 66.7546M192.199 58.7729V55.7322L190.679 42.8093V34.0611M194.479 66.7546L192.199 80.0576L190.386 94.5008M170.159 30.6466V32.3652C170.159 34.7451 170.613 37.1031 171.496 39.3128L172.517 41.8642C173.913 45.3563 176.776 48.0564 180.344 49.2459V49.2459C183.998 50.4639 188.005 49.9705 191.254 47.9028L191.52 47.733C193.46 46.4983 195.051 44.7869 196.141 42.7622L197.566 40.1146C198.987 37.4764 199.213 34.3575 198.19 31.5417V31.5417C197.271 29.0145 195.418 26.9356 193.013 25.7328L190.59 24.5208C188.649 23.5502 186.509 23.0449 184.339 23.0449V23.0449C181.069 23.0449 177.903 24.1914 175.392 26.2849L170.159 30.6466ZM170.159 30.6466L167.879 21.5246L164.839 10.122M190.679 34.0611L170.159 42.8093L163.908 45.6946C161.5 46.8065 159.256 48.244 157.239 49.9669V49.9669M142.038 16.2034L143.802 12.6758C145.564 9.15149 148.873 6.65475 152.746 5.92848V5.92848C156.542 5.2165 160.455 6.28593 163.362 8.82978L164.839 10.122M142.038 16.2034L145.179 17.9486C147.556 19.2694 150.346 19.6372 152.984 18.9776V18.9776C154.289 18.6514 155.52 18.0826 156.614 17.3009L158.664 15.8368C159.738 15.0689 160.748 14.2136 161.682 13.2795L164.839 10.122M142.038 16.2034L143.185 18.1146C146.964 24.4149 149.901 31.1839 151.919 38.2483V38.2483M151.919 38.2483L157.239 49.9669M157.239 49.9669L164.839 71.6957L170.159 89.1796L179.279 125.668L182.118 140.111M157.239 49.9669L160.558 53.8135C163.382 57.0846 166.849 59.7381 170.744 61.6082V61.6082C179.051 65.5965 188.691 65.7364 197.11 61.9909L214.619 54.2018M128.358 10.4579L107.816 19.5368C100.26 22.8762 93.1418 27.143 86.6342 32.2319V32.2319M128.358 10.4579L126.749 14.1923C123.8 21.0355 122.278 28.4088 122.278 35.8605V35.8605C122.278 40.4745 122.862 45.07 124.014 49.5377L124.703 52.2049C127.103 61.5097 131.78 70.1225 138.258 77.2197V77.2197C142.261 81.6046 146.931 85.3755 152.065 88.3573V88.3573C162.36 94.3366 174.239 97.0222 186.105 96.0533L193.635 95.4385C201.216 94.8195 208.6 92.7073 215.361 89.2235V89.2235C225.054 84.2289 233.133 76.5891 238.661 67.1898L240.75 63.6367C243.824 58.4102 245.927 52.6706 246.957 46.6954L247.28 44.8235C248.538 37.5231 247.89 30.0215 245.399 23.0449V23.0449L242.225 10.122M86.6342 32.2319V45.85L88.1497 62.1742C89.094 72.3468 93.0367 82.0101 99.4782 89.9398V89.9398L105.245 96.7108C112.942 105.748 122.692 112.81 133.678 117.306V117.306L160.279 127.188V127.188C170.326 129.701 180.75 130.341 191.03 129.079L205.401 127.313C214.281 126.223 222.943 123.785 231.089 120.085L231.491 119.902C238.613 116.666 245.253 112.462 251.223 107.408V107.408C258.932 100.883 265.414 93.0339 270.365 84.2307L271.418 82.3577C274.836 76.2811 277.587 69.8531 279.624 63.1856L280.254 61.1214C283.344 51.006 284.791 40.4603 284.539 29.8864V29.8864" stroke="url(#paint0_angular_142_148)" stroke-width="2"/>
<defs>
<radialGradient id="paint0_angular_142_148" cx="0" cy="0" r="1" gradientUnits="userSpaceOnUse" gradientTransform="translate(258.5 167) rotate(34.8907) scale(277.966 291.599)">
<stop offset="0.0109802" stop-color="#E60000"/>
<stop offset="1" stop-color="white" stop-opacity="0"/>
</radialGradient>
</defs>
</svg>
