<svg width="1440" height="900" viewBox="0 0 1440 900" fill="none" xmlns="http://www.w3.org/2000/svg">
<g filter="url(#filter0_d_142_13)">
<path d="M631 497L584.221 560.033C576.157 570.898 565.973 580.014 554.285 586.828L520.271 606.659C476.061 632.434 419.526 620.672 389.264 579.405L375.277 560.332C365.257 546.668 358.873 530.682 356.725 513.875L343.66 411.663C343.227 408.277 343.665 404.837 344.933 401.668V401.668C351.103 386.242 372.276 384.571 380.79 398.837L413.546 453.726C414.847 455.906 416.307 457.987 417.914 459.952L476 531L522.939 585.542C538.039 603.088 560.682 612.263 583.736 610.178V610.178C617.196 607.152 644.067 581.297 648.379 547.978L661.356 447.705C662.447 439.269 662.458 430.729 661.389 422.291L644.033 285.421C642.04 269.699 636.338 254.676 627.398 241.59L590.559 187.667C578.504 170.021 561.113 156.701 540.936 149.66L488.096 131.221C480.065 128.418 471.709 126.652 463.23 125.965L369.972 118.403C343.719 116.275 318.116 127.289 301.609 147.815V147.815C274.178 181.923 279.485 231.791 313.481 259.362L442.5 364L558.831 442.397C573.039 451.972 589.467 457.735 606.542 459.136L650.598 462.749C701.041 466.887 746.622 432.684 756.75 383.095L775.477 291.403C776.822 284.818 777.5 278.114 777.5 271.392V172.638C777.5 137.563 798.081 105.752 830.074 91.3749V91.3749C847.249 83.6572 866.427 81.5793 884.856 85.4394L886.297 85.7413C914.226 91.5912 937.962 109.859 950.767 135.359L977.365 188.322C984.358 202.248 988 217.615 988 233.199V303.624C988 320.277 983.841 336.667 975.9 351.306L947.967 402.8C936.689 423.591 918.406 439.711 896.366 448.297L812.618 480.922C808.214 482.637 803.67 483.969 799.037 484.903V484.903C763.423 492.079 736.764 521.813 733.502 557.997L730.843 587.503C729.307 604.549 732.171 621.704 739.162 637.325L755.28 673.346C769.135 704.306 797.739 726.133 831.259 731.323L897 741.5L1011.96 761.598C1030.29 764.803 1049.15 762.83 1066.42 755.903L1194.08 704.69C1205.92 699.94 1218.55 697.5 1231.31 697.5H1269.69C1277.17 697.5 1284.59 696.158 1291.59 693.537V693.537C1329.64 679.294 1344.18 633.085 1321.14 599.617L1282.12 542.933C1262.47 514.381 1229.42 498.045 1194.8 499.76L1094.04 504.754C1084.07 505.249 1074.23 507.234 1064.84 510.644L946.969 553.476C921.992 562.552 894.133 558.573 872.696 542.866V542.866C862.065 535.077 853.533 524.772 847.865 512.874L832.543 480.714C816.701 447.462 823.978 407.799 850.591 382.336V382.336C873.052 360.845 905.422 353.266 935.09 362.553L995.413 381.434C1005.08 384.46 1015.15 386 1025.28 386H1125.82C1132.55 386 1138 380.548 1138 373.822V373.822C1138 372.943 1138.1 372.067 1138.28 371.208L1139.51 365.634C1148.76 323.534 1115.06 284.319 1072.04 287.142L1028.5 290V290C998.226 287.882 991.444 246.398 1019.47 234.75L1079.34 209.863C1094.16 203.704 1109.31 217.917 1104.11 233.097V233.097C1101.16 241.7 1092.43 246.917 1083.46 245.437L1060.35 241.629C1015.55 234.243 1007.04 173.493 1048.09 154.08L1132.79 114.017C1157.61 102.28 1186.84 104.926 1209.14 120.927L1256.73 155.064C1286.4 176.349 1292.52 217.988 1270.24 246.916V246.916C1262.89 256.448 1253.03 263.739 1241.76 267.964L1095.98 322.633C1084.75 326.843 1072.86 329 1060.87 329H884.16C838.235 329 798.214 360.281 787.121 404.846L777.5 443.5M777.5 443.5L795.805 517.043C802.323 543.229 819.148 565.67 842.457 579.267L922.373 625.884C936.572 634.167 952.593 638.822 969.02 639.437L1114.75 644.892C1125.51 645.295 1136.27 643.956 1146.61 640.927L1274.45 603.471C1322.9 589.275 1347.36 535.292 1326.09 489.501V489.501C1316.47 468.769 1298.67 452.958 1276.95 445.838L1149.27 403.988C1137.2 400.032 1124.49 398.412 1111.81 399.213L1033.3 404.174C1009.55 405.675 986.039 398.654 966.998 384.373L688.5 175.5L593.267 109.695C579.318 100.057 563.148 94.1233 546.276 92.4522L415.5 79.5L296.784 64.9781C268.31 61.4951 239.711 70.4079 218.258 89.451L202.799 103.172C178.85 124.431 170.565 158.297 181.995 188.211V188.211C197.375 228.459 242.794 248.245 282.74 232.099L338.255 209.66C361.375 200.315 387.882 206.868 403.986 225.909V225.909C428.01 254.316 419.295 297.696 386.164 314.621L289.5 364L109.719 428.237C82.5709 437.936 60.9301 458.881 50.3473 485.696L38.1501 516.603C20.6264 561.006 36.9302 611.604 77.0811 637.423L113.662 660.946C157.592 689.195 215.862 678.88 247.424 637.267L268.807 609.075C276.729 598.631 287.773 590.982 300.337 587.24L314.096 583.142C352.391 571.734 389.065 605.176 381.228 644.358V644.358C378.517 657.914 370.619 669.875 359.218 677.692L304.06 715.509C254.229 749.675 245.845 819.887 286.229 864.826L301.906 882.271C327.111 910.319 365.95 921.803 402.355 911.973L453.1 898.27C489.004 888.575 516.562 859.755 524.642 823.453L532.013 790.335C540.392 752.688 576.945 728.327 614.917 735.081V735.081C637.589 739.114 656.964 753.747 667.047 774.45L671.408 783.405C682.328 805.826 701.899 822.871 725.716 830.266C760.242 840.985 799.158 852.5 806 852.5C811.558 852.5 823.305 814.848 834.703 772.242C846.999 726.279 896.562 700.454 940.574 718.53V718.53C973.402 732.014 988.674 768.151 1001.93 801.071C1009.36 819.513 1023.83 834 1050 834C1097.29 834 1179.73 821.985 1228.48 813.738C1240.63 811.683 1251.96 806.319 1261.37 798.373V798.373C1289.42 774.711 1294.62 733.494 1273.34 703.602L1233.82 648.074C1229.31 641.75 1226.06 634.623 1224.24 627.077V627.077C1217.19 597.952 1232.38 568.028 1260.05 556.524L1284.67 546.289C1295.46 541.804 1305.29 535.307 1313.65 527.145L1339.82 501.6C1366.86 475.196 1373.15 434.07 1355.22 400.796L1340.05 372.654C1331.95 357.608 1315.17 349.378 1298.31 352.174L1281.07 355.033C1257.56 358.933 1247.53 387.193 1263.33 405.042V405.042C1273.44 416.456 1290.44 418.593 1303.06 410.035L1350.85 377.609C1391.56 349.988 1404.81 296.065 1381.54 252.723L1353.39 200.319C1351.14 196.12 1348.41 192.196 1345.25 188.623L1331.06 172.544C1314.84 154.174 1286.42 153.486 1269.33 171.049V171.049C1256.14 184.611 1253.61 205.31 1263.16 221.646L1274.48 241.014C1294.58 275.412 1338.91 286.776 1373.08 266.295L1384.75 259.302C1423.77 235.919 1437.47 185.973 1415.86 145.949L1390 98.0603C1368.25 57.8021 1317.2 44.003 1278.14 67.8267V67.8267C1265.62 75.4613 1255.45 86.3948 1248.73 99.4287L1222.92 149.522C1208.49 177.52 1208.1 210.677 1221.86 239.009L1253.53 304.23C1257.16 311.714 1261.72 318.715 1267.08 325.071L1421.44 507.845C1434.2 522.942 1442.19 541.48 1444.41 561.116L1472.82 811.985C1476.15 841.399 1450.18 865.709 1421.05 860.451V860.451C1396.81 856.076 1380.83 832.733 1385.51 808.553L1396.81 750.211C1397.93 744.417 1398.5 738.529 1398.5 732.627V732.627C1398.5 683.692 1360.38 643.229 1311.53 640.319L1295.82 639.383C1285.99 638.798 1276.31 636.764 1267.07 633.349L1209.3 611.977C1179.86 601.087 1162.91 570.212 1169.52 539.527L1179.94 491.136C1187.57 455.689 1149.29 428.176 1118.13 446.718V446.718C1097.13 459.214 1069.93 450.958 1059.42 428.897L1056.83 423.456C1042.95 394.324 1061.87 360.189 1093.93 356.528L1120.62 353.481C1151.27 349.981 1175.44 325.768 1178.88 295.11L1179.78 287.103C1184.56 244.539 1153.38 206.378 1110.72 202.586L815.841 176.375C809.296 175.793 802.825 174.568 796.52 172.716L727.197 152.359C697.435 143.62 673.414 121.564 662.171 92.6553L655.794 76.2554C640.846 37.8183 603.835 12.5 562.593 12.5H305.024C266.301 12.5 237.107 47.6865 244.253 85.7438V85.7438C248.93 110.649 268.329 130.18 293.203 135.025L392.624 154.389C413.033 158.364 431.695 168.601 446.014 183.677L532.979 275.238C542.231 284.979 549.426 296.485 554.133 309.069L590.52 406.341C595.128 418.659 597.261 431.766 596.796 444.909L590.628 619.431C589.595 648.665 575.813 675.981 552.912 694.183L401.086 814.856C385.392 827.33 366.31 834.799 346.318 836.293L271.248 841.905C202.219 847.064 148.952 782.22 167.418 715.507L181.032 666.321C187.761 642.01 185.053 616.053 173.451 593.654L145.363 539.423C142.461 533.82 139.035 528.505 135.131 523.548L96.7601 474.82C56.1298 423.224 92.8836 347.5 158.557 347.5V347.5C189.807 347.5 218.094 366 230.619 394.63L235.722 406.293C246.145 430.118 265.6 448.83 289.811 458.32L334.321 475.765C367.665 488.834 405.5 482.448 432.708 459.158V459.158C444.72 448.876 454.034 435.81 459.837 421.102L468.864 398.22C487.474 351.05 467.832 297.417 423.159 273.423L401.216 261.637C375.097 247.609 344.1 245.893 316.592 256.954L253.134 282.471C229.895 291.815 203.995 292.098 180.557 283.264L145.726 270.135C109.818 256.601 84.8225 223.712 81.3958 185.491L74 103V86.7642C74 28.5761 123.882 -17.0986 181.845 -11.9842V-11.9842C200.248 -10.3604 217.832 -3.62629 232.611 7.45851L360 103L474.524 168.897C482.142 173.28 489.148 178.648 495.362 184.862L572 261.5L728.5 406.5L777.5 443.5Z" stroke="#7A1D00" stroke-width="3" shape-rendering="crispEdges"/>
</g>
<defs>
<filter id="filter0_d_142_13" x="-70.3418" y="-109.876" width="1644.95" height="1130.81" filterUnits="userSpaceOnUse" color-interpolation-filters="sRGB">
<feFlood flood-opacity="0" result="BackgroundImageFix"/>
<feColorMatrix in="SourceAlpha" type="matrix" values="0 0 0 0 0 0 0 0 0 0 0 0 0 0 0 0 0 0 127 0" result="hardAlpha"/>
<feOffset dy="4"/>
<feGaussianBlur stdDeviation="50"/>
<feComposite in2="hardAlpha" operator="out"/>
<feColorMatrix type="matrix" values="0 0 0 0 1 0 0 0 0 0.537234 0 0 0 0 0 0 0 0 1 0"/>
<feBlend mode="normal" in2="BackgroundImageFix" result="effect1_dropShadow_142_13"/>
<feBlend mode="normal" in="SourceGraphic" in2="effect1_dropShadow_142_13" result="shape"/>
</filter>
</defs>
</svg>
