<svg width="1426" height="900" viewBox="0 0 1426 900" fill="none" xmlns="http://www.w3.org/2000/svg">
<path d="M561.5 396L482.091 406.472C474.39 407.487 466.833 409.396 459.574 412.161L357.768 450.932C307.216 470.184 280.876 526.265 300.226 576.779C314.442 613.892 327.523 644.804 331 643.5C335.09 641.966 386.777 631.91 439.389 621.892C486.685 612.886 521 571.598 521 523.451V485.5V421.974C521 383.489 498.915 348.419 464.208 331.79L326.398 265.763C320.48 262.928 314.856 259.517 309.607 255.58L187.5 164L111.272 93.0433C99.8501 82.411 84.8245 76.5 69.2197 76.5V76.5C35.1329 76.5 7.5 104.133 7.5 138.22V210.795C7.5 234.795 16.1311 257.994 31.8177 276.157L84.12 336.718C101.93 357.34 127.385 369.802 154.597 371.22L352.589 381.54C364.76 382.175 376.945 380.579 388.543 376.831L600 308.5L688.798 273.84C728.437 258.368 773.527 269.676 801.174 302.022L861.497 372.597C874.531 387.846 891.849 398.822 911.202 404.1L1043.92 440.297C1070.17 447.455 1098.2 443.611 1121.55 429.652L1176.75 396.65C1205.44 379.5 1223 348.537 1223 315.114V315.114C1223 281.838 1205.59 250.988 1177.1 233.79L1080.04 175.191C1067.82 167.816 1054.17 163.141 1039.99 161.479L944.336 150.268C896.138 144.618 850.841 174.389 836.906 220.873L806.46 322.438C799.402 345.984 801.263 371.305 811.689 393.566L823.06 417.844C829.277 431.119 832.5 445.599 832.5 460.258V475.923C832.5 503.419 843.822 529.703 863.804 548.592L871.868 556.215C887.843 571.316 908.349 580.733 930.214 583.008L1147.58 605.624C1153.18 606.207 1158.83 606.315 1164.45 605.948L1256.4 599.938C1289.32 597.786 1319.06 579.538 1335.89 551.163L1377.46 481.079C1388.83 461.911 1393.47 439.494 1390.64 417.387L1369.63 253.007C1364.42 212.272 1334.84 178.861 1295.04 168.758L1161.86 134.959C1141.47 129.785 1119.98 131.17 1100.42 138.918L959.508 194.752C933.384 205.103 912.82 225.968 902.85 252.24L884.127 301.579C882.378 306.187 880.291 310.659 877.883 314.959L855.859 354.288C841.158 380.539 839.709 412.188 851.948 439.672V439.672C857.903 453.045 866.856 464.866 878.114 474.222L912.388 502.703C925.257 513.396 940.603 520.69 957.021 523.916L962 524.894M962 524.894L1098.7 551.752C1119.37 555.813 1140.8 553.243 1159.92 544.406L1302.94 478.324C1338.34 461.971 1361 426.536 1361 387.546V334.954C1361 317.616 1356.49 300.576 1347.92 285.506L1304.31 208.85C1299.46 200.33 1293.39 192.568 1286.28 185.815L1210.04 113.344C1200.77 104.53 1189.89 97.5771 1177.99 92.8628L1100.53 62.1555C1090.25 58.0801 1079.36 55.7383 1068.31 55.2257L904.289 47.6143C881.76 46.5689 859.539 53.1697 841.235 66.3449L817.692 83.2903C793.085 101.002 778.5 129.47 778.5 159.789V159.789C778.5 176.622 783.008 193.148 791.556 207.65L851 308.5L869.129 338.516C876.904 351.39 878.069 367.201 872.264 381.076V381.076C865.363 397.572 868.39 416.553 880.081 430.084L962 524.894ZM448.5 485.5L527.226 307.22C537.248 284.525 536.964 258.604 526.446 236.135V236.135C522.835 228.421 518.097 221.288 512.387 214.969L428.626 122.273C415.498 107.745 398.393 97.3901 379.434 92.494L317.5 76.5L148.355 18.611C136.662 14.6088 124.115 13.7834 111.998 16.219V16.219C69.6377 24.7336 45.1095 69.2982 60.5784 109.642L123.872 274.713C128.253 286.141 130.5 298.275 130.5 310.514V424.075C130.5 442.027 135.332 459.648 144.49 475.088L189.257 550.567C206.281 579.271 236.502 597.59 269.825 599.406L348.837 603.712C380.96 605.462 411.964 591.652 432.148 566.6L461.116 530.647C467.337 522.925 472.376 514.321 476.066 505.116L550.964 318.282C557.728 301.408 570.715 287.777 587.241 280.202V280.202C625.028 262.883 669.541 281.629 683.554 320.764L768.5 558L812.06 746.473C816.582 766.037 826.888 783.787 841.639 797.411L1011.21 954.044C1041.52 982.048 1085.93 988.55 1123 970.416L1155.55 954.496C1194.97 935.209 1215.75 891.155 1205.55 848.465V848.465C1199.46 822.991 1183 801.223 1160.15 788.43L1024.5 712.5L877.722 610.826C849.564 591.32 813.381 587.585 781.832 600.925L701.185 635.028C673.538 646.718 652.791 670.269 643.293 698.743C629.369 740.482 611.39 787.312 600 795C590.502 801.411 549.64 811.311 507.434 820.182C471.887 827.652 442.305 793.631 453.68 759.135V759.135C457.122 748.696 464.044 739.755 473.289 733.809L589.11 659.306C618.799 640.208 656.357 638.179 687.931 653.965L691.671 655.835C729.616 674.808 751.46 715.659 746.168 757.751L739.264 812.67C735.323 844.024 716.793 871.67 689.289 887.231L581.655 948.129C557.044 962.054 527.688 964.908 500.856 955.985L429.756 932.341C378.442 915.277 355.26 855.784 381.5 808.5V808.5L434.861 732.042C443.828 719.194 449.651 704.419 451.859 688.908L463.16 609.544C467.697 577.685 454.763 545.846 429.293 526.177V526.177C423.124 521.413 416.359 517.476 409.169 514.466L240.54 443.877C231.234 439.982 221.391 437.517 211.347 436.566L119.182 427.845C68.8473 423.081 22.876 456.638 12.0715 506.03L10.4722 513.341C1.73194 553.297 18.2043 594.548 52.0623 617.493L134.132 673.11C161.293 691.517 195.756 695.428 226.352 683.577L269.936 666.695C291.935 658.174 310.212 642.15 321.538 621.456L344.5 579.5L398.688 499.911C405.181 490.375 409.974 479.789 412.856 468.619L425.563 419.382C427.514 411.82 430.345 404.513 433.997 397.609L491.287 289.313C500.774 271.378 516.428 257.48 535.359 250.182L579.654 233.107C608.652 221.928 619.244 186.348 601.081 161.13V161.13C587.054 141.654 560.689 135.726 539.676 147.323L470.5 185.5L405.552 213.96C389.785 220.87 376.068 231.732 365.73 245.497L308.042 322.302C299.77 333.315 293.862 345.919 290.689 359.322L252.584 520.299C248.596 537.144 249.05 554.736 253.9 571.353L280.749 663.338C302.692 738.516 398.622 760.437 451.04 702.251L476.273 674.242C482.395 667.446 489.421 661.522 497.154 656.636L536.951 631.49C562.014 615.654 592.811 611.754 621.029 620.844L629 623.412M629 623.412L755 664L845.491 702.33C861.234 708.999 878.423 711.519 895.418 709.652L1017 696.291C1063.71 691.158 1100.54 654.198 1105.52 607.473L1113.64 531.157C1116.73 502.174 1107.01 473.287 1087.04 452.056L962.155 319.296C955.422 312.138 947.67 306.011 939.15 301.114L847.706 248.553C791.696 216.359 793.501 134.948 850.882 105.268V105.268C883.691 88.298 923.806 95.4727 948.699 122.762L986.291 163.974C1018.4 199.173 1021.21 252.135 993.023 290.54L833.333 508.084C815.704 532.099 809.701 562.724 816.958 591.618L826.535 629.752C830.454 645.354 838.078 659.779 848.761 671.806L980.965 820.629C997.354 839.078 1002.5 864.938 994.435 888.258V888.258C978.791 933.471 922.685 948.965 886.056 918.187L857.736 894.391C826.603 868.232 815.902 824.975 831.248 787.317L876.191 677.029C879.713 668.385 882.008 659.292 883.008 650.012L894.643 542.119C895.872 530.721 899.052 519.618 904.044 509.298L915.825 484.941C926.26 463.367 928.6 438.763 922.42 415.609L915.185 388.502C904.037 346.739 867.318 316.865 824.161 314.447L775.91 311.744C740.097 309.738 708.102 288.704 692.061 256.622L681 234.5L640.978 159.459C633.118 144.721 621.692 132.187 607.742 123.001L513.297 60.8057C508.442 57.608 503.316 54.8399 497.98 52.5328L314.491 -26.79C301.963 -32.206 288.459 -35 274.81 -35H101.499C16.9703 -35 -29.4301 63.3683 24.3297 128.599L36.9212 143.877C43.2712 151.582 50.7395 158.293 59.0773 163.786L194.5 253L323.092 318.924C342.19 328.714 363.93 332.101 385.1 328.584L492.145 310.802C501.235 309.292 509.796 305.512 517.035 299.813V299.813C546.333 276.749 589.612 289.085 602.346 324.13L628.539 396.214C634.096 411.507 635.837 427.924 633.612 444.042L604.091 657.869C601.422 677.2 593.155 695.328 580.31 710.018L506 795L452.796 856.443C437.121 874.544 415.471 886.421 391.782 889.913L212.339 916.364C189.792 919.688 166.785 915.21 147.131 903.672L45.2604 843.871C36.4262 838.685 31 829.208 31 818.964V818.964C31 798.584 51.539 784.614 70.4937 792.102L112 808.5L190.566 840.077C205.17 845.946 221.825 839.511 228.687 825.347V825.347C235.18 811.947 230.842 795.811 218.505 787.473L175.792 758.608C147.987 739.818 133.037 707.047 137.071 673.732L142.451 629.292C143.479 620.799 145.593 612.473 148.741 604.519L226.5 408L302.947 253.845C312.402 234.78 327.692 219.228 346.594 209.451L491.153 134.68C500.983 129.595 511.589 126.178 522.538 124.567L657.611 104.692C678.345 101.641 699.514 105.182 718.127 114.814L818.72 166.869C827.852 171.595 836.201 177.701 843.471 184.971L869.5 211L881.673 220.192C904.866 237.705 918.5 265.084 918.5 294.147V294.147C918.5 314.448 925.166 334.187 937.475 350.331L952.232 369.688C958.702 378.175 963.772 387.642 967.25 397.732L983.968 446.237C992.631 471.372 990.928 498.921 979.237 522.798L973.746 534.012C966.114 549.599 963.639 567.209 966.681 584.296L972.148 615.005C976.088 637.14 963.262 658.833 941.968 666.048V666.048C927.338 671.005 916.225 683.05 912.458 698.031L896.5 761.5L877.6 847.602C872.38 871.38 858.665 892.438 839.027 906.827L832.712 911.453C823.662 918.084 813.379 922.842 802.466 925.447V925.447C766.276 934.086 728.703 917.975 710.012 885.805L705.579 878.174C695.141 860.209 690.803 839.347 693.213 818.71L716.685 617.758C717.559 610.277 717.585 602.72 716.762 595.233L706.289 499.929C704.144 480.409 707.793 460.69 716.782 443.231L732.78 412.159C746.81 384.907 747.568 352.725 734.835 324.844L672.754 188.903C663.083 167.725 663.257 143.356 673.23 122.319L675.304 117.945C684.276 99.0204 684.146 77.0417 674.953 58.2243V58.2243C664.153 36.1185 642.379 21.4548 617.835 19.7582L477.395 10.0504C455.322 8.52456 434.716 21.185 426.101 41.5654V41.5654C422.123 50.9779 421.017 61.3567 422.922 71.3963L456.329 247.424C458.1 256.76 458.532 266.302 457.612 275.76L444.551 409.9C441.959 436.518 450.137 463.064 467.258 483.609L485.5 505.5L497.131 518.446C522.515 546.699 565.942 549.174 594.372 523.986V523.986C598.113 520.672 601.483 516.961 604.424 512.92L689.5 396L778.517 252.738C783.152 245.278 788.75 238.462 795.165 232.465L962 76.5L1022 14.2371C1034.75 1.00207 1050.91 -8.46195 1068.69 -13.1154L1162.6 -37.6933C1199.56 -47.3659 1238.8 -35.1349 1263.72 -6.17561L1278.25 10.7116C1290.5 24.949 1298.5 42.3487 1301.32 60.9182L1304.87 84.3017C1307.57 102.103 1305.42 120.305 1298.64 136.984L1264.87 220.045C1257.45 238.276 1255.59 258.288 1259.5 277.576L1272.01 339.294C1279.12 374.374 1304.43 402.978 1338.39 414.297L1372.18 425.562C1427.76 444.088 1487.29 411.083 1501.02 354.129L1506.07 333.18C1512.42 306.859 1507.82 279.089 1493.33 256.219L1440.07 172.177C1427.13 151.753 1407.23 136.71 1384.05 129.833L1283.5 100L1182.17 67.6905C1158.57 60.1658 1133.01 61.6681 1110.46 71.9062L1099.8 76.7441C1083.56 84.1138 1069.59 95.6908 1059.33 110.276L997.204 198.617C985.357 215.461 979 235.551 979 256.144V350.165C979 362.612 981.324 374.95 985.852 386.545L1013.8 458.108C1020.79 475.991 1022.47 495.506 1018.67 514.323L1018.47 515.279C1011.65 549.017 987.945 576.872 955.736 589.015L851 628.5V628.5C826.134 636.697 799.428 622.639 792.111 597.5L773.884 534.878C763.281 498.451 726.115 476.609 689.132 485.072V485.072C658.211 492.147 635.626 518.716 633.622 550.372L629 623.412Z" stroke="#7A1D00"/>
</svg>
