<svg width="1440" height="900" viewBox="0 0 1440 900" fill="none" xmlns="http://www.w3.org/2000/svg">
<path d="M772.703 218.449L815.073 213.155C821.206 212.389 827.422 213.631 832.788 216.697L834.891 217.897C842.497 222.242 847.191 230.329 847.191 239.088V239.088C847.191 246.504 843.819 253.517 838.028 258.148L819.942 272.61C816.524 275.343 812.867 277.761 809.013 279.835L793.145 288.376C779.727 295.598 764.727 299.378 749.488 299.378V299.378C739.131 299.378 728.847 297.631 719.07 294.211L683.141 281.641C673.811 278.377 665.016 273.748 657.044 267.904L632.454 249.879C624.521 244.064 617.49 237.111 611.586 229.243L605.506 221.139C596.24 208.79 590.53 194.143 588.993 178.781V178.781C588.402 172.871 588.435 166.915 589.091 161.011L589.371 158.489C590.675 146.76 594.045 135.354 599.324 124.8L602.592 118.267C608.002 107.452 615.328 97.7083 624.215 89.5084L652.876 63.0641L682.154 41.7799C686.378 38.7091 690.355 35.3122 694.049 31.6202L720.886 4.79487L743.556 -24.3397M757.688 231.397L774.922 200.248C777.747 195.142 781.275 190.458 785.402 186.332V186.332C796.011 175.728 810.087 169.303 825.048 168.235L833.614 167.623C842.608 166.981 851.716 167.785 860.465 169.971V169.971C877.064 174.119 892.197 183.12 903.709 195.778L911.613 204.468C916.152 209.458 920.154 214.912 923.554 220.738L932.084 235.354C937.917 245.349 940.068 257.07 938.165 268.485V268.485C935.911 281.999 928.164 293.977 916.762 301.575L911.342 305.187C907.449 307.781 903.286 309.945 898.926 311.64L856.361 328.185C850.262 330.556 843.946 332.322 837.502 333.459L800.754 339.941C795.019 340.953 789.206 341.462 783.383 341.462H717.647L622.064 335.49C616.705 335.155 611.382 334.39 606.146 333.2L558.749 322.433C548.163 320.028 538.038 315.915 528.774 310.256L494.622 289.394C487.877 285.274 481.644 280.369 476.055 274.782L467.711 266.442C461.636 260.369 456.368 253.539 452.038 246.12L441.11 227.393C437.639 221.446 434.792 215.157 432.614 208.625L424.833 185.292C421.431 175.091 419.697 164.409 419.697 153.657V130.197C419.697 117.919 421.958 105.745 426.368 94.2856L430.322 84.0084C434.012 74.4191 439.158 65.4556 445.578 57.4338L456.098 44.2897C459.891 39.5509 464.107 35.1672 468.695 31.1929L493.169 9.99127C504.496 0.178208 517.885 -6.96321 532.344 -10.905L546.002 -14.6282L578.388 -24.3397M750.033 237.872L767.165 189.354C768.693 185.024 770.693 180.876 773.127 176.982V176.982C781.204 164.066 793.705 154.529 808.297 150.154L808.967 149.952C814.986 148.148 821.236 147.231 827.519 147.231H848.65C866.768 147.231 884.546 152.153 900.083 161.472L910.721 167.851C920.121 173.489 928.53 180.634 935.612 189L950.055 206.06C957 214.266 962.578 223.537 966.572 233.518L973.496 250.821M750.033 237.872V237.872C747.907 227.244 748.424 216.257 751.54 205.876L759.203 180.342C763.784 165.081 772.755 151.504 784.998 141.306V141.306C798.062 130.424 814.212 123.919 831.171 122.708L834.145 122.496C844.914 121.727 855.734 122.893 866.092 125.938L887.695 132.289C899.455 135.746 910.479 141.336 920.218 148.78L960.542 179.603L994.366 213.412C1001.98 221.024 1008.16 229.944 1012.62 239.745V239.745C1018.83 253.386 1021.52 268.362 1020.45 283.309L1020.1 288.116C1019.27 299.804 1015.93 311.176 1010.32 321.462V321.462C1003.18 334.546 992.599 345.43 979.722 352.938L969.483 358.908C963.538 362.375 957.251 365.218 950.722 367.393L922.01 376.96C915.33 379.186 908.435 380.7 901.438 381.477L795.374 393.256L711.17 396.494H578.388L493.095 385.126C485.213 384.076 477.485 382.089 470.074 379.208L422.936 360.885L368.22 332.35C355.199 325.559 343.833 315.984 334.93 304.304L303.58 263.175C298.962 257.116 295.052 250.551 291.925 243.605L275.113 206.26C270.07 195.059 267.134 183.024 266.452 170.758L264.64 138.161C264.377 133.423 264.451 128.672 264.863 123.945L270.722 56.5897L279.608 12.1768C282.236 -0.95476 289.41 -12.739 299.869 -21.1026V-21.1026M750.033 237.872L738.725 202.079C733.414 185.266 732.867 167.31 737.145 150.205L738.657 144.158C741.863 131.341 748.492 119.637 757.836 110.296V110.296C771.503 96.6356 790.036 88.9615 809.359 88.9615H827.067C833.987 88.9615 840.888 89.6798 847.66 91.1048L882.572 98.4515C893.453 100.741 903.877 104.83 913.413 110.549L938.432 125.554C944.518 129.204 950.199 133.492 955.377 138.345L999.405 179.603L1034.58 222.878C1039.18 228.541 1043.15 234.69 1046.42 241.217L1058.08 264.54C1064.24 276.843 1067.79 290.282 1068.51 304.019L1070.65 344.699M750.033 237.872L732.097 219.944C714.791 202.645 706.362 178.372 709.222 154.07V154.07C710.507 143.154 714.03 132.619 719.57 123.126L723.113 117.055C730.178 104.948 739.814 94.5389 751.341 86.5623V86.5623C767.36 75.477 786.378 69.5385 805.859 69.5385H822.067C832.279 69.5385 842.43 71.1026 852.168 74.1764L960.542 108.385M750.033 237.872L792.135 202.263V202.263C804.725 193.873 819.763 189.944 834.848 191.104L837.853 191.335C848.278 192.137 858.414 195.139 867.594 200.144L875.819 204.628C884.564 209.396 891.522 216.877 895.645 225.944V225.944C901.817 239.516 901.018 255.238 893.504 268.114L890.33 273.553C885.4 282.001 878.418 289.067 870.03 294.097L861.614 299.145C843.837 309.806 823.097 314.451 802.471 312.389L769.465 309.09L704.693 302.615L636.683 286.429L526.522 256.669C520.093 254.933 513.854 252.558 507.897 249.581L468.275 229.778C453.397 222.343 440.609 211.314 431.069 197.691L421.551 184.1C407.818 164.49 401.576 140.604 403.959 116.782L406.743 88.9615L420.651 25.0095C422.17 18.0276 422.936 10.903 422.936 3.75776V-34.0513M973.496 250.821L968.462 269.69C963.301 289.036 952.451 306.387 937.318 319.497L929.612 326.172C918.002 336.23 904.231 343.478 889.367 347.353L846.393 358.559C840.46 360.106 834.398 361.104 828.283 361.541L746.795 367.359H631.674C626.385 367.359 621.105 366.939 615.882 366.104L542.764 354.41L497.384 345.338C484.58 342.779 472.401 337.736 461.535 330.495L426.491 307.142C421.969 304.129 417.701 300.753 413.728 297.047L383.407 268.759C375.271 261.17 368.46 252.275 363.252 242.444L351.151 219.596C345.089 208.15 341.308 195.634 340.018 182.746L336.49 147.474C335.827 140.854 335.827 134.184 336.49 127.565L340.861 83.8747C341.599 76.4982 343.154 69.2266 345.5 62.1941L351.792 43.3256C353.876 37.0768 356.572 31.0492 359.841 25.3306L372.497 3.19202C378.016 -6.46237 385.107 -15.1285 393.478 -22.4497L406.743 -34.0513M973.496 250.821L960.542 309.09L956.793 325.326C947.37 366.143 913.505 396.76 871.948 402.035L533.048 445.051H400.266L235.098 435.34L186.519 425.628L137.94 409.442L76.4066 390.019L60.0049 382.993C55.8375 381.208 51.869 378.99 48.1646 376.376V376.376C20.3116 356.724 12.4496 318.851 30.1793 289.736L44.0208 267.006L76.7307 217.963C80.8203 211.831 84.2194 205.266 86.8662 198.388L92.4061 183.99C96.8155 172.531 99.0768 160.357 99.0768 148.079V126.376C99.0768 120.866 98.6213 115.365 97.715 109.929L92.5996 79.25L76.4066 14.5064L66.6909 -37.2885M740.317 205.5L744.406 174.85C745.972 163.109 750.528 151.966 757.638 142.491V142.491C763.303 134.94 770.455 128.629 778.652 123.947L785.917 119.798C802.659 110.235 821.809 105.716 841.059 106.785L860.377 107.858C866.686 108.208 872.947 109.156 879.076 110.687L880.031 110.926C890.455 113.531 900.392 117.799 909.458 123.566L931.394 137.519L963.313 159.607C970.076 164.287 976.235 169.783 981.652 175.971L1012.53 211.249C1016.73 216.038 1020.45 221.216 1023.66 226.712L1034.32 244.983C1039.09 253.15 1042.67 261.951 1044.96 271.124L1047.64 281.831C1052.07 299.536 1050.71 318.195 1043.76 335.07V335.07C1036.03 353.823 1021.88 369.214 1003.85 378.487L937.734 412.472C925.019 419.009 911.05 422.743 896.77 423.423L850.43 425.628L717.647 432.103L588.063 435.115C581.628 435.264 575.194 434.792 568.85 433.705L465.037 415.917L390.066 393.712C381.787 391.261 373.861 387.747 366.485 383.259L310.27 349.056C305.504 346.156 300.988 342.863 296.771 339.209L260.378 307.682C256.484 304.309 252.858 300.641 249.53 296.71L236.18 280.94C224.862 267.57 217.254 251.46 214.119 234.225L205.95 189.314L203.058 119.937C202.828 114.403 203.057 108.86 203.744 103.364L211.284 43.0727C212.045 36.9901 213.363 30.9903 215.222 25.1492L235.098 -37.2885M1070.65 344.699L1068.37 354.571C1063.55 375.488 1052.11 394.296 1035.77 408.214L983.795 452.468C976.96 458.288 969.373 463.16 961.238 466.955L779.181 551.878L699.103 587.453C694.201 589.63 689.483 592.199 684.994 595.133L613.512 641.85C609.533 644.451 605.744 647.332 602.174 650.472L536.708 708.057C529.98 713.975 524.078 720.77 519.161 728.261L458.56 820.564L404.041 917.445C401.528 921.911 399.362 926.564 397.562 931.362L390.55 950.051M1070.65 344.699L1074.48 332.265C1080.43 312.953 1080.38 292.292 1074.35 273.006L1070.79 261.616C1068.55 254.442 1065.5 247.544 1061.71 241.052L1051.27 223.15C1046.94 215.73 1041.67 208.9 1035.59 202.827L1012.36 179.603L979.973 147.231L957.023 126.377C948.635 118.754 939.011 112.612 928.563 108.216L893.171 93.3199C886.289 90.4234 879.104 88.3069 871.751 87.0098L841.111 81.6051C832.25 80.0422 823.22 79.6822 814.263 80.5348L796.352 82.2399C773.142 84.4494 752.089 96.7843 738.814 115.951V115.951C733.384 123.791 729.416 132.548 727.102 141.8L722.331 160.875C719.237 173.246 718.538 186.094 720.271 198.728L722.088 211.974M911.963 101.229L960.514 122.2C969.126 125.92 977.171 130.833 984.414 136.795L1019.67 165.818C1025.57 170.676 1030.9 176.193 1035.54 182.263L1062.64 217.684C1067.96 224.638 1072.34 232.261 1075.68 240.357L1088.22 270.805C1091.61 279.027 1093.88 287.663 1094.99 296.486L1097.79 318.878C1099.12 329.548 1098.73 340.363 1096.62 350.906L1087.41 396.92C1084.9 409.468 1080 421.417 1072.99 432.12L1022.07 509.795L924.917 626.333L779.181 775.244L670.129 923.61C665.124 930.42 661.002 937.836 657.863 945.682L656.114 950.051M1041.51 441.814L750.033 655.468L623.728 775.244M1041.51 441.814V441.814C1045.54 437.869 1051.77 443.249 1048.46 447.818L980.798 541.03C980.249 541.786 979.628 542.487 978.944 543.122L889.293 626.333L711.17 755.821L639.921 820.564L542.764 937.103M1041.51 441.814L937.324 555.14C933.378 559.432 929.065 563.37 924.434 566.91L821.282 645.756L698.216 742.872L623.192 811.863C619.238 815.5 615.583 819.449 612.263 823.673L581.627 862.647L516.855 943.577M623.728 775.244L484.469 950.051M623.728 775.244L644.463 741.564C647.904 735.975 651.887 730.738 656.354 725.93L689.298 690.467C690.921 688.72 692.368 686.817 693.619 684.786L708.133 661.211C712.994 653.315 709.226 642.951 700.43 640.02V640.02C698.963 639.531 697.428 639.282 695.882 639.282H685.234C670.43 639.282 655.915 643.389 643.305 651.145L628.617 660.18C623.211 663.505 618.134 667.338 613.454 671.626L581.627 700.788L548.512 736.647C544.687 740.789 541.218 745.248 538.144 749.975L506.019 799.377C502.456 804.856 499.439 810.671 497.011 816.739L483.963 849.346C482.144 853.891 480.661 858.564 479.526 863.327L465.037 924.154M960.542 108.385L1008.38 140.264C1015.32 144.89 1021.66 150.367 1027.24 156.567L1047.98 179.603M960.542 108.385L1080.18 195.888C1088.89 202.254 1096.5 209.986 1102.74 218.785L1138.39 269.093C1145 278.424 1149.96 288.819 1153.06 299.826L1168.91 356.171C1174.52 376.087 1173.81 397.251 1166.88 416.746L1092.55 625.869C1090.91 630.488 1088.93 634.981 1086.63 639.311L979.973 839.987L931.394 933.865M759.749 950.051L827.759 807.615L912.981 664.627C916.61 658.538 920.876 652.853 925.707 647.666L1000.92 566.919C1004.22 563.371 1007.27 559.587 1010.02 555.597L1091.72 437.333C1097.08 429.569 1101.32 421.085 1104.3 412.133L1112.35 388.009C1116.88 374.401 1118.44 359.977 1116.91 345.715L1111.44 294.659C1110.17 282.794 1106.78 271.253 1101.44 260.58L1083.61 224.923M361.403 943.577L390.55 882.071L458.56 775.244L496.591 713.837C499.301 709.461 502.345 705.3 505.695 701.393L558.956 639.282L605.12 598.568C611.028 593.357 617.53 588.863 624.493 585.178L669.069 561.59L706.081 546.791C713.762 543.72 721.795 541.614 729.995 540.521L747.187 538.23C759.568 536.58 772.154 538.852 783.175 544.728L797.665 552.453C808.215 558.077 814.805 569.058 814.805 581.013V581.013L810.967 615.536C809.232 631.147 803.844 646.13 795.239 659.27L691.739 817.327L639.921 907.968L620.49 943.577M303.108 943.577L371.118 839.987L418.731 741.828C421.528 736.063 424.872 730.58 428.718 725.454L481.23 655.468L553.079 580.658C556.99 576.586 561.239 572.852 565.781 569.497L617.724 531.12C628.106 523.45 639.874 517.863 652.38 514.666L706.679 500.785C716.887 498.176 727.444 497.196 737.959 497.882L795.181 501.617C812.006 502.715 827.857 509.892 839.782 521.812V521.812C852.82 534.845 860.145 552.524 860.145 570.959V581.248C860.145 593.91 857.596 606.443 852.649 618.099L818.532 698.482C816.053 704.323 814.136 710.386 812.806 716.59L795.374 797.904L759.749 907.968L740.317 950.051M267.483 937.103L322.539 862.647L377.595 765.532L416.53 679.357C420.775 669.962 426.447 661.28 433.346 653.618L475.54 606.756C479.327 602.55 483.464 598.673 487.907 595.167L542.764 551.878L593.308 513.987C602.719 506.931 613.301 501.592 624.568 498.213L690.64 478.4C699.959 475.605 709.635 474.186 719.364 474.186H770.908C776.414 474.186 781.91 474.641 787.341 475.545L837.475 483.897M837.475 483.897L859.499 491.236C870.536 494.913 880.43 501.391 888.215 510.036V510.036C899.333 522.385 905.486 538.413 905.486 555.029V555.846C905.486 559.669 905.17 563.485 904.541 567.255L900.871 589.265C899.633 596.689 897.561 603.949 894.695 610.907L876.338 655.468L853.247 724.712C851.372 730.333 849.002 735.776 846.163 740.978L792.135 839.987L750.033 950.051M837.475 483.897L669.069 519.506L565.434 551.878L458.56 600.436L367.795 642.774C363.585 644.739 358.995 645.756 354.348 645.756V645.756C336.781 645.756 322.539 631.515 322.539 613.947V596.148C322.539 590.418 323.532 584.73 325.474 579.338L345.832 522.813C349.635 512.256 349.946 500.757 346.72 490.01V490.01C343.629 479.711 337.443 470.613 329.001 463.951L293.935 436.279C285.789 429.851 282.397 419.099 285.38 409.161V409.161C288.278 399.506 296.634 392.494 306.645 391.317L400.266 380.308L591.342 383.545L837.475 396.494L847.383 398.38C875.777 403.786 890.328 435.612 875.842 460.623V460.623C871.932 467.373 866.218 472.899 859.342 476.582L788.279 514.634C782.23 517.874 775.862 520.482 769.278 522.418L614.013 568.064L531.786 595.461C521.893 598.757 512.576 603.581 504.174 609.756L455.192 645.756M753.272 241.109L721.606 187.115C707.062 162.314 706.363 131.759 719.758 106.319V106.319C726.851 92.8481 737.506 81.5835 750.562 73.7534L779.181 56.5897M753.272 241.109L679.847 187.476C672.883 182.389 667.922 175.021 665.83 166.654V166.654M753.272 241.109L686.065 198.19C656.566 179.351 642.407 143.767 650.899 109.811V109.811C654.317 96.1456 661.222 83.6002 670.94 73.4014L704.854 37.8072C715.401 26.7371 728.347 18.2332 742.695 12.9492L830.914 -19.5384C839.565 -22.724 848.614 -24.6982 857.805 -25.4049L1001.98 -36.4902C1008.88 -37.0209 1015.82 -36.8334 1022.68 -35.9306L1121.94 -22.8757C1130.89 -21.699 1139.64 -19.3168 1147.94 -15.7938L1349.17 69.5385L1439.85 114.859M753.272 241.109L763.355 233.046C767.361 229.842 772.121 227.718 777.181 226.875L784.759 225.612C787.417 225.17 790.144 225.755 792.387 227.249V227.249C796.12 229.737 797.885 234.303 796.797 238.655L794.9 246.239C793.169 253.161 788.145 258.79 781.464 261.295L771.519 265.023C768.006 266.339 764.333 267.178 760.597 267.518L744.03 269.023C735.159 269.829 726.216 268.938 717.679 266.396V266.396C711.823 264.652 706.22 262.151 701.012 258.954L698.833 257.617C672.29 241.326 656.114 212.417 656.114 181.274V153.73C656.114 136.729 660.448 120.009 668.707 105.15L682.444 80.4345C686.466 73.1985 691.371 66.4899 697.046 60.4626L720.211 35.8602C733.339 21.918 750.194 12.0384 768.773 7.39575L843.952 -11.391L945.118 -22.6267C955.339 -23.7619 965.674 -23.3136 975.759 -21.2975L1099.31 3.40222C1103.95 4.32949 1108.52 5.58468 1112.98 7.15835L1271.45 63.0641L1439.85 147.231M753.272 241.109L766.226 237.872L772.53 236.612C777.124 235.693 781.109 239.873 779.972 244.418V244.418C779.475 246.406 778.053 248.034 776.151 248.795L770.233 251.161C765.594 253.016 760.408 252.953 755.815 250.985L740.317 244.346L693.394 218.449V218.449C664.326 204.433 644.98 175.936 642.68 143.748L639.921 105.147L635.092 68.9467C633.998 60.7405 631.888 52.702 628.812 45.0157L623.713 32.2723C621.568 26.9128 619.891 21.3777 618.702 15.7289L607.535 -37.2885M779.181 56.5897L890.18 62.002C904.533 62.7018 918.567 66.487 931.325 73.0997L999.405 108.385L1141.22 194.668C1145.98 197.568 1150.5 200.862 1154.72 204.515L1245.54 283.192L1395.35 408.488C1401.25 413.424 1406.56 419.025 1411.18 425.179L1443.09 467.712M779.181 56.5897L866.226 50.7893C872.95 50.3412 879.703 50.574 886.38 51.4842L1005.12 67.6691C1014.22 68.9094 1023.11 71.3975 1031.53 75.063L1212.96 154.041C1217.4 155.973 1221.69 158.224 1225.8 160.777L1433.38 289.667M779.181 56.5897L1012.61 86.8914C1023.17 88.2627 1033.44 91.3129 1043.05 95.9267L1187.33 165.264C1193.73 168.34 1199.79 172.089 1205.39 176.448L1342.7 283.192L1439.85 367.359M814.805 63.0641L897.581 80.1828C904.986 81.7141 912.193 84.0803 919.064 87.236L1028.55 137.519L1106.28 186.077L1219.63 276.718L1300.83 360.892C1304.98 365.195 1308.74 369.861 1312.06 374.835L1357.64 443.186C1362.77 450.867 1366.8 459.22 1369.63 468.008L1423.56 635.404C1425.78 642.285 1427.24 649.387 1427.93 656.584L1439.85 781.718V807.615M1047.98 179.603L1068.07 201.911C1074.08 208.589 1079.17 216.048 1083.19 224.086L1083.61 224.923M1047.98 179.603L1076.17 205.218C1081.12 209.711 1085.6 214.688 1089.55 220.074L1110.41 248.505C1116.26 256.479 1120.89 265.276 1124.16 274.61L1134.57 304.342C1139.4 318.13 1141.15 332.809 1139.69 347.345L1130.73 436.975C1129.55 448.74 1126.3 460.204 1121.12 470.833L1067.42 581.013L963.78 762.295L876.338 930.628M1083.61 224.923L1105.09 260.718C1110.17 269.18 1113.97 278.347 1116.37 287.921L1122.47 312.327L1126.34 341.305C1128.06 354.233 1127.24 367.374 1123.92 379.987L1115.25 412.907C1113.59 419.215 1111.32 425.345 1108.46 431.209L1054.46 542.167L976.734 661.942L866.622 839.987L814.805 933.865M1022.07 140.756L1071.05 175.314C1075.1 178.169 1078.93 181.321 1082.51 184.743L1141.9 241.532C1148.35 247.697 1153.94 254.696 1158.54 262.345L1161.33 267.006M1035.03 920.917L1121.86 759.727C1124.42 754.972 1126.59 750.018 1128.36 744.913L1187.75 572.738C1189.57 567.473 1190.94 562.066 1191.86 556.573L1204.07 483.335C1205.8 472.984 1205.88 462.426 1204.32 452.048L1188.73 348.145C1187.74 341.548 1186.09 335.066 1183.81 328.798L1161.33 267.006M1012.36 137.519L1121.81 235.404C1130.81 243.457 1138.28 253.075 1143.86 263.791L1168.1 310.396C1174.32 322.351 1178.06 335.439 1179.09 348.874L1186.12 440.155C1186.86 449.842 1186.19 459.586 1184.13 469.079L1173.23 519.205C1171.78 525.863 1169.65 532.355 1166.89 538.581L1093.32 704.026L1028.55 862.647L996.166 930.628M1109.52 199.026L1158.1 237.872M1158.1 237.872L1198.37 294.236C1203.88 301.941 1208.26 310.39 1211.39 319.328L1229.34 370.596M1158.1 237.872L1203.44 273.481M1229.34 370.596L1235.34 460.545C1235.66 465.317 1235.64 470.105 1235.27 474.873L1222.87 636.045L1209.91 843.224V933.865M1229.34 370.596L1248.78 513.032L1252.01 645.756V852.936L1255.25 937.103M1313.55 920.917L1300.59 729.923L1268.21 461.237L1254.13 396.508C1252.72 390.04 1250.68 383.728 1248.02 377.664L1215.9 304.268C1209.83 290.399 1200.69 278.089 1189.17 268.267L1101.96 193.916C1098.37 190.852 1094.56 188.046 1090.57 185.52L999.405 127.808M1203.44 273.481L1250.08 336.567C1255.66 344.109 1260.15 352.398 1263.42 361.19L1297.67 453.369C1299.62 458.605 1301.12 463.995 1302.16 469.482L1313.55 529.218L1345.93 716.974L1358.89 924.154M1203.44 273.481L1256.16 332.038C1259.87 336.155 1263.23 340.573 1266.2 345.246L1301.31 400.39C1305.14 406.408 1308.31 412.818 1310.78 419.511L1349.71 525.138C1351.51 530.009 1352.92 535.012 1353.94 540.102L1378.32 661.942L1400.99 807.615L1410.71 924.154M1161.33 267.006L1202.33 341.28C1209.46 354.19 1213.64 368.516 1214.58 383.231L1222.12 501.321C1222.62 509.102 1222.2 516.914 1220.88 524.598L1203.44 626.333L1161.33 814.09L1151.62 920.917M1433.38 231.397L1349.17 182.84L1177.53 98.6731L997.522 38.6974C988.035 35.5367 978.129 33.8166 968.132 33.5945L848.493 30.937C841.17 30.7744 833.851 31.4168 826.669 32.8527L778.253 42.5317C753.844 47.4113 732.133 61.2187 717.363 81.2547L711.407 89.3341C700.656 103.918 694.069 121.149 692.351 139.186L691.083 152.491C689.392 170.242 692.478 188.123 700.021 204.28L707.818 220.981C710.041 225.741 711.548 230.803 712.291 236.003L713.037 241.223C713.934 247.5 713.087 253.903 710.588 259.731V259.731C706.827 268.504 699.604 275.331 690.632 278.592L684.004 281.001C674.279 284.536 663.707 285.019 653.699 282.387L607.535 270.244L534.965 250.714C527.237 248.634 519.788 245.635 512.776 241.78L480.613 224.098C466.17 216.158 454.091 204.529 445.608 190.397V190.397C435.103 172.896 430.634 152.429 432.889 132.141L433.431 127.27C435.051 112.7 439.854 98.6641 447.501 86.1565L462.123 62.2403C468.334 52.0806 476.31 43.112 485.675 35.7569L503.791 21.5292C512.441 14.7358 522.152 9.41589 532.534 5.78384L581.627 -11.391M1430.14 186.077L1196.96 69.5385L1038.18 13.6963C1027.52 9.94725 1016.3 8.03205 1005 8.03205H864.607C857.336 8.03205 850.087 8.82499 842.988 10.3968L764.878 27.692C737.603 33.7312 714.098 50.9037 700.054 75.0517L686.269 98.7519C681.307 107.285 677.635 116.505 675.373 126.114L665.83 166.654M231.859 933.865L296.631 807.615L361.403 687.84L436.066 577.275C444.477 564.82 455.586 554.421 468.569 546.852L551.419 498.543C560.702 493.131 570.795 489.25 581.312 487.05L696.425 462.967C701.927 461.816 707.517 461.131 713.134 460.919L860.45 455.362C870.894 454.968 881.285 457.045 890.776 461.423L892.159 462.061C908.844 469.759 921.344 484.347 926.394 502.014V502.014C929.661 513.443 929.633 525.562 926.314 536.975L850.43 797.904L792.135 937.103M261.006 483.897L285.867 505.986C288.713 508.515 291.223 511.398 293.335 514.565V514.565C299.614 523.979 302.072 535.43 300.211 546.591L298.247 558.371C297.174 564.805 295.263 571.072 292.563 577.01L268.566 629.779C265.693 636.097 263.486 642.697 261.979 649.472L252.765 690.918C251.787 695.318 251.433 699.834 251.715 704.333L252.429 715.763C253.61 734.64 269.264 749.346 288.178 749.346V749.346C293.737 749.346 299.219 748.052 304.191 745.567L343.148 726.098C355.194 720.077 365.899 711.687 374.623 701.428L406.123 664.385C412.97 656.333 421.05 649.418 430.063 643.896L508.874 595.614C514.183 592.361 519.784 589.612 525.605 587.401L678.784 529.218L856.761 486.277C863.311 484.696 869.643 482.322 875.617 479.207L908.81 461.896C927.211 452.3 935.481 430.422 928.028 411.053V411.053C925.977 405.722 922.83 400.882 918.79 396.844L896.295 374.359C891.638 369.704 886.533 365.52 881.053 361.868L846.469 338.822C830.046 327.878 810.751 322.038 791.016 322.038H740.317L623.773 310.09C617.281 309.425 610.741 309.396 604.244 310.005L510.378 318.801L430.069 333.136C423.173 334.367 416.168 334.87 409.167 334.636L322.539 331.75H265.98C258.389 331.75 250.84 332.885 243.584 335.116L237.947 336.85C221.649 341.863 208.111 353.327 200.483 368.577V368.577C191.693 386.15 191.712 406.876 200.502 424.449V424.449C204.096 431.632 209.047 438.071 215.071 443.384L261.006 483.897ZM261.006 483.897V483.897C273.202 512.343 271.636 545.055 256.6 572.107L248.052 587.487L218.03 642.889C210.102 657.518 205.95 673.894 205.95 690.533V716.974L209.673 744.882C211.444 758.162 218.141 770.291 228.434 778.865V778.865C242.645 790.702 261.966 794.347 279.512 788.501L280.438 788.192L325.701 766.648C340.632 759.541 353.568 748.841 363.351 735.508L384.073 707.263L399.537 689.597C404.327 684.126 409.699 679.193 415.558 674.886L455.192 645.756M730.602 318.801L581.627 283.192M581.627 283.192L465.037 299.378H371.3C364.718 299.378 358.152 298.728 351.697 297.438L280.438 283.192L272.011 281.361C232.246 272.72 191.28 289.566 169.096 323.68V323.68C165.606 329.047 162.651 334.743 160.272 340.687L157.024 348.804C148.898 369.111 148.432 391.68 155.715 412.304V412.304C161.041 427.389 170.286 440.785 182.501 451.116L205.95 470.949L227.485 494.866C232.468 500.4 235.869 507.174 237.33 514.477V514.477C239.99 527.77 235.983 541.524 226.601 551.31L186.732 592.895C173.889 606.29 165.027 622.995 161.137 641.14L151.104 687.94C148.82 698.592 148.293 709.546 149.542 720.369L152.899 749.449C155.775 774.364 167.909 797.289 186.894 813.678L209.618 833.295C221.971 843.959 237.371 850.459 253.63 851.873V851.873C283.793 854.494 312.73 839.342 327.757 813.057L341.971 788.192L373.47 739.533C376.216 735.29 379.28 731.263 382.635 727.484L455.192 645.756M581.627 283.192L497.274 259.479C484.546 255.9 472.653 249.833 462.284 241.628L418.578 207.042C406.532 197.51 396.844 185.33 390.265 171.448L383.101 156.331C375.263 139.791 372.115 121.418 373.999 103.212L377.365 70.6884C379.615 48.9415 374.677 27.0561 363.306 8.38289L335.494 -37.2885M264.245 -37.2885L169.235 176.39C163.548 189.18 160.61 203.021 160.61 217.018V236.369C160.61 250.17 157.753 263.822 152.219 276.465L137.94 309.09L126.303 346.313C123.283 355.971 121.747 366.032 121.747 376.152V379.154C121.747 398.903 127.595 418.21 138.553 434.641L141.122 438.492C145.463 445 150.552 450.977 156.286 456.299L189.66 487.275C191.874 489.331 193.807 491.67 195.409 494.231V494.231C203.558 507.264 202.043 524.126 191.701 535.498L180.895 547.379C178.175 550.369 175.137 553.054 171.833 555.385L141.278 576.944C128.438 586.003 117.914 597.961 110.559 611.848L100.911 630.064C95.4131 640.444 91.7871 651.712 90.1992 663.351L84.7279 703.457C83.5042 712.427 83.5042 721.522 84.7279 730.491L90.5471 773.147C91.9022 783.08 95.2003 792.649 100.253 801.307V801.307C109.91 817.854 125.434 830.165 143.746 835.797L147.375 836.913C154.015 838.955 160.383 841.793 166.341 845.367L203.099 867.412C204.997 868.55 206.795 869.845 208.475 871.285V871.285C220.656 881.721 225.302 898.495 220.228 913.711L212.427 937.103M167.087 943.577L168.648 936.815C173.759 914.677 167.749 891.438 152.547 874.554V874.554C149.295 870.942 145.674 867.681 141.743 864.824L124.007 851.93C116.066 846.158 107.319 841.586 98.0461 838.362L45.3329 820.035C40.1488 818.233 35.1219 816.007 30.3031 813.379L1.91909 797.904L-40.6477 772.962C-70.0942 755.708 -82.3294 719.396 -69.3299 687.84V687.84M-69.3299 687.84L-27.2882 648.028C-14.5199 635.937 1.21104 627.427 18.318 623.355L40.434 618.092C53.4869 614.986 65.7812 609.284 76.5847 601.327L121.747 568.064L155.706 541.953C160.994 537.887 164.838 532.23 166.672 525.816V525.816C169.006 517.65 167.905 508.884 163.624 501.548L154.54 485.983C149.989 478.185 144.039 471.294 136.988 465.656L127.532 458.094C109.153 443.397 96.5455 422.689 91.9284 399.614L90.7315 393.632C85.6938 368.454 90.534 342.303 104.25 320.596L110.966 309.966C118.082 298.705 122.875 286.136 125.066 272.997L137.94 195.788L154.133 131.045L176.803 20.9808L186.519 -43.7628M-69.3299 687.84L-67.1948 680.726C-62.2637 664.296 -52.3372 649.811 -38.7946 639.282V639.282M137.94 -34.0513V56.5897L128.224 137.519L112.193 230.991C109.949 244.08 105.12 256.59 97.9879 267.792L75.3818 303.3C67.5245 315.642 62.4711 329.557 60.578 344.065L58.0413 363.505C55.2467 384.92 59.4605 406.665 70.0522 425.487L77.1429 438.087C80.9572 444.865 85.5491 451.175 90.8257 456.888L118.65 487.018C120.707 489.246 122.491 491.711 123.965 494.362V494.362C132.236 509.244 129.636 527.807 117.594 539.844L90.1282 567.297C81.0853 576.336 70.2123 583.335 58.2399 587.822L12.9381 604.803C3.48748 608.346 -5.37236 613.298 -13.3403 619.493L-38.7946 639.282M-38.7946 639.282L9.96471 594.903C15.3799 589.974 21.32 585.655 27.6783 582.023L63.4523 561.59L95.5139 537.554C99.9427 534.234 103.253 529.642 105.004 524.391V524.391C107.418 517.153 106.682 509.235 102.975 502.566L97.1912 492.159C94.153 486.692 90.1927 481.792 85.4852 477.675L66.6909 461.237L54.7889 447.641C47.6575 439.494 41.8964 430.243 37.7306 420.25L35.5261 414.961C30.4442 402.77 27.8278 389.693 27.8278 376.486V371.75C27.8278 352.001 33.6757 332.694 44.6339 316.263L66.6909 283.192L91.4259 242.734C98.6081 230.987 103.287 217.883 105.169 204.243L113.498 143.885C114.674 135.361 114.745 126.72 113.709 118.177L102.315 24.2179L92.5996 -43.7628M34.305 -34.0513L48.2273 -6.21879C51.8863 1.09602 54.6341 8.8321 56.4091 16.8161L66.6909 63.0641L77.2925 99.094C80.9842 111.64 82.179 124.789 80.8094 137.795L79.7002 148.327C77.5563 168.686 69.2156 187.896 55.805 203.363L34.305 228.16L11.6349 250.821M11.6349 -34.0513L34.305 14.5064L53.7365 69.5385L61.5887 103.55C62.8271 108.914 63.4523 114.401 63.4523 119.906V119.906C63.4523 143.175 52.3163 165.038 33.4954 178.72L27.8278 182.84L-1.3195 202.263M-1.3195 4.79487V4.79487C13.4113 17.4157 23.7462 34.3947 28.1909 53.2765L32.5368 71.7383C33.7137 76.7381 34.4889 81.824 34.855 86.9474L35.3119 93.3401C36.7467 113.418 30.5573 133.3 17.9792 149.015V149.015C13.7665 154.279 8.90528 158.989 3.51106 163.033L-1.3195 166.654M-7.79668 56.5897L0.0580195 61.8239C7.56118 66.8239 13.1835 74.1823 16.0359 82.7357V82.7357C19.4387 92.9399 18.6469 104.078 13.8347 113.698L8.05197 125.259C6.12635 129.108 3.85816 132.777 1.27486 136.22L-14.2739 156.942M757.688 234.635L658.381 88.6584C651.243 78.1658 642.173 69.1278 631.655 62.0268L614.013 50.1154L604.519 44.2757C583.523 31.3609 558.497 26.6557 534.245 31.0634L531.388 31.5824C511.381 35.2187 492.957 44.8684 478.574 59.2447L474.097 63.7199C463.861 73.9513 455.968 86.2826 450.963 99.8621L448.56 106.38C440.476 128.315 441.822 152.616 452.28 173.523V173.523C458.529 186.014 467.771 196.765 479.184 204.818L504.302 222.54C512.622 228.411 521.789 232.976 531.488 236.078L587.478 253.987C594.293 256.167 601.497 256.862 608.603 256.027L621.165 254.55C639.247 252.423 652.876 237.099 652.876 218.892V218.892C652.876 214.322 652.003 209.795 650.306 205.552L644.845 191.906C641.577 183.739 639.4 175.177 638.372 166.442L634.718 135.399C633.893 128.385 630.727 121.855 625.733 116.863V116.863C622.285 113.416 619.687 109.214 618.144 104.589L615.356 96.2266C610.301 81.0679 600.122 68.1443 586.57 59.6779L581.627 56.5897V56.5897C567.211 46.2975 549.073 42.6836 531.814 46.6648L531.225 46.8006C521.772 48.9811 512.948 53.3102 505.439 59.4518L497.21 66.1811C486.676 74.7963 478.083 85.5419 471.995 97.7127L468.374 104.951C464.05 113.596 461.799 123.128 461.799 132.794V132.794C461.799 150.244 469.125 166.892 481.99 178.68L491.28 187.192C497.504 192.895 504.493 197.703 512.044 201.477L548.841 219.867C555.559 223.225 562.664 225.747 569.996 227.375L578.45 229.253C584.822 230.668 591.412 230.796 597.833 229.629L608.569 227.678C618.035 225.958 626.008 219.605 629.8 210.762V210.762C632.169 205.236 632.742 199.105 631.437 193.236L626.967 173.128L622.101 141.516C621.043 134.642 618.306 128.134 614.131 122.571V122.571C611.903 119.601 610.075 116.35 608.696 112.903L607.174 109.101C601.112 93.9516 590.164 81.2607 576.068 73.0417L571.657 70.4695C563.339 65.6196 553.883 63.0641 544.255 63.0641V63.0641C532.761 63.0641 521.563 66.7043 512.267 73.4625L508.21 76.4111C496.958 84.5913 488.405 95.9461 483.649 109.02L481.996 113.564C479.359 120.812 478.354 128.553 479.053 136.234V136.234C480.435 151.436 488.375 165.281 500.799 174.151L517.142 185.819C523.405 190.291 530.182 193.995 537.328 196.852L553.01 203.123C556.968 204.705 561.047 205.964 565.208 206.889L580.003 210.175C585.29 211.349 590.803 210.963 595.874 209.062V209.062C606.784 204.972 614.013 194.543 614.013 182.891V171.524C614.013 168.287 613.658 165.06 612.956 161.9L610.208 149.54C608.433 141.556 605.685 133.82 602.026 126.506L597.489 117.435C593.418 109.297 588.061 101.868 581.625 95.4346L577.422 91.2329C573.772 87.5844 569.557 84.5481 564.941 82.2409V82.2409C552.875 76.2108 538.708 75.58 526.117 80.4202V80.4202C512.177 85.7794 501.335 97.2968 496.941 111.571L494.985 117.924C492.358 126.457 492.465 135.598 495.289 144.069V144.069C498.74 154.417 506.011 163.058 515.617 168.229L531.868 176.976C539.097 180.867 546.828 183.743 554.842 185.523L567.732 188.386C570.497 189 573.348 189.135 576.159 188.783V188.783C588.533 187.237 597.82 176.718 597.82 164.248V160.962C597.82 156.2 596.624 151.515 594.343 147.335L580.844 122.598C579.21 119.602 577.316 116.756 575.184 114.092L563.522 99.5213C556.762 91.0759 545.788 87.2107 535.228 89.5563V89.5563C527.633 91.2434 521.064 95.9762 517.06 102.647L512.955 109.487C507.363 118.802 507.239 130.411 512.632 139.843V139.843C515.393 144.673 519.441 148.641 524.326 151.304L550.351 165.494C551.764 166.264 553.269 166.851 554.831 167.241V167.241C566.797 170.232 578.388 161.181 578.388 148.847V147.231M578.388 147.231L564.212 125.976C560.779 120.829 555.955 116.763 550.3 114.251L537.973 108.774C533.054 106.589 527.298 107.658 523.491 111.463V111.463C519.528 115.424 518.546 121.477 521.052 126.488L523.843 132.067C525.627 135.633 528.36 138.637 531.741 140.749L536.895 143.969C546.854 150.191 558.914 152.097 570.307 149.25L578.388 147.231ZM652.876 -34.0513L655.382 83.6857C655.856 105.984 663.772 127.484 677.87 144.767L751.176 234.635M688.5 -47V-8.93294C688.5 4.4005 685.834 17.5993 680.658 29.8871L671.133 52.498C665.506 65.8566 662.85 80.2789 663.35 94.7658L665.83 166.654M1203.44 -34.0513L1349.17 30.6923L1459.28 98.6731M1300.59 -34.0513L1397.75 14.5064L1459.28 50.1154M1469 182.84L1319.38 189.071C1315.5 189.233 1311.64 189.716 1307.83 190.517L1277.08 196.989C1262.47 200.062 1252.01 212.949 1252.01 227.876V227.876C1252.01 234.381 1254.02 240.727 1257.77 246.046L1313.55 325.276L1361.38 408.938C1364.03 413.583 1366.31 418.433 1368.19 423.443L1404.23 519.506L1439.85 645.756L1459.28 742.872M1459.28 289.667L1396.67 271.258C1371.9 263.975 1346.56 280.835 1343.7 306.499V306.499C1343.04 312.471 1343.68 318.516 1345.58 324.217L1371.84 402.968L1404.23 483.897L1415.6 513.129C1421.96 529.464 1414.55 547.928 1398.66 555.338V555.338C1386.37 561.072 1371.83 558.768 1361.91 549.515L1357.77 545.66C1341.93 530.88 1317.4 530.719 1301.37 545.29L1299.76 546.752C1296.02 550.144 1292.9 554.153 1290.53 558.603L1268.21 600.436L1229.34 687.84L1194.67 794.49C1190.01 808.815 1178.7 819.995 1164.32 824.487L1156.77 826.846C1143.79 830.899 1129.65 826.916 1120.7 816.689V816.689C1115.56 810.816 1112.57 803.366 1112.23 795.568L1110.51 755.948C1109.86 740.949 1112.59 725.995 1118.51 712.196L1128.95 687.84L1151.75 619.461C1155.94 606.903 1157.59 593.638 1156.61 580.436L1151.62 513.032V513.032C1151.62 503.19 1145.8 494.261 1136.8 490.265V490.265C1128.05 486.377 1117.83 487.826 1110.51 494.011L1080.37 519.506L996.166 600.436L957.766 631.143C951.009 636.546 943.579 641.05 935.662 644.541L839.974 686.738C838.311 687.471 836.707 688.333 835.177 689.316L824.701 696.048C809.033 706.116 808.382 728.785 823.445 739.736V739.736C826.293 741.806 829.524 743.287 832.951 744.093L861.644 750.841C875.595 754.122 890.089 754.367 904.142 751.557L947.587 742.872L996.403 732.029C1002.64 730.642 1008.5 727.888 1013.55 723.963L1026.37 713.992C1031.66 709.88 1038.84 709.169 1044.84 712.165V712.165C1050.73 715.112 1054.46 721.14 1054.46 727.733V734.95C1054.46 740.137 1053.07 745.229 1050.44 749.699L1026.73 789.996C1023.63 795.257 1021.02 800.79 1018.94 806.527L983.212 904.731L977.907 920.639C970.957 941.478 986.467 963 1008.43 963V963C1015.2 963 1021.79 960.87 1027.27 956.912L1077.13 920.917L1121.02 888.743C1124.14 886.456 1127.08 883.934 1129.82 881.2V881.2C1137.78 873.247 1147.4 867.16 1157.99 863.378L1187.24 852.936L1219.87 844.24C1230.43 841.424 1240.46 836.894 1249.56 830.83L1268.53 818.188C1279.02 811.203 1290.73 806.261 1303.04 803.622L1317.79 800.463C1325.64 798.782 1333.78 799.006 1341.53 801.118V801.118C1356.56 805.215 1368.84 816.053 1374.77 830.457L1381.53 846.853C1385.82 857.282 1388.04 868.451 1388.04 879.73V904.731M5.15768 409.442L53.7365 474.186L69.8753 494.927C74.1083 500.367 76.4066 507.063 76.4066 513.956V513.956C76.4066 523.579 71.9361 532.655 64.3077 538.521L44.143 554.025C37.6454 559.021 30.2449 562.717 22.3474 564.91L15.9052 566.699C-7.70711 573.255 -32.8041 563.358 -45.5866 542.45V542.45C-54.4354 527.977 -56.0917 510.224 -50.073 494.364L-35.478 455.903C-29.7262 440.745 -11.0525 435.327 1.91909 445.051V445.051L36.8592 477.29C41.5475 481.615 44.9881 487.121 46.8218 493.23V493.23C51 507.151 46.3016 522.215 34.9502 531.292L27.512 537.24C23.4366 540.499 18.8167 543.011 13.8661 544.66L7.34522 546.833C-2.15415 549.998 -12.598 548.368 -20.6813 542.459V542.459C-31.4849 534.562 -35.9829 520.611 -31.8273 507.89L-23.9896 483.897V483.897C-19.1928 472.71 -4.87799 469.455 4.28464 477.469L8.39404 481.063C10.5341 482.935 12.2891 485.205 13.561 487.748L15.8315 492.287C19.2688 499.159 18.9557 507.31 15.0014 513.898L13.8896 515.75C12.417 518.203 10.2754 520.186 7.71595 521.465L5.67484 522.485C-1.43607 526.039 -10.0462 522.472 -12.561 514.931V514.931C-13.6577 511.643 -13.4025 508.053 -11.8516 504.953L-7.79668 496.846M115.27 943.577L223.803 835.091C229.156 829.74 233.885 823.799 237.897 817.381L264.245 775.244L290.154 733.16L322.539 681.365L393.795 577.497C398.095 571.229 403.095 565.471 408.7 560.336L464.727 509C473.5 500.962 483.636 494.554 494.66 490.077L573.9 457.9C579.042 455.812 584.349 454.156 589.766 452.948L655.243 438.352L500.135 457.672C481.436 460.001 463.775 467.567 449.188 479.496L435.89 490.372L391.545 529.157C386.576 533.503 382.049 538.331 378.031 543.569L317.408 622.609C312.214 629.38 306.175 635.459 299.437 640.697L280.438 655.468L240.987 692.085C237.067 695.723 232.861 699.041 228.411 702.007L193.598 725.205C188.887 728.345 183.918 731.079 178.744 733.377L128.224 755.821L72.3684 782.407C64.3016 786.247 55.7568 788.988 46.9619 790.558L-30.4668 804.378M18.112 882.071L154.133 817.327L194.042 793.392C199.807 789.934 205.209 785.904 210.165 781.363L234.722 758.862C239.281 754.685 243.442 750.095 247.153 745.149L280.438 700.788L309.585 665.179L378.266 566.68C382.127 561.143 386.539 556.01 391.435 551.362L440.287 504.972C445.972 499.574 452.273 494.862 459.059 490.935L490.782 472.577C503.683 465.112 518.088 460.624 532.946 459.443L917.142 428.905M18.112 716.974L118.535 699.26C124.979 698.124 131.296 696.357 137.394 693.987L179.334 677.684C184.117 675.825 188.749 673.6 193.19 671.03L248.052 639.282L323.367 586.306C331.408 580.65 338.57 573.839 344.624 566.094L395.63 500.835C409.14 483.55 427.959 471.187 449.187 465.652L483.406 456.729C488.425 455.42 493.538 454.504 498.699 453.988L916.262 412.28M11.6349 661.942L128.224 636.045L207.602 613.375C215.111 611.231 222.343 608.214 229.151 604.387L262.615 585.571C268.008 582.539 273.108 579.012 277.85 575.037L371.118 496.846L387.686 481.469C406.181 464.302 430.481 454.763 455.715 454.763H461.799L526.571 448.288M704.693 943.577L737.124 881.236C743.502 868.977 747.269 855.529 748.189 841.74L752.06 783.699C752.861 771.686 755.825 759.917 760.809 748.958L761.475 747.494C766.753 735.887 769.762 723.378 770.342 710.641L774.79 612.828C775.456 598.177 765.496 585.167 751.178 581.986V581.986C748.272 581.341 745.286 581.129 742.318 581.357L662.591 587.487L602.97 595.433C578.784 598.657 556.611 610.612 540.626 629.047L486.334 691.665C482.937 695.583 479.849 699.76 477.1 704.157L400.266 827.038L348.448 920.917L335.494 950.051M435.89 390.019H353.891C346.119 390.019 338.52 392.319 332.051 396.629L324.373 401.746C312.226 409.841 308.01 425.716 314.54 438.771V438.771C319.443 448.572 329.461 454.763 340.42 454.763H344.235C355.067 454.763 365.293 459.763 371.945 468.312L377.856 475.908C381.885 481.086 384.073 487.46 384.073 494.02V494.02C384.073 500.074 382.21 505.98 378.738 510.938L367.364 527.18C363.408 532.829 360.238 538.989 357.942 545.492L346.383 578.23C343.687 585.864 345.616 594.368 351.343 600.092V600.092C357.419 606.166 366.58 607.93 374.477 604.547L397.017 594.891C403.446 592.137 409.317 588.227 414.337 583.357L497.076 503.086C510.021 490.528 526.121 481.704 543.671 477.549L631.392 456.782C637.067 455.438 642.849 454.594 648.672 454.258L808.328 445.051L881.114 437.256C890.177 436.286 895.889 427.024 892.687 418.49V418.49C890.645 413.048 885.442 409.442 879.629 409.442H821.282L632.233 415.638C626.573 415.823 620.908 415.528 615.299 414.755L435.89 390.019ZM390.55 367.359H311.519C305.93 367.359 300.358 367.993 294.912 369.25L279.103 372.896C267.642 375.54 257.96 383.161 252.698 393.68V393.68C245.901 407.267 247.514 423.55 256.843 435.539L259.604 439.088C262.678 443.038 266.368 446.466 270.533 449.242L317.189 480.332C320.721 482.686 323.752 485.715 326.107 489.246V489.246C331.983 498.056 333.143 509.195 329.208 519.027L322.539 535.692L303.108 610.147L292.322 669.445C290.939 677.045 292.789 684.878 297.425 691.057V691.057C304.669 700.71 317.323 704.573 328.722 700.609L359.96 689.749C375.572 684.321 388.88 673.757 397.709 659.784L422.936 619.859L455.327 581.411C467.996 566.373 484.818 555.404 503.688 549.875L662.591 503.321L830.998 470.949L894.836 454.482C913.87 449.572 923.807 428.62 915.567 410.774V410.774C913.207 405.663 909.521 401.279 904.893 398.076L893.171 389.964C878.053 379.502 859.911 374.307 841.546 375.181L801.851 377.071L711.17 383.545L542.764 377.071L390.55 367.359Z" stroke="#0022D3" stroke-width="3"/>
</svg>
